M48
;GenerationSoftware,Autodesk,EAGLE,9.6.2*%
;CreationDate,2025-06-21T11:51:29Z*%
FMAT,2
ICI,OFF
METRIC,TZ,000.000
T5C0.800
T4C0.813
T3C1.016
T2C1.803
T1C5.000
%
G90
M71
T1
X20000Y104800
X43650Y104700
X43750Y39250
X20050Y39250
T2
X47065Y48200
X43102Y48200
X39140Y48200
T3
X34350Y90180
X31670Y73660
X31670Y71120
X31670Y68580
X31670Y66040
X31670Y63500
X31670Y60960
X31670Y58420
X31670Y55880
X44370Y55880
X44370Y58420
X44370Y60960
X44370Y63500
X44370Y66040
X44370Y68580
X44370Y71120
X44370Y73660
X31570Y97800
X31570Y95260
X31570Y92720
X31570Y90180
X31570Y87640
X31570Y85100
X31570Y82560
X31570Y80020
X44270Y80020
X44270Y82560
X44270Y85100
X44270Y87640
X44270Y90180
X44270Y92720
X44270Y95260
X44270Y97800
X33590Y48080
X31050Y48080
X49320Y68560
X49320Y66020
X49320Y63480
X49320Y60940
X48920Y92740
X48920Y90200
X48920Y87660
X48920Y85120
X52020Y92700
X52020Y90160
X52020Y87620
X52020Y85080
X36990Y71120
X34450Y71120
X36990Y68580
X34450Y68580
X36990Y66040
X34450Y66040
X36890Y95260
X34350Y95260
X36890Y92720
X34350Y92720
X36890Y90180
T4
X51290Y73720
X50150Y97760
X52690Y97760
X48750Y73720
T5
X11430Y91440
X11430Y88900
X11430Y86360
X11430Y83820
X11430Y81280
X11430Y78740
X11430Y76200
X11430Y73660
X11430Y71120
X11430Y68580
X11430Y66040
X11430Y63500
X11430Y60960
X11430Y58420
X11430Y53340
X11430Y50800
X11430Y48260
X26670Y96520
X26670Y93980
X26670Y91440
X26670Y88900
X26670Y86360
X26670Y83820
X26670Y81280
X26670Y78740
X26670Y76200
X11430Y55880
X26670Y71120
X26670Y68580
X26670Y66040
X26670Y63500
X26670Y60960
X26670Y58420
X26670Y55880
X26670Y53340
X26670Y50800
X26670Y48260
X11430Y96520
X11430Y93980
X26670Y73660
M30