G04 EAGLE Gerber RS-274X export*
G75*
%MOMM*%
%FSLAX34Y34*%
%LPD*%
%INBottom Copper*%
%IPPOS*%
%AMOC8*
5,1,8,0,0,1.08239X$1,22.5*%
G01*
%ADD10P,1.704548X8X22.500000*%
%ADD11C,1.574800*%
%ADD12C,1.524000*%
%ADD13R,1.879600X1.879600*%
%ADD14C,1.879600*%
%ADD15C,1.308000*%
%ADD16C,2.705100*%
%ADD17C,1.016000*%
%ADD18C,0.304800*%
%ADD19C,0.406400*%
%ADD20C,0.508000*%

G36*
X546683Y432080D02*
X546683Y432080D01*
X546682Y432081D01*
X546683Y432081D01*
X546377Y581128D01*
X546377Y581148D01*
X546373Y581153D01*
X546367Y581148D01*
X546367Y561506D01*
X545130Y558520D01*
X485530Y498919D01*
X485530Y498917D01*
X485529Y498916D01*
X485529Y498915D01*
X485529Y498914D01*
X485693Y498518D01*
X485693Y465482D01*
X483402Y459952D01*
X479170Y455720D01*
X473641Y453430D01*
X467655Y453430D01*
X462126Y455720D01*
X457894Y459952D01*
X455603Y465482D01*
X455603Y498518D01*
X457894Y504048D01*
X462126Y508280D01*
X467655Y510570D01*
X473641Y510570D01*
X474036Y510406D01*
X474040Y510407D01*
X474042Y510407D01*
X530119Y566485D01*
X530119Y566487D01*
X530121Y566488D01*
X530121Y733120D01*
X530119Y733122D01*
X530119Y733123D01*
X523318Y739925D01*
X523316Y739925D01*
X523315Y739926D01*
X523313Y739925D01*
X523311Y739925D01*
X523311Y739923D01*
X523309Y739921D01*
X523309Y737205D01*
X512900Y737205D01*
X502491Y737205D01*
X502491Y741512D01*
X506050Y745070D01*
X506050Y745072D01*
X506051Y745073D01*
X506050Y745075D01*
X506050Y745077D01*
X506048Y745077D01*
X506046Y745079D01*
X500869Y745079D01*
X500867Y745077D01*
X500865Y745077D01*
X496299Y740511D01*
X496299Y740507D01*
X496298Y740507D01*
X496298Y740506D01*
X496893Y739068D01*
X496893Y735332D01*
X495463Y731879D01*
X492821Y729237D01*
X489368Y727807D01*
X485632Y727807D01*
X482566Y729076D01*
X482565Y729076D01*
X482565Y729077D01*
X449104Y729077D01*
X449102Y729075D01*
X449100Y729075D01*
X448877Y728852D01*
X445518Y727461D01*
X441882Y727461D01*
X438523Y728852D01*
X435952Y731423D01*
X434561Y734782D01*
X434561Y738418D01*
X435952Y741777D01*
X438523Y744348D01*
X441882Y745739D01*
X445518Y745739D01*
X446521Y745324D01*
X446522Y745324D01*
X446523Y745323D01*
X479372Y745323D01*
X479377Y745328D01*
X479376Y745328D01*
X479377Y745328D01*
X479377Y745816D01*
X480613Y748801D01*
X531601Y799789D01*
X531602Y799791D01*
X531603Y799793D01*
X531603Y936007D01*
X531601Y936009D01*
X531601Y936011D01*
X531126Y936486D01*
X531124Y936487D01*
X531123Y936488D01*
X531121Y936487D01*
X531119Y936487D01*
X531119Y936484D01*
X531117Y936483D01*
X531117Y916973D01*
X530227Y916083D01*
X510173Y916083D01*
X509283Y916973D01*
X509283Y918872D01*
X509278Y918877D01*
X509278Y918876D01*
X509278Y918877D01*
X500122Y918877D01*
X500117Y918872D01*
X500118Y918872D01*
X500117Y918872D01*
X500117Y917373D01*
X499227Y916483D01*
X479173Y916483D01*
X478283Y917373D01*
X478283Y919072D01*
X478278Y919077D01*
X478278Y919076D01*
X478278Y919077D01*
X446972Y919077D01*
X446971Y919076D01*
X446970Y919076D01*
X444518Y918061D01*
X440882Y918061D01*
X437523Y919452D01*
X434952Y922023D01*
X433561Y925382D01*
X433561Y929018D01*
X434952Y932377D01*
X437523Y934948D01*
X440882Y936339D01*
X444518Y936339D01*
X446970Y935324D01*
X446971Y935324D01*
X446972Y935323D01*
X478278Y935323D01*
X478283Y935328D01*
X478282Y935328D01*
X478283Y935328D01*
X478283Y937427D01*
X479173Y938317D01*
X499227Y938317D01*
X500117Y937427D01*
X500117Y935128D01*
X500122Y935123D01*
X500122Y935124D01*
X500122Y935123D01*
X509278Y935123D01*
X509283Y935128D01*
X509282Y935128D01*
X509283Y935128D01*
X509283Y937027D01*
X510173Y937917D01*
X529683Y937917D01*
X529684Y937918D01*
X529686Y937918D01*
X529686Y937920D01*
X529688Y937922D01*
X529686Y937923D01*
X529686Y937926D01*
X499246Y968366D01*
X499245Y968366D01*
X499244Y968367D01*
X496179Y969637D01*
X495941Y969875D01*
X495938Y969876D01*
X495937Y969877D01*
X446972Y969877D01*
X446971Y969876D01*
X446970Y969876D01*
X444518Y968861D01*
X440882Y968861D01*
X437523Y970252D01*
X434952Y972823D01*
X433561Y976182D01*
X433561Y979818D01*
X434952Y983177D01*
X437523Y985748D01*
X440882Y987139D01*
X444518Y987139D01*
X446970Y986124D01*
X446971Y986124D01*
X446972Y986123D01*
X497530Y986123D01*
X497531Y986124D01*
X497532Y986124D01*
X499632Y986993D01*
X503368Y986993D01*
X506821Y985563D01*
X509463Y982921D01*
X510733Y979856D01*
X510734Y979855D01*
X510734Y979854D01*
X516482Y974106D01*
X516484Y974105D01*
X516485Y974104D01*
X516487Y974105D01*
X516489Y974105D01*
X516489Y974108D01*
X516491Y974109D01*
X516491Y977595D01*
X526895Y977595D01*
X526895Y967191D01*
X523409Y967191D01*
X523408Y967190D01*
X523406Y967190D01*
X523406Y967188D01*
X523404Y967186D01*
X523406Y967185D01*
X523406Y967182D01*
X544327Y946261D01*
X545622Y944965D01*
X545624Y944965D01*
X545625Y944964D01*
X545627Y944965D01*
X545629Y944965D01*
X545629Y944967D01*
X545631Y944969D01*
X545493Y1012079D01*
X545489Y1012084D01*
X545488Y1012084D01*
X543447Y1012088D01*
X543429Y1012088D01*
X540600Y1012093D01*
X540582Y1012093D01*
X537753Y1012098D01*
X537735Y1012098D01*
X534906Y1012103D01*
X534888Y1012103D01*
X532059Y1012108D01*
X532041Y1012108D01*
X529212Y1012113D01*
X529194Y1012113D01*
X526365Y1012118D01*
X526347Y1012118D01*
X523518Y1012123D01*
X523500Y1012123D01*
X520671Y1012128D01*
X520653Y1012128D01*
X517824Y1012133D01*
X517806Y1012133D01*
X514977Y1012138D01*
X514959Y1012138D01*
X512130Y1012143D01*
X512112Y1012143D01*
X509283Y1012148D01*
X509265Y1012148D01*
X506436Y1012153D01*
X506418Y1012153D01*
X503589Y1012158D01*
X503571Y1012158D01*
X500742Y1012162D01*
X500742Y1012163D01*
X500724Y1012163D01*
X497895Y1012167D01*
X497878Y1012167D01*
X495048Y1012172D01*
X495031Y1012172D01*
X492201Y1012177D01*
X492184Y1012177D01*
X489354Y1012182D01*
X489337Y1012182D01*
X486508Y1012187D01*
X486507Y1012187D01*
X486490Y1012187D01*
X483661Y1012192D01*
X483660Y1012192D01*
X483643Y1012192D01*
X480814Y1012197D01*
X480796Y1012197D01*
X477967Y1012202D01*
X477949Y1012202D01*
X475120Y1012207D01*
X475102Y1012207D01*
X472273Y1012212D01*
X472255Y1012212D01*
X469426Y1012217D01*
X469408Y1012217D01*
X466579Y1012222D01*
X466561Y1012222D01*
X463732Y1012227D01*
X463714Y1012227D01*
X460885Y1012232D01*
X460867Y1012232D01*
X458038Y1012237D01*
X458020Y1012237D01*
X455191Y1012242D01*
X455173Y1012242D01*
X452344Y1012247D01*
X452326Y1012247D01*
X449497Y1012252D01*
X449479Y1012252D01*
X446650Y1012257D01*
X446632Y1012257D01*
X443803Y1012262D01*
X443785Y1012262D01*
X442693Y1012264D01*
X442692Y1012263D01*
X442691Y1012264D01*
X441128Y1011845D01*
X431872Y1011845D01*
X430227Y1012285D01*
X430226Y1012286D01*
X429564Y1012287D01*
X429546Y1012287D01*
X426717Y1012292D01*
X426699Y1012292D01*
X423870Y1012297D01*
X423869Y1012297D01*
X423852Y1012297D01*
X421022Y1012302D01*
X421005Y1012302D01*
X418175Y1012307D01*
X418157Y1012307D01*
X415328Y1012312D01*
X415310Y1012312D01*
X412481Y1012317D01*
X412463Y1012317D01*
X409634Y1012321D01*
X409634Y1012322D01*
X409616Y1012322D01*
X406787Y1012326D01*
X406769Y1012326D01*
X403940Y1012331D01*
X403922Y1012331D01*
X401093Y1012336D01*
X401075Y1012336D01*
X398246Y1012341D01*
X398228Y1012341D01*
X395399Y1012346D01*
X395381Y1012346D01*
X392552Y1012351D01*
X392534Y1012351D01*
X389705Y1012356D01*
X389687Y1012356D01*
X386858Y1012361D01*
X386857Y1012361D01*
X386840Y1012361D01*
X384010Y1012366D01*
X383993Y1012366D01*
X381163Y1012371D01*
X381145Y1012371D01*
X378316Y1012376D01*
X378298Y1012376D01*
X375469Y1012381D01*
X375451Y1012381D01*
X372622Y1012386D01*
X372604Y1012386D01*
X369775Y1012391D01*
X369757Y1012391D01*
X366928Y1012396D01*
X366910Y1012396D01*
X364081Y1012401D01*
X364063Y1012401D01*
X361234Y1012406D01*
X361216Y1012406D01*
X358387Y1012411D01*
X358369Y1012411D01*
X355540Y1012416D01*
X355522Y1012416D01*
X352693Y1012421D01*
X352675Y1012421D01*
X349846Y1012426D01*
X349845Y1012426D01*
X349828Y1012426D01*
X346998Y1012431D01*
X346981Y1012431D01*
X344151Y1012436D01*
X344133Y1012436D01*
X341304Y1012441D01*
X341286Y1012441D01*
X338457Y1012446D01*
X338439Y1012446D01*
X335610Y1012451D01*
X335592Y1012451D01*
X332763Y1012456D01*
X332745Y1012456D01*
X329916Y1012461D01*
X329898Y1012461D01*
X327069Y1012466D01*
X327051Y1012466D01*
X324222Y1012471D01*
X324204Y1012471D01*
X321375Y1012476D01*
X321357Y1012476D01*
X318528Y1012480D01*
X318528Y1012481D01*
X318510Y1012481D01*
X315681Y1012485D01*
X315663Y1012485D01*
X312834Y1012490D01*
X312833Y1012490D01*
X312816Y1012490D01*
X309986Y1012495D01*
X309969Y1012495D01*
X307139Y1012500D01*
X307121Y1012500D01*
X304292Y1012505D01*
X304274Y1012505D01*
X301445Y1012510D01*
X301427Y1012510D01*
X298598Y1012515D01*
X298580Y1012515D01*
X295751Y1012520D01*
X295733Y1012520D01*
X292904Y1012525D01*
X292886Y1012525D01*
X290057Y1012530D01*
X290039Y1012530D01*
X287210Y1012535D01*
X287192Y1012535D01*
X284363Y1012540D01*
X284345Y1012540D01*
X281516Y1012545D01*
X281498Y1012545D01*
X278669Y1012550D01*
X278651Y1012550D01*
X275822Y1012555D01*
X275804Y1012555D01*
X272974Y1012560D01*
X272957Y1012560D01*
X270127Y1012565D01*
X270109Y1012565D01*
X267280Y1012570D01*
X267262Y1012570D01*
X264433Y1012575D01*
X264415Y1012575D01*
X261586Y1012580D01*
X261568Y1012580D01*
X258739Y1012585D01*
X258721Y1012585D01*
X255892Y1012590D01*
X255874Y1012590D01*
X253045Y1012595D01*
X253027Y1012595D01*
X250198Y1012600D01*
X250180Y1012600D01*
X247351Y1012605D01*
X247333Y1012605D01*
X244504Y1012610D01*
X244486Y1012610D01*
X241657Y1012615D01*
X241639Y1012615D01*
X238810Y1012620D01*
X238792Y1012620D01*
X235962Y1012625D01*
X235945Y1012625D01*
X233115Y1012630D01*
X233097Y1012630D01*
X230268Y1012635D01*
X230250Y1012635D01*
X227421Y1012639D01*
X227421Y1012640D01*
X227403Y1012640D01*
X224574Y1012644D01*
X224556Y1012644D01*
X221727Y1012649D01*
X221709Y1012649D01*
X218880Y1012654D01*
X218862Y1012654D01*
X216033Y1012659D01*
X216015Y1012659D01*
X213186Y1012664D01*
X213168Y1012664D01*
X210339Y1012669D01*
X210321Y1012669D01*
X207492Y1012674D01*
X207474Y1012674D01*
X204645Y1012679D01*
X204627Y1012679D01*
X201798Y1012684D01*
X201780Y1012684D01*
X198950Y1012689D01*
X198933Y1012689D01*
X196103Y1012694D01*
X196085Y1012694D01*
X193256Y1012699D01*
X193238Y1012699D01*
X190409Y1012704D01*
X190391Y1012704D01*
X187562Y1012709D01*
X187544Y1012709D01*
X184715Y1012714D01*
X184697Y1012714D01*
X181868Y1012719D01*
X181850Y1012719D01*
X179021Y1012724D01*
X179003Y1012724D01*
X176174Y1012729D01*
X176156Y1012729D01*
X173327Y1012734D01*
X173309Y1012734D01*
X170480Y1012739D01*
X170462Y1012739D01*
X167633Y1012744D01*
X167615Y1012744D01*
X164786Y1012749D01*
X164768Y1012749D01*
X161938Y1012754D01*
X161921Y1012754D01*
X159091Y1012759D01*
X159073Y1012759D01*
X156244Y1012764D01*
X156226Y1012764D01*
X153397Y1012769D01*
X153379Y1012769D01*
X150550Y1012774D01*
X150532Y1012774D01*
X147703Y1012779D01*
X147685Y1012779D01*
X144856Y1012784D01*
X144838Y1012784D01*
X142009Y1012789D01*
X141991Y1012789D01*
X139162Y1012794D01*
X139144Y1012794D01*
X136315Y1012798D01*
X136315Y1012799D01*
X136297Y1012799D01*
X133468Y1012803D01*
X133450Y1012803D01*
X130621Y1012808D01*
X130603Y1012808D01*
X127774Y1012813D01*
X127756Y1012813D01*
X124926Y1012818D01*
X124909Y1012818D01*
X122079Y1012823D01*
X122061Y1012823D01*
X119232Y1012828D01*
X119214Y1012828D01*
X116385Y1012833D01*
X116367Y1012833D01*
X113538Y1012838D01*
X113520Y1012838D01*
X110691Y1012843D01*
X110673Y1012843D01*
X107844Y1012848D01*
X107826Y1012848D01*
X104997Y1012853D01*
X104979Y1012853D01*
X102150Y1012858D01*
X102132Y1012858D01*
X99303Y1012863D01*
X99285Y1012863D01*
X96456Y1012868D01*
X96438Y1012868D01*
X93609Y1012873D01*
X93591Y1012873D01*
X90762Y1012878D01*
X90744Y1012878D01*
X87914Y1012883D01*
X87897Y1012883D01*
X87807Y1012883D01*
X87802Y1012879D01*
X87802Y1012878D01*
X88991Y432880D01*
X88996Y432875D01*
X546678Y432076D01*
X546683Y432080D01*
G37*
%LPC*%
G36*
X258557Y525341D02*
X258557Y525341D01*
X255595Y526568D01*
X253328Y528835D01*
X252101Y531797D01*
X252101Y535003D01*
X253328Y537965D01*
X255595Y540232D01*
X256491Y540603D01*
X256492Y540606D01*
X256494Y540607D01*
X256493Y540608D01*
X256493Y540609D01*
X256491Y540610D01*
X256489Y540613D01*
X251455Y540613D01*
X248482Y543586D01*
X248482Y544302D01*
X248480Y544304D01*
X248481Y544306D01*
X242158Y550629D01*
X239481Y553305D01*
X239481Y649640D01*
X242158Y652317D01*
X252282Y662441D01*
X252282Y662442D01*
X252283Y662442D01*
X253328Y664965D01*
X255595Y667232D01*
X256490Y667603D01*
X256492Y667606D01*
X256493Y667607D01*
X256493Y667608D01*
X256493Y667609D01*
X256491Y667610D01*
X256489Y667613D01*
X252455Y667613D01*
X249482Y670586D01*
X249482Y671302D01*
X249480Y671304D01*
X249481Y671306D01*
X232481Y688305D01*
X232481Y811295D01*
X248169Y826982D01*
X248169Y826985D01*
X248170Y826986D01*
X248170Y827702D01*
X251143Y830675D01*
X257242Y830675D01*
X257244Y830677D01*
X257246Y830678D01*
X257246Y830679D01*
X257247Y830680D01*
X257245Y830682D01*
X257244Y830685D01*
X255595Y831368D01*
X253328Y833635D01*
X252101Y836597D01*
X252101Y839803D01*
X253328Y842765D01*
X255595Y845032D01*
X258557Y846259D01*
X274843Y846259D01*
X277805Y845032D01*
X280072Y842765D01*
X281299Y839803D01*
X281299Y836597D01*
X280072Y833635D01*
X277805Y831368D01*
X276156Y830685D01*
X276155Y830682D01*
X276153Y830681D01*
X276154Y830680D01*
X276153Y830679D01*
X276156Y830677D01*
X276158Y830675D01*
X307907Y830675D01*
X307909Y830678D01*
X307911Y830678D01*
X307952Y830777D01*
X310523Y833348D01*
X313882Y834739D01*
X313883Y834742D01*
X313885Y834743D01*
X313885Y834744D01*
X313885Y834745D01*
X313882Y834746D01*
X313880Y834749D01*
X308968Y834749D01*
X295794Y847923D01*
X295792Y847924D01*
X295790Y847925D01*
X223898Y847925D01*
X220925Y850898D01*
X220925Y927102D01*
X228602Y934779D01*
X252591Y934779D01*
X252592Y934780D01*
X252593Y934780D01*
X252594Y934782D01*
X252596Y934784D01*
X252595Y934785D01*
X252595Y934787D01*
X252118Y935501D01*
X251434Y937153D01*
X251085Y938906D01*
X251085Y939795D01*
X266700Y939795D01*
X280395Y939795D01*
X280397Y939796D01*
X280398Y939796D01*
X280399Y939796D01*
X280399Y939798D01*
X280400Y939799D01*
X280400Y939800D01*
X280399Y939801D01*
X280399Y939803D01*
X280397Y939803D01*
X280395Y939805D01*
X266705Y939805D01*
X266705Y948875D01*
X274134Y948875D01*
X275887Y948526D01*
X277539Y947842D01*
X279025Y946849D01*
X280289Y945585D01*
X281282Y944099D01*
X281966Y942447D01*
X282144Y941553D01*
X282145Y941552D01*
X282145Y941551D01*
X282147Y941551D01*
X282149Y941549D01*
X282151Y941551D01*
X282153Y941551D01*
X284527Y943925D01*
X284528Y943928D01*
X284529Y943929D01*
X284529Y967706D01*
X299898Y983075D01*
X304102Y983075D01*
X304609Y982569D01*
X304611Y982568D01*
X304612Y982567D01*
X307696Y982567D01*
X307699Y982570D01*
X307701Y982570D01*
X307952Y983177D01*
X310523Y985748D01*
X313882Y987139D01*
X317518Y987139D01*
X320877Y985748D01*
X323448Y983177D01*
X324839Y979818D01*
X324839Y976182D01*
X323448Y972823D01*
X320877Y970252D01*
X317518Y968861D01*
X313882Y968861D01*
X310523Y970252D01*
X307952Y972823D01*
X307701Y973430D01*
X307698Y973431D01*
X307696Y973433D01*
X304612Y973433D01*
X304611Y973431D01*
X304609Y973431D01*
X294681Y963503D01*
X294680Y963501D01*
X294679Y963500D01*
X294679Y939722D01*
X279586Y924629D01*
X232808Y924629D01*
X232807Y924627D01*
X232805Y924627D01*
X231077Y922899D01*
X231076Y922897D01*
X231075Y922896D01*
X231075Y858080D01*
X231080Y858075D01*
X231080Y858076D01*
X231080Y858075D01*
X254275Y858075D01*
X254277Y858076D01*
X254278Y858076D01*
X254279Y858078D01*
X254280Y858080D01*
X254279Y858081D01*
X254279Y858084D01*
X253328Y859035D01*
X252101Y861997D01*
X252101Y865203D01*
X253328Y868165D01*
X255595Y870432D01*
X258557Y871659D01*
X274843Y871659D01*
X277805Y870432D01*
X280072Y868165D01*
X281299Y865203D01*
X281299Y861997D01*
X280072Y859035D01*
X279121Y858084D01*
X279121Y858082D01*
X279120Y858081D01*
X279121Y858079D01*
X279121Y858077D01*
X279123Y858077D01*
X279125Y858075D01*
X299997Y858075D01*
X306552Y851520D01*
X306554Y851520D01*
X306555Y851518D01*
X306557Y851520D01*
X306559Y851519D01*
X306559Y851522D01*
X306561Y851523D01*
X306561Y852818D01*
X307576Y855270D01*
X307576Y855271D01*
X307577Y855272D01*
X307577Y872128D01*
X307576Y872129D01*
X307576Y872130D01*
X306561Y874582D01*
X306561Y878218D01*
X307952Y881577D01*
X310523Y884148D01*
X313882Y885539D01*
X317518Y885539D01*
X320877Y884148D01*
X323448Y881577D01*
X324839Y878218D01*
X324839Y874582D01*
X323824Y872130D01*
X323824Y872129D01*
X323823Y872129D01*
X323823Y872128D01*
X323823Y855272D01*
X323824Y855271D01*
X323824Y855270D01*
X324839Y852818D01*
X324839Y849182D01*
X323448Y845823D01*
X320957Y843333D01*
X320957Y843331D01*
X320956Y843330D01*
X320957Y843329D01*
X320957Y843326D01*
X320957Y843325D01*
X322358Y841925D01*
X343075Y821208D01*
X343075Y816365D01*
X343077Y816363D01*
X343077Y816361D01*
X343583Y815855D01*
X343583Y754587D01*
X340313Y751317D01*
X338878Y751317D01*
X338876Y751315D01*
X338874Y751315D01*
X325841Y738282D01*
X325840Y738279D01*
X325839Y738278D01*
X325839Y734782D01*
X324448Y731423D01*
X321877Y728852D01*
X318518Y727461D01*
X314882Y727461D01*
X312430Y728476D01*
X312429Y728476D01*
X312429Y728477D01*
X312428Y728477D01*
X265084Y728477D01*
X264931Y728540D01*
X264929Y728540D01*
X264929Y728541D01*
X258557Y728541D01*
X255595Y729768D01*
X253328Y732035D01*
X252101Y734997D01*
X252101Y738203D01*
X253328Y741165D01*
X255595Y743432D01*
X258557Y744659D01*
X264929Y744659D01*
X264930Y744660D01*
X264931Y744660D01*
X265084Y744723D01*
X312428Y744723D01*
X312429Y744724D01*
X312430Y744724D01*
X314882Y745739D01*
X318518Y745739D01*
X319832Y745195D01*
X319835Y745196D01*
X319837Y745196D01*
X332415Y757774D01*
X332415Y757776D01*
X332416Y757777D01*
X332417Y757778D01*
X332417Y815855D01*
X332923Y816361D01*
X332923Y816363D01*
X332924Y816363D01*
X332924Y816364D01*
X332925Y816365D01*
X332925Y817001D01*
X332923Y817003D01*
X332923Y817005D01*
X324848Y825080D01*
X324846Y825080D01*
X324845Y825082D01*
X324843Y825080D01*
X324841Y825081D01*
X324841Y825078D01*
X324839Y825077D01*
X324839Y823782D01*
X323448Y820423D01*
X320877Y817852D01*
X317518Y816461D01*
X313882Y816461D01*
X310523Y817852D01*
X307952Y820423D01*
X307911Y820522D01*
X307908Y820523D01*
X307907Y820525D01*
X275675Y820525D01*
X275673Y820523D01*
X275671Y820522D01*
X275671Y820521D01*
X275670Y820520D01*
X275672Y820518D01*
X275673Y820515D01*
X277805Y819632D01*
X280072Y817365D01*
X281299Y814403D01*
X281299Y811197D01*
X280072Y808235D01*
X277805Y805968D01*
X276156Y805285D01*
X276155Y805282D01*
X276153Y805281D01*
X276154Y805280D01*
X276153Y805279D01*
X276156Y805277D01*
X276158Y805275D01*
X307907Y805275D01*
X307909Y805278D01*
X307911Y805278D01*
X307952Y805377D01*
X310523Y807948D01*
X313882Y809339D01*
X317518Y809339D01*
X320877Y807948D01*
X323448Y805377D01*
X324839Y802018D01*
X324839Y798382D01*
X323448Y795023D01*
X320877Y792452D01*
X317518Y791061D01*
X313882Y791061D01*
X310523Y792452D01*
X307952Y795023D01*
X307911Y795122D01*
X307908Y795123D01*
X307907Y795125D01*
X275675Y795125D01*
X275673Y795123D01*
X275671Y795122D01*
X275671Y795121D01*
X275670Y795120D01*
X275672Y795118D01*
X275673Y795115D01*
X277805Y794232D01*
X280072Y791965D01*
X281299Y789003D01*
X281299Y785797D01*
X280072Y782835D01*
X277805Y780568D01*
X274843Y779341D01*
X258557Y779341D01*
X255595Y780568D01*
X253328Y782835D01*
X252101Y785797D01*
X252101Y789003D01*
X252543Y790070D01*
X252542Y790073D01*
X252542Y790075D01*
X252541Y790075D01*
X252541Y790077D01*
X252538Y790076D01*
X252535Y790076D01*
X248569Y786110D01*
X248568Y786107D01*
X248567Y786106D01*
X248567Y696539D01*
X248569Y696537D01*
X248569Y696536D01*
X254030Y691074D01*
X254036Y691074D01*
X254037Y691074D01*
X255595Y692632D01*
X258557Y693859D01*
X274843Y693859D01*
X277805Y692632D01*
X280072Y690365D01*
X281299Y687403D01*
X281299Y684197D01*
X280072Y681235D01*
X277805Y678968D01*
X274920Y677773D01*
X274919Y677770D01*
X274917Y677769D01*
X274918Y677768D01*
X274917Y677767D01*
X274920Y677765D01*
X274922Y677763D01*
X281769Y677763D01*
X284742Y674790D01*
X284742Y674074D01*
X284744Y674072D01*
X284743Y674070D01*
X289919Y668895D01*
X289919Y617505D01*
X287242Y614829D01*
X281301Y608887D01*
X281301Y608885D01*
X281300Y608884D01*
X281299Y608883D01*
X281299Y607997D01*
X280072Y605035D01*
X277805Y602768D01*
X274843Y601541D01*
X258557Y601541D01*
X255595Y602768D01*
X253328Y605035D01*
X252101Y607997D01*
X252101Y611203D01*
X253328Y614165D01*
X255595Y616432D01*
X258557Y617659D01*
X274843Y617659D01*
X276475Y616983D01*
X276478Y616985D01*
X276480Y616984D01*
X280783Y621288D01*
X280783Y621289D01*
X280784Y621290D01*
X280784Y621291D01*
X280785Y621291D01*
X280785Y632130D01*
X280783Y632132D01*
X280782Y632134D01*
X280781Y632134D01*
X280780Y632135D01*
X280778Y632133D01*
X280775Y632132D01*
X280072Y630435D01*
X277805Y628168D01*
X274843Y626941D01*
X258557Y626941D01*
X255595Y628168D01*
X253328Y630435D01*
X252101Y633397D01*
X252101Y636603D01*
X253328Y639565D01*
X255595Y641832D01*
X258557Y643059D01*
X274843Y643059D01*
X277805Y641832D01*
X280072Y639565D01*
X280775Y637868D01*
X280778Y637867D01*
X280779Y637865D01*
X280780Y637866D01*
X280781Y637865D01*
X280782Y637868D01*
X280785Y637870D01*
X280785Y657530D01*
X280783Y657532D01*
X280782Y657534D01*
X280781Y657534D01*
X280780Y657535D01*
X280778Y657533D01*
X280775Y657532D01*
X280072Y655835D01*
X277805Y653568D01*
X274843Y652341D01*
X258557Y652341D01*
X256115Y653352D01*
X256112Y653351D01*
X256110Y653351D01*
X248617Y645858D01*
X248616Y645855D01*
X248615Y645854D01*
X248615Y557091D01*
X248617Y557089D01*
X248617Y557088D01*
X254940Y550765D01*
X254942Y550765D01*
X254942Y550764D01*
X254943Y550763D01*
X258478Y550763D01*
X258480Y550765D01*
X258482Y550766D01*
X258482Y550767D01*
X258483Y550768D01*
X258481Y550770D01*
X258480Y550773D01*
X255595Y551968D01*
X253328Y554235D01*
X252101Y557197D01*
X252101Y560403D01*
X253328Y563365D01*
X255595Y565632D01*
X258557Y566859D01*
X274843Y566859D01*
X277805Y565632D01*
X280072Y563365D01*
X281299Y560403D01*
X281299Y557197D01*
X280182Y554500D01*
X280183Y554497D01*
X280183Y554495D01*
X280184Y554495D01*
X280184Y554493D01*
X280187Y554494D01*
X280190Y554494D01*
X289063Y563367D01*
X308696Y563367D01*
X308699Y563370D01*
X308701Y563370D01*
X308952Y563977D01*
X311523Y566548D01*
X314882Y567939D01*
X318518Y567939D01*
X321877Y566548D01*
X324448Y563977D01*
X325839Y560618D01*
X325839Y556982D01*
X324448Y553623D01*
X321877Y551052D01*
X318518Y549661D01*
X314882Y549661D01*
X311523Y551052D01*
X308952Y553623D01*
X308701Y554230D01*
X308698Y554231D01*
X308696Y554233D01*
X292849Y554233D01*
X292847Y554231D01*
X292845Y554231D01*
X282919Y544306D01*
X282919Y544303D01*
X282918Y544302D01*
X282918Y543586D01*
X279945Y540613D01*
X276911Y540613D01*
X276909Y540611D01*
X276907Y540610D01*
X276907Y540609D01*
X276906Y540608D01*
X276908Y540606D01*
X276909Y540603D01*
X277805Y540232D01*
X280072Y537965D01*
X281299Y535003D01*
X281299Y531797D01*
X280072Y528835D01*
X277805Y526568D01*
X274843Y525341D01*
X258557Y525341D01*
G37*
%LPD*%
%LPC*%
G36*
X212952Y438222D02*
X212952Y438222D01*
X209967Y439458D01*
X124150Y525275D01*
X124147Y525276D01*
X124146Y525277D01*
X112684Y525277D01*
X112531Y525340D01*
X112529Y525340D01*
X112529Y525341D01*
X106157Y525341D01*
X103195Y526568D01*
X100928Y528835D01*
X99701Y531797D01*
X99701Y535003D01*
X100928Y537965D01*
X103195Y540232D01*
X106157Y541459D01*
X112529Y541459D01*
X112530Y541460D01*
X112531Y541460D01*
X112684Y541523D01*
X129129Y541523D01*
X132114Y540287D01*
X217931Y454470D01*
X217934Y454469D01*
X217935Y454468D01*
X383491Y454468D01*
X383493Y454470D01*
X383496Y454470D01*
X383495Y454472D01*
X383496Y454473D01*
X383494Y454475D01*
X383494Y454478D01*
X382982Y454738D01*
X380937Y456224D01*
X379150Y458012D01*
X377664Y460057D01*
X376516Y462309D01*
X375735Y464714D01*
X375339Y467210D01*
X375339Y481995D01*
X391400Y481995D01*
X407461Y481995D01*
X407461Y467211D01*
X407065Y464714D01*
X406284Y462309D01*
X405136Y460057D01*
X403650Y458012D01*
X401863Y456224D01*
X399818Y454738D01*
X399306Y454478D01*
X399305Y454475D01*
X399304Y454474D01*
X399304Y454473D01*
X399304Y454471D01*
X399307Y454470D01*
X399309Y454468D01*
X412371Y454468D01*
X412373Y454470D01*
X412375Y454470D01*
X418147Y460242D01*
X418147Y460245D01*
X418148Y460247D01*
X415979Y465482D01*
X415979Y498518D01*
X418270Y504048D01*
X422502Y508280D01*
X422898Y508444D01*
X422899Y508447D01*
X422901Y508448D01*
X422901Y512640D01*
X424137Y515625D01*
X458875Y550363D01*
X458875Y550365D01*
X458877Y550366D01*
X458877Y550367D01*
X458877Y570533D01*
X458875Y570535D01*
X458875Y570537D01*
X453337Y576075D01*
X453334Y576076D01*
X453333Y576077D01*
X447972Y576077D01*
X447971Y576076D01*
X447970Y576076D01*
X445518Y575061D01*
X441882Y575061D01*
X438523Y576452D01*
X435952Y579023D01*
X434561Y582382D01*
X434561Y583849D01*
X434559Y583851D01*
X434559Y583853D01*
X398857Y619555D01*
X397621Y622540D01*
X397621Y784976D01*
X398857Y787961D01*
X433886Y822990D01*
X433886Y822991D01*
X433886Y822992D01*
X433886Y822993D01*
X433887Y822995D01*
X433561Y823782D01*
X433561Y827418D01*
X434952Y830777D01*
X437523Y833348D01*
X440882Y834739D01*
X444518Y834739D01*
X447877Y833348D01*
X450448Y830777D01*
X451839Y827418D01*
X451839Y823782D01*
X450824Y821330D01*
X450824Y821329D01*
X450823Y821328D01*
X450823Y818700D01*
X449587Y815714D01*
X444146Y810274D01*
X444146Y810273D01*
X444145Y810272D01*
X444146Y810271D01*
X444146Y810268D01*
X444148Y810268D01*
X444149Y810266D01*
X445662Y809965D01*
X447510Y809199D01*
X449174Y808088D01*
X450588Y806674D01*
X451699Y805010D01*
X452465Y803162D01*
X452855Y801200D01*
X452855Y800205D01*
X442700Y800205D01*
X442695Y800201D01*
X442695Y800200D01*
X442695Y790045D01*
X441700Y790045D01*
X439738Y790435D01*
X437890Y791201D01*
X436226Y792312D01*
X434812Y793726D01*
X433701Y795390D01*
X432935Y797238D01*
X432634Y798751D01*
X432633Y798752D01*
X432633Y798753D01*
X432631Y798753D01*
X432629Y798755D01*
X432628Y798754D01*
X432627Y798753D01*
X432626Y798754D01*
X413869Y779997D01*
X413869Y779994D01*
X413867Y779993D01*
X413867Y627523D01*
X413869Y627521D01*
X413869Y627519D01*
X435218Y606169D01*
X435221Y606169D01*
X435223Y606168D01*
X435224Y606169D01*
X435225Y606169D01*
X435225Y606172D01*
X435227Y606175D01*
X434561Y607782D01*
X434561Y611418D01*
X435952Y614777D01*
X438523Y617348D01*
X441882Y618739D01*
X445518Y618739D01*
X448453Y617524D01*
X448454Y617524D01*
X448455Y617523D01*
X485882Y617523D01*
X485884Y617525D01*
X485885Y617525D01*
X487016Y618655D01*
X491028Y620317D01*
X495372Y620317D01*
X499384Y618655D01*
X502455Y615584D01*
X504117Y611572D01*
X504117Y607228D01*
X502455Y603216D01*
X499384Y600145D01*
X495372Y598483D01*
X491028Y598483D01*
X487016Y600145D01*
X485885Y601275D01*
X485883Y601276D01*
X485882Y601277D01*
X447489Y601277D01*
X447488Y601276D01*
X447487Y601276D01*
X445518Y600461D01*
X441882Y600461D01*
X440275Y601127D01*
X440273Y601126D01*
X440270Y601126D01*
X440270Y601125D01*
X440269Y601124D01*
X440270Y601122D01*
X440269Y601118D01*
X449063Y592325D01*
X449066Y592324D01*
X449067Y592323D01*
X458316Y592323D01*
X461301Y591087D01*
X473887Y578501D01*
X475123Y575516D01*
X475123Y545384D01*
X473887Y542399D01*
X471601Y540113D01*
X439660Y508173D01*
X439660Y508166D01*
X439660Y508165D01*
X443778Y504048D01*
X446069Y498518D01*
X446069Y465482D01*
X443778Y459952D01*
X439546Y455720D01*
X434520Y453638D01*
X434519Y453637D01*
X434518Y453637D01*
X422625Y441744D01*
X420339Y439458D01*
X417354Y438222D01*
X212952Y438222D01*
G37*
%LPD*%
%LPC*%
G36*
X367728Y649483D02*
X367728Y649483D01*
X363716Y651145D01*
X360645Y654216D01*
X358983Y658228D01*
X358983Y662572D01*
X360645Y666584D01*
X361775Y667715D01*
X361776Y667717D01*
X361777Y667718D01*
X361777Y678482D01*
X361775Y678484D01*
X361775Y678485D01*
X360645Y679616D01*
X358983Y683628D01*
X358983Y687972D01*
X360645Y691984D01*
X361775Y693115D01*
X361776Y693117D01*
X361777Y693118D01*
X361777Y703882D01*
X361775Y703884D01*
X361775Y703885D01*
X360645Y705016D01*
X358983Y709028D01*
X358983Y713372D01*
X360645Y717384D01*
X361775Y718515D01*
X361776Y718517D01*
X361777Y718518D01*
X361777Y893482D01*
X361775Y893484D01*
X361775Y893485D01*
X359645Y895616D01*
X357983Y899628D01*
X357983Y903972D01*
X358651Y905585D01*
X358651Y905587D01*
X358650Y905588D01*
X358650Y905589D01*
X358650Y905591D01*
X354410Y909831D01*
X354407Y909832D01*
X354406Y909833D01*
X350918Y909833D01*
X350917Y909832D01*
X350915Y909832D01*
X350915Y909830D01*
X350913Y909828D01*
X350915Y909827D01*
X350915Y909824D01*
X352755Y907984D01*
X354417Y903972D01*
X354417Y899628D01*
X352755Y895616D01*
X349684Y892545D01*
X345672Y890883D01*
X341328Y890883D01*
X337316Y892545D01*
X336185Y893675D01*
X336183Y893676D01*
X336182Y893677D01*
X319972Y893677D01*
X319971Y893676D01*
X319970Y893676D01*
X317518Y892661D01*
X313882Y892661D01*
X310523Y894052D01*
X307952Y896623D01*
X306561Y899982D01*
X306561Y903618D01*
X307952Y906977D01*
X310523Y909548D01*
X311188Y909823D01*
X311189Y909826D01*
X311191Y909827D01*
X311190Y909828D01*
X311191Y909829D01*
X311188Y909830D01*
X311186Y909833D01*
X280072Y909833D01*
X280071Y909831D01*
X280069Y909831D01*
X277805Y907568D01*
X274843Y906341D01*
X258557Y906341D01*
X255595Y907568D01*
X253328Y909835D01*
X252101Y912797D01*
X252101Y916003D01*
X253328Y918965D01*
X255595Y921232D01*
X258557Y922459D01*
X274843Y922459D01*
X277805Y921232D01*
X280069Y918969D01*
X280071Y918968D01*
X280072Y918967D01*
X311669Y918967D01*
X311671Y918969D01*
X311673Y918970D01*
X311673Y918971D01*
X311674Y918972D01*
X311672Y918974D01*
X311671Y918977D01*
X310523Y919452D01*
X307952Y922023D01*
X306561Y925382D01*
X306561Y929018D01*
X307952Y932377D01*
X310523Y934948D01*
X313882Y936339D01*
X317518Y936339D01*
X319970Y935324D01*
X319971Y935324D01*
X319972Y935323D01*
X336182Y935323D01*
X336184Y935325D01*
X336185Y935325D01*
X337316Y936455D01*
X341328Y938117D01*
X345672Y938117D01*
X349684Y936455D01*
X352755Y933384D01*
X354417Y929372D01*
X354417Y925028D01*
X352755Y921016D01*
X350715Y918976D01*
X350715Y918974D01*
X350713Y918973D01*
X350715Y918971D01*
X350714Y918969D01*
X350717Y918969D01*
X350718Y918967D01*
X358192Y918967D01*
X360768Y916391D01*
X360770Y916391D01*
X360771Y916389D01*
X360773Y916390D01*
X360775Y916390D01*
X360775Y916393D01*
X360777Y916394D01*
X360777Y919882D01*
X360775Y919884D01*
X360775Y919885D01*
X359645Y921016D01*
X357983Y925028D01*
X357983Y929372D01*
X359645Y933384D01*
X360775Y934515D01*
X360776Y934517D01*
X360777Y934518D01*
X360777Y945282D01*
X360775Y945284D01*
X360775Y945285D01*
X359645Y946416D01*
X357983Y950428D01*
X357983Y954772D01*
X359645Y958784D01*
X362716Y961855D01*
X366728Y963517D01*
X371072Y963517D01*
X375084Y961855D01*
X378155Y958784D01*
X379817Y954772D01*
X379817Y950428D01*
X378155Y946416D01*
X377025Y945285D01*
X377025Y945284D01*
X377024Y945284D01*
X377025Y945284D01*
X377024Y945283D01*
X377023Y945282D01*
X377023Y934518D01*
X377025Y934516D01*
X377025Y934515D01*
X378155Y933384D01*
X379817Y929372D01*
X379817Y925028D01*
X378155Y921016D01*
X377025Y919885D01*
X377025Y919884D01*
X377024Y919883D01*
X377025Y919883D01*
X377024Y919883D01*
X377023Y919882D01*
X377023Y909118D01*
X377025Y909116D01*
X377025Y909115D01*
X378155Y907984D01*
X379817Y903972D01*
X379817Y899628D01*
X378155Y895616D01*
X378025Y895485D01*
X378024Y895483D01*
X378023Y895482D01*
X378023Y718518D01*
X378025Y718516D01*
X378025Y718515D01*
X379155Y717384D01*
X380817Y713372D01*
X380817Y709028D01*
X379155Y705016D01*
X378025Y703885D01*
X378024Y703883D01*
X378023Y703882D01*
X378023Y693118D01*
X378025Y693116D01*
X378025Y693115D01*
X379155Y691984D01*
X380817Y687972D01*
X380817Y683628D01*
X379155Y679616D01*
X378025Y678485D01*
X378024Y678483D01*
X378023Y678482D01*
X378023Y667718D01*
X378025Y667716D01*
X378025Y667715D01*
X379155Y666584D01*
X380817Y662572D01*
X380817Y658228D01*
X379155Y654216D01*
X376084Y651145D01*
X372072Y649483D01*
X367728Y649483D01*
G37*
%LPD*%
%LPC*%
G36*
X241687Y463417D02*
X241687Y463417D01*
X210353Y494751D01*
X210353Y759649D01*
X210351Y759651D01*
X210351Y759653D01*
X127996Y842008D01*
X127994Y842008D01*
X127991Y842009D01*
X127991Y842008D01*
X127990Y842008D01*
X127990Y842005D01*
X127989Y842003D01*
X127988Y842002D01*
X128899Y839803D01*
X128899Y836597D01*
X127672Y833635D01*
X125405Y831368D01*
X122443Y830141D01*
X106157Y830141D01*
X103195Y831368D01*
X100928Y833635D01*
X99701Y836597D01*
X99701Y839803D01*
X100928Y842765D01*
X103195Y845032D01*
X106157Y846259D01*
X122443Y846259D01*
X124642Y845348D01*
X124645Y845349D01*
X124647Y845349D01*
X124648Y845350D01*
X124649Y845350D01*
X124648Y845353D01*
X124648Y845356D01*
X114465Y855539D01*
X114462Y855540D01*
X114461Y855541D01*
X106157Y855541D01*
X103195Y856768D01*
X100928Y859035D01*
X99701Y861997D01*
X99701Y865203D01*
X100928Y868165D01*
X103195Y870432D01*
X106157Y871659D01*
X122443Y871659D01*
X125405Y870432D01*
X127672Y868165D01*
X128899Y865203D01*
X128899Y861997D01*
X127672Y859035D01*
X127220Y858583D01*
X127220Y858579D01*
X127219Y858579D01*
X127220Y858579D01*
X127220Y858576D01*
X218247Y767549D01*
X221519Y764277D01*
X221519Y499379D01*
X221521Y499377D01*
X221521Y499375D01*
X246311Y474585D01*
X246314Y474584D01*
X246314Y474583D01*
X246315Y474583D01*
X258430Y474583D01*
X258432Y474585D01*
X258434Y474586D01*
X258434Y474587D01*
X258435Y474588D01*
X258433Y474590D01*
X258432Y474593D01*
X255595Y475768D01*
X253328Y478035D01*
X252101Y480997D01*
X252101Y484203D01*
X253328Y487165D01*
X255595Y489432D01*
X258557Y490659D01*
X274843Y490659D01*
X277805Y489432D01*
X280072Y487165D01*
X281299Y484203D01*
X281299Y480997D01*
X280072Y478035D01*
X277805Y475768D01*
X274968Y474593D01*
X274967Y474590D01*
X274965Y474589D01*
X274966Y474588D01*
X274966Y474587D01*
X274968Y474585D01*
X274970Y474583D01*
X296385Y474583D01*
X296387Y474585D01*
X296389Y474585D01*
X299829Y478025D01*
X299830Y478029D01*
X299830Y478031D01*
X299583Y478628D01*
X299583Y482972D01*
X301245Y486984D01*
X304316Y490055D01*
X308328Y491717D01*
X312672Y491717D01*
X316684Y490055D01*
X319755Y486984D01*
X321417Y482972D01*
X321417Y478628D01*
X319755Y474616D01*
X316684Y471545D01*
X312672Y469883D01*
X308328Y469883D01*
X307731Y470130D01*
X307727Y470129D01*
X307725Y470129D01*
X304285Y466689D01*
X301013Y463417D01*
X241687Y463417D01*
G37*
%LPD*%
%LPC*%
G36*
X518028Y865283D02*
X518028Y865283D01*
X514016Y866945D01*
X512885Y868075D01*
X512883Y868076D01*
X512882Y868077D01*
X496118Y868077D01*
X496116Y868075D01*
X496115Y868075D01*
X495384Y867345D01*
X491372Y865683D01*
X487028Y865683D01*
X483016Y867345D01*
X481885Y868475D01*
X481883Y868476D01*
X481882Y868476D01*
X481882Y868477D01*
X447455Y868477D01*
X447454Y868476D01*
X447453Y868476D01*
X444518Y867261D01*
X440882Y867261D01*
X437523Y868652D01*
X434952Y871223D01*
X433561Y874582D01*
X433561Y878218D01*
X434952Y881577D01*
X437523Y884148D01*
X440882Y885539D01*
X444518Y885539D01*
X446487Y884724D01*
X446488Y884724D01*
X446489Y884723D01*
X481882Y884723D01*
X481884Y884725D01*
X481885Y884725D01*
X483016Y885855D01*
X487028Y887517D01*
X491372Y887517D01*
X495384Y885855D01*
X496915Y884325D01*
X496917Y884324D01*
X496918Y884323D01*
X512882Y884323D01*
X512884Y884325D01*
X512885Y884325D01*
X514016Y885455D01*
X518028Y887117D01*
X522372Y887117D01*
X526384Y885455D01*
X529455Y882384D01*
X531117Y878372D01*
X531117Y874028D01*
X529455Y870016D01*
X526384Y866945D01*
X522372Y865283D01*
X518028Y865283D01*
G37*
%LPD*%
%LPC*%
G36*
X518028Y839883D02*
X518028Y839883D01*
X514016Y841545D01*
X512885Y842675D01*
X512883Y842676D01*
X512882Y842677D01*
X496118Y842677D01*
X496116Y842675D01*
X496115Y842675D01*
X495384Y841945D01*
X491372Y840283D01*
X487028Y840283D01*
X483016Y841945D01*
X481885Y843075D01*
X481883Y843076D01*
X481882Y843077D01*
X447455Y843077D01*
X447454Y843076D01*
X447453Y843076D01*
X444518Y841861D01*
X440882Y841861D01*
X437523Y843252D01*
X434952Y845823D01*
X433561Y849182D01*
X433561Y852818D01*
X434952Y856177D01*
X437523Y858748D01*
X440882Y860139D01*
X444518Y860139D01*
X446487Y859324D01*
X446488Y859324D01*
X446489Y859323D01*
X481882Y859323D01*
X481884Y859325D01*
X481885Y859325D01*
X483016Y860455D01*
X487028Y862117D01*
X491372Y862117D01*
X495384Y860455D01*
X496915Y858925D01*
X496917Y858924D01*
X496918Y858923D01*
X512882Y858923D01*
X512884Y858925D01*
X512885Y858925D01*
X514016Y860055D01*
X518028Y861717D01*
X522372Y861717D01*
X526384Y860055D01*
X529455Y856984D01*
X531117Y852972D01*
X531117Y848628D01*
X529455Y844616D01*
X526384Y841545D01*
X522372Y839883D01*
X518028Y839883D01*
G37*
%LPD*%
%LPC*%
G36*
X518028Y890683D02*
X518028Y890683D01*
X514016Y892345D01*
X512885Y893475D01*
X512883Y893476D01*
X512882Y893477D01*
X496118Y893477D01*
X496116Y893475D01*
X496115Y893475D01*
X495384Y892745D01*
X491372Y891083D01*
X487028Y891083D01*
X483016Y892745D01*
X481885Y893875D01*
X481883Y893876D01*
X481882Y893876D01*
X481882Y893877D01*
X447455Y893877D01*
X447454Y893876D01*
X447453Y893876D01*
X444518Y892661D01*
X440882Y892661D01*
X437523Y894052D01*
X434952Y896623D01*
X433561Y899982D01*
X433561Y903618D01*
X434952Y906977D01*
X437523Y909548D01*
X440882Y910939D01*
X444518Y910939D01*
X446487Y910124D01*
X446488Y910124D01*
X446489Y910123D01*
X481882Y910123D01*
X481884Y910125D01*
X481885Y910125D01*
X483016Y911255D01*
X487028Y912917D01*
X491372Y912917D01*
X495384Y911255D01*
X496915Y909725D01*
X496917Y909724D01*
X496918Y909723D01*
X512882Y909723D01*
X512884Y909725D01*
X512885Y909725D01*
X514016Y910855D01*
X518028Y912517D01*
X522372Y912517D01*
X526384Y910855D01*
X529455Y907784D01*
X531117Y903772D01*
X531117Y899428D01*
X529455Y895416D01*
X526384Y892345D01*
X522372Y890683D01*
X518028Y890683D01*
G37*
%LPD*%
%LPC*%
G36*
X483173Y674683D02*
X483173Y674683D01*
X482283Y675573D01*
X482283Y677672D01*
X482278Y677677D01*
X482278Y677676D01*
X482278Y677677D01*
X447972Y677677D01*
X447971Y677676D01*
X447970Y677676D01*
X445518Y676661D01*
X441882Y676661D01*
X438523Y678052D01*
X435952Y680623D01*
X434561Y683982D01*
X434561Y687618D01*
X435952Y690977D01*
X438523Y693548D01*
X441882Y694939D01*
X445518Y694939D01*
X447970Y693924D01*
X447971Y693924D01*
X447972Y693923D01*
X482278Y693923D01*
X482283Y693928D01*
X482282Y693928D01*
X482283Y693928D01*
X482283Y695627D01*
X483173Y696517D01*
X503227Y696517D01*
X504117Y695627D01*
X504117Y675573D01*
X503227Y674683D01*
X483173Y674683D01*
G37*
%LPD*%
%LPC*%
G36*
X491028Y649283D02*
X491028Y649283D01*
X487016Y650945D01*
X485885Y652075D01*
X485883Y652076D01*
X485882Y652077D01*
X447489Y652077D01*
X447488Y652076D01*
X447487Y652076D01*
X445518Y651261D01*
X441882Y651261D01*
X438523Y652652D01*
X435952Y655223D01*
X434561Y658582D01*
X434561Y662218D01*
X435952Y665577D01*
X438523Y668148D01*
X441882Y669539D01*
X445518Y669539D01*
X448453Y668324D01*
X448454Y668324D01*
X448455Y668323D01*
X485882Y668323D01*
X485884Y668325D01*
X485885Y668325D01*
X487016Y669455D01*
X491028Y671117D01*
X495372Y671117D01*
X499384Y669455D01*
X502455Y666384D01*
X504117Y662372D01*
X504117Y658028D01*
X502455Y654016D01*
X499384Y650945D01*
X495372Y649283D01*
X491028Y649283D01*
G37*
%LPD*%
%LPC*%
G36*
X491028Y623883D02*
X491028Y623883D01*
X487016Y625545D01*
X485885Y626675D01*
X485883Y626676D01*
X485882Y626677D01*
X447489Y626677D01*
X447488Y626676D01*
X447487Y626676D01*
X445518Y625861D01*
X441882Y625861D01*
X438523Y627252D01*
X435952Y629823D01*
X434561Y633182D01*
X434561Y636818D01*
X435952Y640177D01*
X438523Y642748D01*
X441882Y644139D01*
X445518Y644139D01*
X448453Y642924D01*
X448454Y642924D01*
X448455Y642923D01*
X485882Y642923D01*
X485884Y642925D01*
X485885Y642925D01*
X487016Y644055D01*
X491028Y645717D01*
X495372Y645717D01*
X499384Y644055D01*
X502455Y640984D01*
X504117Y636972D01*
X504117Y632628D01*
X502455Y628616D01*
X499384Y625545D01*
X495372Y623883D01*
X491028Y623883D01*
G37*
%LPD*%
%LPC*%
G36*
X314882Y575061D02*
X314882Y575061D01*
X312430Y576076D01*
X312429Y576076D01*
X312428Y576077D01*
X265084Y576077D01*
X264931Y576140D01*
X264929Y576140D01*
X264929Y576141D01*
X258557Y576141D01*
X255595Y577368D01*
X253328Y579635D01*
X252101Y582597D01*
X252101Y585803D01*
X253328Y588765D01*
X255595Y591032D01*
X258557Y592259D01*
X264929Y592259D01*
X264930Y592260D01*
X264931Y592260D01*
X265084Y592323D01*
X312428Y592323D01*
X312429Y592324D01*
X312430Y592324D01*
X314882Y593339D01*
X318518Y593339D01*
X321877Y591948D01*
X324448Y589377D01*
X325839Y586018D01*
X325839Y582382D01*
X324448Y579023D01*
X321877Y576452D01*
X318518Y575061D01*
X314882Y575061D01*
G37*
%LPD*%
%LPC*%
G36*
X341328Y941683D02*
X341328Y941683D01*
X337316Y943345D01*
X336185Y944475D01*
X336183Y944476D01*
X336182Y944477D01*
X319972Y944477D01*
X319971Y944476D01*
X319970Y944476D01*
X317518Y943461D01*
X313882Y943461D01*
X310523Y944852D01*
X307952Y947423D01*
X306561Y950782D01*
X306561Y954418D01*
X307952Y957777D01*
X310523Y960348D01*
X313882Y961739D01*
X317518Y961739D01*
X319970Y960724D01*
X319971Y960724D01*
X319972Y960723D01*
X336182Y960723D01*
X336184Y960725D01*
X336185Y960725D01*
X337316Y961855D01*
X341328Y963517D01*
X345672Y963517D01*
X349684Y961855D01*
X352755Y958784D01*
X354417Y954772D01*
X354417Y950428D01*
X352755Y946416D01*
X349684Y943345D01*
X345672Y941683D01*
X341328Y941683D01*
G37*
%LPD*%
%LPC*%
G36*
X342328Y674883D02*
X342328Y674883D01*
X338316Y676545D01*
X337185Y677675D01*
X337183Y677676D01*
X337182Y677676D01*
X337182Y677677D01*
X320972Y677677D01*
X320971Y677676D01*
X320970Y677676D01*
X318518Y676661D01*
X314882Y676661D01*
X311523Y678052D01*
X308952Y680623D01*
X307561Y683982D01*
X307561Y687618D01*
X308952Y690977D01*
X311523Y693548D01*
X314882Y694939D01*
X318518Y694939D01*
X320970Y693924D01*
X320971Y693924D01*
X320972Y693923D01*
X337182Y693923D01*
X337184Y693925D01*
X337185Y693925D01*
X338316Y695055D01*
X342328Y696717D01*
X346672Y696717D01*
X350684Y695055D01*
X353755Y691984D01*
X355417Y687972D01*
X355417Y683628D01*
X353755Y679616D01*
X350684Y676545D01*
X346672Y674883D01*
X342328Y674883D01*
G37*
%LPD*%
%LPC*%
G36*
X342328Y649483D02*
X342328Y649483D01*
X338316Y651145D01*
X337185Y652275D01*
X337183Y652276D01*
X337182Y652277D01*
X320972Y652277D01*
X320971Y652276D01*
X320970Y652276D01*
X318518Y651261D01*
X314882Y651261D01*
X311523Y652652D01*
X308952Y655223D01*
X307561Y658582D01*
X307561Y662218D01*
X308952Y665577D01*
X311523Y668148D01*
X314882Y669539D01*
X318518Y669539D01*
X320970Y668524D01*
X320971Y668524D01*
X320972Y668523D01*
X337182Y668523D01*
X337184Y668525D01*
X337185Y668525D01*
X338316Y669655D01*
X342328Y671317D01*
X346672Y671317D01*
X350684Y669655D01*
X353755Y666584D01*
X355417Y662572D01*
X355417Y658228D01*
X353755Y654216D01*
X350684Y651145D01*
X346672Y649483D01*
X342328Y649483D01*
G37*
%LPD*%
%LPC*%
G36*
X342328Y700283D02*
X342328Y700283D01*
X338316Y701945D01*
X337185Y703075D01*
X337183Y703076D01*
X337182Y703076D01*
X337182Y703077D01*
X320972Y703077D01*
X320971Y703076D01*
X320970Y703076D01*
X318518Y702061D01*
X314882Y702061D01*
X311523Y703452D01*
X308952Y706023D01*
X307561Y709382D01*
X307561Y713018D01*
X308952Y716377D01*
X311523Y718948D01*
X314882Y720339D01*
X318518Y720339D01*
X320970Y719324D01*
X320971Y719324D01*
X320972Y719323D01*
X337182Y719323D01*
X337184Y719325D01*
X337185Y719325D01*
X338316Y720455D01*
X342328Y722117D01*
X346672Y722117D01*
X350684Y720455D01*
X353755Y717384D01*
X355417Y713372D01*
X355417Y709028D01*
X353755Y705016D01*
X350684Y701945D01*
X346672Y700283D01*
X342328Y700283D01*
G37*
%LPD*%
%LPC*%
G36*
X314882Y600461D02*
X314882Y600461D01*
X311523Y601852D01*
X308952Y604423D01*
X307561Y607782D01*
X307561Y611418D01*
X308576Y613870D01*
X308576Y613871D01*
X308577Y613872D01*
X308577Y630728D01*
X308576Y630729D01*
X308576Y630730D01*
X307561Y633182D01*
X307561Y636818D01*
X308952Y640177D01*
X311523Y642748D01*
X314882Y644139D01*
X318518Y644139D01*
X321877Y642748D01*
X324448Y640177D01*
X325839Y636818D01*
X325839Y633182D01*
X324824Y630730D01*
X324824Y630729D01*
X324823Y630728D01*
X324823Y613872D01*
X324824Y613871D01*
X324824Y613870D01*
X325839Y611418D01*
X325839Y607782D01*
X324448Y604423D01*
X321877Y601852D01*
X318518Y600461D01*
X314882Y600461D01*
G37*
%LPD*%
%LPC*%
G36*
X391405Y482005D02*
X391405Y482005D01*
X391405Y511586D01*
X392664Y511586D01*
X395161Y511191D01*
X397565Y510409D01*
X399818Y509262D01*
X401863Y507776D01*
X403650Y505988D01*
X405136Y503943D01*
X406284Y501691D01*
X407065Y499286D01*
X407461Y496789D01*
X407461Y482005D01*
X391405Y482005D01*
G37*
%LPD*%
%LPC*%
G36*
X375339Y482005D02*
X375339Y482005D01*
X375339Y496789D01*
X375735Y499286D01*
X376516Y501691D01*
X377664Y503943D01*
X379150Y505988D01*
X380937Y507776D01*
X382982Y509262D01*
X385235Y510409D01*
X387639Y511191D01*
X390136Y511586D01*
X391395Y511586D01*
X391395Y482005D01*
X375339Y482005D01*
G37*
%LPD*%
%LPC*%
G36*
X106157Y652341D02*
X106157Y652341D01*
X103195Y653568D01*
X100928Y655835D01*
X99701Y658797D01*
X99701Y662003D01*
X100928Y664965D01*
X103195Y667232D01*
X106157Y668459D01*
X122443Y668459D01*
X125405Y667232D01*
X127672Y664965D01*
X128899Y662003D01*
X128899Y658797D01*
X127672Y655835D01*
X125405Y653568D01*
X122443Y652341D01*
X106157Y652341D01*
G37*
%LPD*%
%LPC*%
G36*
X106157Y931741D02*
X106157Y931741D01*
X103195Y932968D01*
X100928Y935235D01*
X99701Y938197D01*
X99701Y941403D01*
X100928Y944365D01*
X103195Y946632D01*
X106157Y947859D01*
X122443Y947859D01*
X125405Y946632D01*
X127672Y944365D01*
X128899Y941403D01*
X128899Y938197D01*
X127672Y935235D01*
X125405Y932968D01*
X122443Y931741D01*
X106157Y931741D01*
G37*
%LPD*%
%LPC*%
G36*
X258557Y880941D02*
X258557Y880941D01*
X255595Y882168D01*
X253328Y884435D01*
X252101Y887397D01*
X252101Y890603D01*
X253328Y893565D01*
X255595Y895832D01*
X258557Y897059D01*
X274843Y897059D01*
X277805Y895832D01*
X280072Y893565D01*
X281299Y890603D01*
X281299Y887397D01*
X280072Y884435D01*
X277805Y882168D01*
X274843Y880941D01*
X258557Y880941D01*
G37*
%LPD*%
%LPC*%
G36*
X106157Y880941D02*
X106157Y880941D01*
X103195Y882168D01*
X100928Y884435D01*
X99701Y887397D01*
X99701Y890603D01*
X100928Y893565D01*
X103195Y895832D01*
X106157Y897059D01*
X122443Y897059D01*
X125405Y895832D01*
X127672Y893565D01*
X128899Y890603D01*
X128899Y887397D01*
X127672Y884435D01*
X125405Y882168D01*
X122443Y880941D01*
X106157Y880941D01*
G37*
%LPD*%
%LPC*%
G36*
X106157Y906341D02*
X106157Y906341D01*
X103195Y907568D01*
X100928Y909835D01*
X99701Y912797D01*
X99701Y916003D01*
X100928Y918965D01*
X103195Y921232D01*
X106157Y922459D01*
X122443Y922459D01*
X125405Y921232D01*
X127672Y918965D01*
X128899Y916003D01*
X128899Y912797D01*
X127672Y909835D01*
X125405Y907568D01*
X122443Y906341D01*
X106157Y906341D01*
G37*
%LPD*%
%LPC*%
G36*
X106157Y804741D02*
X106157Y804741D01*
X103195Y805968D01*
X100928Y808235D01*
X99701Y811197D01*
X99701Y814403D01*
X100928Y817365D01*
X103195Y819632D01*
X106157Y820859D01*
X122443Y820859D01*
X125405Y819632D01*
X127672Y817365D01*
X128899Y814403D01*
X128899Y811197D01*
X127672Y808235D01*
X125405Y805968D01*
X122443Y804741D01*
X106157Y804741D01*
G37*
%LPD*%
%LPC*%
G36*
X106157Y677741D02*
X106157Y677741D01*
X103195Y678968D01*
X100928Y681235D01*
X99701Y684197D01*
X99701Y687403D01*
X100928Y690365D01*
X103195Y692632D01*
X106157Y693859D01*
X122443Y693859D01*
X125405Y692632D01*
X127672Y690365D01*
X128899Y687403D01*
X128899Y684197D01*
X127672Y681235D01*
X125405Y678968D01*
X122443Y677741D01*
X106157Y677741D01*
G37*
%LPD*%
%LPC*%
G36*
X106157Y779341D02*
X106157Y779341D01*
X103195Y780568D01*
X100928Y782835D01*
X99701Y785797D01*
X99701Y789003D01*
X100928Y791965D01*
X103195Y794232D01*
X106157Y795459D01*
X122443Y795459D01*
X125405Y794232D01*
X127672Y791965D01*
X128899Y789003D01*
X128899Y785797D01*
X127672Y782835D01*
X125405Y780568D01*
X122443Y779341D01*
X106157Y779341D01*
G37*
%LPD*%
%LPC*%
G36*
X258557Y753941D02*
X258557Y753941D01*
X255595Y755168D01*
X253328Y757435D01*
X252101Y760397D01*
X252101Y763603D01*
X253328Y766565D01*
X255595Y768832D01*
X258557Y770059D01*
X274843Y770059D01*
X277805Y768832D01*
X280072Y766565D01*
X281299Y763603D01*
X281299Y760397D01*
X280072Y757435D01*
X277805Y755168D01*
X274843Y753941D01*
X258557Y753941D01*
G37*
%LPD*%
%LPC*%
G36*
X106157Y753941D02*
X106157Y753941D01*
X103195Y755168D01*
X100928Y757435D01*
X99701Y760397D01*
X99701Y763603D01*
X100928Y766565D01*
X103195Y768832D01*
X106157Y770059D01*
X122443Y770059D01*
X125405Y768832D01*
X127672Y766565D01*
X128899Y763603D01*
X128899Y760397D01*
X127672Y757435D01*
X125405Y755168D01*
X122443Y753941D01*
X106157Y753941D01*
G37*
%LPD*%
%LPC*%
G36*
X106157Y728541D02*
X106157Y728541D01*
X103195Y729768D01*
X100928Y732035D01*
X99701Y734997D01*
X99701Y738203D01*
X100928Y741165D01*
X103195Y743432D01*
X106157Y744659D01*
X122443Y744659D01*
X125405Y743432D01*
X127672Y741165D01*
X128899Y738203D01*
X128899Y734997D01*
X127672Y732035D01*
X125405Y729768D01*
X122443Y728541D01*
X106157Y728541D01*
G37*
%LPD*%
%LPC*%
G36*
X258557Y703141D02*
X258557Y703141D01*
X255595Y704368D01*
X253328Y706635D01*
X252101Y709597D01*
X252101Y712803D01*
X253328Y715765D01*
X255595Y718032D01*
X258557Y719259D01*
X274843Y719259D01*
X277805Y718032D01*
X280072Y715765D01*
X281299Y712803D01*
X281299Y709597D01*
X280072Y706635D01*
X277805Y704368D01*
X274843Y703141D01*
X258557Y703141D01*
G37*
%LPD*%
%LPC*%
G36*
X106157Y703141D02*
X106157Y703141D01*
X103195Y704368D01*
X100928Y706635D01*
X99701Y709597D01*
X99701Y712803D01*
X100928Y715765D01*
X103195Y718032D01*
X106157Y719259D01*
X122443Y719259D01*
X125405Y718032D01*
X127672Y715765D01*
X128899Y712803D01*
X128899Y709597D01*
X127672Y706635D01*
X125405Y704368D01*
X122443Y703141D01*
X106157Y703141D01*
G37*
%LPD*%
%LPC*%
G36*
X106157Y601541D02*
X106157Y601541D01*
X103195Y602768D01*
X100928Y605035D01*
X99701Y607997D01*
X99701Y611203D01*
X100928Y614165D01*
X103195Y616432D01*
X106157Y617659D01*
X122443Y617659D01*
X125405Y616432D01*
X127672Y614165D01*
X128899Y611203D01*
X128899Y607997D01*
X127672Y605035D01*
X125405Y602768D01*
X122443Y601541D01*
X106157Y601541D01*
G37*
%LPD*%
%LPC*%
G36*
X106157Y576141D02*
X106157Y576141D01*
X103195Y577368D01*
X100928Y579635D01*
X99701Y582597D01*
X99701Y585803D01*
X100928Y588765D01*
X103195Y591032D01*
X106157Y592259D01*
X122443Y592259D01*
X125405Y591032D01*
X127672Y588765D01*
X128899Y585803D01*
X128899Y582597D01*
X127672Y579635D01*
X125405Y577368D01*
X122443Y576141D01*
X106157Y576141D01*
G37*
%LPD*%
%LPC*%
G36*
X106157Y626941D02*
X106157Y626941D01*
X103195Y628168D01*
X100928Y630435D01*
X99701Y633397D01*
X99701Y636603D01*
X100928Y639565D01*
X103195Y641832D01*
X106157Y643059D01*
X122443Y643059D01*
X125405Y641832D01*
X127672Y639565D01*
X128899Y636603D01*
X128899Y633397D01*
X127672Y630435D01*
X125405Y628168D01*
X122443Y626941D01*
X106157Y626941D01*
G37*
%LPD*%
%LPC*%
G36*
X106157Y550741D02*
X106157Y550741D01*
X103195Y551968D01*
X100928Y554235D01*
X99701Y557197D01*
X99701Y560403D01*
X100928Y563365D01*
X103195Y565632D01*
X106157Y566859D01*
X122443Y566859D01*
X125405Y565632D01*
X127672Y563365D01*
X128899Y560403D01*
X128899Y557197D01*
X127672Y554235D01*
X125405Y551968D01*
X122443Y550741D01*
X106157Y550741D01*
G37*
%LPD*%
%LPC*%
G36*
X258557Y499941D02*
X258557Y499941D01*
X255595Y501168D01*
X253328Y503435D01*
X252101Y506397D01*
X252101Y509603D01*
X253328Y512565D01*
X255595Y514832D01*
X258557Y516059D01*
X274843Y516059D01*
X277805Y514832D01*
X280072Y512565D01*
X281299Y509603D01*
X281299Y506397D01*
X280072Y503435D01*
X277805Y501168D01*
X274843Y499941D01*
X258557Y499941D01*
G37*
%LPD*%
%LPC*%
G36*
X106157Y957141D02*
X106157Y957141D01*
X103195Y958368D01*
X100928Y960635D01*
X99701Y963597D01*
X99701Y966803D01*
X100928Y969765D01*
X103195Y972032D01*
X106157Y973259D01*
X122443Y973259D01*
X125405Y972032D01*
X127672Y969765D01*
X128899Y966803D01*
X128899Y963597D01*
X127672Y960635D01*
X125405Y958368D01*
X122443Y957141D01*
X106157Y957141D01*
G37*
%LPD*%
%LPC*%
G36*
X106157Y474541D02*
X106157Y474541D01*
X103195Y475768D01*
X100928Y478035D01*
X99701Y480997D01*
X99701Y484203D01*
X100928Y487165D01*
X103195Y489432D01*
X106157Y490659D01*
X122443Y490659D01*
X125405Y489432D01*
X127672Y487165D01*
X128899Y484203D01*
X128899Y480997D01*
X127672Y478035D01*
X125405Y475768D01*
X122443Y474541D01*
X106157Y474541D01*
G37*
%LPD*%
%LPC*%
G36*
X335905Y480805D02*
X335905Y480805D01*
X335905Y492733D01*
X345802Y492733D01*
X346734Y492347D01*
X347447Y491634D01*
X347833Y490702D01*
X347833Y480805D01*
X335905Y480805D01*
G37*
%LPD*%
%LPC*%
G36*
X323967Y480805D02*
X323967Y480805D01*
X323967Y490702D01*
X324353Y491634D01*
X325066Y492347D01*
X325998Y492733D01*
X335895Y492733D01*
X335895Y480805D01*
X323967Y480805D01*
G37*
%LPD*%
%LPC*%
G36*
X335905Y468867D02*
X335905Y468867D01*
X335905Y480795D01*
X347833Y480795D01*
X347833Y470898D01*
X347447Y469966D01*
X346734Y469253D01*
X345802Y468867D01*
X335905Y468867D01*
G37*
%LPD*%
%LPC*%
G36*
X325998Y468867D02*
X325998Y468867D01*
X325066Y469253D01*
X324353Y469966D01*
X323967Y470898D01*
X323967Y480795D01*
X335895Y480795D01*
X335895Y468867D01*
X325998Y468867D01*
G37*
%LPD*%
%LPC*%
G36*
X114305Y508005D02*
X114305Y508005D01*
X114305Y517075D01*
X121734Y517075D01*
X123487Y516726D01*
X125139Y516042D01*
X126625Y515049D01*
X127889Y513785D01*
X128882Y512299D01*
X129566Y510647D01*
X129915Y508894D01*
X129915Y508005D01*
X114305Y508005D01*
G37*
%LPD*%
%LPC*%
G36*
X266705Y965205D02*
X266705Y965205D01*
X266705Y974275D01*
X274134Y974275D01*
X275887Y973926D01*
X277539Y973242D01*
X279025Y972249D01*
X280289Y970985D01*
X281282Y969499D01*
X281966Y967847D01*
X282315Y966094D01*
X282315Y965205D01*
X266705Y965205D01*
G37*
%LPD*%
%LPC*%
G36*
X98685Y508005D02*
X98685Y508005D01*
X98685Y508894D01*
X98685Y508897D01*
X98688Y508912D01*
X98691Y508927D01*
X98693Y508937D01*
X98696Y508952D01*
X98699Y508967D01*
X98701Y508977D01*
X98704Y508991D01*
X98707Y509006D01*
X98709Y509016D01*
X98712Y509031D01*
X98715Y509046D01*
X98720Y509071D01*
X98723Y509086D01*
X98728Y509111D01*
X98731Y509126D01*
X98736Y509150D01*
X98739Y509165D01*
X98744Y509190D01*
X98747Y509205D01*
X98752Y509230D01*
X98755Y509245D01*
X98760Y509270D01*
X98763Y509285D01*
X98767Y509309D01*
X98770Y509324D01*
X98773Y509339D01*
X98775Y509349D01*
X98778Y509364D01*
X98781Y509379D01*
X98783Y509389D01*
X98786Y509404D01*
X98789Y509419D01*
X98791Y509429D01*
X98794Y509444D01*
X98797Y509458D01*
X98797Y509459D01*
X98799Y509468D01*
X98802Y509483D01*
X98805Y509498D01*
X98807Y509508D01*
X98810Y509523D01*
X98813Y509538D01*
X98815Y509548D01*
X98818Y509563D01*
X98821Y509578D01*
X98823Y509588D01*
X98826Y509603D01*
X98829Y509617D01*
X98829Y509618D01*
X98834Y509642D01*
X98837Y509657D01*
X98842Y509682D01*
X98845Y509697D01*
X98849Y509722D01*
X98850Y509722D01*
X98852Y509737D01*
X98857Y509762D01*
X98860Y509776D01*
X98860Y509777D01*
X98865Y509801D01*
X98868Y509816D01*
X98873Y509841D01*
X98876Y509856D01*
X98881Y509881D01*
X98884Y509896D01*
X98887Y509911D01*
X98889Y509921D01*
X98892Y509935D01*
X98892Y509936D01*
X98895Y509950D01*
X98897Y509960D01*
X98900Y509975D01*
X98903Y509990D01*
X98905Y510000D01*
X98908Y510015D01*
X98911Y510030D01*
X98913Y510040D01*
X98916Y510055D01*
X98919Y510070D01*
X98921Y510080D01*
X98924Y510094D01*
X98924Y510095D01*
X98927Y510109D01*
X98929Y510119D01*
X98932Y510134D01*
X98934Y510149D01*
X98935Y510149D01*
X98934Y510149D01*
X98936Y510159D01*
X98939Y510174D01*
X98942Y510189D01*
X98947Y510214D01*
X98950Y510229D01*
X98955Y510253D01*
X98955Y510254D01*
X98958Y510268D01*
X98963Y510293D01*
X98966Y510308D01*
X98971Y510333D01*
X98974Y510348D01*
X98979Y510373D01*
X98982Y510388D01*
X98987Y510412D01*
X98987Y510413D01*
X98990Y510427D01*
X98995Y510452D01*
X98998Y510467D01*
X99001Y510482D01*
X99003Y510492D01*
X99006Y510507D01*
X99009Y510522D01*
X99011Y510532D01*
X99014Y510547D01*
X99017Y510562D01*
X99018Y510571D01*
X99019Y510572D01*
X99021Y510586D01*
X99024Y510601D01*
X99026Y510611D01*
X99029Y510626D01*
X99032Y510641D01*
X99034Y510647D01*
X99718Y512299D01*
X100711Y513785D01*
X101975Y515049D01*
X103461Y516042D01*
X105113Y516726D01*
X106866Y517075D01*
X114295Y517075D01*
X114295Y508005D01*
X98685Y508005D01*
G37*
%LPD*%
%LPC*%
G36*
X251085Y965205D02*
X251085Y965205D01*
X251085Y966094D01*
X251085Y966097D01*
X251088Y966111D01*
X251088Y966112D01*
X251091Y966126D01*
X251093Y966136D01*
X251096Y966151D01*
X251099Y966166D01*
X251104Y966191D01*
X251107Y966206D01*
X251112Y966231D01*
X251115Y966246D01*
X251120Y966270D01*
X251120Y966271D01*
X251123Y966285D01*
X251128Y966310D01*
X251131Y966325D01*
X251136Y966350D01*
X251139Y966365D01*
X251144Y966390D01*
X251147Y966405D01*
X251152Y966429D01*
X251152Y966430D01*
X251155Y966444D01*
X251157Y966459D01*
X251158Y966459D01*
X251157Y966459D01*
X251159Y966469D01*
X251162Y966484D01*
X251165Y966499D01*
X251167Y966509D01*
X251170Y966524D01*
X251173Y966539D01*
X251175Y966549D01*
X251178Y966564D01*
X251181Y966579D01*
X251183Y966588D01*
X251186Y966603D01*
X251189Y966618D01*
X251191Y966628D01*
X251194Y966643D01*
X251197Y966658D01*
X251199Y966668D01*
X251202Y966683D01*
X251205Y966698D01*
X251207Y966708D01*
X251210Y966723D01*
X251213Y966738D01*
X251218Y966762D01*
X251221Y966777D01*
X251226Y966802D01*
X251229Y966817D01*
X251234Y966842D01*
X251237Y966857D01*
X251241Y966882D01*
X251242Y966882D01*
X251244Y966897D01*
X251249Y966921D01*
X251252Y966936D01*
X251257Y966961D01*
X251260Y966976D01*
X251265Y967001D01*
X251268Y967016D01*
X251271Y967031D01*
X251273Y967041D01*
X251276Y967056D01*
X251279Y967070D01*
X251281Y967080D01*
X251284Y967095D01*
X251287Y967110D01*
X251289Y967120D01*
X251292Y967135D01*
X251295Y967150D01*
X251297Y967160D01*
X251300Y967175D01*
X251303Y967190D01*
X251305Y967200D01*
X251308Y967215D01*
X251311Y967229D01*
X251313Y967239D01*
X251316Y967254D01*
X251319Y967269D01*
X251321Y967279D01*
X251324Y967294D01*
X251326Y967309D01*
X251327Y967309D01*
X251326Y967309D01*
X251331Y967334D01*
X251334Y967349D01*
X251339Y967374D01*
X251342Y967388D01*
X251347Y967413D01*
X251350Y967428D01*
X251355Y967453D01*
X251358Y967468D01*
X251363Y967493D01*
X251366Y967508D01*
X251371Y967533D01*
X251374Y967547D01*
X251379Y967572D01*
X251382Y967587D01*
X251385Y967602D01*
X251387Y967612D01*
X251390Y967627D01*
X251393Y967642D01*
X251395Y967652D01*
X251398Y967667D01*
X251401Y967682D01*
X251403Y967692D01*
X251406Y967706D01*
X251409Y967721D01*
X251410Y967731D01*
X251411Y967731D01*
X251413Y967746D01*
X251416Y967761D01*
X251418Y967771D01*
X251421Y967786D01*
X251424Y967801D01*
X251426Y967811D01*
X251429Y967826D01*
X251432Y967841D01*
X251434Y967847D01*
X252118Y969499D01*
X253111Y970985D01*
X254375Y972249D01*
X255861Y973242D01*
X257513Y973926D01*
X259266Y974275D01*
X266695Y974275D01*
X266695Y965205D01*
X251085Y965205D01*
G37*
%LPD*%
%LPC*%
G36*
X251085Y939805D02*
X251085Y939805D01*
X251085Y940694D01*
X251089Y940716D01*
X251092Y940731D01*
X251097Y940756D01*
X251100Y940771D01*
X251105Y940796D01*
X251108Y940811D01*
X251113Y940835D01*
X251116Y940850D01*
X251121Y940875D01*
X251124Y940890D01*
X251127Y940905D01*
X251129Y940915D01*
X251132Y940930D01*
X251135Y940945D01*
X251137Y940955D01*
X251140Y940970D01*
X251143Y940984D01*
X251143Y940985D01*
X251145Y940994D01*
X251148Y941009D01*
X251151Y941024D01*
X251152Y941034D01*
X251153Y941034D01*
X251155Y941049D01*
X251158Y941064D01*
X251160Y941074D01*
X251163Y941089D01*
X251166Y941104D01*
X251168Y941114D01*
X251171Y941129D01*
X251174Y941143D01*
X251174Y941144D01*
X251176Y941153D01*
X251179Y941168D01*
X251182Y941183D01*
X251187Y941208D01*
X251190Y941223D01*
X251195Y941248D01*
X251198Y941263D01*
X251203Y941288D01*
X251206Y941302D01*
X251206Y941303D01*
X251211Y941327D01*
X251214Y941342D01*
X251219Y941367D01*
X251222Y941382D01*
X251227Y941407D01*
X251230Y941422D01*
X251235Y941447D01*
X251237Y941461D01*
X251238Y941462D01*
X251237Y941462D01*
X251240Y941476D01*
X251242Y941486D01*
X251245Y941501D01*
X251248Y941516D01*
X251250Y941526D01*
X251253Y941541D01*
X251256Y941556D01*
X251258Y941566D01*
X251261Y941581D01*
X251264Y941596D01*
X251266Y941606D01*
X251269Y941620D01*
X251269Y941621D01*
X251272Y941635D01*
X251274Y941645D01*
X251277Y941660D01*
X251280Y941675D01*
X251282Y941685D01*
X251285Y941700D01*
X251288Y941715D01*
X251290Y941725D01*
X251293Y941740D01*
X251296Y941755D01*
X251301Y941779D01*
X251301Y941780D01*
X251304Y941794D01*
X251309Y941819D01*
X251312Y941834D01*
X251317Y941859D01*
X251320Y941874D01*
X251324Y941899D01*
X251327Y941914D01*
X251332Y941938D01*
X251332Y941939D01*
X251335Y941953D01*
X251340Y941978D01*
X251343Y941993D01*
X251348Y942018D01*
X251351Y942033D01*
X251354Y942048D01*
X251356Y942058D01*
X251359Y942073D01*
X251362Y942088D01*
X251364Y942097D01*
X251364Y942098D01*
X251367Y942112D01*
X251370Y942127D01*
X251372Y942137D01*
X251375Y942152D01*
X251378Y942167D01*
X251380Y942177D01*
X251383Y942192D01*
X251386Y942207D01*
X251388Y942217D01*
X251391Y942232D01*
X251394Y942247D01*
X251396Y942256D01*
X251396Y942257D01*
X251399Y942271D01*
X251402Y942286D01*
X251404Y942296D01*
X251406Y942311D01*
X251407Y942311D01*
X251406Y942311D01*
X251409Y942326D01*
X251414Y942351D01*
X251417Y942366D01*
X251422Y942391D01*
X251425Y942406D01*
X251430Y942430D01*
X251433Y942445D01*
X251434Y942447D01*
X252118Y944099D01*
X253111Y945585D01*
X254375Y946849D01*
X255861Y947842D01*
X257513Y948526D01*
X259266Y948875D01*
X266695Y948875D01*
X266695Y939805D01*
X251085Y939805D01*
G37*
%LPD*%
%LPC*%
G36*
X114305Y498925D02*
X114305Y498925D01*
X114305Y507995D01*
X129915Y507995D01*
X129915Y507106D01*
X129913Y507095D01*
X129910Y507080D01*
X129905Y507055D01*
X129902Y507040D01*
X129897Y507015D01*
X129894Y507000D01*
X129889Y506975D01*
X129886Y506961D01*
X129886Y506960D01*
X129881Y506936D01*
X129878Y506921D01*
X129873Y506896D01*
X129870Y506881D01*
X129865Y506856D01*
X129863Y506841D01*
X129862Y506841D01*
X129863Y506841D01*
X129860Y506826D01*
X129858Y506816D01*
X129855Y506802D01*
X129855Y506801D01*
X129852Y506787D01*
X129850Y506777D01*
X129847Y506762D01*
X129844Y506747D01*
X129842Y506737D01*
X129839Y506722D01*
X129836Y506707D01*
X129834Y506697D01*
X129831Y506682D01*
X129828Y506667D01*
X129826Y506657D01*
X129823Y506643D01*
X129823Y506642D01*
X129820Y506628D01*
X129818Y506618D01*
X129815Y506603D01*
X129812Y506588D01*
X129810Y506578D01*
X129807Y506563D01*
X129804Y506548D01*
X129799Y506523D01*
X129796Y506508D01*
X129791Y506484D01*
X129791Y506483D01*
X129788Y506469D01*
X129783Y506444D01*
X129780Y506429D01*
X129776Y506404D01*
X129773Y506389D01*
X129768Y506364D01*
X129765Y506349D01*
X129760Y506325D01*
X129760Y506324D01*
X129757Y506310D01*
X129752Y506285D01*
X129749Y506270D01*
X129746Y506255D01*
X129744Y506245D01*
X129741Y506230D01*
X129738Y506215D01*
X129736Y506205D01*
X129733Y506190D01*
X129730Y506175D01*
X129728Y506166D01*
X129728Y506165D01*
X129725Y506151D01*
X129722Y506136D01*
X129720Y506126D01*
X129717Y506111D01*
X129714Y506096D01*
X129712Y506086D01*
X129709Y506071D01*
X129706Y506056D01*
X129704Y506046D01*
X129701Y506031D01*
X129698Y506016D01*
X129696Y506007D01*
X129696Y506006D01*
X129694Y505992D01*
X129693Y505992D01*
X129694Y505992D01*
X129691Y505977D01*
X129686Y505952D01*
X129683Y505937D01*
X129678Y505912D01*
X129675Y505897D01*
X129670Y505872D01*
X129667Y505857D01*
X129662Y505833D01*
X129659Y505818D01*
X129654Y505793D01*
X129651Y505778D01*
X129646Y505753D01*
X129643Y505738D01*
X129638Y505713D01*
X129635Y505698D01*
X129632Y505684D01*
X129632Y505683D01*
X129630Y505674D01*
X129627Y505659D01*
X129624Y505644D01*
X129622Y505634D01*
X129619Y505619D01*
X129616Y505604D01*
X129614Y505594D01*
X129611Y505579D01*
X129609Y505564D01*
X129608Y505564D01*
X129609Y505564D01*
X129607Y505554D01*
X129604Y505539D01*
X129601Y505525D01*
X129601Y505524D01*
X129599Y505515D01*
X129596Y505500D01*
X129593Y505485D01*
X129591Y505475D01*
X129588Y505460D01*
X129585Y505445D01*
X129583Y505435D01*
X129580Y505420D01*
X129577Y505405D01*
X129572Y505380D01*
X129569Y505366D01*
X129569Y505365D01*
X129566Y505353D01*
X128882Y503701D01*
X127889Y502215D01*
X126625Y500951D01*
X125139Y499958D01*
X123487Y499274D01*
X121734Y498925D01*
X114305Y498925D01*
G37*
%LPD*%
%LPC*%
G36*
X266705Y956125D02*
X266705Y956125D01*
X266705Y965195D01*
X282315Y965195D01*
X282315Y964306D01*
X282313Y964294D01*
X282310Y964279D01*
X282308Y964269D01*
X282305Y964254D01*
X282302Y964240D01*
X282302Y964239D01*
X282297Y964215D01*
X282294Y964200D01*
X282289Y964175D01*
X282286Y964160D01*
X282281Y964135D01*
X282278Y964120D01*
X282273Y964095D01*
X282270Y964081D01*
X282270Y964080D01*
X282265Y964056D01*
X282262Y964041D01*
X282257Y964016D01*
X282255Y964001D01*
X282254Y964001D01*
X282255Y964001D01*
X282250Y963976D01*
X282247Y963961D01*
X282244Y963946D01*
X282242Y963936D01*
X282239Y963922D01*
X282239Y963921D01*
X282236Y963907D01*
X282234Y963897D01*
X282231Y963882D01*
X282228Y963867D01*
X282226Y963857D01*
X282223Y963842D01*
X282220Y963827D01*
X282218Y963817D01*
X282215Y963802D01*
X282212Y963787D01*
X282210Y963777D01*
X282207Y963763D01*
X282207Y963762D01*
X282204Y963748D01*
X282202Y963738D01*
X282199Y963723D01*
X282196Y963708D01*
X282194Y963698D01*
X282191Y963683D01*
X282188Y963668D01*
X282183Y963643D01*
X282180Y963628D01*
X282175Y963604D01*
X282175Y963603D01*
X282172Y963589D01*
X282168Y963564D01*
X282165Y963549D01*
X282160Y963524D01*
X282157Y963509D01*
X282152Y963484D01*
X282149Y963469D01*
X282144Y963445D01*
X282144Y963444D01*
X282141Y963430D01*
X282136Y963405D01*
X282133Y963390D01*
X282130Y963375D01*
X282128Y963365D01*
X282125Y963350D01*
X282122Y963335D01*
X282120Y963325D01*
X282117Y963310D01*
X282114Y963295D01*
X282112Y963286D01*
X282109Y963271D01*
X282106Y963256D01*
X282104Y963246D01*
X282101Y963231D01*
X282098Y963216D01*
X282096Y963206D01*
X282093Y963191D01*
X282090Y963176D01*
X282088Y963166D01*
X282086Y963151D01*
X282085Y963151D01*
X282086Y963151D01*
X282083Y963136D01*
X282081Y963127D01*
X282078Y963112D01*
X282075Y963097D01*
X282070Y963072D01*
X282067Y963057D01*
X282062Y963032D01*
X282059Y963017D01*
X282054Y962992D01*
X282051Y962977D01*
X282046Y962953D01*
X282043Y962938D01*
X282038Y962913D01*
X282035Y962898D01*
X282030Y962873D01*
X282027Y962858D01*
X282022Y962833D01*
X282019Y962818D01*
X282016Y962804D01*
X282014Y962794D01*
X282011Y962779D01*
X282008Y962764D01*
X282006Y962754D01*
X282003Y962739D01*
X282001Y962724D01*
X282000Y962724D01*
X282001Y962724D01*
X281999Y962714D01*
X281996Y962699D01*
X281993Y962684D01*
X281991Y962674D01*
X281988Y962659D01*
X281985Y962645D01*
X281983Y962635D01*
X281980Y962620D01*
X281977Y962605D01*
X281975Y962595D01*
X281972Y962580D01*
X281969Y962565D01*
X281967Y962555D01*
X281966Y962553D01*
X281282Y960901D01*
X280289Y959415D01*
X279025Y958151D01*
X277539Y957158D01*
X275887Y956474D01*
X274134Y956125D01*
X266705Y956125D01*
G37*
%LPD*%
%LPC*%
G36*
X106866Y498925D02*
X106866Y498925D01*
X105113Y499274D01*
X103461Y499958D01*
X101975Y500951D01*
X100711Y502215D01*
X99718Y503701D01*
X99034Y505353D01*
X98685Y507106D01*
X98685Y507995D01*
X114295Y507995D01*
X114295Y498925D01*
X106866Y498925D01*
G37*
%LPD*%
%LPC*%
G36*
X259266Y956125D02*
X259266Y956125D01*
X257513Y956474D01*
X255861Y957158D01*
X254375Y958151D01*
X253111Y959415D01*
X252118Y960901D01*
X251434Y962553D01*
X251085Y964306D01*
X251085Y965195D01*
X266695Y965195D01*
X266695Y956125D01*
X259266Y956125D01*
G37*
%LPD*%
%LPC*%
G36*
X516491Y977605D02*
X516491Y977605D01*
X516491Y981912D01*
X522588Y988009D01*
X526895Y988009D01*
X526895Y977605D01*
X516491Y977605D01*
G37*
%LPD*%
%LPC*%
G36*
X526905Y977605D02*
X526905Y977605D01*
X526905Y988009D01*
X531212Y988009D01*
X537309Y981912D01*
X537309Y977605D01*
X526905Y977605D01*
G37*
%LPD*%
%LPC*%
G36*
X526905Y967191D02*
X526905Y967191D01*
X526905Y977595D01*
X537309Y977595D01*
X537309Y973288D01*
X531212Y967191D01*
X526905Y967191D01*
G37*
%LPD*%
%LPC*%
G36*
X512905Y726791D02*
X512905Y726791D01*
X512905Y737195D01*
X523309Y737195D01*
X523309Y732888D01*
X517212Y726791D01*
X512905Y726791D01*
G37*
%LPD*%
%LPC*%
G36*
X508588Y726791D02*
X508588Y726791D01*
X502491Y732888D01*
X502491Y737195D01*
X512895Y737195D01*
X512895Y726791D01*
X508588Y726791D01*
G37*
%LPD*%
%LPC*%
G36*
X433545Y558805D02*
X433545Y558805D01*
X433545Y559800D01*
X433546Y559807D01*
X433549Y559822D01*
X433551Y559832D01*
X433554Y559847D01*
X433557Y559861D01*
X433557Y559862D01*
X433559Y559871D01*
X433562Y559886D01*
X433565Y559901D01*
X433570Y559926D01*
X433573Y559941D01*
X433578Y559966D01*
X433581Y559981D01*
X433586Y560006D01*
X433589Y560020D01*
X433589Y560021D01*
X433594Y560045D01*
X433597Y560060D01*
X433601Y560085D01*
X433604Y560100D01*
X433609Y560125D01*
X433612Y560140D01*
X433615Y560155D01*
X433617Y560165D01*
X433620Y560179D01*
X433620Y560180D01*
X433623Y560194D01*
X433625Y560204D01*
X433628Y560219D01*
X433631Y560234D01*
X433633Y560244D01*
X433636Y560259D01*
X433639Y560274D01*
X433641Y560284D01*
X433644Y560299D01*
X433647Y560314D01*
X433649Y560324D01*
X433652Y560338D01*
X433652Y560339D01*
X433655Y560353D01*
X433660Y560378D01*
X433663Y560393D01*
X433668Y560418D01*
X433671Y560433D01*
X433676Y560458D01*
X433679Y560473D01*
X433683Y560497D01*
X433684Y560498D01*
X433686Y560512D01*
X433691Y560537D01*
X433694Y560552D01*
X433699Y560577D01*
X433702Y560592D01*
X433705Y560607D01*
X433707Y560617D01*
X433710Y560632D01*
X433713Y560647D01*
X433715Y560656D01*
X433715Y560657D01*
X433718Y560671D01*
X433721Y560686D01*
X433723Y560696D01*
X433726Y560711D01*
X433729Y560726D01*
X433731Y560736D01*
X433734Y560751D01*
X433737Y560766D01*
X433739Y560776D01*
X433742Y560791D01*
X433745Y560806D01*
X433750Y560830D01*
X433753Y560845D01*
X433758Y560870D01*
X433761Y560885D01*
X433766Y560910D01*
X433768Y560925D01*
X433769Y560925D01*
X433768Y560925D01*
X433773Y560950D01*
X433776Y560965D01*
X433781Y560989D01*
X433784Y561004D01*
X433789Y561029D01*
X433792Y561044D01*
X433795Y561059D01*
X433797Y561069D01*
X433800Y561084D01*
X433803Y561099D01*
X433805Y561109D01*
X433808Y561124D01*
X433811Y561138D01*
X433811Y561139D01*
X433813Y561148D01*
X433816Y561163D01*
X433819Y561178D01*
X433821Y561188D01*
X433824Y561203D01*
X433827Y561218D01*
X433829Y561228D01*
X433832Y561243D01*
X433835Y561258D01*
X433837Y561268D01*
X433840Y561283D01*
X433843Y561297D01*
X433843Y561298D01*
X433848Y561322D01*
X433851Y561337D01*
X433855Y561362D01*
X433858Y561377D01*
X433863Y561402D01*
X433866Y561417D01*
X433871Y561442D01*
X433874Y561456D01*
X433874Y561457D01*
X433879Y561481D01*
X433882Y561496D01*
X433885Y561511D01*
X433887Y561521D01*
X433890Y561536D01*
X433893Y561551D01*
X433895Y561561D01*
X433898Y561576D01*
X433901Y561591D01*
X433903Y561601D01*
X433906Y561615D01*
X433906Y561616D01*
X433909Y561630D01*
X433911Y561640D01*
X433914Y561655D01*
X433917Y561670D01*
X433919Y561680D01*
X433922Y561695D01*
X433925Y561710D01*
X433927Y561720D01*
X433930Y561735D01*
X433933Y561750D01*
X433935Y561762D01*
X434701Y563610D01*
X435812Y565274D01*
X437226Y566688D01*
X438890Y567799D01*
X440738Y568565D01*
X442700Y568955D01*
X443695Y568955D01*
X443695Y558805D01*
X433545Y558805D01*
G37*
%LPD*%
%LPC*%
G36*
X432545Y952605D02*
X432545Y952605D01*
X432545Y953600D01*
X432546Y953605D01*
X432549Y953620D01*
X432554Y953645D01*
X432557Y953660D01*
X432562Y953685D01*
X432565Y953700D01*
X432568Y953714D01*
X432569Y953724D01*
X432570Y953724D01*
X432572Y953739D01*
X432575Y953754D01*
X432577Y953764D01*
X432580Y953779D01*
X432583Y953794D01*
X432585Y953804D01*
X432588Y953819D01*
X432591Y953834D01*
X432593Y953844D01*
X432596Y953859D01*
X432599Y953873D01*
X432601Y953883D01*
X432604Y953898D01*
X432607Y953913D01*
X432609Y953923D01*
X432612Y953938D01*
X432615Y953953D01*
X432620Y953978D01*
X432623Y953993D01*
X432628Y954018D01*
X432631Y954032D01*
X432636Y954057D01*
X432639Y954072D01*
X432644Y954097D01*
X432647Y954112D01*
X432652Y954137D01*
X432654Y954152D01*
X432655Y954152D01*
X432654Y954152D01*
X432657Y954167D01*
X432659Y954177D01*
X432662Y954191D01*
X432665Y954206D01*
X432667Y954216D01*
X432670Y954231D01*
X432673Y954246D01*
X432675Y954256D01*
X432678Y954271D01*
X432681Y954286D01*
X432683Y954296D01*
X432686Y954311D01*
X432689Y954326D01*
X432691Y954336D01*
X432694Y954350D01*
X432697Y954365D01*
X432699Y954375D01*
X432702Y954390D01*
X432705Y954405D01*
X432710Y954430D01*
X432713Y954445D01*
X432718Y954470D01*
X432721Y954485D01*
X432726Y954509D01*
X432729Y954524D01*
X432734Y954549D01*
X432737Y954564D01*
X432741Y954589D01*
X432744Y954604D01*
X432749Y954629D01*
X432752Y954644D01*
X432755Y954658D01*
X432755Y954659D01*
X432757Y954668D01*
X432760Y954683D01*
X432763Y954698D01*
X432765Y954708D01*
X432768Y954723D01*
X432771Y954738D01*
X432773Y954748D01*
X432776Y954763D01*
X432779Y954778D01*
X432781Y954788D01*
X432784Y954803D01*
X432787Y954817D01*
X432787Y954818D01*
X432789Y954827D01*
X432792Y954842D01*
X432795Y954857D01*
X432800Y954882D01*
X432803Y954897D01*
X432808Y954922D01*
X432811Y954937D01*
X432816Y954962D01*
X432819Y954976D01*
X432819Y954977D01*
X432823Y955001D01*
X432824Y955001D01*
X432826Y955016D01*
X432831Y955041D01*
X432834Y955056D01*
X432839Y955081D01*
X432842Y955096D01*
X432845Y955111D01*
X432847Y955121D01*
X432850Y955135D01*
X432850Y955136D01*
X432853Y955150D01*
X432855Y955160D01*
X432858Y955175D01*
X432861Y955190D01*
X432863Y955200D01*
X432866Y955215D01*
X432869Y955230D01*
X432871Y955240D01*
X432874Y955255D01*
X432877Y955270D01*
X432879Y955280D01*
X432882Y955294D01*
X432882Y955295D01*
X432885Y955309D01*
X432890Y955334D01*
X432893Y955349D01*
X432898Y955374D01*
X432901Y955389D01*
X432906Y955414D01*
X432908Y955429D01*
X432909Y955429D01*
X432908Y955429D01*
X432913Y955453D01*
X432913Y955454D01*
X432916Y955468D01*
X432921Y955493D01*
X432924Y955508D01*
X432929Y955533D01*
X432932Y955548D01*
X432935Y955562D01*
X433701Y957410D01*
X434812Y959074D01*
X436226Y960488D01*
X437890Y961599D01*
X439738Y962365D01*
X441700Y962755D01*
X442695Y962755D01*
X442695Y952605D01*
X432545Y952605D01*
G37*
%LPD*%
%LPC*%
G36*
X433545Y711205D02*
X433545Y711205D01*
X433545Y712200D01*
X433545Y712203D01*
X433550Y712228D01*
X433553Y712243D01*
X433558Y712268D01*
X433561Y712283D01*
X433566Y712308D01*
X433569Y712323D01*
X433574Y712347D01*
X433574Y712348D01*
X433577Y712362D01*
X433580Y712377D01*
X433582Y712387D01*
X433585Y712402D01*
X433588Y712417D01*
X433590Y712427D01*
X433593Y712442D01*
X433596Y712457D01*
X433598Y712467D01*
X433601Y712482D01*
X433604Y712497D01*
X433606Y712506D01*
X433609Y712521D01*
X433612Y712536D01*
X433614Y712546D01*
X433617Y712561D01*
X433620Y712576D01*
X433624Y712601D01*
X433625Y712601D01*
X433624Y712601D01*
X433627Y712616D01*
X433632Y712641D01*
X433635Y712656D01*
X433640Y712680D01*
X433643Y712695D01*
X433648Y712720D01*
X433651Y712735D01*
X433656Y712760D01*
X433659Y712775D01*
X433664Y712800D01*
X433667Y712815D01*
X433670Y712829D01*
X433672Y712839D01*
X433675Y712854D01*
X433678Y712869D01*
X433680Y712879D01*
X433683Y712894D01*
X433686Y712909D01*
X433688Y712919D01*
X433691Y712934D01*
X433694Y712949D01*
X433696Y712959D01*
X433699Y712974D01*
X433702Y712988D01*
X433704Y712998D01*
X433707Y713013D01*
X433709Y713028D01*
X433710Y713028D01*
X433709Y713028D01*
X433711Y713038D01*
X433714Y713053D01*
X433717Y713068D01*
X433722Y713093D01*
X433725Y713108D01*
X433730Y713133D01*
X433733Y713147D01*
X433738Y713172D01*
X433741Y713187D01*
X433746Y713212D01*
X433749Y713227D01*
X433754Y713252D01*
X433757Y713267D01*
X433760Y713282D01*
X433762Y713292D01*
X433765Y713306D01*
X433768Y713321D01*
X433770Y713331D01*
X433773Y713346D01*
X433776Y713361D01*
X433778Y713371D01*
X433781Y713386D01*
X433784Y713401D01*
X433786Y713411D01*
X433789Y713426D01*
X433792Y713441D01*
X433793Y713451D01*
X433794Y713451D01*
X433796Y713465D01*
X433799Y713480D01*
X433801Y713490D01*
X433804Y713505D01*
X433807Y713520D01*
X433812Y713545D01*
X433815Y713560D01*
X433820Y713585D01*
X433823Y713600D01*
X433828Y713624D01*
X433831Y713639D01*
X433836Y713664D01*
X433839Y713679D01*
X433844Y713704D01*
X433847Y713719D01*
X433850Y713734D01*
X433852Y713744D01*
X433855Y713759D01*
X433858Y713773D01*
X433858Y713774D01*
X433860Y713783D01*
X433863Y713798D01*
X433866Y713813D01*
X433868Y713823D01*
X433871Y713838D01*
X433874Y713853D01*
X433876Y713863D01*
X433878Y713878D01*
X433879Y713878D01*
X433878Y713878D01*
X433881Y713893D01*
X433883Y713903D01*
X433886Y713918D01*
X433889Y713932D01*
X433889Y713933D01*
X433891Y713942D01*
X433894Y713957D01*
X433897Y713972D01*
X433902Y713997D01*
X433905Y714012D01*
X433910Y714037D01*
X433913Y714052D01*
X433918Y714077D01*
X433921Y714091D01*
X433921Y714092D01*
X433926Y714116D01*
X433929Y714131D01*
X433934Y714156D01*
X433935Y714162D01*
X434701Y716010D01*
X435812Y717674D01*
X437226Y719088D01*
X438890Y720199D01*
X440738Y720965D01*
X442700Y721355D01*
X443695Y721355D01*
X443695Y711205D01*
X433545Y711205D01*
G37*
%LPD*%
%LPC*%
G36*
X443705Y711205D02*
X443705Y711205D01*
X443705Y721355D01*
X444700Y721355D01*
X446662Y720965D01*
X448510Y720199D01*
X450174Y719088D01*
X451588Y717674D01*
X452699Y716010D01*
X453465Y714162D01*
X453855Y712200D01*
X453855Y711205D01*
X443705Y711205D01*
G37*
%LPD*%
%LPC*%
G36*
X443705Y558805D02*
X443705Y558805D01*
X443705Y568955D01*
X444700Y568955D01*
X446662Y568565D01*
X448510Y567799D01*
X450174Y566688D01*
X451588Y565274D01*
X452699Y563610D01*
X453465Y561762D01*
X453855Y559800D01*
X453855Y558805D01*
X443705Y558805D01*
G37*
%LPD*%
%LPC*%
G36*
X442705Y952605D02*
X442705Y952605D01*
X442705Y962755D01*
X443700Y962755D01*
X445662Y962365D01*
X447510Y961599D01*
X449174Y960488D01*
X450588Y959074D01*
X451699Y957410D01*
X452465Y955562D01*
X452855Y953600D01*
X452855Y952605D01*
X442705Y952605D01*
G37*
%LPD*%
%LPC*%
G36*
X443705Y548645D02*
X443705Y548645D01*
X443705Y558795D01*
X453855Y558795D01*
X453855Y557800D01*
X453853Y557791D01*
X453848Y557766D01*
X453846Y557751D01*
X453845Y557751D01*
X453846Y557751D01*
X453841Y557726D01*
X453838Y557711D01*
X453833Y557686D01*
X453830Y557672D01*
X453825Y557647D01*
X453822Y557632D01*
X453819Y557617D01*
X453817Y557607D01*
X453814Y557592D01*
X453811Y557577D01*
X453809Y557567D01*
X453806Y557552D01*
X453803Y557537D01*
X453801Y557527D01*
X453798Y557513D01*
X453795Y557498D01*
X453793Y557488D01*
X453790Y557473D01*
X453787Y557458D01*
X453785Y557448D01*
X453782Y557433D01*
X453779Y557418D01*
X453777Y557408D01*
X453774Y557393D01*
X453771Y557378D01*
X453766Y557354D01*
X453763Y557339D01*
X453759Y557314D01*
X453756Y557299D01*
X453751Y557274D01*
X453748Y557259D01*
X453743Y557234D01*
X453740Y557219D01*
X453735Y557195D01*
X453732Y557180D01*
X453729Y557165D01*
X453727Y557155D01*
X453724Y557140D01*
X453721Y557125D01*
X453719Y557115D01*
X453716Y557100D01*
X453713Y557085D01*
X453711Y557075D01*
X453708Y557060D01*
X453705Y557046D01*
X453705Y557045D01*
X453703Y557036D01*
X453700Y557021D01*
X453697Y557006D01*
X453695Y556996D01*
X453692Y556981D01*
X453689Y556966D01*
X453687Y556956D01*
X453684Y556941D01*
X453681Y556926D01*
X453677Y556901D01*
X453676Y556901D01*
X453677Y556901D01*
X453674Y556887D01*
X453674Y556886D01*
X453669Y556862D01*
X453666Y556847D01*
X453661Y556822D01*
X453658Y556807D01*
X453653Y556782D01*
X453650Y556767D01*
X453645Y556742D01*
X453642Y556728D01*
X453642Y556727D01*
X453637Y556703D01*
X453634Y556688D01*
X453631Y556673D01*
X453629Y556663D01*
X453626Y556648D01*
X453623Y556633D01*
X453621Y556623D01*
X453618Y556608D01*
X453615Y556593D01*
X453613Y556583D01*
X453610Y556569D01*
X453610Y556568D01*
X453607Y556554D01*
X453605Y556544D01*
X453602Y556529D01*
X453599Y556514D01*
X453597Y556504D01*
X453594Y556489D01*
X453592Y556474D01*
X453591Y556474D01*
X453592Y556474D01*
X453587Y556449D01*
X453584Y556434D01*
X453579Y556410D01*
X453579Y556409D01*
X453576Y556395D01*
X453571Y556370D01*
X453568Y556355D01*
X453563Y556330D01*
X453560Y556315D01*
X453555Y556290D01*
X453552Y556275D01*
X453547Y556251D01*
X453547Y556250D01*
X453544Y556236D01*
X453541Y556221D01*
X453539Y556211D01*
X453536Y556196D01*
X453533Y556181D01*
X453531Y556171D01*
X453528Y556156D01*
X453525Y556141D01*
X453523Y556131D01*
X453520Y556116D01*
X453517Y556101D01*
X453515Y556092D01*
X453515Y556091D01*
X453512Y556077D01*
X453509Y556062D01*
X453508Y556052D01*
X453507Y556052D01*
X453505Y556037D01*
X453502Y556022D01*
X453497Y555997D01*
X453494Y555982D01*
X453489Y555957D01*
X453486Y555942D01*
X453481Y555918D01*
X453478Y555903D01*
X453473Y555878D01*
X453470Y555863D01*
X453465Y555838D01*
X452699Y553990D01*
X451588Y552326D01*
X450174Y550912D01*
X448510Y549801D01*
X446662Y549035D01*
X444700Y548645D01*
X443705Y548645D01*
G37*
%LPD*%
%LPC*%
G36*
X443705Y701045D02*
X443705Y701045D01*
X443705Y711195D01*
X453855Y711195D01*
X453855Y710200D01*
X453853Y710187D01*
X453850Y710172D01*
X453848Y710163D01*
X453848Y710162D01*
X453845Y710148D01*
X453842Y710133D01*
X453840Y710123D01*
X453837Y710108D01*
X453834Y710093D01*
X453829Y710068D01*
X453826Y710053D01*
X453821Y710028D01*
X453818Y710013D01*
X453813Y709989D01*
X453810Y709974D01*
X453805Y709949D01*
X453802Y709934D01*
X453797Y709909D01*
X453794Y709894D01*
X453789Y709869D01*
X453787Y709854D01*
X453786Y709854D01*
X453787Y709854D01*
X453784Y709840D01*
X453784Y709839D01*
X453782Y709830D01*
X453779Y709815D01*
X453776Y709800D01*
X453774Y709790D01*
X453771Y709775D01*
X453768Y709760D01*
X453766Y709750D01*
X453763Y709735D01*
X453760Y709720D01*
X453758Y709710D01*
X453755Y709695D01*
X453752Y709681D01*
X453752Y709680D01*
X453750Y709671D01*
X453747Y709656D01*
X453744Y709641D01*
X453742Y709631D01*
X453739Y709616D01*
X453736Y709601D01*
X453731Y709576D01*
X453728Y709561D01*
X453723Y709536D01*
X453720Y709522D01*
X453720Y709521D01*
X453715Y709497D01*
X453712Y709482D01*
X453707Y709457D01*
X453704Y709442D01*
X453700Y709417D01*
X453697Y709402D01*
X453694Y709387D01*
X453692Y709377D01*
X453689Y709363D01*
X453689Y709362D01*
X453686Y709348D01*
X453684Y709338D01*
X453681Y709323D01*
X453678Y709308D01*
X453676Y709298D01*
X453673Y709283D01*
X453670Y709268D01*
X453668Y709258D01*
X453665Y709243D01*
X453662Y709228D01*
X453660Y709218D01*
X453657Y709204D01*
X453657Y709203D01*
X453654Y709189D01*
X453652Y709179D01*
X453649Y709164D01*
X453646Y709149D01*
X453641Y709124D01*
X453638Y709109D01*
X453633Y709084D01*
X453630Y709069D01*
X453625Y709045D01*
X453625Y709044D01*
X453622Y709030D01*
X453618Y709005D01*
X453617Y709005D01*
X453615Y708990D01*
X453610Y708965D01*
X453607Y708950D01*
X453604Y708935D01*
X453602Y708925D01*
X453599Y708910D01*
X453596Y708895D01*
X453594Y708886D01*
X453594Y708885D01*
X453591Y708871D01*
X453588Y708856D01*
X453586Y708846D01*
X453583Y708831D01*
X453580Y708816D01*
X453578Y708806D01*
X453575Y708791D01*
X453572Y708776D01*
X453570Y708766D01*
X453567Y708751D01*
X453564Y708736D01*
X453562Y708727D01*
X453559Y708712D01*
X453556Y708697D01*
X453551Y708672D01*
X453548Y708657D01*
X453543Y708632D01*
X453540Y708617D01*
X453535Y708592D01*
X453533Y708577D01*
X453532Y708577D01*
X453533Y708577D01*
X453528Y708553D01*
X453525Y708538D01*
X453520Y708513D01*
X453517Y708498D01*
X453512Y708473D01*
X453509Y708458D01*
X453506Y708443D01*
X453504Y708433D01*
X453501Y708418D01*
X453498Y708404D01*
X453496Y708394D01*
X453493Y708379D01*
X453490Y708364D01*
X453488Y708354D01*
X453485Y708339D01*
X453482Y708324D01*
X453480Y708314D01*
X453477Y708299D01*
X453474Y708284D01*
X453472Y708274D01*
X453469Y708259D01*
X453466Y708245D01*
X453465Y708238D01*
X452699Y706390D01*
X451588Y704726D01*
X450174Y703312D01*
X448510Y702201D01*
X446662Y701435D01*
X444700Y701045D01*
X443705Y701045D01*
G37*
%LPD*%
%LPC*%
G36*
X442705Y790045D02*
X442705Y790045D01*
X442705Y800195D01*
X452855Y800195D01*
X452855Y799200D01*
X452852Y799183D01*
X452849Y799168D01*
X452844Y799143D01*
X452841Y799128D01*
X452836Y799103D01*
X452833Y799088D01*
X452828Y799063D01*
X452825Y799048D01*
X452820Y799024D01*
X452817Y799009D01*
X452812Y798984D01*
X452809Y798969D01*
X452806Y798954D01*
X452804Y798944D01*
X452801Y798929D01*
X452798Y798914D01*
X452796Y798904D01*
X452793Y798889D01*
X452791Y798875D01*
X452790Y798875D01*
X452791Y798875D01*
X452789Y798865D01*
X452786Y798850D01*
X452783Y798835D01*
X452781Y798825D01*
X452778Y798810D01*
X452775Y798795D01*
X452773Y798785D01*
X452770Y798770D01*
X452767Y798755D01*
X452762Y798730D01*
X452759Y798716D01*
X452754Y798691D01*
X452751Y798676D01*
X452746Y798651D01*
X452743Y798636D01*
X452738Y798611D01*
X452735Y798596D01*
X452730Y798571D01*
X452727Y798557D01*
X452722Y798532D01*
X452719Y798517D01*
X452716Y798502D01*
X452714Y798492D01*
X452711Y798477D01*
X452708Y798462D01*
X452707Y798452D01*
X452706Y798452D01*
X452704Y798437D01*
X452701Y798422D01*
X452699Y798412D01*
X452696Y798398D01*
X452693Y798383D01*
X452691Y798373D01*
X452688Y798358D01*
X452685Y798343D01*
X452683Y798333D01*
X452680Y798318D01*
X452677Y798303D01*
X452675Y798293D01*
X452672Y798278D01*
X452669Y798263D01*
X452664Y798239D01*
X452661Y798224D01*
X452656Y798199D01*
X452653Y798184D01*
X452648Y798159D01*
X452645Y798144D01*
X452640Y798119D01*
X452637Y798104D01*
X452632Y798080D01*
X452629Y798065D01*
X452626Y798050D01*
X452624Y798040D01*
X452622Y798025D01*
X452621Y798025D01*
X452622Y798025D01*
X452619Y798010D01*
X452617Y798000D01*
X452614Y797985D01*
X452611Y797970D01*
X452609Y797960D01*
X452606Y797945D01*
X452603Y797931D01*
X452603Y797930D01*
X452601Y797921D01*
X452598Y797906D01*
X452595Y797891D01*
X452593Y797881D01*
X452590Y797866D01*
X452587Y797851D01*
X452585Y797841D01*
X452582Y797826D01*
X452579Y797811D01*
X452574Y797786D01*
X452571Y797772D01*
X452571Y797771D01*
X452566Y797747D01*
X452563Y797732D01*
X452558Y797707D01*
X452555Y797692D01*
X452550Y797667D01*
X452547Y797652D01*
X452542Y797627D01*
X452539Y797613D01*
X452539Y797612D01*
X452537Y797598D01*
X452536Y797598D01*
X452537Y797598D01*
X452535Y797588D01*
X452532Y797573D01*
X452529Y797558D01*
X452527Y797548D01*
X452524Y797533D01*
X452521Y797518D01*
X452519Y797508D01*
X452516Y797493D01*
X452513Y797478D01*
X452511Y797468D01*
X452508Y797454D01*
X452508Y797453D01*
X452505Y797439D01*
X452503Y797429D01*
X452500Y797414D01*
X452497Y797399D01*
X452495Y797389D01*
X452492Y797374D01*
X452489Y797359D01*
X452484Y797334D01*
X452481Y797319D01*
X452476Y797295D01*
X452476Y797294D01*
X452473Y797280D01*
X452468Y797255D01*
X452465Y797240D01*
X452465Y797238D01*
X451699Y795390D01*
X450588Y793726D01*
X449174Y792312D01*
X447510Y791201D01*
X445662Y790435D01*
X443700Y790045D01*
X442705Y790045D01*
G37*
%LPD*%
%LPC*%
G36*
X442705Y942445D02*
X442705Y942445D01*
X442705Y952595D01*
X452855Y952595D01*
X452855Y951600D01*
X452853Y951589D01*
X452851Y951579D01*
X452848Y951564D01*
X452845Y951549D01*
X452843Y951539D01*
X452840Y951525D01*
X452840Y951524D01*
X452837Y951510D01*
X452835Y951500D01*
X452832Y951485D01*
X452829Y951470D01*
X452827Y951460D01*
X452824Y951445D01*
X452821Y951430D01*
X452817Y951405D01*
X452816Y951405D01*
X452817Y951405D01*
X452814Y951390D01*
X452809Y951366D01*
X452809Y951365D01*
X452806Y951351D01*
X452801Y951326D01*
X452798Y951311D01*
X452793Y951286D01*
X452790Y951271D01*
X452785Y951246D01*
X452782Y951231D01*
X452777Y951207D01*
X452777Y951206D01*
X452774Y951192D01*
X452771Y951177D01*
X452769Y951167D01*
X452766Y951152D01*
X452763Y951137D01*
X452761Y951127D01*
X452758Y951112D01*
X452755Y951097D01*
X452753Y951087D01*
X452750Y951072D01*
X452747Y951057D01*
X452745Y951048D01*
X452745Y951047D01*
X452742Y951033D01*
X452739Y951018D01*
X452737Y951008D01*
X452734Y950993D01*
X452732Y950978D01*
X452731Y950978D01*
X452732Y950978D01*
X452727Y950953D01*
X452724Y950938D01*
X452719Y950913D01*
X452716Y950898D01*
X452711Y950874D01*
X452708Y950859D01*
X452703Y950834D01*
X452700Y950819D01*
X452695Y950794D01*
X452692Y950779D01*
X452687Y950754D01*
X452684Y950739D01*
X452681Y950725D01*
X452681Y950724D01*
X452679Y950715D01*
X452676Y950700D01*
X452673Y950685D01*
X452671Y950675D01*
X452668Y950660D01*
X452665Y950645D01*
X452663Y950635D01*
X452660Y950620D01*
X452657Y950605D01*
X452655Y950595D01*
X452652Y950580D01*
X452649Y950566D01*
X452649Y950565D01*
X452648Y950556D01*
X452647Y950556D01*
X452645Y950541D01*
X452642Y950526D01*
X452637Y950501D01*
X452634Y950486D01*
X452629Y950461D01*
X452626Y950446D01*
X452621Y950421D01*
X452618Y950407D01*
X452618Y950406D01*
X452613Y950382D01*
X452610Y950367D01*
X452605Y950342D01*
X452602Y950327D01*
X452597Y950302D01*
X452594Y950287D01*
X452591Y950272D01*
X452589Y950262D01*
X452586Y950248D01*
X452586Y950247D01*
X452583Y950233D01*
X452581Y950223D01*
X452578Y950208D01*
X452575Y950193D01*
X452573Y950183D01*
X452570Y950168D01*
X452567Y950153D01*
X452565Y950143D01*
X452563Y950128D01*
X452562Y950128D01*
X452563Y950128D01*
X452560Y950113D01*
X452558Y950103D01*
X452555Y950089D01*
X452555Y950088D01*
X452552Y950074D01*
X452550Y950064D01*
X452547Y950049D01*
X452544Y950034D01*
X452539Y950009D01*
X452536Y949994D01*
X452531Y949969D01*
X452528Y949954D01*
X452523Y949930D01*
X452523Y949929D01*
X452520Y949915D01*
X452515Y949890D01*
X452512Y949875D01*
X452507Y949850D01*
X452504Y949835D01*
X452501Y949820D01*
X452499Y949810D01*
X452496Y949795D01*
X452493Y949780D01*
X452491Y949771D01*
X452491Y949770D01*
X452488Y949756D01*
X452485Y949741D01*
X452483Y949731D01*
X452480Y949716D01*
X452478Y949701D01*
X452477Y949701D01*
X452478Y949701D01*
X452476Y949691D01*
X452473Y949676D01*
X452470Y949661D01*
X452468Y949651D01*
X452465Y949638D01*
X451699Y947790D01*
X450588Y946126D01*
X449174Y944712D01*
X447510Y943601D01*
X445662Y942835D01*
X443700Y942445D01*
X442705Y942445D01*
G37*
%LPD*%
%LPC*%
G36*
X442700Y548645D02*
X442700Y548645D01*
X440738Y549035D01*
X438890Y549801D01*
X437226Y550912D01*
X435812Y552326D01*
X434701Y553990D01*
X433935Y555838D01*
X433545Y557800D01*
X433545Y558795D01*
X443695Y558795D01*
X443695Y548645D01*
X442700Y548645D01*
G37*
%LPD*%
%LPC*%
G36*
X442700Y701045D02*
X442700Y701045D01*
X440738Y701435D01*
X438890Y702201D01*
X437226Y703312D01*
X435812Y704726D01*
X434701Y706390D01*
X433935Y708238D01*
X433545Y710200D01*
X433545Y711195D01*
X443695Y711195D01*
X443695Y701045D01*
X442700Y701045D01*
G37*
%LPD*%
%LPC*%
G36*
X441700Y942445D02*
X441700Y942445D01*
X439738Y942835D01*
X437890Y943601D01*
X436226Y944712D01*
X434812Y946126D01*
X433701Y947790D01*
X432935Y949638D01*
X432545Y951600D01*
X432545Y952595D01*
X442695Y952595D01*
X442695Y942445D01*
X441700Y942445D01*
G37*
%LPD*%
D10*
X512900Y737200D03*
D11*
X487500Y737200D03*
D10*
X526900Y977600D03*
D11*
X501500Y977600D03*
D12*
X316700Y736600D03*
X316700Y711200D03*
X316700Y685800D03*
X316700Y660400D03*
X316700Y635000D03*
X316700Y609600D03*
X316700Y584200D03*
X316700Y558800D03*
X443700Y558800D03*
X443700Y584200D03*
X443700Y609600D03*
X443700Y635000D03*
X443700Y660400D03*
X443700Y685800D03*
X443700Y711200D03*
X443700Y736600D03*
X315700Y978000D03*
X315700Y952600D03*
X315700Y927200D03*
X315700Y901800D03*
X315700Y876400D03*
X315700Y851000D03*
X315700Y825600D03*
X315700Y800200D03*
X442700Y800200D03*
X442700Y825600D03*
X442700Y851000D03*
X442700Y876400D03*
X442700Y901800D03*
X442700Y927200D03*
X442700Y952600D03*
X442700Y978000D03*
D13*
X335900Y480800D03*
D14*
X310500Y480800D03*
D13*
X493200Y685600D03*
D14*
X493200Y660200D03*
X493200Y634800D03*
X493200Y609400D03*
D13*
X489200Y927400D03*
D14*
X489200Y902000D03*
X489200Y876600D03*
X489200Y851200D03*
D13*
X520200Y927000D03*
D14*
X520200Y901600D03*
X520200Y876200D03*
X520200Y850800D03*
X369900Y711200D03*
X344500Y711200D03*
X369900Y685800D03*
X344500Y685800D03*
X369900Y660400D03*
X344500Y660400D03*
X368900Y952600D03*
X343500Y952600D03*
X368900Y927200D03*
X343500Y927200D03*
X368900Y901800D03*
X343500Y901800D03*
D15*
X120840Y965200D02*
X107760Y965200D01*
X107760Y939800D02*
X120840Y939800D01*
X120840Y914400D02*
X107760Y914400D01*
X107760Y889000D02*
X120840Y889000D01*
X120840Y863600D02*
X107760Y863600D01*
X107760Y838200D02*
X120840Y838200D01*
X120840Y812800D02*
X107760Y812800D01*
X107760Y787400D02*
X120840Y787400D01*
X120840Y762000D02*
X107760Y762000D01*
X107760Y736600D02*
X120840Y736600D01*
X120840Y711200D02*
X107760Y711200D01*
X107760Y685800D02*
X120840Y685800D01*
X120840Y660400D02*
X107760Y660400D01*
X107760Y635000D02*
X120840Y635000D01*
X120840Y609600D02*
X107760Y609600D01*
X107760Y584200D02*
X120840Y584200D01*
X120840Y558800D02*
X107760Y558800D01*
X107760Y533400D02*
X120840Y533400D01*
X120840Y508000D02*
X107760Y508000D01*
X107760Y482600D02*
X120840Y482600D01*
X260160Y965200D02*
X273240Y965200D01*
X273240Y939800D02*
X260160Y939800D01*
X260160Y914400D02*
X273240Y914400D01*
X273240Y889000D02*
X260160Y889000D01*
X260160Y863600D02*
X273240Y863600D01*
X273240Y838200D02*
X260160Y838200D01*
X260160Y812800D02*
X273240Y812800D01*
X273240Y787400D02*
X260160Y787400D01*
X260160Y762000D02*
X273240Y762000D01*
X273240Y736600D02*
X260160Y736600D01*
X260160Y711200D02*
X273240Y711200D01*
X273240Y685800D02*
X260160Y685800D01*
X260160Y660400D02*
X273240Y660400D01*
X273240Y635000D02*
X260160Y635000D01*
X260160Y609600D02*
X273240Y609600D01*
X273240Y584200D02*
X260160Y584200D01*
X260160Y558800D02*
X273240Y558800D01*
X273240Y533400D02*
X260160Y533400D01*
X260160Y508000D02*
X273240Y508000D01*
X273240Y482600D02*
X260160Y482600D01*
D16*
X391400Y495526D02*
X391400Y468475D01*
X431024Y468475D02*
X431024Y495526D01*
X470648Y495526D02*
X470648Y468475D01*
D17*
X369900Y685800D02*
X369900Y711200D01*
X369900Y685800D02*
X369900Y660400D01*
X368900Y901800D02*
X368900Y927200D01*
X368900Y952600D01*
D18*
X356300Y914400D02*
X266700Y914400D01*
X356300Y914400D02*
X368900Y901800D01*
D17*
X369900Y900800D02*
X369900Y711200D01*
D18*
X369900Y900800D02*
X368900Y901800D01*
X278240Y939800D02*
X266700Y939800D01*
D17*
X443700Y711200D02*
X502200Y711200D01*
X512900Y721900D02*
X512900Y737200D01*
X512900Y721900D02*
X502200Y711200D01*
X443700Y558800D02*
X391400Y506500D01*
X391400Y482000D01*
X418952Y776452D02*
X442700Y800200D01*
X418952Y776452D02*
X418952Y730948D01*
X438700Y711200D02*
X443700Y711200D01*
X438700Y711200D02*
X418952Y730948D01*
X423952Y969477D02*
X423952Y986523D01*
X431177Y993748D01*
X514982Y993748D01*
X526900Y981830D02*
X526900Y977600D01*
X526900Y981830D02*
X514982Y993748D01*
X442700Y952600D02*
X440829Y952600D01*
X423952Y969477D01*
X437700Y952600D02*
X442700Y952600D01*
X443700Y558800D02*
X438829Y558800D01*
X440829Y711200D02*
X443700Y711200D01*
X440829Y711200D02*
X421952Y692323D01*
D18*
X266700Y939800D02*
X266700Y962800D01*
X359300Y995000D02*
X401700Y952600D01*
X442700Y952600D01*
X359300Y995000D02*
X298900Y995000D01*
X266700Y962800D01*
D17*
X266700Y965200D02*
X266700Y939864D01*
X337100Y482000D02*
X335900Y480800D01*
X337100Y482000D02*
X391400Y482000D01*
X316700Y609600D02*
X316700Y635000D01*
X315700Y851000D02*
X315700Y876400D01*
D18*
X237048Y690197D02*
X254557Y672688D01*
X266700Y609600D02*
X275555Y609600D01*
X285352Y619397D01*
X285352Y667003D02*
X279667Y672688D01*
D19*
X254557Y672688D01*
D18*
X285352Y667003D02*
X285352Y619397D01*
X237048Y690197D02*
X237048Y809403D01*
D19*
X253245Y825600D02*
X315700Y825600D01*
D18*
X253245Y825600D02*
X237048Y809403D01*
X252845Y685800D02*
X266700Y685800D01*
X252845Y685800D02*
X244000Y694645D01*
X244000Y788000D01*
X256200Y800200D01*
D19*
X315700Y800200D01*
D17*
X316700Y584200D02*
X273240Y584200D01*
X266700Y584200D01*
D19*
X277843Y545688D02*
X253557Y545688D01*
D18*
X244048Y555197D01*
X290955Y558800D02*
X316700Y558800D01*
X290955Y558800D02*
X277843Y545688D01*
X266700Y660400D02*
X256700Y660400D01*
X244048Y647748D01*
X244048Y555197D01*
D17*
X493000Y685800D02*
X493200Y685600D01*
X493000Y685800D02*
X443700Y685800D01*
X443900Y660200D02*
X493200Y660200D01*
X443900Y660200D02*
X443700Y660400D01*
X443900Y634800D02*
X493200Y634800D01*
X443900Y634800D02*
X443700Y635000D01*
X443900Y609400D02*
X493200Y609400D01*
X443900Y609400D02*
X443700Y609600D01*
X489000Y927200D02*
X489200Y927400D01*
X489000Y927200D02*
X442700Y927200D01*
X489600Y927000D02*
X520200Y927000D01*
X489600Y927000D02*
X489200Y927400D01*
X489200Y902000D02*
X442900Y902000D01*
X442700Y901800D01*
X489600Y901600D02*
X520200Y901600D01*
X489600Y901600D02*
X489200Y902000D01*
X489200Y876600D02*
X442900Y876600D01*
X442700Y876400D01*
X489600Y876200D02*
X520200Y876200D01*
X489600Y876200D02*
X489200Y876600D01*
X489200Y851200D02*
X442900Y851200D01*
X442700Y851000D01*
X489600Y850800D02*
X520200Y850800D01*
X489600Y850800D02*
X489200Y851200D01*
X344500Y660400D02*
X316700Y660400D01*
X316700Y685800D02*
X344500Y685800D01*
X344500Y711200D02*
X316700Y711200D01*
X315700Y901800D02*
X343500Y901800D01*
X343500Y927200D02*
X315700Y927200D01*
X315700Y952600D02*
X343500Y952600D01*
D20*
X215936Y761964D02*
X114300Y863600D01*
X310500Y480800D02*
X298700Y469000D01*
X244000Y469000D01*
X215936Y497064D01*
X215936Y761964D01*
D17*
X266700Y736600D02*
X316700Y736600D01*
D18*
X315700Y978000D02*
X302000Y978000D01*
D20*
X338000Y813542D02*
X338000Y756900D01*
D18*
X317700Y736600D01*
X316700Y736600D01*
D19*
X297895Y853000D02*
X226000Y853000D01*
X297895Y853000D02*
X311071Y839824D01*
X338000Y819105D02*
X338000Y813542D01*
X338000Y819105D02*
X317281Y839824D01*
X311071Y839824D01*
X289604Y965604D02*
X302000Y978000D01*
X289604Y965604D02*
X289604Y941825D01*
X277484Y929704D01*
X226000Y925000D02*
X226000Y853000D01*
X226000Y925000D02*
X230704Y929704D01*
X277484Y929704D01*
D17*
X487500Y743200D02*
X487500Y737200D01*
X487500Y743200D02*
X497502Y753202D01*
X521528Y753202D01*
X538244Y736487D01*
X538244Y563121D01*
X470648Y495526D01*
X470648Y482000D01*
X539726Y939374D02*
X501500Y977600D01*
X539726Y939374D02*
X539726Y796426D01*
X487500Y744200D01*
X487500Y737200D01*
X444300Y737200D01*
X443700Y736600D01*
X442700Y978000D02*
X501100Y978000D01*
X501500Y977600D01*
X431024Y511024D02*
X431024Y482000D01*
X431024Y511024D02*
X467000Y547000D01*
X467000Y573900D01*
X456700Y584200D01*
X443700Y584200D01*
X443900Y584000D02*
X444556Y584000D01*
X443900Y584000D02*
X443700Y584200D01*
X442700Y820316D02*
X442700Y825600D01*
X442700Y820316D02*
X405744Y783360D01*
X405744Y624156D01*
X443700Y586200D02*
X443700Y584200D01*
X443700Y586200D02*
X405744Y624156D01*
X127513Y533400D02*
X114300Y533400D01*
X415738Y446345D02*
X431024Y461631D01*
X431024Y482000D01*
X214568Y446345D02*
X127513Y533400D01*
X214568Y446345D02*
X415738Y446345D01*
M02*
