G04 EAGLE Gerber RS-274X export*
G75*
%MOMM*%
%FSLAX34Y34*%
%LPD*%
%INSilkscreen Bottom*%
%IPPOS*%
%AMOC8*
5,1,8,0,0,1.08239X$1,22.5*%
G01*
%ADD10C,0.203200*%
%ADD11C,0.127000*%


D10*
X376250Y723900D02*
X382600Y717550D01*
X382600Y704850D02*
X376250Y698500D01*
X382600Y692150D01*
X382600Y679450D02*
X376250Y673100D01*
X382600Y666750D01*
X382600Y654050D02*
X376250Y647700D01*
X376250Y723900D02*
X338150Y723900D01*
X331800Y717550D01*
X331800Y704850D01*
X338150Y698500D01*
X331800Y692150D01*
X331800Y679450D01*
X338150Y673100D01*
X331800Y666750D01*
X331800Y654050D01*
X338150Y647700D01*
X338150Y698500D02*
X376250Y698500D01*
X376250Y673100D02*
X338150Y673100D01*
X338150Y647700D02*
X376250Y647700D01*
X382600Y654050D02*
X382600Y666750D01*
X382600Y679450D02*
X382600Y692150D01*
X382600Y704850D02*
X382600Y717550D01*
X385950Y717550D02*
X385950Y704850D01*
D11*
X328625Y717636D02*
X324871Y717636D01*
X324806Y717634D01*
X324742Y717628D01*
X324678Y717618D01*
X324614Y717605D01*
X324552Y717587D01*
X324491Y717566D01*
X324431Y717542D01*
X324373Y717513D01*
X324316Y717481D01*
X324262Y717446D01*
X324210Y717408D01*
X324160Y717366D01*
X324113Y717322D01*
X324069Y717275D01*
X324027Y717225D01*
X323989Y717173D01*
X323954Y717119D01*
X323922Y717062D01*
X323893Y717004D01*
X323869Y716944D01*
X323848Y716883D01*
X323830Y716821D01*
X323817Y716757D01*
X323807Y716693D01*
X323801Y716629D01*
X323799Y716564D01*
X323799Y716027D01*
X323799Y720584D02*
X323799Y722193D01*
X323801Y722258D01*
X323807Y722322D01*
X323817Y722386D01*
X323830Y722450D01*
X323848Y722512D01*
X323869Y722573D01*
X323893Y722633D01*
X323922Y722691D01*
X323954Y722748D01*
X323989Y722802D01*
X324027Y722854D01*
X324069Y722904D01*
X324113Y722951D01*
X324160Y722995D01*
X324210Y723037D01*
X324262Y723075D01*
X324316Y723110D01*
X324373Y723142D01*
X324431Y723171D01*
X324491Y723195D01*
X324552Y723216D01*
X324614Y723234D01*
X324678Y723247D01*
X324742Y723257D01*
X324806Y723263D01*
X324871Y723265D01*
X325408Y723265D01*
X325473Y723263D01*
X325537Y723257D01*
X325601Y723247D01*
X325665Y723234D01*
X325727Y723216D01*
X325788Y723195D01*
X325848Y723171D01*
X325906Y723142D01*
X325963Y723110D01*
X326017Y723075D01*
X326069Y723037D01*
X326119Y722995D01*
X326166Y722951D01*
X326210Y722904D01*
X326252Y722854D01*
X326290Y722802D01*
X326325Y722748D01*
X326357Y722691D01*
X326386Y722633D01*
X326410Y722573D01*
X326431Y722512D01*
X326449Y722450D01*
X326462Y722386D01*
X326472Y722322D01*
X326478Y722258D01*
X326480Y722193D01*
X326480Y720584D01*
X328625Y720584D01*
X328625Y723265D01*
D10*
X381600Y958950D02*
X375250Y965300D01*
X381600Y946250D02*
X375250Y939900D01*
X381600Y933550D01*
X381600Y920850D02*
X375250Y914500D01*
X381600Y908150D01*
X381600Y895450D02*
X375250Y889100D01*
X375250Y965300D02*
X337150Y965300D01*
X330800Y958950D01*
X330800Y946250D01*
X337150Y939900D01*
X330800Y933550D01*
X330800Y920850D01*
X337150Y914500D01*
X330800Y908150D01*
X330800Y895450D01*
X337150Y889100D01*
X337150Y939900D02*
X375250Y939900D01*
X375250Y914500D02*
X337150Y914500D01*
X337150Y889100D02*
X375250Y889100D01*
X381600Y895450D02*
X381600Y908150D01*
X381600Y920850D02*
X381600Y933550D01*
X381600Y946250D02*
X381600Y958950D01*
X384950Y958950D02*
X384950Y946250D01*
D11*
X327625Y959036D02*
X323871Y959036D01*
X323806Y959034D01*
X323742Y959028D01*
X323678Y959018D01*
X323614Y959005D01*
X323552Y958987D01*
X323491Y958966D01*
X323431Y958942D01*
X323373Y958913D01*
X323316Y958881D01*
X323262Y958846D01*
X323210Y958808D01*
X323160Y958766D01*
X323113Y958722D01*
X323069Y958675D01*
X323027Y958625D01*
X322989Y958573D01*
X322954Y958519D01*
X322922Y958462D01*
X322893Y958404D01*
X322869Y958344D01*
X322848Y958283D01*
X322830Y958221D01*
X322817Y958157D01*
X322807Y958093D01*
X322801Y958029D01*
X322799Y957964D01*
X322799Y957427D01*
X325480Y961984D02*
X325480Y963593D01*
X325478Y963658D01*
X325472Y963722D01*
X325462Y963786D01*
X325449Y963850D01*
X325431Y963912D01*
X325410Y963973D01*
X325386Y964033D01*
X325357Y964091D01*
X325325Y964148D01*
X325290Y964202D01*
X325252Y964254D01*
X325210Y964304D01*
X325166Y964351D01*
X325119Y964395D01*
X325069Y964437D01*
X325017Y964475D01*
X324963Y964510D01*
X324906Y964542D01*
X324848Y964571D01*
X324788Y964595D01*
X324727Y964616D01*
X324665Y964634D01*
X324601Y964647D01*
X324537Y964657D01*
X324473Y964663D01*
X324408Y964665D01*
X324140Y964665D01*
X324069Y964663D01*
X323997Y964657D01*
X323927Y964648D01*
X323857Y964635D01*
X323787Y964618D01*
X323719Y964597D01*
X323652Y964573D01*
X323586Y964545D01*
X323522Y964514D01*
X323459Y964479D01*
X323399Y964441D01*
X323340Y964400D01*
X323284Y964356D01*
X323230Y964309D01*
X323179Y964260D01*
X323131Y964207D01*
X323085Y964152D01*
X323043Y964095D01*
X323003Y964035D01*
X322967Y963974D01*
X322934Y963910D01*
X322905Y963845D01*
X322879Y963779D01*
X322856Y963711D01*
X322837Y963642D01*
X322822Y963572D01*
X322811Y963502D01*
X322803Y963431D01*
X322799Y963360D01*
X322799Y963288D01*
X322803Y963217D01*
X322811Y963146D01*
X322822Y963076D01*
X322837Y963006D01*
X322856Y962937D01*
X322879Y962869D01*
X322905Y962803D01*
X322934Y962738D01*
X322967Y962674D01*
X323003Y962613D01*
X323043Y962553D01*
X323085Y962496D01*
X323131Y962441D01*
X323179Y962388D01*
X323230Y962339D01*
X323284Y962292D01*
X323340Y962248D01*
X323399Y962207D01*
X323459Y962169D01*
X323522Y962134D01*
X323586Y962103D01*
X323652Y962075D01*
X323719Y962051D01*
X323787Y962030D01*
X323857Y962013D01*
X323927Y962000D01*
X323997Y961991D01*
X324069Y961985D01*
X324140Y961983D01*
X324140Y961984D02*
X325480Y961984D01*
X325571Y961986D01*
X325662Y961992D01*
X325752Y962001D01*
X325843Y962015D01*
X325932Y962032D01*
X326020Y962053D01*
X326108Y962078D01*
X326195Y962107D01*
X326280Y962139D01*
X326364Y962174D01*
X326446Y962214D01*
X326526Y962256D01*
X326605Y962302D01*
X326681Y962352D01*
X326755Y962404D01*
X326828Y962460D01*
X326897Y962519D01*
X326964Y962580D01*
X327029Y962645D01*
X327090Y962712D01*
X327149Y962781D01*
X327205Y962853D01*
X327257Y962928D01*
X327307Y963004D01*
X327353Y963083D01*
X327395Y963163D01*
X327435Y963245D01*
X327470Y963329D01*
X327502Y963414D01*
X327531Y963501D01*
X327556Y963588D01*
X327577Y963677D01*
X327594Y963766D01*
X327608Y963857D01*
X327617Y963947D01*
X327623Y964038D01*
X327625Y964129D01*
M02*
