G04 EAGLE Gerber RS-274X export*
G75*
%MOMM*%
%FSLAX34Y34*%
%LPD*%
%INBottom Copper*%
%IPPOS*%
%AMOC8*
5,1,8,0,0,1.08239X$1,22.5*%
G01*
%ADD10C,1.108000*%
%ADD11C,1.508000*%
%ADD12C,0.304800*%
%ADD13C,0.508000*%

G36*
X1139398Y245100D02*
X1139398Y245100D01*
X1136891Y797780D01*
X1136886Y797784D01*
X1136886Y797785D01*
X1135670Y797789D01*
X1135662Y797789D01*
X1134407Y797794D01*
X1134399Y797794D01*
X1133143Y797799D01*
X1133135Y797799D01*
X1131880Y797804D01*
X1131872Y797804D01*
X1130617Y797809D01*
X1130609Y797809D01*
X1129353Y797814D01*
X1129345Y797814D01*
X1128090Y797819D01*
X1128082Y797819D01*
X1126827Y797824D01*
X1126819Y797824D01*
X1125563Y797829D01*
X1125555Y797829D01*
X1124300Y797834D01*
X1124292Y797834D01*
X1123037Y797839D01*
X1123029Y797839D01*
X1121773Y797844D01*
X1121765Y797844D01*
X1120510Y797849D01*
X1120502Y797849D01*
X1119247Y797854D01*
X1119239Y797854D01*
X1117983Y797859D01*
X1117975Y797859D01*
X1116720Y797864D01*
X1116712Y797864D01*
X1115457Y797869D01*
X1115449Y797869D01*
X1114193Y797874D01*
X1114185Y797874D01*
X1112930Y797879D01*
X1112922Y797879D01*
X1111667Y797884D01*
X1111659Y797884D01*
X1110403Y797889D01*
X1110395Y797889D01*
X1109140Y797894D01*
X1109132Y797894D01*
X1107877Y797899D01*
X1107869Y797899D01*
X1106613Y797904D01*
X1106605Y797904D01*
X1105350Y797909D01*
X1105342Y797909D01*
X1104087Y797914D01*
X1104079Y797914D01*
X1102823Y797918D01*
X1102823Y797919D01*
X1102815Y797919D01*
X1101560Y797923D01*
X1101552Y797923D01*
X1100297Y797928D01*
X1100289Y797928D01*
X1099033Y797933D01*
X1099025Y797933D01*
X1097770Y797938D01*
X1097762Y797938D01*
X1096507Y797943D01*
X1096499Y797943D01*
X1095243Y797948D01*
X1095235Y797948D01*
X1093980Y797953D01*
X1093972Y797953D01*
X1092717Y797958D01*
X1092709Y797958D01*
X1091453Y797963D01*
X1091445Y797963D01*
X1090190Y797968D01*
X1090182Y797968D01*
X1088927Y797973D01*
X1088919Y797973D01*
X1087663Y797978D01*
X1087655Y797978D01*
X1086400Y797983D01*
X1086392Y797983D01*
X1085137Y797988D01*
X1085129Y797988D01*
X1083873Y797993D01*
X1083865Y797993D01*
X1082610Y797998D01*
X1082602Y797998D01*
X1081347Y798003D01*
X1081339Y798003D01*
X1080083Y798008D01*
X1080075Y798008D01*
X1078820Y798013D01*
X1078812Y798013D01*
X1077557Y798018D01*
X1077549Y798018D01*
X1076293Y798023D01*
X1076285Y798023D01*
X1075030Y798028D01*
X1075022Y798028D01*
X1073767Y798033D01*
X1073759Y798033D01*
X1072503Y798038D01*
X1072495Y798038D01*
X1071240Y798043D01*
X1071232Y798043D01*
X1069977Y798048D01*
X1069969Y798048D01*
X1068713Y798053D01*
X1068705Y798053D01*
X1067450Y798058D01*
X1067442Y798058D01*
X1066187Y798063D01*
X1066179Y798063D01*
X1064923Y798068D01*
X1064915Y798068D01*
X1063660Y798073D01*
X1063652Y798073D01*
X1062397Y798077D01*
X1062397Y798078D01*
X1062389Y798078D01*
X1061133Y798082D01*
X1061125Y798082D01*
X1059870Y798087D01*
X1059862Y798087D01*
X1058607Y798092D01*
X1058599Y798092D01*
X1057343Y798097D01*
X1057335Y798097D01*
X1056080Y798102D01*
X1056072Y798102D01*
X1054817Y798107D01*
X1054809Y798107D01*
X1053553Y798112D01*
X1053545Y798112D01*
X1052290Y798117D01*
X1052282Y798117D01*
X1051027Y798122D01*
X1051019Y798122D01*
X1049763Y798127D01*
X1049755Y798127D01*
X1048500Y798132D01*
X1048492Y798132D01*
X1047237Y798137D01*
X1047229Y798137D01*
X1045973Y798142D01*
X1045965Y798142D01*
X1044710Y798147D01*
X1044702Y798147D01*
X1043447Y798152D01*
X1043439Y798152D01*
X1042183Y798157D01*
X1042175Y798157D01*
X1040920Y798162D01*
X1040912Y798162D01*
X1039657Y798167D01*
X1039649Y798167D01*
X1038393Y798172D01*
X1038385Y798172D01*
X1037130Y798177D01*
X1037122Y798177D01*
X1035867Y798182D01*
X1035859Y798182D01*
X1034603Y798187D01*
X1034595Y798187D01*
X1033340Y798192D01*
X1033332Y798192D01*
X1032077Y798197D01*
X1032069Y798197D01*
X1030813Y798202D01*
X1030805Y798202D01*
X1029550Y798207D01*
X1029542Y798207D01*
X1028287Y798212D01*
X1028279Y798212D01*
X1027023Y798217D01*
X1027015Y798217D01*
X1025760Y798222D01*
X1025752Y798222D01*
X1024497Y798227D01*
X1024489Y798227D01*
X1023233Y798232D01*
X1023225Y798232D01*
X1021970Y798236D01*
X1021970Y798237D01*
X1021962Y798237D01*
X1020707Y798241D01*
X1020699Y798241D01*
X1019443Y798246D01*
X1019435Y798246D01*
X1018180Y798251D01*
X1018172Y798251D01*
X1016917Y798256D01*
X1016909Y798256D01*
X1015653Y798261D01*
X1015645Y798261D01*
X1014390Y798266D01*
X1014382Y798266D01*
X1013127Y798271D01*
X1013119Y798271D01*
X1011863Y798276D01*
X1011855Y798276D01*
X1010600Y798281D01*
X1010592Y798281D01*
X1009337Y798286D01*
X1009329Y798286D01*
X1008073Y798291D01*
X1008065Y798291D01*
X1006810Y798296D01*
X1006802Y798296D01*
X1005547Y798301D01*
X1005539Y798301D01*
X1004283Y798306D01*
X1004275Y798306D01*
X1003020Y798311D01*
X1003012Y798311D01*
X1001757Y798316D01*
X1001749Y798316D01*
X1000493Y798321D01*
X1000485Y798321D01*
X999230Y798326D01*
X999222Y798326D01*
X997967Y798331D01*
X997959Y798331D01*
X996703Y798336D01*
X996695Y798336D01*
X995440Y798341D01*
X995432Y798341D01*
X994177Y798346D01*
X994169Y798346D01*
X992913Y798351D01*
X992905Y798351D01*
X991650Y798356D01*
X991642Y798356D01*
X990387Y798361D01*
X990379Y798361D01*
X989123Y798366D01*
X989115Y798366D01*
X987860Y798371D01*
X987852Y798371D01*
X986597Y798376D01*
X986589Y798376D01*
X985333Y798381D01*
X985325Y798381D01*
X984070Y798386D01*
X984062Y798386D01*
X982807Y798391D01*
X982799Y798391D01*
X981543Y798395D01*
X981543Y798396D01*
X981535Y798396D01*
X980280Y798400D01*
X980272Y798400D01*
X979017Y798405D01*
X979009Y798405D01*
X977753Y798410D01*
X977745Y798410D01*
X976490Y798415D01*
X976482Y798415D01*
X975227Y798420D01*
X975219Y798420D01*
X973963Y798425D01*
X973955Y798425D01*
X972700Y798430D01*
X972692Y798430D01*
X971437Y798435D01*
X971429Y798435D01*
X970173Y798440D01*
X970165Y798440D01*
X968910Y798445D01*
X968902Y798445D01*
X967647Y798450D01*
X967639Y798450D01*
X966383Y798455D01*
X966375Y798455D01*
X965120Y798460D01*
X965112Y798460D01*
X963857Y798465D01*
X963849Y798465D01*
X962593Y798470D01*
X962585Y798470D01*
X961330Y798475D01*
X961322Y798475D01*
X960067Y798480D01*
X960059Y798480D01*
X958803Y798485D01*
X958795Y798485D01*
X957540Y798490D01*
X957532Y798490D01*
X956277Y798495D01*
X956269Y798495D01*
X955013Y798500D01*
X955005Y798500D01*
X953750Y798505D01*
X953742Y798505D01*
X952487Y798510D01*
X952479Y798510D01*
X951223Y798515D01*
X951215Y798515D01*
X949960Y798520D01*
X949952Y798520D01*
X948697Y798525D01*
X948689Y798525D01*
X947433Y798530D01*
X947425Y798530D01*
X946170Y798535D01*
X946162Y798535D01*
X944907Y798540D01*
X944899Y798540D01*
X943643Y798545D01*
X943635Y798545D01*
X942380Y798550D01*
X942372Y798550D01*
X941117Y798554D01*
X941117Y798555D01*
X941109Y798555D01*
X939853Y798559D01*
X939845Y798559D01*
X938590Y798564D01*
X938582Y798564D01*
X937327Y798569D01*
X937319Y798569D01*
X936063Y798574D01*
X936055Y798574D01*
X934800Y798579D01*
X934792Y798579D01*
X933537Y798584D01*
X933529Y798584D01*
X932273Y798589D01*
X932265Y798589D01*
X931010Y798594D01*
X931002Y798594D01*
X929747Y798599D01*
X929739Y798599D01*
X928483Y798604D01*
X928475Y798604D01*
X927220Y798609D01*
X927212Y798609D01*
X925957Y798614D01*
X925949Y798614D01*
X924693Y798619D01*
X924685Y798619D01*
X923430Y798624D01*
X923422Y798624D01*
X922167Y798629D01*
X922159Y798629D01*
X920903Y798634D01*
X920895Y798634D01*
X919640Y798639D01*
X919632Y798639D01*
X918377Y798644D01*
X918369Y798644D01*
X917113Y798649D01*
X917105Y798649D01*
X915850Y798654D01*
X915842Y798654D01*
X914587Y798659D01*
X914579Y798659D01*
X913323Y798664D01*
X913315Y798664D01*
X912060Y798669D01*
X912052Y798669D01*
X910797Y798674D01*
X910789Y798674D01*
X909533Y798679D01*
X909525Y798679D01*
X908270Y798684D01*
X908262Y798684D01*
X907007Y798689D01*
X906999Y798689D01*
X905743Y798694D01*
X905735Y798694D01*
X904480Y798699D01*
X904472Y798699D01*
X903217Y798704D01*
X903209Y798704D01*
X901953Y798709D01*
X901945Y798709D01*
X900690Y798713D01*
X900690Y798714D01*
X900682Y798714D01*
X899427Y798718D01*
X899419Y798718D01*
X898163Y798723D01*
X898155Y798723D01*
X896900Y798728D01*
X896892Y798728D01*
X895637Y798733D01*
X895629Y798733D01*
X894373Y798738D01*
X894365Y798738D01*
X893110Y798743D01*
X893102Y798743D01*
X891847Y798748D01*
X891839Y798748D01*
X890583Y798753D01*
X890575Y798753D01*
X889320Y798758D01*
X889312Y798758D01*
X888057Y798763D01*
X888056Y798763D01*
X888049Y798763D01*
X886793Y798768D01*
X886785Y798768D01*
X885530Y798773D01*
X885522Y798773D01*
X884267Y798778D01*
X884266Y798778D01*
X884259Y798778D01*
X883003Y798783D01*
X882995Y798783D01*
X881740Y798788D01*
X881732Y798788D01*
X880477Y798793D01*
X880476Y798793D01*
X880469Y798793D01*
X879213Y798798D01*
X879205Y798798D01*
X877950Y798803D01*
X877942Y798803D01*
X876687Y798808D01*
X876686Y798808D01*
X876679Y798808D01*
X875423Y798813D01*
X875415Y798813D01*
X874160Y798818D01*
X874152Y798818D01*
X872897Y798823D01*
X872896Y798823D01*
X872889Y798823D01*
X871633Y798828D01*
X871625Y798828D01*
X870370Y798833D01*
X870362Y798833D01*
X869107Y798838D01*
X869106Y798838D01*
X869099Y798838D01*
X867843Y798843D01*
X867835Y798843D01*
X866580Y798848D01*
X866572Y798848D01*
X865317Y798853D01*
X865316Y798853D01*
X865309Y798853D01*
X864053Y798858D01*
X864045Y798858D01*
X862790Y798863D01*
X862782Y798863D01*
X861527Y798868D01*
X861526Y798868D01*
X861519Y798868D01*
X860263Y798872D01*
X860263Y798873D01*
X860255Y798873D01*
X859000Y798877D01*
X858992Y798877D01*
X857737Y798882D01*
X857736Y798882D01*
X857729Y798882D01*
X856473Y798887D01*
X856465Y798887D01*
X855210Y798892D01*
X855202Y798892D01*
X853947Y798897D01*
X853946Y798897D01*
X853939Y798897D01*
X852683Y798902D01*
X852675Y798902D01*
X851420Y798907D01*
X851412Y798907D01*
X850157Y798912D01*
X850156Y798912D01*
X850149Y798912D01*
X848893Y798917D01*
X848885Y798917D01*
X847630Y798922D01*
X847622Y798922D01*
X846367Y798927D01*
X846366Y798927D01*
X846359Y798927D01*
X845103Y798932D01*
X845095Y798932D01*
X843840Y798937D01*
X843832Y798937D01*
X842577Y798942D01*
X842576Y798942D01*
X842569Y798942D01*
X841313Y798947D01*
X841305Y798947D01*
X840050Y798952D01*
X840042Y798952D01*
X838786Y798957D01*
X838779Y798957D01*
X837523Y798962D01*
X837515Y798962D01*
X836260Y798967D01*
X836252Y798967D01*
X834996Y798972D01*
X834989Y798972D01*
X833733Y798977D01*
X833725Y798977D01*
X832470Y798982D01*
X832462Y798982D01*
X831206Y798987D01*
X831199Y798987D01*
X829943Y798992D01*
X829935Y798992D01*
X828680Y798997D01*
X828672Y798997D01*
X827416Y799002D01*
X827409Y799002D01*
X826153Y799007D01*
X826145Y799007D01*
X824890Y799012D01*
X824882Y799012D01*
X823626Y799017D01*
X823619Y799017D01*
X822363Y799022D01*
X822355Y799022D01*
X821100Y799027D01*
X821092Y799027D01*
X819836Y799031D01*
X819836Y799032D01*
X819829Y799032D01*
X818573Y799036D01*
X818565Y799036D01*
X817310Y799041D01*
X817302Y799041D01*
X816046Y799046D01*
X816039Y799046D01*
X814783Y799051D01*
X814775Y799051D01*
X813520Y799056D01*
X813512Y799056D01*
X812256Y799061D01*
X812249Y799061D01*
X810993Y799066D01*
X810985Y799066D01*
X809730Y799071D01*
X809722Y799071D01*
X808466Y799076D01*
X808459Y799076D01*
X807203Y799081D01*
X807195Y799081D01*
X805940Y799086D01*
X805932Y799086D01*
X804676Y799091D01*
X804669Y799091D01*
X803413Y799096D01*
X803405Y799096D01*
X802150Y799101D01*
X802142Y799101D01*
X800886Y799106D01*
X800879Y799106D01*
X799623Y799111D01*
X799615Y799111D01*
X798360Y799116D01*
X798352Y799116D01*
X797096Y799121D01*
X797089Y799121D01*
X795833Y799126D01*
X795825Y799126D01*
X794570Y799131D01*
X794562Y799131D01*
X793306Y799136D01*
X793299Y799136D01*
X792043Y799141D01*
X792035Y799141D01*
X790780Y799146D01*
X790772Y799146D01*
X789516Y799151D01*
X789509Y799151D01*
X788253Y799156D01*
X788245Y799156D01*
X786990Y799161D01*
X786982Y799161D01*
X785726Y799166D01*
X785719Y799166D01*
X784463Y799171D01*
X784455Y799171D01*
X783200Y799176D01*
X783192Y799176D01*
X781936Y799181D01*
X781929Y799181D01*
X780673Y799186D01*
X780665Y799186D01*
X779410Y799190D01*
X779410Y799191D01*
X779402Y799191D01*
X778146Y799195D01*
X778139Y799195D01*
X776883Y799200D01*
X776875Y799200D01*
X775620Y799205D01*
X775612Y799205D01*
X774356Y799210D01*
X774349Y799210D01*
X773093Y799215D01*
X773085Y799215D01*
X771830Y799220D01*
X771822Y799220D01*
X770566Y799225D01*
X770559Y799225D01*
X769303Y799230D01*
X769295Y799230D01*
X768040Y799235D01*
X768032Y799235D01*
X766776Y799240D01*
X766769Y799240D01*
X765513Y799245D01*
X765505Y799245D01*
X764250Y799250D01*
X764242Y799250D01*
X762986Y799255D01*
X762979Y799255D01*
X761723Y799260D01*
X761715Y799260D01*
X760460Y799265D01*
X760452Y799265D01*
X759196Y799270D01*
X759189Y799270D01*
X757933Y799275D01*
X757925Y799275D01*
X756670Y799280D01*
X756662Y799280D01*
X755406Y799285D01*
X755399Y799285D01*
X754143Y799290D01*
X754135Y799290D01*
X752880Y799295D01*
X752872Y799295D01*
X751616Y799300D01*
X751609Y799300D01*
X750353Y799305D01*
X750345Y799305D01*
X749090Y799310D01*
X749082Y799310D01*
X747826Y799315D01*
X747819Y799315D01*
X746563Y799320D01*
X746555Y799320D01*
X745300Y799325D01*
X745292Y799325D01*
X744036Y799330D01*
X744029Y799330D01*
X742773Y799335D01*
X742765Y799335D01*
X741510Y799340D01*
X741502Y799340D01*
X740246Y799345D01*
X740239Y799345D01*
X738983Y799349D01*
X738983Y799350D01*
X738975Y799350D01*
X737720Y799354D01*
X737712Y799354D01*
X736456Y799359D01*
X736449Y799359D01*
X735193Y799364D01*
X735185Y799364D01*
X733930Y799369D01*
X733922Y799369D01*
X732666Y799374D01*
X732658Y799374D01*
X731403Y799379D01*
X731395Y799379D01*
X730140Y799384D01*
X730132Y799384D01*
X728876Y799389D01*
X728868Y799389D01*
X727613Y799394D01*
X727605Y799394D01*
X726350Y799399D01*
X726342Y799399D01*
X725086Y799404D01*
X725078Y799404D01*
X723823Y799409D01*
X723815Y799409D01*
X722560Y799414D01*
X722552Y799414D01*
X721296Y799419D01*
X721288Y799419D01*
X720033Y799424D01*
X720025Y799424D01*
X718770Y799429D01*
X718762Y799429D01*
X717506Y799434D01*
X717498Y799434D01*
X716243Y799439D01*
X716235Y799439D01*
X714980Y799444D01*
X714972Y799444D01*
X713716Y799449D01*
X713708Y799449D01*
X712453Y799454D01*
X712445Y799454D01*
X711190Y799459D01*
X711182Y799459D01*
X709926Y799464D01*
X709918Y799464D01*
X708663Y799469D01*
X708655Y799469D01*
X707400Y799474D01*
X707392Y799474D01*
X706136Y799479D01*
X706128Y799479D01*
X704873Y799484D01*
X704865Y799484D01*
X703610Y799489D01*
X703602Y799489D01*
X702346Y799494D01*
X702338Y799494D01*
X701083Y799499D01*
X701075Y799499D01*
X699820Y799504D01*
X699812Y799504D01*
X698556Y799508D01*
X698556Y799509D01*
X698548Y799509D01*
X697293Y799513D01*
X697285Y799513D01*
X696030Y799518D01*
X696022Y799518D01*
X694766Y799523D01*
X694758Y799523D01*
X693503Y799528D01*
X693495Y799528D01*
X692240Y799533D01*
X692232Y799533D01*
X690976Y799538D01*
X690968Y799538D01*
X689713Y799543D01*
X689705Y799543D01*
X688450Y799548D01*
X688442Y799548D01*
X687186Y799553D01*
X687178Y799553D01*
X685923Y799558D01*
X685915Y799558D01*
X684660Y799563D01*
X684652Y799563D01*
X683396Y799568D01*
X683388Y799568D01*
X682133Y799573D01*
X682125Y799573D01*
X680870Y799578D01*
X680862Y799578D01*
X679606Y799583D01*
X679598Y799583D01*
X678343Y799588D01*
X678335Y799588D01*
X677080Y799593D01*
X677072Y799593D01*
X675816Y799598D01*
X675808Y799598D01*
X674553Y799603D01*
X674545Y799603D01*
X673290Y799608D01*
X673282Y799608D01*
X672026Y799613D01*
X672018Y799613D01*
X670763Y799618D01*
X670755Y799618D01*
X669500Y799623D01*
X669492Y799623D01*
X668236Y799628D01*
X668228Y799628D01*
X666973Y799633D01*
X666965Y799633D01*
X665710Y799638D01*
X665702Y799638D01*
X664446Y799643D01*
X664438Y799643D01*
X663183Y799648D01*
X663175Y799648D01*
X661920Y799653D01*
X661912Y799653D01*
X660656Y799658D01*
X660648Y799658D01*
X659393Y799663D01*
X659385Y799663D01*
X658130Y799667D01*
X658130Y799668D01*
X658122Y799668D01*
X656866Y799672D01*
X656858Y799672D01*
X655603Y799677D01*
X655595Y799677D01*
X654340Y799682D01*
X654332Y799682D01*
X653076Y799687D01*
X653068Y799687D01*
X651813Y799692D01*
X651805Y799692D01*
X650550Y799697D01*
X650542Y799697D01*
X649286Y799702D01*
X649278Y799702D01*
X648023Y799707D01*
X648015Y799707D01*
X646760Y799712D01*
X646752Y799712D01*
X645496Y799717D01*
X645488Y799717D01*
X644233Y799722D01*
X644225Y799722D01*
X642970Y799727D01*
X642962Y799727D01*
X641706Y799732D01*
X641698Y799732D01*
X640443Y799737D01*
X640435Y799737D01*
X639180Y799742D01*
X639172Y799742D01*
X637916Y799747D01*
X637908Y799747D01*
X636653Y799752D01*
X636645Y799752D01*
X635390Y799757D01*
X635382Y799757D01*
X634126Y799762D01*
X634118Y799762D01*
X632863Y799767D01*
X632855Y799767D01*
X631600Y799772D01*
X631592Y799772D01*
X630336Y799777D01*
X630328Y799777D01*
X629073Y799782D01*
X629065Y799782D01*
X627810Y799787D01*
X627802Y799787D01*
X626546Y799792D01*
X626538Y799792D01*
X625283Y799797D01*
X625275Y799797D01*
X624020Y799802D01*
X624012Y799802D01*
X622756Y799807D01*
X622748Y799807D01*
X621493Y799812D01*
X621485Y799812D01*
X620230Y799817D01*
X620222Y799817D01*
X618966Y799822D01*
X618958Y799822D01*
X617703Y799826D01*
X617703Y799827D01*
X617695Y799827D01*
X616440Y799831D01*
X616432Y799831D01*
X615176Y799836D01*
X615168Y799836D01*
X613913Y799841D01*
X613905Y799841D01*
X612650Y799846D01*
X612642Y799846D01*
X611386Y799851D01*
X611378Y799851D01*
X610123Y799856D01*
X610115Y799856D01*
X608860Y799861D01*
X608852Y799861D01*
X607596Y799866D01*
X607588Y799866D01*
X606333Y799871D01*
X606325Y799871D01*
X605070Y799876D01*
X605062Y799876D01*
X603806Y799881D01*
X603798Y799881D01*
X602543Y799886D01*
X602535Y799886D01*
X601280Y799891D01*
X601272Y799891D01*
X600016Y799896D01*
X600008Y799896D01*
X598753Y799901D01*
X598745Y799901D01*
X597490Y799906D01*
X597482Y799906D01*
X596226Y799911D01*
X596218Y799911D01*
X594963Y799916D01*
X594955Y799916D01*
X593700Y799921D01*
X593692Y799921D01*
X592436Y799926D01*
X592428Y799926D01*
X591173Y799931D01*
X591165Y799931D01*
X589910Y799936D01*
X589902Y799936D01*
X588646Y799941D01*
X588638Y799941D01*
X587383Y799946D01*
X587375Y799946D01*
X586120Y799951D01*
X586112Y799951D01*
X584856Y799956D01*
X584848Y799956D01*
X583593Y799961D01*
X583585Y799961D01*
X582330Y799966D01*
X582322Y799966D01*
X581066Y799971D01*
X581058Y799971D01*
X579803Y799976D01*
X579795Y799976D01*
X578540Y799981D01*
X578532Y799981D01*
X577276Y799985D01*
X577276Y799986D01*
X577268Y799986D01*
X576013Y799990D01*
X576005Y799990D01*
X574750Y799995D01*
X574742Y799995D01*
X573486Y800000D01*
X573478Y800000D01*
X572223Y800005D01*
X572215Y800005D01*
X570960Y800010D01*
X570952Y800010D01*
X569696Y800015D01*
X569688Y800015D01*
X568433Y800020D01*
X568425Y800020D01*
X567170Y800025D01*
X567162Y800025D01*
X565906Y800030D01*
X565898Y800030D01*
X564643Y800035D01*
X564635Y800035D01*
X563380Y800040D01*
X563372Y800040D01*
X562116Y800045D01*
X562108Y800045D01*
X560853Y800050D01*
X560845Y800050D01*
X559590Y800055D01*
X559582Y800055D01*
X558326Y800060D01*
X558318Y800060D01*
X557063Y800065D01*
X557055Y800065D01*
X555800Y800070D01*
X555792Y800070D01*
X554536Y800075D01*
X554528Y800075D01*
X553273Y800080D01*
X553265Y800080D01*
X552010Y800085D01*
X552002Y800085D01*
X550746Y800090D01*
X550738Y800090D01*
X549483Y800095D01*
X549475Y800095D01*
X548220Y800100D01*
X548212Y800100D01*
X546956Y800105D01*
X546948Y800105D01*
X545693Y800110D01*
X545685Y800110D01*
X544430Y800115D01*
X544422Y800115D01*
X543166Y800120D01*
X543158Y800120D01*
X541903Y800125D01*
X541895Y800125D01*
X540640Y800130D01*
X540632Y800130D01*
X539376Y800135D01*
X539368Y800135D01*
X538113Y800140D01*
X538105Y800140D01*
X536850Y800144D01*
X536850Y800145D01*
X536842Y800145D01*
X535586Y800149D01*
X535578Y800149D01*
X534323Y800154D01*
X534315Y800154D01*
X533060Y800159D01*
X533052Y800159D01*
X531796Y800164D01*
X531788Y800164D01*
X530533Y800169D01*
X530525Y800169D01*
X529270Y800174D01*
X529262Y800174D01*
X528006Y800179D01*
X527998Y800179D01*
X526743Y800184D01*
X526735Y800184D01*
X525480Y800189D01*
X525472Y800189D01*
X524216Y800194D01*
X524208Y800194D01*
X522953Y800199D01*
X522945Y800199D01*
X521690Y800204D01*
X521682Y800204D01*
X520426Y800209D01*
X520418Y800209D01*
X519163Y800214D01*
X519155Y800214D01*
X517900Y800219D01*
X517892Y800219D01*
X516636Y800224D01*
X516628Y800224D01*
X515373Y800229D01*
X515365Y800229D01*
X514110Y800234D01*
X514102Y800234D01*
X512846Y800239D01*
X512838Y800239D01*
X511583Y800244D01*
X511575Y800244D01*
X510320Y800249D01*
X510312Y800249D01*
X509056Y800254D01*
X509048Y800254D01*
X507793Y800259D01*
X507785Y800259D01*
X506530Y800264D01*
X506522Y800264D01*
X505266Y800269D01*
X505258Y800269D01*
X504003Y800274D01*
X503995Y800274D01*
X502740Y800279D01*
X502732Y800279D01*
X501476Y800284D01*
X501468Y800284D01*
X500213Y800289D01*
X500205Y800289D01*
X498950Y800294D01*
X498942Y800294D01*
X497686Y800299D01*
X497678Y800299D01*
X496423Y800303D01*
X496423Y800304D01*
X496415Y800304D01*
X495160Y800308D01*
X495152Y800308D01*
X493896Y800313D01*
X493888Y800313D01*
X492633Y800318D01*
X492625Y800318D01*
X491370Y800323D01*
X491362Y800323D01*
X490106Y800328D01*
X490098Y800328D01*
X488843Y800333D01*
X488835Y800333D01*
X487580Y800338D01*
X487572Y800338D01*
X486316Y800343D01*
X486308Y800343D01*
X485053Y800348D01*
X485045Y800348D01*
X483790Y800353D01*
X483782Y800353D01*
X482526Y800358D01*
X482518Y800358D01*
X481263Y800363D01*
X481255Y800363D01*
X480000Y800368D01*
X479992Y800368D01*
X478736Y800373D01*
X478728Y800373D01*
X477473Y800378D01*
X477465Y800378D01*
X476210Y800383D01*
X476202Y800383D01*
X474946Y800388D01*
X474938Y800388D01*
X473683Y800393D01*
X473675Y800393D01*
X472420Y800398D01*
X472412Y800398D01*
X471156Y800403D01*
X471148Y800403D01*
X469893Y800408D01*
X469885Y800408D01*
X468630Y800413D01*
X468622Y800413D01*
X467366Y800418D01*
X467358Y800418D01*
X466103Y800423D01*
X466095Y800423D01*
X464840Y800428D01*
X464832Y800428D01*
X463576Y800433D01*
X463568Y800433D01*
X462313Y800438D01*
X462305Y800438D01*
X461050Y800443D01*
X461042Y800443D01*
X459786Y800448D01*
X459778Y800448D01*
X458523Y800453D01*
X458515Y800453D01*
X457260Y800458D01*
X457252Y800458D01*
X455996Y800462D01*
X455996Y800463D01*
X455988Y800463D01*
X454733Y800467D01*
X454725Y800467D01*
X453470Y800472D01*
X453462Y800472D01*
X452206Y800477D01*
X452198Y800477D01*
X450943Y800482D01*
X450935Y800482D01*
X449680Y800487D01*
X449672Y800487D01*
X448416Y800492D01*
X448408Y800492D01*
X447153Y800497D01*
X447145Y800497D01*
X445890Y800502D01*
X445882Y800502D01*
X444626Y800507D01*
X444618Y800507D01*
X443363Y800512D01*
X443355Y800512D01*
X442100Y800517D01*
X442092Y800517D01*
X440836Y800522D01*
X440828Y800522D01*
X439573Y800527D01*
X439565Y800527D01*
X438310Y800532D01*
X438302Y800532D01*
X437046Y800537D01*
X437038Y800537D01*
X435783Y800542D01*
X435775Y800542D01*
X434520Y800547D01*
X434512Y800547D01*
X433256Y800552D01*
X433248Y800552D01*
X431993Y800557D01*
X431985Y800557D01*
X430730Y800562D01*
X430722Y800562D01*
X429466Y800567D01*
X429458Y800567D01*
X428203Y800572D01*
X428195Y800572D01*
X426940Y800577D01*
X426932Y800577D01*
X425676Y800582D01*
X425668Y800582D01*
X424413Y800587D01*
X424405Y800587D01*
X423150Y800592D01*
X423142Y800592D01*
X421886Y800597D01*
X421878Y800597D01*
X420623Y800602D01*
X420615Y800602D01*
X419360Y800607D01*
X419352Y800607D01*
X418096Y800612D01*
X418088Y800612D01*
X416833Y800617D01*
X416825Y800617D01*
X415570Y800621D01*
X415570Y800622D01*
X415562Y800622D01*
X414306Y800626D01*
X414298Y800626D01*
X413043Y800631D01*
X413035Y800631D01*
X411780Y800636D01*
X411772Y800636D01*
X410516Y800641D01*
X410508Y800641D01*
X409253Y800646D01*
X409245Y800646D01*
X407990Y800651D01*
X407982Y800651D01*
X406726Y800656D01*
X406718Y800656D01*
X405463Y800661D01*
X405455Y800661D01*
X404200Y800666D01*
X404192Y800666D01*
X402936Y800671D01*
X402928Y800671D01*
X401673Y800676D01*
X401665Y800676D01*
X400410Y800681D01*
X400402Y800681D01*
X399146Y800686D01*
X399138Y800686D01*
X397883Y800691D01*
X397875Y800691D01*
X396620Y800696D01*
X396612Y800696D01*
X395356Y800701D01*
X395348Y800701D01*
X394093Y800706D01*
X394085Y800706D01*
X392830Y800711D01*
X392822Y800711D01*
X391566Y800716D01*
X391558Y800716D01*
X390303Y800721D01*
X390295Y800721D01*
X389040Y800726D01*
X389032Y800726D01*
X387776Y800731D01*
X387768Y800731D01*
X386513Y800736D01*
X386505Y800736D01*
X385250Y800741D01*
X385242Y800741D01*
X383986Y800746D01*
X383978Y800746D01*
X382723Y800751D01*
X382715Y800751D01*
X381460Y800756D01*
X381459Y800756D01*
X381452Y800756D01*
X380196Y800761D01*
X380188Y800761D01*
X378933Y800766D01*
X378925Y800766D01*
X377670Y800771D01*
X377669Y800771D01*
X377662Y800771D01*
X376406Y800776D01*
X376398Y800776D01*
X375143Y800780D01*
X375143Y800781D01*
X375135Y800781D01*
X373880Y800785D01*
X373879Y800785D01*
X373872Y800785D01*
X372616Y800790D01*
X372608Y800790D01*
X371353Y800795D01*
X371345Y800795D01*
X370090Y800800D01*
X370089Y800800D01*
X370082Y800800D01*
X368826Y800805D01*
X368818Y800805D01*
X367563Y800810D01*
X367555Y800810D01*
X366300Y800815D01*
X366299Y800815D01*
X366292Y800815D01*
X365036Y800820D01*
X365028Y800820D01*
X363773Y800825D01*
X363765Y800825D01*
X362510Y800830D01*
X362509Y800830D01*
X362502Y800830D01*
X361246Y800835D01*
X361238Y800835D01*
X359983Y800840D01*
X359975Y800840D01*
X358720Y800845D01*
X358719Y800845D01*
X358712Y800845D01*
X357456Y800850D01*
X357448Y800850D01*
X356193Y800855D01*
X356185Y800855D01*
X354930Y800860D01*
X354929Y800860D01*
X354922Y800860D01*
X353666Y800865D01*
X353658Y800865D01*
X352403Y800870D01*
X352395Y800870D01*
X351140Y800875D01*
X351139Y800875D01*
X351132Y800875D01*
X349876Y800880D01*
X349868Y800880D01*
X348613Y800885D01*
X348605Y800885D01*
X347350Y800890D01*
X347349Y800890D01*
X347342Y800890D01*
X346086Y800895D01*
X346078Y800895D01*
X344823Y800900D01*
X344815Y800900D01*
X343560Y800905D01*
X343559Y800905D01*
X343552Y800905D01*
X342296Y800910D01*
X342288Y800910D01*
X341033Y800915D01*
X341025Y800915D01*
X339770Y800920D01*
X339769Y800920D01*
X339762Y800920D01*
X338506Y800925D01*
X338498Y800925D01*
X337243Y800930D01*
X337235Y800930D01*
X335980Y800935D01*
X335979Y800935D01*
X335972Y800935D01*
X334716Y800939D01*
X334716Y800940D01*
X334708Y800940D01*
X333453Y800944D01*
X333445Y800944D01*
X332189Y800949D01*
X332182Y800949D01*
X330926Y800954D01*
X330918Y800954D01*
X329663Y800959D01*
X329655Y800959D01*
X328399Y800964D01*
X328392Y800964D01*
X327136Y800969D01*
X327128Y800969D01*
X325873Y800974D01*
X325865Y800974D01*
X324609Y800979D01*
X324602Y800979D01*
X323346Y800984D01*
X323338Y800984D01*
X322083Y800989D01*
X322075Y800989D01*
X320819Y800994D01*
X320812Y800994D01*
X319556Y800999D01*
X319548Y800999D01*
X318293Y801004D01*
X318285Y801004D01*
X317029Y801009D01*
X317022Y801009D01*
X315766Y801014D01*
X315758Y801014D01*
X314503Y801019D01*
X314495Y801019D01*
X313239Y801024D01*
X313232Y801024D01*
X311976Y801029D01*
X311968Y801029D01*
X310713Y801034D01*
X310705Y801034D01*
X309449Y801039D01*
X309442Y801039D01*
X308186Y801044D01*
X308178Y801044D01*
X306923Y801049D01*
X306915Y801049D01*
X305659Y801054D01*
X305652Y801054D01*
X304396Y801059D01*
X304388Y801059D01*
X303133Y801064D01*
X303125Y801064D01*
X301869Y801069D01*
X301862Y801069D01*
X300606Y801074D01*
X300598Y801074D01*
X299343Y801079D01*
X299335Y801079D01*
X298079Y801084D01*
X298072Y801084D01*
X296816Y801089D01*
X296808Y801089D01*
X295553Y801094D01*
X295545Y801094D01*
X294289Y801098D01*
X294289Y801099D01*
X294282Y801099D01*
X293026Y801103D01*
X293018Y801103D01*
X291763Y801108D01*
X291755Y801108D01*
X290499Y801113D01*
X290492Y801113D01*
X289236Y801118D01*
X289228Y801118D01*
X287973Y801123D01*
X287965Y801123D01*
X286709Y801128D01*
X286702Y801128D01*
X285446Y801133D01*
X285438Y801133D01*
X284183Y801138D01*
X284175Y801138D01*
X282919Y801143D01*
X282912Y801143D01*
X281656Y801148D01*
X281648Y801148D01*
X280393Y801153D01*
X280385Y801153D01*
X279129Y801158D01*
X279122Y801158D01*
X277866Y801163D01*
X277858Y801163D01*
X276603Y801168D01*
X276595Y801168D01*
X275339Y801173D01*
X275332Y801173D01*
X274076Y801178D01*
X274068Y801178D01*
X272813Y801183D01*
X272805Y801183D01*
X271549Y801188D01*
X271542Y801188D01*
X270286Y801193D01*
X270278Y801193D01*
X269023Y801198D01*
X269015Y801198D01*
X267759Y801203D01*
X267752Y801203D01*
X267307Y801205D01*
X267302Y801200D01*
X269809Y248520D01*
X269814Y248516D01*
X269814Y248515D01*
X717464Y246755D01*
X717465Y246756D01*
X717467Y246756D01*
X717467Y246758D01*
X717469Y246759D01*
X717468Y246759D01*
X717467Y246761D01*
X717467Y246763D01*
X699344Y264886D01*
X698185Y267685D01*
X698185Y340015D01*
X699344Y342814D01*
X715286Y358756D01*
X718085Y359915D01*
X720158Y359915D01*
X720161Y359918D01*
X720162Y359918D01*
X721159Y362323D01*
X723832Y364996D01*
X723832Y365003D01*
X723832Y365004D01*
X721159Y367677D01*
X718465Y374180D01*
X718465Y381220D01*
X721159Y387723D01*
X723832Y390396D01*
X723832Y390403D01*
X723832Y390404D01*
X721159Y393077D01*
X718465Y399580D01*
X718465Y406620D01*
X721159Y413123D01*
X723832Y415796D01*
X723832Y415803D01*
X723832Y415804D01*
X721159Y418477D01*
X718465Y424980D01*
X718465Y432020D01*
X721159Y438523D01*
X726137Y443501D01*
X730728Y445403D01*
X730728Y445404D01*
X730730Y445404D01*
X730729Y445406D01*
X730731Y445409D01*
X730729Y445410D01*
X730729Y445412D01*
X729737Y446074D01*
X728334Y447477D01*
X727231Y449128D01*
X726472Y450961D01*
X726085Y452908D01*
X726085Y453895D01*
X743700Y453895D01*
X761315Y453895D01*
X761315Y452908D01*
X761314Y452904D01*
X761310Y452879D01*
X761307Y452864D01*
X761302Y452839D01*
X761299Y452825D01*
X761299Y452824D01*
X761294Y452800D01*
X761291Y452785D01*
X761286Y452760D01*
X761283Y452745D01*
X761280Y452730D01*
X761278Y452720D01*
X761275Y452705D01*
X761272Y452690D01*
X761270Y452680D01*
X761267Y452666D01*
X761267Y452665D01*
X761264Y452651D01*
X761262Y452641D01*
X761259Y452626D01*
X761256Y452611D01*
X761251Y452586D01*
X761248Y452571D01*
X761243Y452546D01*
X761240Y452531D01*
X761235Y452507D01*
X761235Y452506D01*
X761232Y452492D01*
X761228Y452467D01*
X761227Y452467D01*
X761225Y452452D01*
X761222Y452437D01*
X761220Y452427D01*
X761217Y452412D01*
X761214Y452397D01*
X761212Y452387D01*
X761209Y452372D01*
X761206Y452357D01*
X761204Y452348D01*
X761201Y452333D01*
X761198Y452318D01*
X761196Y452308D01*
X761193Y452293D01*
X761190Y452278D01*
X761185Y452253D01*
X761182Y452238D01*
X761177Y452213D01*
X761174Y452198D01*
X761169Y452174D01*
X761166Y452159D01*
X761163Y452144D01*
X761161Y452134D01*
X761158Y452119D01*
X761155Y452104D01*
X761153Y452094D01*
X761150Y452079D01*
X761147Y452064D01*
X761145Y452054D01*
X761143Y452039D01*
X761142Y452039D01*
X761143Y452039D01*
X761140Y452025D01*
X761138Y452015D01*
X761135Y452000D01*
X761132Y451985D01*
X761127Y451960D01*
X761124Y451945D01*
X761119Y451920D01*
X761116Y451905D01*
X761111Y451880D01*
X761108Y451866D01*
X761103Y451841D01*
X761100Y451826D01*
X761097Y451811D01*
X761095Y451801D01*
X761092Y451786D01*
X761089Y451771D01*
X761087Y451761D01*
X761084Y451746D01*
X761081Y451731D01*
X761079Y451721D01*
X761076Y451707D01*
X761073Y451692D01*
X761068Y451667D01*
X761065Y451652D01*
X761060Y451627D01*
X761058Y451612D01*
X761057Y451612D01*
X761058Y451612D01*
X761053Y451587D01*
X761050Y451572D01*
X761045Y451548D01*
X761042Y451533D01*
X761039Y451518D01*
X761037Y451508D01*
X761034Y451493D01*
X761031Y451478D01*
X761029Y451468D01*
X761026Y451453D01*
X761023Y451438D01*
X761021Y451428D01*
X761018Y451413D01*
X761015Y451399D01*
X761015Y451398D01*
X761013Y451389D01*
X761010Y451374D01*
X761007Y451359D01*
X761002Y451334D01*
X760999Y451319D01*
X760994Y451294D01*
X760991Y451279D01*
X760986Y451254D01*
X760983Y451240D01*
X760983Y451239D01*
X760978Y451215D01*
X760975Y451200D01*
X760973Y451185D01*
X760972Y451185D01*
X760973Y451185D01*
X760971Y451175D01*
X760968Y451160D01*
X760965Y451145D01*
X760963Y451135D01*
X760960Y451120D01*
X760957Y451105D01*
X760955Y451095D01*
X760952Y451081D01*
X760952Y451080D01*
X760949Y451066D01*
X760944Y451041D01*
X760941Y451026D01*
X760936Y451001D01*
X760933Y450986D01*
X760928Y450961D01*
X760169Y449128D01*
X759066Y447477D01*
X757663Y446074D01*
X756671Y445412D01*
X756671Y445411D01*
X756670Y445410D01*
X756670Y445408D01*
X756670Y445405D01*
X756672Y445405D01*
X756672Y445403D01*
X761263Y443501D01*
X766241Y438523D01*
X768935Y432020D01*
X768935Y424980D01*
X766241Y418477D01*
X763568Y415804D01*
X763568Y415797D01*
X763568Y415796D01*
X766241Y413123D01*
X768935Y406620D01*
X768935Y399580D01*
X766241Y393077D01*
X763568Y390404D01*
X763568Y390397D01*
X763568Y390396D01*
X766241Y387723D01*
X767238Y385318D01*
X767241Y385317D01*
X767242Y385315D01*
X854644Y385315D01*
X854645Y385317D01*
X854647Y385317D01*
X1054443Y585113D01*
X1056586Y587256D01*
X1059385Y588415D01*
X1118515Y588415D01*
X1121314Y587256D01*
X1132266Y576303D01*
X1133330Y575249D01*
X1133337Y575233D01*
X1133338Y575233D01*
X1133338Y575232D01*
X1133350Y575220D01*
X1133923Y573835D01*
X1134502Y572455D01*
X1134502Y572439D01*
X1134503Y572438D01*
X1134502Y572437D01*
X1134509Y572421D01*
X1134509Y570921D01*
X1134642Y541641D01*
X1134643Y541640D01*
X1134642Y541640D01*
X1134649Y541624D01*
X1134649Y540129D01*
X1134656Y538629D01*
X1134649Y538613D01*
X1134650Y538612D01*
X1134649Y538611D01*
X1134649Y538594D01*
X1134076Y537211D01*
X1133509Y535825D01*
X1133497Y535813D01*
X1133497Y535812D01*
X1133496Y535811D01*
X1133489Y535796D01*
X1132431Y534737D01*
X1131377Y533673D01*
X1131361Y533666D01*
X1131360Y533665D01*
X1131359Y533665D01*
X1129281Y531587D01*
X1127138Y529444D01*
X1124339Y528285D01*
X1124177Y528285D01*
X1124175Y528282D01*
X1124173Y528282D01*
X1123646Y527009D01*
X1119840Y523204D01*
X1119840Y523202D01*
X1119839Y523197D01*
X1119840Y523197D01*
X1119840Y523196D01*
X1123646Y519391D01*
X1126035Y513622D01*
X1126035Y507378D01*
X1123646Y501609D01*
X1119840Y497804D01*
X1119840Y497802D01*
X1119839Y497802D01*
X1119840Y497801D01*
X1119839Y497797D01*
X1119840Y497797D01*
X1119840Y497796D01*
X1123646Y493991D01*
X1126035Y488222D01*
X1126035Y481978D01*
X1123646Y476209D01*
X1119231Y471794D01*
X1113462Y469405D01*
X1096138Y469405D01*
X1090369Y471794D01*
X1085954Y476209D01*
X1085510Y477282D01*
X1085507Y477283D01*
X1085505Y477285D01*
X1034056Y477285D01*
X1034055Y477283D01*
X1034053Y477283D01*
X803196Y246426D01*
X803196Y246424D01*
X803194Y246423D01*
X803195Y246422D01*
X803195Y246420D01*
X803198Y246419D01*
X803199Y246418D01*
X1139393Y245095D01*
X1139398Y245100D01*
G37*
%LPC*%
G36*
X554840Y258405D02*
X554840Y258405D01*
X548337Y261099D01*
X543359Y266077D01*
X540665Y272580D01*
X540665Y279620D01*
X543359Y286123D01*
X546032Y288796D01*
X546032Y288799D01*
X546033Y288800D01*
X546032Y288801D01*
X546032Y288803D01*
X546032Y288804D01*
X543359Y291477D01*
X542362Y293882D01*
X542359Y293883D01*
X542358Y293885D01*
X372685Y293885D01*
X369886Y295044D01*
X322627Y342303D01*
X322625Y342303D01*
X322624Y342304D01*
X322624Y342305D01*
X316138Y342305D01*
X310369Y344694D01*
X305954Y349109D01*
X303565Y354878D01*
X303565Y361122D01*
X305954Y366891D01*
X309760Y370696D01*
X309760Y370699D01*
X309761Y370700D01*
X309760Y370701D01*
X309761Y370703D01*
X309760Y370703D01*
X309760Y370704D01*
X305954Y374509D01*
X303565Y380278D01*
X303565Y386522D01*
X305954Y392291D01*
X309760Y396096D01*
X309760Y396100D01*
X309761Y396100D01*
X309760Y396101D01*
X309761Y396103D01*
X309760Y396103D01*
X309760Y396104D01*
X305954Y399909D01*
X305427Y401182D01*
X305424Y401183D01*
X305423Y401185D01*
X295885Y401185D01*
X293086Y402344D01*
X282744Y412686D01*
X281585Y415485D01*
X281585Y543515D01*
X282744Y546314D01*
X302731Y566300D01*
X302731Y566301D01*
X302731Y566303D01*
X302731Y566307D01*
X302729Y566307D01*
X302729Y566308D01*
X299986Y567444D01*
X286844Y580586D01*
X285685Y583385D01*
X285685Y679015D01*
X286844Y681814D01*
X299786Y694756D01*
X302585Y695915D01*
X305423Y695915D01*
X305425Y695918D01*
X305427Y695918D01*
X305954Y697191D01*
X310369Y701606D01*
X316138Y703995D01*
X317180Y703995D01*
X317185Y704000D01*
X317184Y704000D01*
X317185Y704000D01*
X317185Y753515D01*
X318344Y756314D01*
X357886Y795856D01*
X360685Y797015D01*
X662115Y797015D01*
X664914Y795856D01*
X715456Y745314D01*
X716615Y742515D01*
X716615Y673056D01*
X716617Y673055D01*
X716617Y673053D01*
X721849Y667821D01*
X721855Y667820D01*
X721855Y667821D01*
X721856Y667821D01*
X723832Y669796D01*
X723832Y669798D01*
X723832Y669799D01*
X723832Y669803D01*
X723832Y669804D01*
X721159Y672477D01*
X718465Y678980D01*
X718465Y686020D01*
X721159Y692523D01*
X726137Y697501D01*
X730728Y699403D01*
X730728Y699404D01*
X730730Y699404D01*
X730729Y699406D01*
X730730Y699407D01*
X730730Y699408D01*
X730731Y699409D01*
X730729Y699410D01*
X730729Y699412D01*
X729737Y700074D01*
X728334Y701477D01*
X727231Y703128D01*
X726472Y704961D01*
X726085Y706908D01*
X726085Y707895D01*
X743700Y707895D01*
X761315Y707895D01*
X761315Y706908D01*
X761315Y706907D01*
X761315Y706906D01*
X761312Y706892D01*
X761310Y706882D01*
X761307Y706867D01*
X761304Y706852D01*
X761302Y706842D01*
X761299Y706827D01*
X761296Y706812D01*
X761291Y706787D01*
X761288Y706772D01*
X761283Y706748D01*
X761283Y706747D01*
X761280Y706733D01*
X761275Y706708D01*
X761272Y706693D01*
X761268Y706668D01*
X761265Y706653D01*
X761262Y706638D01*
X761260Y706628D01*
X761257Y706613D01*
X761254Y706598D01*
X761252Y706589D01*
X761249Y706574D01*
X761246Y706559D01*
X761244Y706549D01*
X761241Y706534D01*
X761238Y706519D01*
X761233Y706494D01*
X761230Y706479D01*
X761225Y706454D01*
X761222Y706439D01*
X761217Y706415D01*
X761214Y706400D01*
X761209Y706375D01*
X761206Y706360D01*
X761203Y706345D01*
X761201Y706335D01*
X761198Y706320D01*
X761195Y706305D01*
X761193Y706295D01*
X761190Y706280D01*
X761187Y706266D01*
X761186Y706256D01*
X761185Y706256D01*
X761183Y706241D01*
X761180Y706226D01*
X761178Y706216D01*
X761175Y706201D01*
X761172Y706186D01*
X761167Y706161D01*
X761164Y706146D01*
X761159Y706121D01*
X761156Y706107D01*
X761151Y706082D01*
X761148Y706067D01*
X761145Y706052D01*
X761143Y706042D01*
X761140Y706027D01*
X761137Y706012D01*
X761135Y706002D01*
X761132Y705987D01*
X761129Y705972D01*
X761127Y705962D01*
X761124Y705948D01*
X761121Y705933D01*
X761119Y705923D01*
X761116Y705908D01*
X761113Y705893D01*
X761108Y705868D01*
X761105Y705853D01*
X761101Y705828D01*
X761100Y705828D01*
X761098Y705813D01*
X761093Y705789D01*
X761090Y705774D01*
X761085Y705749D01*
X761082Y705734D01*
X761079Y705719D01*
X761077Y705709D01*
X761074Y705694D01*
X761071Y705679D01*
X761069Y705669D01*
X761066Y705654D01*
X761063Y705640D01*
X761063Y705639D01*
X761061Y705630D01*
X761058Y705615D01*
X761055Y705600D01*
X761050Y705575D01*
X761047Y705560D01*
X761042Y705535D01*
X761039Y705520D01*
X761034Y705495D01*
X761031Y705481D01*
X761031Y705480D01*
X761026Y705456D01*
X761023Y705441D01*
X761020Y705426D01*
X761018Y705416D01*
X761016Y705401D01*
X761015Y705401D01*
X761016Y705401D01*
X761013Y705386D01*
X761011Y705376D01*
X761008Y705361D01*
X761005Y705346D01*
X761003Y705336D01*
X761000Y705322D01*
X761000Y705321D01*
X760997Y705307D01*
X760995Y705297D01*
X760992Y705282D01*
X760989Y705267D01*
X760984Y705242D01*
X760981Y705227D01*
X760976Y705202D01*
X760973Y705187D01*
X760968Y705163D01*
X760968Y705162D01*
X760965Y705148D01*
X760962Y705133D01*
X760960Y705123D01*
X760957Y705108D01*
X760954Y705093D01*
X760952Y705083D01*
X760949Y705068D01*
X760946Y705053D01*
X760944Y705043D01*
X760941Y705028D01*
X760938Y705013D01*
X760936Y705004D01*
X760936Y705003D01*
X760933Y704989D01*
X760931Y704974D01*
X760930Y704974D01*
X760931Y704974D01*
X760928Y704961D01*
X760169Y703128D01*
X759066Y701477D01*
X757663Y700074D01*
X756671Y699412D01*
X756671Y699411D01*
X756670Y699410D01*
X756670Y699409D01*
X756670Y699408D01*
X756670Y699405D01*
X756672Y699405D01*
X756672Y699403D01*
X761263Y697501D01*
X766241Y692523D01*
X768935Y686020D01*
X768935Y678980D01*
X766241Y672477D01*
X763568Y669804D01*
X763568Y669800D01*
X763568Y669799D01*
X763568Y669797D01*
X763568Y669796D01*
X766241Y667123D01*
X768935Y660620D01*
X768935Y653580D01*
X766241Y647077D01*
X763568Y644404D01*
X763568Y644400D01*
X763568Y644399D01*
X763568Y644397D01*
X763568Y644396D01*
X766241Y641723D01*
X768935Y635220D01*
X768935Y628180D01*
X766241Y621677D01*
X763568Y619004D01*
X763568Y618997D01*
X763568Y618996D01*
X766241Y616323D01*
X768935Y609820D01*
X768935Y602780D01*
X766241Y596277D01*
X761263Y591299D01*
X756672Y589397D01*
X756672Y589396D01*
X756670Y589396D01*
X756671Y589394D01*
X756669Y589391D01*
X756671Y589390D01*
X756671Y589388D01*
X757663Y588726D01*
X759066Y587323D01*
X760169Y585672D01*
X760928Y583839D01*
X761315Y581892D01*
X761315Y580905D01*
X743700Y580905D01*
X726085Y580905D01*
X726085Y581892D01*
X726086Y581896D01*
X726086Y581897D01*
X726089Y581911D01*
X726092Y581926D01*
X726094Y581936D01*
X726096Y581951D01*
X726097Y581951D01*
X726096Y581951D01*
X726099Y581966D01*
X726101Y581976D01*
X726104Y581991D01*
X726107Y582006D01*
X726109Y582016D01*
X726112Y582031D01*
X726115Y582046D01*
X726120Y582070D01*
X726123Y582085D01*
X726128Y582110D01*
X726131Y582125D01*
X726136Y582150D01*
X726139Y582165D01*
X726144Y582190D01*
X726147Y582205D01*
X726150Y582219D01*
X726152Y582229D01*
X726155Y582244D01*
X726158Y582259D01*
X726160Y582269D01*
X726163Y582284D01*
X726166Y582299D01*
X726168Y582309D01*
X726171Y582324D01*
X726174Y582339D01*
X726176Y582349D01*
X726179Y582364D01*
X726181Y582378D01*
X726182Y582378D01*
X726181Y582378D01*
X726186Y582403D01*
X726189Y582418D01*
X726194Y582443D01*
X726197Y582458D01*
X726202Y582483D01*
X726205Y582498D01*
X726208Y582513D01*
X726210Y582523D01*
X726213Y582537D01*
X726216Y582552D01*
X726218Y582562D01*
X726221Y582577D01*
X726224Y582592D01*
X726226Y582602D01*
X726229Y582617D01*
X726232Y582632D01*
X726234Y582642D01*
X726237Y582657D01*
X726240Y582672D01*
X726245Y582696D01*
X726248Y582711D01*
X726253Y582736D01*
X726256Y582751D01*
X726261Y582776D01*
X726264Y582791D01*
X726268Y582816D01*
X726271Y582831D01*
X726274Y582845D01*
X726274Y582846D01*
X726276Y582855D01*
X726279Y582870D01*
X726282Y582885D01*
X726284Y582895D01*
X726287Y582910D01*
X726290Y582925D01*
X726292Y582935D01*
X726295Y582950D01*
X726298Y582965D01*
X726303Y582990D01*
X726306Y583004D01*
X726306Y583005D01*
X726311Y583029D01*
X726314Y583044D01*
X726319Y583069D01*
X726322Y583084D01*
X726327Y583109D01*
X726330Y583124D01*
X726333Y583139D01*
X726335Y583149D01*
X726338Y583163D01*
X726338Y583164D01*
X726341Y583178D01*
X726343Y583188D01*
X726346Y583203D01*
X726349Y583218D01*
X726350Y583228D01*
X726351Y583228D01*
X726353Y583243D01*
X726356Y583258D01*
X726358Y583268D01*
X726361Y583283D01*
X726364Y583298D01*
X726369Y583322D01*
X726369Y583323D01*
X726372Y583337D01*
X726377Y583362D01*
X726380Y583377D01*
X726385Y583402D01*
X726388Y583417D01*
X726393Y583442D01*
X726396Y583457D01*
X726399Y583472D01*
X726401Y583481D01*
X726401Y583482D01*
X726404Y583496D01*
X726407Y583511D01*
X726409Y583521D01*
X726412Y583536D01*
X726415Y583551D01*
X726417Y583561D01*
X726420Y583576D01*
X726423Y583591D01*
X726428Y583616D01*
X726431Y583631D01*
X726435Y583655D01*
X726436Y583655D01*
X726438Y583670D01*
X726443Y583695D01*
X726446Y583710D01*
X726451Y583735D01*
X726454Y583750D01*
X726457Y583765D01*
X726459Y583775D01*
X726462Y583790D01*
X726465Y583804D01*
X726465Y583805D01*
X726467Y583814D01*
X726470Y583829D01*
X726472Y583839D01*
X727231Y585672D01*
X728334Y587323D01*
X729737Y588726D01*
X730729Y589388D01*
X730729Y589389D01*
X730730Y589390D01*
X730730Y589392D01*
X730730Y589395D01*
X730728Y589395D01*
X730728Y589397D01*
X726137Y591299D01*
X721159Y596277D01*
X718465Y602780D01*
X718465Y609820D01*
X721159Y616323D01*
X723832Y618996D01*
X723832Y618998D01*
X723832Y619003D01*
X723832Y619004D01*
X721159Y621677D01*
X718465Y628180D01*
X718465Y635220D01*
X721159Y641723D01*
X723832Y644396D01*
X723832Y644398D01*
X723832Y644399D01*
X723832Y644403D01*
X723832Y644404D01*
X721159Y647077D01*
X720341Y649050D01*
X720339Y649051D01*
X720339Y649053D01*
X718186Y649944D01*
X702544Y665586D01*
X701925Y667082D01*
X701922Y667083D01*
X701921Y667085D01*
X701920Y667084D01*
X701919Y667085D01*
X701917Y667082D01*
X701915Y667080D01*
X701915Y571285D01*
X700756Y568486D01*
X605114Y472844D01*
X602315Y471685D01*
X589442Y471685D01*
X589439Y471682D01*
X589438Y471682D01*
X588441Y469277D01*
X583463Y464299D01*
X578872Y462397D01*
X578872Y462396D01*
X578870Y462396D01*
X578871Y462394D01*
X578869Y462391D01*
X578871Y462390D01*
X578871Y462388D01*
X579863Y461726D01*
X581266Y460323D01*
X582369Y458672D01*
X583128Y456839D01*
X583515Y454892D01*
X583515Y453905D01*
X565900Y453905D01*
X548285Y453905D01*
X548285Y454892D01*
X548285Y454895D01*
X548288Y454910D01*
X548291Y454925D01*
X548293Y454935D01*
X548296Y454950D01*
X548299Y454965D01*
X548304Y454990D01*
X548307Y455005D01*
X548312Y455029D01*
X548315Y455044D01*
X548320Y455069D01*
X548323Y455084D01*
X548326Y455099D01*
X548328Y455109D01*
X548331Y455124D01*
X548334Y455139D01*
X548336Y455149D01*
X548339Y455164D01*
X548342Y455178D01*
X548344Y455188D01*
X548347Y455203D01*
X548350Y455218D01*
X548352Y455228D01*
X548355Y455243D01*
X548358Y455258D01*
X548362Y455283D01*
X548365Y455298D01*
X548370Y455323D01*
X548373Y455337D01*
X548378Y455362D01*
X548381Y455377D01*
X548386Y455402D01*
X548389Y455417D01*
X548392Y455432D01*
X548394Y455442D01*
X548397Y455457D01*
X548400Y455472D01*
X548402Y455482D01*
X548405Y455496D01*
X548408Y455511D01*
X548410Y455521D01*
X548413Y455536D01*
X548416Y455551D01*
X548421Y455576D01*
X548424Y455591D01*
X548429Y455616D01*
X548432Y455631D01*
X548437Y455655D01*
X548440Y455670D01*
X548444Y455695D01*
X548445Y455695D01*
X548447Y455710D01*
X548450Y455725D01*
X548452Y455735D01*
X548455Y455750D01*
X548458Y455765D01*
X548460Y455775D01*
X548463Y455790D01*
X548466Y455804D01*
X548466Y455805D01*
X548468Y455814D01*
X548471Y455829D01*
X548474Y455844D01*
X548476Y455854D01*
X548479Y455869D01*
X548482Y455884D01*
X548487Y455909D01*
X548490Y455924D01*
X548495Y455949D01*
X548498Y455963D01*
X548498Y455964D01*
X548503Y455988D01*
X548506Y456003D01*
X548509Y456018D01*
X548511Y456028D01*
X548514Y456043D01*
X548517Y456058D01*
X548519Y456068D01*
X548522Y456083D01*
X548525Y456098D01*
X548527Y456108D01*
X548529Y456122D01*
X548530Y456123D01*
X548529Y456123D01*
X548532Y456137D01*
X548534Y456147D01*
X548537Y456162D01*
X548540Y456177D01*
X548545Y456202D01*
X548548Y456217D01*
X548553Y456242D01*
X548556Y456257D01*
X548561Y456281D01*
X548561Y456282D01*
X548564Y456296D01*
X548569Y456321D01*
X548572Y456336D01*
X548575Y456351D01*
X548577Y456361D01*
X548580Y456376D01*
X548583Y456391D01*
X548585Y456401D01*
X548588Y456416D01*
X548591Y456431D01*
X548593Y456440D01*
X548593Y456441D01*
X548596Y456455D01*
X548599Y456470D01*
X548604Y456495D01*
X548607Y456510D01*
X548612Y456535D01*
X548614Y456550D01*
X548615Y456550D01*
X548614Y456550D01*
X548619Y456575D01*
X548622Y456590D01*
X548627Y456614D01*
X548630Y456629D01*
X548633Y456644D01*
X548635Y456654D01*
X548638Y456669D01*
X548641Y456684D01*
X548643Y456694D01*
X548646Y456709D01*
X548649Y456724D01*
X548651Y456734D01*
X548654Y456749D01*
X548657Y456763D01*
X548657Y456764D01*
X548659Y456773D01*
X548662Y456788D01*
X548665Y456803D01*
X548670Y456828D01*
X548672Y456839D01*
X549431Y458672D01*
X550534Y460323D01*
X551937Y461726D01*
X552929Y462388D01*
X552929Y462389D01*
X552930Y462390D01*
X552930Y462392D01*
X552930Y462395D01*
X552928Y462395D01*
X552928Y462397D01*
X548337Y464299D01*
X543359Y469277D01*
X540665Y475780D01*
X540665Y482820D01*
X543359Y489323D01*
X546032Y491996D01*
X546032Y492003D01*
X546032Y492004D01*
X543359Y494677D01*
X542362Y497082D01*
X542359Y497083D01*
X542358Y497085D01*
X465585Y497085D01*
X462786Y498244D01*
X460643Y500387D01*
X443287Y517743D01*
X441144Y519886D01*
X439985Y522685D01*
X439985Y553444D01*
X439983Y553445D01*
X439983Y553447D01*
X414447Y578983D01*
X414445Y578984D01*
X414444Y578985D01*
X349597Y578985D01*
X349595Y578984D01*
X349594Y578984D01*
X349594Y578982D01*
X349592Y578980D01*
X349593Y578979D01*
X349593Y578976D01*
X356756Y571814D01*
X357915Y569015D01*
X357915Y510285D01*
X356756Y507486D01*
X353214Y503944D01*
X350415Y502785D01*
X344177Y502785D01*
X344175Y502782D01*
X344173Y502782D01*
X343646Y501509D01*
X339840Y497704D01*
X339839Y497697D01*
X339840Y497697D01*
X339840Y497696D01*
X343646Y493891D01*
X346035Y488122D01*
X346035Y481878D01*
X343646Y476109D01*
X339840Y472304D01*
X339839Y472297D01*
X339840Y472297D01*
X339840Y472296D01*
X343646Y468491D01*
X344310Y466887D01*
X344312Y466886D01*
X344312Y466885D01*
X346314Y466056D01*
X376253Y436117D01*
X376255Y436116D01*
X376256Y436115D01*
X542358Y436115D01*
X542361Y436118D01*
X542362Y436118D01*
X543359Y438523D01*
X548337Y443501D01*
X552928Y445403D01*
X552928Y445404D01*
X552930Y445404D01*
X552929Y445406D01*
X552931Y445409D01*
X552929Y445410D01*
X552929Y445412D01*
X551937Y446074D01*
X550534Y447477D01*
X549431Y449128D01*
X548672Y450961D01*
X548285Y452908D01*
X548285Y453895D01*
X565900Y453895D01*
X583515Y453895D01*
X583515Y452908D01*
X583514Y452904D01*
X583510Y452879D01*
X583507Y452864D01*
X583502Y452839D01*
X583499Y452825D01*
X583499Y452824D01*
X583494Y452800D01*
X583491Y452785D01*
X583486Y452760D01*
X583483Y452745D01*
X583480Y452730D01*
X583478Y452720D01*
X583475Y452705D01*
X583472Y452690D01*
X583470Y452680D01*
X583467Y452666D01*
X583467Y452665D01*
X583464Y452651D01*
X583462Y452641D01*
X583459Y452626D01*
X583456Y452611D01*
X583451Y452586D01*
X583448Y452571D01*
X583443Y452546D01*
X583440Y452531D01*
X583435Y452507D01*
X583435Y452506D01*
X583432Y452492D01*
X583428Y452467D01*
X583427Y452467D01*
X583425Y452452D01*
X583422Y452437D01*
X583420Y452427D01*
X583417Y452412D01*
X583414Y452397D01*
X583412Y452387D01*
X583409Y452372D01*
X583406Y452357D01*
X583404Y452348D01*
X583401Y452333D01*
X583398Y452318D01*
X583396Y452308D01*
X583393Y452293D01*
X583390Y452278D01*
X583385Y452253D01*
X583382Y452238D01*
X583377Y452213D01*
X583374Y452198D01*
X583369Y452174D01*
X583366Y452159D01*
X583363Y452144D01*
X583361Y452134D01*
X583358Y452119D01*
X583355Y452104D01*
X583353Y452094D01*
X583350Y452079D01*
X583347Y452064D01*
X583345Y452054D01*
X583343Y452039D01*
X583342Y452039D01*
X583343Y452039D01*
X583340Y452025D01*
X583338Y452015D01*
X583335Y452000D01*
X583332Y451985D01*
X583327Y451960D01*
X583324Y451945D01*
X583319Y451920D01*
X583316Y451905D01*
X583311Y451880D01*
X583308Y451866D01*
X583303Y451841D01*
X583300Y451826D01*
X583297Y451811D01*
X583295Y451801D01*
X583292Y451786D01*
X583289Y451771D01*
X583287Y451761D01*
X583284Y451746D01*
X583281Y451731D01*
X583279Y451721D01*
X583276Y451707D01*
X583273Y451692D01*
X583268Y451667D01*
X583265Y451652D01*
X583260Y451627D01*
X583258Y451612D01*
X583257Y451612D01*
X583258Y451612D01*
X583253Y451587D01*
X583250Y451572D01*
X583245Y451548D01*
X583242Y451533D01*
X583239Y451518D01*
X583237Y451508D01*
X583234Y451493D01*
X583231Y451478D01*
X583229Y451468D01*
X583226Y451453D01*
X583223Y451438D01*
X583221Y451428D01*
X583218Y451413D01*
X583215Y451399D01*
X583215Y451398D01*
X583213Y451389D01*
X583210Y451374D01*
X583207Y451359D01*
X583202Y451334D01*
X583199Y451319D01*
X583194Y451294D01*
X583191Y451279D01*
X583186Y451254D01*
X583183Y451240D01*
X583183Y451239D01*
X583178Y451215D01*
X583175Y451200D01*
X583173Y451185D01*
X583172Y451185D01*
X583173Y451185D01*
X583171Y451175D01*
X583168Y451160D01*
X583165Y451145D01*
X583163Y451135D01*
X583160Y451120D01*
X583157Y451105D01*
X583155Y451095D01*
X583152Y451081D01*
X583152Y451080D01*
X583149Y451066D01*
X583144Y451041D01*
X583141Y451026D01*
X583136Y451001D01*
X583133Y450986D01*
X583128Y450961D01*
X582369Y449128D01*
X581266Y447477D01*
X579863Y446074D01*
X578871Y445412D01*
X578871Y445411D01*
X578870Y445410D01*
X578870Y445408D01*
X578870Y445405D01*
X578872Y445405D01*
X578872Y445403D01*
X583463Y443501D01*
X588441Y438523D01*
X591135Y432020D01*
X591135Y424980D01*
X590490Y423422D01*
X590490Y423421D01*
X590489Y423421D01*
X590491Y423419D01*
X590492Y423416D01*
X590493Y423416D01*
X590494Y423415D01*
X591615Y423415D01*
X594414Y422256D01*
X600513Y416157D01*
X602656Y414014D01*
X603815Y411215D01*
X603815Y350785D01*
X602656Y347986D01*
X600514Y345844D01*
X597715Y344685D01*
X589442Y344685D01*
X589439Y344682D01*
X589438Y344682D01*
X588441Y342277D01*
X583463Y337299D01*
X578872Y335397D01*
X578872Y335396D01*
X578870Y335396D01*
X578871Y335394D01*
X578869Y335393D01*
X578870Y335392D01*
X578869Y335391D01*
X578871Y335390D01*
X578871Y335388D01*
X579863Y334726D01*
X581266Y333323D01*
X582369Y331672D01*
X583128Y329839D01*
X583515Y327892D01*
X583515Y326905D01*
X565900Y326905D01*
X548285Y326905D01*
X548285Y327892D01*
X548288Y327909D01*
X548291Y327924D01*
X548296Y327949D01*
X548299Y327964D01*
X548304Y327988D01*
X548307Y328003D01*
X548310Y328018D01*
X548312Y328028D01*
X548315Y328043D01*
X548318Y328058D01*
X548320Y328068D01*
X548323Y328083D01*
X548326Y328098D01*
X548328Y328108D01*
X548331Y328123D01*
X548334Y328137D01*
X548338Y328162D01*
X548339Y328162D01*
X548338Y328162D01*
X548341Y328177D01*
X548346Y328202D01*
X548349Y328217D01*
X548354Y328242D01*
X548357Y328257D01*
X548362Y328282D01*
X548365Y328296D01*
X548368Y328311D01*
X548370Y328321D01*
X548373Y328336D01*
X548376Y328351D01*
X548378Y328361D01*
X548381Y328376D01*
X548384Y328391D01*
X548386Y328401D01*
X548389Y328416D01*
X548392Y328431D01*
X548394Y328441D01*
X548397Y328455D01*
X548400Y328470D01*
X548405Y328495D01*
X548408Y328510D01*
X548413Y328535D01*
X548416Y328550D01*
X548421Y328575D01*
X548423Y328590D01*
X548424Y328590D01*
X548423Y328590D01*
X548426Y328604D01*
X548426Y328605D01*
X548428Y328614D01*
X548431Y328629D01*
X548434Y328644D01*
X548436Y328654D01*
X548439Y328669D01*
X548442Y328684D01*
X548444Y328694D01*
X548447Y328709D01*
X548450Y328724D01*
X548452Y328734D01*
X548455Y328749D01*
X548458Y328763D01*
X548458Y328764D01*
X548463Y328788D01*
X548466Y328803D01*
X548471Y328828D01*
X548474Y328843D01*
X548479Y328868D01*
X548482Y328883D01*
X548487Y328908D01*
X548490Y328922D01*
X548490Y328923D01*
X548493Y328937D01*
X548495Y328947D01*
X548498Y328962D01*
X548501Y328977D01*
X548503Y328987D01*
X548506Y329002D01*
X548508Y329017D01*
X548509Y329017D01*
X548508Y329017D01*
X548510Y329027D01*
X548513Y329042D01*
X548516Y329057D01*
X548521Y329081D01*
X548521Y329082D01*
X548524Y329096D01*
X548529Y329121D01*
X548532Y329136D01*
X548537Y329161D01*
X548540Y329176D01*
X548545Y329201D01*
X548548Y329216D01*
X548551Y329231D01*
X548553Y329240D01*
X548553Y329241D01*
X548556Y329255D01*
X548559Y329270D01*
X548561Y329280D01*
X548564Y329295D01*
X548567Y329310D01*
X548569Y329320D01*
X548572Y329335D01*
X548575Y329350D01*
X548577Y329360D01*
X548580Y329375D01*
X548583Y329390D01*
X548588Y329414D01*
X548591Y329429D01*
X548595Y329454D01*
X548598Y329469D01*
X548603Y329494D01*
X548606Y329509D01*
X548611Y329534D01*
X548614Y329549D01*
X548617Y329563D01*
X548617Y329564D01*
X548619Y329573D01*
X548622Y329588D01*
X548625Y329603D01*
X548627Y329613D01*
X548630Y329628D01*
X548633Y329643D01*
X548635Y329653D01*
X548638Y329668D01*
X548641Y329683D01*
X548646Y329708D01*
X548649Y329722D01*
X548649Y329723D01*
X548654Y329747D01*
X548657Y329762D01*
X548662Y329787D01*
X548665Y329802D01*
X548670Y329827D01*
X548672Y329839D01*
X549431Y331672D01*
X550534Y333323D01*
X551937Y334726D01*
X552929Y335388D01*
X552929Y335389D01*
X552930Y335390D01*
X552930Y335391D01*
X552931Y335392D01*
X552930Y335393D01*
X552930Y335395D01*
X552928Y335395D01*
X552928Y335397D01*
X548337Y337299D01*
X543359Y342277D01*
X540665Y348780D01*
X540665Y355820D01*
X543359Y362323D01*
X546032Y364996D01*
X546032Y365003D01*
X546032Y365004D01*
X543359Y367677D01*
X542362Y370082D01*
X542359Y370083D01*
X542358Y370085D01*
X348785Y370085D01*
X345986Y371244D01*
X343187Y374044D01*
X343185Y374044D01*
X343184Y374044D01*
X343183Y374044D01*
X343182Y374044D01*
X343180Y374044D01*
X339840Y370704D01*
X339840Y370702D01*
X339839Y370701D01*
X339840Y370700D01*
X339839Y370697D01*
X339840Y370697D01*
X339840Y370696D01*
X343646Y366891D01*
X346035Y361122D01*
X346035Y354878D01*
X343646Y349109D01*
X340506Y345970D01*
X340506Y345967D01*
X340506Y345966D01*
X340506Y345964D01*
X340506Y345963D01*
X377353Y309117D01*
X377355Y309116D01*
X377356Y309115D01*
X542358Y309115D01*
X542361Y309118D01*
X542362Y309118D01*
X543359Y311523D01*
X548337Y316501D01*
X552928Y318403D01*
X552928Y318404D01*
X552930Y318404D01*
X552929Y318406D01*
X552931Y318409D01*
X552929Y318410D01*
X552929Y318412D01*
X551937Y319074D01*
X550534Y320477D01*
X549431Y322128D01*
X548672Y323961D01*
X548285Y325908D01*
X548285Y326895D01*
X565900Y326895D01*
X583515Y326895D01*
X583515Y325908D01*
X583514Y325903D01*
X583512Y325893D01*
X583509Y325878D01*
X583506Y325863D01*
X583504Y325853D01*
X583501Y325838D01*
X583498Y325823D01*
X583496Y325813D01*
X583493Y325798D01*
X583491Y325784D01*
X583490Y325784D01*
X583491Y325783D01*
X583486Y325759D01*
X583483Y325744D01*
X583478Y325719D01*
X583475Y325704D01*
X583470Y325679D01*
X583467Y325664D01*
X583464Y325649D01*
X583462Y325639D01*
X583459Y325625D01*
X583459Y325624D01*
X583456Y325610D01*
X583454Y325600D01*
X583451Y325585D01*
X583448Y325570D01*
X583446Y325560D01*
X583443Y325545D01*
X583440Y325530D01*
X583438Y325520D01*
X583435Y325505D01*
X583432Y325490D01*
X583427Y325466D01*
X583427Y325465D01*
X583424Y325451D01*
X583419Y325426D01*
X583416Y325411D01*
X583411Y325386D01*
X583408Y325371D01*
X583404Y325346D01*
X583401Y325331D01*
X583398Y325316D01*
X583396Y325307D01*
X583396Y325306D01*
X583393Y325292D01*
X583390Y325277D01*
X583388Y325267D01*
X583385Y325252D01*
X583382Y325237D01*
X583380Y325227D01*
X583377Y325212D01*
X583374Y325197D01*
X583369Y325172D01*
X583366Y325157D01*
X583361Y325133D01*
X583358Y325118D01*
X583353Y325093D01*
X583350Y325078D01*
X583345Y325053D01*
X583342Y325038D01*
X583339Y325023D01*
X583337Y325013D01*
X583334Y324998D01*
X583331Y324984D01*
X583329Y324974D01*
X583326Y324959D01*
X583323Y324944D01*
X583322Y324934D01*
X583321Y324934D01*
X583319Y324919D01*
X583316Y324904D01*
X583314Y324894D01*
X583311Y324879D01*
X583308Y324864D01*
X583303Y324839D01*
X583300Y324825D01*
X583295Y324800D01*
X583292Y324785D01*
X583287Y324760D01*
X583284Y324745D01*
X583281Y324730D01*
X583279Y324720D01*
X583276Y324705D01*
X583273Y324690D01*
X583271Y324680D01*
X583268Y324666D01*
X583265Y324651D01*
X583263Y324641D01*
X583260Y324626D01*
X583257Y324611D01*
X583255Y324601D01*
X583252Y324586D01*
X583249Y324571D01*
X583244Y324546D01*
X583241Y324531D01*
X583237Y324507D01*
X583236Y324507D01*
X583234Y324492D01*
X583229Y324467D01*
X583226Y324452D01*
X583221Y324427D01*
X583218Y324412D01*
X583215Y324397D01*
X583213Y324387D01*
X583210Y324372D01*
X583207Y324358D01*
X583207Y324357D01*
X583205Y324348D01*
X583202Y324333D01*
X583199Y324318D01*
X583197Y324308D01*
X583194Y324293D01*
X583191Y324278D01*
X583186Y324253D01*
X583183Y324238D01*
X583178Y324213D01*
X583175Y324199D01*
X583175Y324198D01*
X583170Y324174D01*
X583167Y324159D01*
X583162Y324134D01*
X583159Y324119D01*
X583156Y324104D01*
X583154Y324094D01*
X583152Y324079D01*
X583151Y324079D01*
X583152Y324079D01*
X583149Y324064D01*
X583147Y324054D01*
X583144Y324040D01*
X583144Y324039D01*
X583141Y324025D01*
X583139Y324015D01*
X583136Y324000D01*
X583133Y323985D01*
X583131Y323975D01*
X583128Y323961D01*
X582369Y322128D01*
X581266Y320477D01*
X579863Y319074D01*
X578871Y318412D01*
X578871Y318411D01*
X578870Y318410D01*
X578870Y318408D01*
X578870Y318405D01*
X578872Y318405D01*
X578872Y318403D01*
X583463Y316501D01*
X588441Y311523D01*
X591135Y305020D01*
X591135Y297980D01*
X588441Y291477D01*
X585768Y288804D01*
X585768Y288802D01*
X585767Y288801D01*
X585768Y288800D01*
X585768Y288797D01*
X585768Y288796D01*
X588441Y286123D01*
X591135Y279620D01*
X591135Y272580D01*
X588441Y266077D01*
X583463Y261099D01*
X576960Y258405D01*
X554840Y258405D01*
G37*
%LPD*%
G36*
X597645Y486917D02*
X597645Y486917D01*
X597647Y486917D01*
X686683Y575953D01*
X686684Y575955D01*
X686685Y575956D01*
X686685Y731744D01*
X686683Y731745D01*
X686683Y731747D01*
X647447Y770983D01*
X647445Y770984D01*
X647444Y770985D01*
X586192Y770985D01*
X586191Y770984D01*
X586189Y770984D01*
X586189Y770982D01*
X586187Y770980D01*
X586189Y770979D01*
X586188Y770976D01*
X588441Y768723D01*
X591135Y762220D01*
X591135Y755180D01*
X588441Y748677D01*
X585768Y746004D01*
X585768Y746002D01*
X585767Y746001D01*
X585768Y745999D01*
X585768Y745997D01*
X585768Y745996D01*
X588441Y743323D01*
X591135Y736820D01*
X591135Y729780D01*
X588441Y723277D01*
X583463Y718299D01*
X578872Y716397D01*
X578872Y716396D01*
X578870Y716396D01*
X578871Y716394D01*
X578869Y716391D01*
X578871Y716390D01*
X578871Y716388D01*
X579863Y715726D01*
X581266Y714323D01*
X582369Y712672D01*
X583128Y710839D01*
X583515Y708892D01*
X583515Y707905D01*
X565900Y707905D01*
X548285Y707905D01*
X548285Y708892D01*
X548286Y708898D01*
X548289Y708913D01*
X548294Y708937D01*
X548294Y708938D01*
X548297Y708952D01*
X548302Y708977D01*
X548305Y708992D01*
X548308Y709007D01*
X548310Y709017D01*
X548313Y709032D01*
X548316Y709047D01*
X548317Y709057D01*
X548318Y709057D01*
X548320Y709072D01*
X548323Y709087D01*
X548325Y709096D01*
X548328Y709111D01*
X548331Y709126D01*
X548333Y709136D01*
X548336Y709151D01*
X548339Y709166D01*
X548344Y709191D01*
X548347Y709206D01*
X548352Y709231D01*
X548355Y709246D01*
X548360Y709270D01*
X548363Y709285D01*
X548368Y709310D01*
X548371Y709325D01*
X548374Y709340D01*
X548376Y709350D01*
X548379Y709365D01*
X548382Y709380D01*
X548384Y709390D01*
X548387Y709405D01*
X548390Y709419D01*
X548392Y709429D01*
X548395Y709444D01*
X548398Y709459D01*
X548402Y709484D01*
X548403Y709484D01*
X548402Y709484D01*
X548405Y709499D01*
X548410Y709524D01*
X548413Y709539D01*
X548418Y709564D01*
X548421Y709578D01*
X548426Y709603D01*
X548429Y709618D01*
X548432Y709633D01*
X548434Y709643D01*
X548437Y709658D01*
X548440Y709673D01*
X548442Y709683D01*
X548445Y709698D01*
X548448Y709713D01*
X548450Y709723D01*
X548453Y709737D01*
X548456Y709752D01*
X548458Y709762D01*
X548461Y709777D01*
X548464Y709792D01*
X548469Y709817D01*
X548472Y709832D01*
X548477Y709857D01*
X548480Y709872D01*
X548485Y709896D01*
X548487Y709911D01*
X548488Y709911D01*
X548487Y709911D01*
X548492Y709936D01*
X548495Y709951D01*
X548498Y709966D01*
X548500Y709976D01*
X548503Y709991D01*
X548506Y710006D01*
X548508Y710016D01*
X548511Y710031D01*
X548514Y710045D01*
X548514Y710046D01*
X548516Y710055D01*
X548519Y710070D01*
X548522Y710085D01*
X548527Y710110D01*
X548530Y710125D01*
X548535Y710150D01*
X548538Y710165D01*
X548543Y710190D01*
X548546Y710204D01*
X548546Y710205D01*
X548551Y710229D01*
X548554Y710244D01*
X548557Y710259D01*
X548559Y710269D01*
X548562Y710284D01*
X548565Y710299D01*
X548567Y710309D01*
X548570Y710324D01*
X548572Y710339D01*
X548573Y710339D01*
X548572Y710339D01*
X548574Y710349D01*
X548577Y710363D01*
X548577Y710364D01*
X548580Y710378D01*
X548585Y710403D01*
X548588Y710418D01*
X548593Y710443D01*
X548596Y710458D01*
X548601Y710483D01*
X548604Y710498D01*
X548609Y710522D01*
X548609Y710523D01*
X548612Y710537D01*
X548615Y710552D01*
X548617Y710562D01*
X548620Y710577D01*
X548623Y710592D01*
X548625Y710602D01*
X548628Y710617D01*
X548631Y710632D01*
X548633Y710642D01*
X548636Y710657D01*
X548639Y710672D01*
X548641Y710681D01*
X548641Y710682D01*
X548644Y710696D01*
X548647Y710711D01*
X548652Y710736D01*
X548655Y710751D01*
X548659Y710776D01*
X548662Y710791D01*
X548667Y710816D01*
X548670Y710831D01*
X548672Y710839D01*
X549431Y712672D01*
X550534Y714323D01*
X551937Y715726D01*
X552929Y716388D01*
X552929Y716389D01*
X552930Y716390D01*
X552930Y716392D01*
X552930Y716395D01*
X552928Y716395D01*
X552928Y716397D01*
X548337Y718299D01*
X543359Y723277D01*
X540665Y729780D01*
X540665Y736820D01*
X543359Y743323D01*
X546032Y745996D01*
X546032Y745998D01*
X546033Y745999D01*
X546032Y746001D01*
X546032Y746003D01*
X546032Y746004D01*
X543359Y748677D01*
X540665Y755180D01*
X540665Y762220D01*
X543359Y768723D01*
X545612Y770976D01*
X545612Y770978D01*
X545613Y770979D01*
X545612Y770981D01*
X545612Y770983D01*
X545610Y770983D01*
X545608Y770985D01*
X385056Y770985D01*
X385055Y770983D01*
X385053Y770983D01*
X359317Y745247D01*
X359317Y745246D01*
X359316Y745245D01*
X359317Y745245D01*
X359316Y745245D01*
X359315Y745244D01*
X359315Y635885D01*
X358156Y633086D01*
X356014Y630944D01*
X353215Y629785D01*
X344177Y629785D01*
X344175Y629782D01*
X344173Y629782D01*
X343646Y628509D01*
X339840Y624704D01*
X339839Y624697D01*
X339840Y624697D01*
X339840Y624696D01*
X343646Y620891D01*
X344173Y619618D01*
X344176Y619617D01*
X344177Y619615D01*
X459715Y619615D01*
X462514Y618456D01*
X486456Y594514D01*
X487615Y591715D01*
X487615Y554456D01*
X487617Y554455D01*
X487617Y554453D01*
X504353Y537717D01*
X504355Y537716D01*
X504356Y537715D01*
X542358Y537715D01*
X542361Y537718D01*
X542362Y537718D01*
X543359Y540123D01*
X546032Y542796D01*
X546032Y542803D01*
X546032Y542804D01*
X543359Y545477D01*
X540665Y551980D01*
X540665Y559020D01*
X543359Y565523D01*
X548337Y570501D01*
X552928Y572403D01*
X552928Y572404D01*
X552930Y572404D01*
X552929Y572406D01*
X552931Y572409D01*
X552929Y572410D01*
X552929Y572412D01*
X551937Y573074D01*
X550534Y574477D01*
X549431Y576128D01*
X548672Y577961D01*
X548285Y579908D01*
X548285Y580895D01*
X565900Y580895D01*
X583515Y580895D01*
X583515Y579908D01*
X583515Y579905D01*
X583510Y579880D01*
X583507Y579866D01*
X583507Y579865D01*
X583504Y579851D01*
X583502Y579841D01*
X583499Y579826D01*
X583496Y579811D01*
X583494Y579801D01*
X583491Y579786D01*
X583488Y579771D01*
X583486Y579761D01*
X583483Y579746D01*
X583480Y579731D01*
X583478Y579721D01*
X583475Y579707D01*
X583475Y579706D01*
X583472Y579692D01*
X583467Y579667D01*
X583464Y579652D01*
X583459Y579627D01*
X583456Y579612D01*
X583451Y579587D01*
X583449Y579572D01*
X583448Y579572D01*
X583449Y579572D01*
X583446Y579557D01*
X583444Y579548D01*
X583444Y579547D01*
X583441Y579533D01*
X583438Y579518D01*
X583436Y579508D01*
X583433Y579493D01*
X583430Y579478D01*
X583428Y579468D01*
X583425Y579453D01*
X583422Y579438D01*
X583420Y579428D01*
X583417Y579413D01*
X583414Y579398D01*
X583409Y579374D01*
X583406Y579359D01*
X583401Y579334D01*
X583398Y579319D01*
X583393Y579294D01*
X583390Y579279D01*
X583385Y579254D01*
X583382Y579239D01*
X583379Y579225D01*
X583377Y579215D01*
X583374Y579200D01*
X583371Y579185D01*
X583369Y579175D01*
X583366Y579160D01*
X583364Y579145D01*
X583363Y579145D01*
X583364Y579145D01*
X583362Y579135D01*
X583359Y579120D01*
X583356Y579105D01*
X583351Y579080D01*
X583348Y579066D01*
X583343Y579041D01*
X583340Y579026D01*
X583335Y579001D01*
X583332Y578986D01*
X583327Y578961D01*
X583324Y578946D01*
X583321Y578931D01*
X583319Y578921D01*
X583316Y578907D01*
X583313Y578892D01*
X583311Y578882D01*
X583308Y578867D01*
X583305Y578852D01*
X583303Y578842D01*
X583300Y578827D01*
X583297Y578812D01*
X583295Y578802D01*
X583292Y578787D01*
X583289Y578772D01*
X583284Y578748D01*
X583281Y578733D01*
X583277Y578708D01*
X583274Y578693D01*
X583269Y578668D01*
X583266Y578653D01*
X583263Y578638D01*
X583261Y578628D01*
X583258Y578613D01*
X583255Y578599D01*
X583255Y578598D01*
X583253Y578589D01*
X583250Y578574D01*
X583247Y578559D01*
X583245Y578549D01*
X583242Y578534D01*
X583239Y578519D01*
X583237Y578509D01*
X583234Y578494D01*
X583231Y578479D01*
X583226Y578454D01*
X583223Y578440D01*
X583223Y578439D01*
X583218Y578415D01*
X583215Y578400D01*
X583210Y578375D01*
X583207Y578360D01*
X583202Y578335D01*
X583199Y578320D01*
X583196Y578305D01*
X583195Y578295D01*
X583194Y578295D01*
X583192Y578281D01*
X583192Y578280D01*
X583189Y578266D01*
X583187Y578256D01*
X583184Y578241D01*
X583181Y578226D01*
X583179Y578216D01*
X583176Y578201D01*
X583173Y578186D01*
X583168Y578161D01*
X583165Y578146D01*
X583160Y578122D01*
X583160Y578121D01*
X583157Y578107D01*
X583152Y578082D01*
X583149Y578067D01*
X583144Y578042D01*
X583141Y578027D01*
X583138Y578012D01*
X583136Y578002D01*
X583133Y577987D01*
X583130Y577972D01*
X583128Y577963D01*
X583128Y577962D01*
X583128Y577961D01*
X582369Y576128D01*
X581266Y574477D01*
X579863Y573074D01*
X578871Y572412D01*
X578871Y572411D01*
X578870Y572410D01*
X578870Y572408D01*
X578870Y572405D01*
X578872Y572405D01*
X578872Y572403D01*
X583463Y570501D01*
X588441Y565523D01*
X591135Y559020D01*
X591135Y551980D01*
X588441Y545477D01*
X585768Y542804D01*
X585768Y542797D01*
X585768Y542796D01*
X588441Y540123D01*
X591135Y533620D01*
X591135Y526580D01*
X588441Y520077D01*
X585768Y517404D01*
X585768Y517397D01*
X585768Y517396D01*
X588441Y514723D01*
X591135Y508220D01*
X591135Y501180D01*
X588441Y494677D01*
X585768Y492004D01*
X585768Y491997D01*
X585768Y491996D01*
X588441Y489323D01*
X589438Y486918D01*
X589441Y486917D01*
X589442Y486915D01*
X597644Y486915D01*
X597645Y486917D01*
G37*
%LPC*%
G36*
X565900Y580905D02*
X565900Y580905D01*
X548285Y580905D01*
X548285Y581892D01*
X548286Y581896D01*
X548286Y581897D01*
X548289Y581911D01*
X548292Y581926D01*
X548294Y581936D01*
X548296Y581951D01*
X548297Y581951D01*
X548296Y581951D01*
X548299Y581966D01*
X548301Y581976D01*
X548304Y581991D01*
X548307Y582006D01*
X548309Y582016D01*
X548312Y582031D01*
X548315Y582046D01*
X548320Y582070D01*
X548323Y582085D01*
X548328Y582110D01*
X548331Y582125D01*
X548336Y582150D01*
X548339Y582165D01*
X548344Y582190D01*
X548347Y582205D01*
X548350Y582219D01*
X548352Y582229D01*
X548355Y582244D01*
X548358Y582259D01*
X548360Y582269D01*
X548363Y582284D01*
X548366Y582299D01*
X548368Y582309D01*
X548371Y582324D01*
X548374Y582339D01*
X548376Y582349D01*
X548379Y582364D01*
X548381Y582378D01*
X548382Y582378D01*
X548381Y582378D01*
X548386Y582403D01*
X548389Y582418D01*
X548394Y582443D01*
X548397Y582458D01*
X548402Y582483D01*
X548405Y582498D01*
X548408Y582513D01*
X548410Y582523D01*
X548413Y582537D01*
X548416Y582552D01*
X548418Y582562D01*
X548421Y582577D01*
X548424Y582592D01*
X548426Y582602D01*
X548429Y582617D01*
X548432Y582632D01*
X548434Y582642D01*
X548437Y582657D01*
X548440Y582672D01*
X548445Y582696D01*
X548448Y582711D01*
X548453Y582736D01*
X548456Y582751D01*
X548461Y582776D01*
X548464Y582791D01*
X548468Y582816D01*
X548471Y582831D01*
X548474Y582845D01*
X548474Y582846D01*
X548476Y582855D01*
X548479Y582870D01*
X548482Y582885D01*
X548484Y582895D01*
X548487Y582910D01*
X548490Y582925D01*
X548492Y582935D01*
X548495Y582950D01*
X548498Y582965D01*
X548503Y582990D01*
X548506Y583004D01*
X548506Y583005D01*
X548511Y583029D01*
X548514Y583044D01*
X548519Y583069D01*
X548522Y583084D01*
X548527Y583109D01*
X548530Y583124D01*
X548533Y583139D01*
X548535Y583149D01*
X548538Y583163D01*
X548538Y583164D01*
X548541Y583178D01*
X548543Y583188D01*
X548546Y583203D01*
X548549Y583218D01*
X548550Y583228D01*
X548551Y583228D01*
X548553Y583243D01*
X548556Y583258D01*
X548558Y583268D01*
X548561Y583283D01*
X548564Y583298D01*
X548569Y583322D01*
X548569Y583323D01*
X548572Y583337D01*
X548577Y583362D01*
X548580Y583377D01*
X548585Y583402D01*
X548588Y583417D01*
X548593Y583442D01*
X548596Y583457D01*
X548599Y583472D01*
X548601Y583481D01*
X548601Y583482D01*
X548604Y583496D01*
X548607Y583511D01*
X548609Y583521D01*
X548612Y583536D01*
X548615Y583551D01*
X548617Y583561D01*
X548620Y583576D01*
X548623Y583591D01*
X548628Y583616D01*
X548631Y583631D01*
X548635Y583655D01*
X548636Y583655D01*
X548638Y583670D01*
X548643Y583695D01*
X548646Y583710D01*
X548651Y583735D01*
X548654Y583750D01*
X548657Y583765D01*
X548659Y583775D01*
X548662Y583790D01*
X548665Y583804D01*
X548665Y583805D01*
X548667Y583814D01*
X548670Y583829D01*
X548672Y583839D01*
X549431Y585672D01*
X550534Y587323D01*
X551937Y588726D01*
X552929Y589388D01*
X552929Y589389D01*
X552930Y589390D01*
X552930Y589392D01*
X552930Y589395D01*
X552928Y589395D01*
X552928Y589397D01*
X548337Y591299D01*
X543359Y596277D01*
X540665Y602780D01*
X540665Y609820D01*
X543359Y616323D01*
X546032Y618996D01*
X546032Y618998D01*
X546032Y619003D01*
X546032Y619004D01*
X543359Y621677D01*
X540665Y628180D01*
X540665Y635220D01*
X543359Y641723D01*
X546032Y644396D01*
X546032Y644398D01*
X546032Y644399D01*
X546032Y644403D01*
X546032Y644404D01*
X543359Y647077D01*
X540665Y653580D01*
X540665Y660620D01*
X543359Y667123D01*
X546032Y669796D01*
X546032Y669798D01*
X546032Y669799D01*
X546032Y669803D01*
X546032Y669804D01*
X543359Y672477D01*
X540665Y678980D01*
X540665Y686020D01*
X543359Y692523D01*
X548337Y697501D01*
X552928Y699403D01*
X552928Y699404D01*
X552930Y699404D01*
X552929Y699406D01*
X552930Y699407D01*
X552930Y699408D01*
X552931Y699409D01*
X552929Y699410D01*
X552929Y699412D01*
X551937Y700074D01*
X550534Y701477D01*
X549431Y703128D01*
X548672Y704961D01*
X548285Y706908D01*
X548285Y707895D01*
X565900Y707895D01*
X583515Y707895D01*
X583515Y706908D01*
X583515Y706907D01*
X583515Y706906D01*
X583512Y706892D01*
X583510Y706882D01*
X583507Y706867D01*
X583504Y706852D01*
X583502Y706842D01*
X583499Y706827D01*
X583496Y706812D01*
X583491Y706787D01*
X583488Y706772D01*
X583483Y706748D01*
X583483Y706747D01*
X583480Y706733D01*
X583475Y706708D01*
X583472Y706693D01*
X583468Y706668D01*
X583465Y706653D01*
X583462Y706638D01*
X583460Y706628D01*
X583457Y706613D01*
X583454Y706598D01*
X583452Y706589D01*
X583449Y706574D01*
X583446Y706559D01*
X583444Y706549D01*
X583441Y706534D01*
X583438Y706519D01*
X583433Y706494D01*
X583430Y706479D01*
X583425Y706454D01*
X583422Y706439D01*
X583417Y706415D01*
X583414Y706400D01*
X583409Y706375D01*
X583406Y706360D01*
X583403Y706345D01*
X583401Y706335D01*
X583398Y706320D01*
X583395Y706305D01*
X583393Y706295D01*
X583390Y706280D01*
X583387Y706266D01*
X583386Y706256D01*
X583385Y706256D01*
X583383Y706241D01*
X583380Y706226D01*
X583378Y706216D01*
X583375Y706201D01*
X583372Y706186D01*
X583367Y706161D01*
X583364Y706146D01*
X583359Y706121D01*
X583356Y706107D01*
X583351Y706082D01*
X583348Y706067D01*
X583345Y706052D01*
X583343Y706042D01*
X583340Y706027D01*
X583337Y706012D01*
X583335Y706002D01*
X583332Y705987D01*
X583329Y705972D01*
X583327Y705962D01*
X583324Y705948D01*
X583321Y705933D01*
X583319Y705923D01*
X583316Y705908D01*
X583313Y705893D01*
X583308Y705868D01*
X583305Y705853D01*
X583301Y705828D01*
X583300Y705828D01*
X583298Y705813D01*
X583293Y705789D01*
X583290Y705774D01*
X583285Y705749D01*
X583282Y705734D01*
X583279Y705719D01*
X583277Y705709D01*
X583274Y705694D01*
X583271Y705679D01*
X583269Y705669D01*
X583266Y705654D01*
X583263Y705640D01*
X583263Y705639D01*
X583261Y705630D01*
X583258Y705615D01*
X583255Y705600D01*
X583250Y705575D01*
X583247Y705560D01*
X583242Y705535D01*
X583239Y705520D01*
X583234Y705495D01*
X583231Y705481D01*
X583231Y705480D01*
X583226Y705456D01*
X583223Y705441D01*
X583220Y705426D01*
X583218Y705416D01*
X583216Y705401D01*
X583215Y705401D01*
X583216Y705401D01*
X583213Y705386D01*
X583211Y705376D01*
X583208Y705361D01*
X583205Y705346D01*
X583203Y705336D01*
X583200Y705322D01*
X583200Y705321D01*
X583197Y705307D01*
X583195Y705297D01*
X583192Y705282D01*
X583189Y705267D01*
X583184Y705242D01*
X583181Y705227D01*
X583176Y705202D01*
X583173Y705187D01*
X583168Y705163D01*
X583168Y705162D01*
X583165Y705148D01*
X583162Y705133D01*
X583160Y705123D01*
X583157Y705108D01*
X583154Y705093D01*
X583152Y705083D01*
X583149Y705068D01*
X583146Y705053D01*
X583144Y705043D01*
X583141Y705028D01*
X583138Y705013D01*
X583136Y705004D01*
X583136Y705003D01*
X583133Y704989D01*
X583131Y704974D01*
X583130Y704974D01*
X583131Y704974D01*
X583128Y704961D01*
X582369Y703128D01*
X581266Y701477D01*
X579863Y700074D01*
X578871Y699412D01*
X578871Y699411D01*
X578870Y699410D01*
X578870Y699409D01*
X578870Y699408D01*
X578870Y699405D01*
X578872Y699405D01*
X578872Y699403D01*
X583463Y697501D01*
X588441Y692523D01*
X591135Y686020D01*
X591135Y678980D01*
X588441Y672477D01*
X585768Y669804D01*
X585768Y669800D01*
X585768Y669799D01*
X585768Y669797D01*
X585768Y669796D01*
X588441Y667123D01*
X591135Y660620D01*
X591135Y653580D01*
X588441Y647077D01*
X585768Y644404D01*
X585768Y644400D01*
X585768Y644399D01*
X585768Y644397D01*
X585768Y644396D01*
X588441Y641723D01*
X591135Y635220D01*
X591135Y628180D01*
X588441Y621677D01*
X585768Y619004D01*
X585768Y618997D01*
X585768Y618996D01*
X588441Y616323D01*
X591135Y609820D01*
X591135Y602780D01*
X588441Y596277D01*
X583463Y591299D01*
X578872Y589397D01*
X578872Y589396D01*
X578870Y589396D01*
X578871Y589394D01*
X578869Y589391D01*
X578871Y589390D01*
X578871Y589388D01*
X579863Y588726D01*
X581266Y587323D01*
X582369Y585672D01*
X583128Y583839D01*
X583515Y581892D01*
X583515Y580905D01*
X565900Y580905D01*
X565900Y580905D01*
G37*
%LPD*%
%LPC*%
G36*
X743700Y453905D02*
X743700Y453905D01*
X726085Y453905D01*
X726085Y454892D01*
X726085Y454895D01*
X726088Y454910D01*
X726091Y454925D01*
X726093Y454935D01*
X726096Y454950D01*
X726099Y454965D01*
X726104Y454990D01*
X726107Y455005D01*
X726112Y455029D01*
X726115Y455044D01*
X726120Y455069D01*
X726123Y455084D01*
X726126Y455099D01*
X726128Y455109D01*
X726131Y455124D01*
X726134Y455139D01*
X726136Y455149D01*
X726139Y455164D01*
X726142Y455178D01*
X726144Y455188D01*
X726147Y455203D01*
X726150Y455218D01*
X726152Y455228D01*
X726155Y455243D01*
X726158Y455258D01*
X726162Y455283D01*
X726165Y455298D01*
X726170Y455323D01*
X726173Y455337D01*
X726178Y455362D01*
X726181Y455377D01*
X726186Y455402D01*
X726189Y455417D01*
X726192Y455432D01*
X726194Y455442D01*
X726197Y455457D01*
X726200Y455472D01*
X726202Y455482D01*
X726205Y455496D01*
X726208Y455511D01*
X726210Y455521D01*
X726213Y455536D01*
X726216Y455551D01*
X726221Y455576D01*
X726224Y455591D01*
X726229Y455616D01*
X726232Y455631D01*
X726237Y455655D01*
X726240Y455670D01*
X726244Y455695D01*
X726245Y455695D01*
X726247Y455710D01*
X726250Y455725D01*
X726252Y455735D01*
X726255Y455750D01*
X726258Y455765D01*
X726260Y455775D01*
X726263Y455790D01*
X726266Y455804D01*
X726266Y455805D01*
X726268Y455814D01*
X726271Y455829D01*
X726274Y455844D01*
X726276Y455854D01*
X726279Y455869D01*
X726282Y455884D01*
X726287Y455909D01*
X726290Y455924D01*
X726295Y455949D01*
X726298Y455963D01*
X726298Y455964D01*
X726303Y455988D01*
X726306Y456003D01*
X726309Y456018D01*
X726311Y456028D01*
X726314Y456043D01*
X726317Y456058D01*
X726319Y456068D01*
X726322Y456083D01*
X726325Y456098D01*
X726327Y456108D01*
X726329Y456122D01*
X726330Y456123D01*
X726329Y456123D01*
X726332Y456137D01*
X726334Y456147D01*
X726337Y456162D01*
X726340Y456177D01*
X726345Y456202D01*
X726348Y456217D01*
X726353Y456242D01*
X726356Y456257D01*
X726361Y456281D01*
X726361Y456282D01*
X726364Y456296D01*
X726369Y456321D01*
X726372Y456336D01*
X726375Y456351D01*
X726377Y456361D01*
X726380Y456376D01*
X726383Y456391D01*
X726385Y456401D01*
X726388Y456416D01*
X726391Y456431D01*
X726393Y456440D01*
X726393Y456441D01*
X726396Y456455D01*
X726399Y456470D01*
X726404Y456495D01*
X726407Y456510D01*
X726412Y456535D01*
X726414Y456550D01*
X726415Y456550D01*
X726414Y456550D01*
X726419Y456575D01*
X726422Y456590D01*
X726427Y456614D01*
X726430Y456629D01*
X726433Y456644D01*
X726435Y456654D01*
X726438Y456669D01*
X726441Y456684D01*
X726443Y456694D01*
X726446Y456709D01*
X726449Y456724D01*
X726451Y456734D01*
X726454Y456749D01*
X726457Y456763D01*
X726457Y456764D01*
X726459Y456773D01*
X726462Y456788D01*
X726465Y456803D01*
X726470Y456828D01*
X726472Y456839D01*
X727231Y458672D01*
X728334Y460323D01*
X729737Y461726D01*
X730729Y462388D01*
X730729Y462389D01*
X730730Y462390D01*
X730730Y462392D01*
X730730Y462395D01*
X730728Y462395D01*
X730728Y462397D01*
X726137Y464299D01*
X721159Y469277D01*
X718465Y475780D01*
X718465Y482820D01*
X721159Y489323D01*
X723832Y491996D01*
X723832Y492003D01*
X723832Y492004D01*
X721159Y494677D01*
X718465Y501180D01*
X718465Y508220D01*
X721159Y514723D01*
X723832Y517396D01*
X723832Y517403D01*
X723832Y517404D01*
X721159Y520077D01*
X718465Y526580D01*
X718465Y533620D01*
X721159Y540123D01*
X723832Y542796D01*
X723832Y542803D01*
X723832Y542804D01*
X721159Y545477D01*
X718465Y551980D01*
X718465Y559020D01*
X721159Y565523D01*
X726137Y570501D01*
X730728Y572403D01*
X730728Y572404D01*
X730730Y572404D01*
X730729Y572406D01*
X730731Y572409D01*
X730729Y572410D01*
X730729Y572412D01*
X729737Y573074D01*
X728334Y574477D01*
X727231Y576128D01*
X726472Y577961D01*
X726085Y579908D01*
X726085Y580895D01*
X743700Y580895D01*
X761315Y580895D01*
X761315Y579908D01*
X761315Y579905D01*
X761310Y579880D01*
X761307Y579866D01*
X761307Y579865D01*
X761304Y579851D01*
X761302Y579841D01*
X761299Y579826D01*
X761296Y579811D01*
X761294Y579801D01*
X761291Y579786D01*
X761288Y579771D01*
X761286Y579761D01*
X761283Y579746D01*
X761280Y579731D01*
X761278Y579721D01*
X761275Y579707D01*
X761275Y579706D01*
X761272Y579692D01*
X761267Y579667D01*
X761264Y579652D01*
X761259Y579627D01*
X761256Y579612D01*
X761251Y579587D01*
X761249Y579572D01*
X761248Y579572D01*
X761249Y579572D01*
X761246Y579557D01*
X761244Y579548D01*
X761244Y579547D01*
X761241Y579533D01*
X761238Y579518D01*
X761236Y579508D01*
X761233Y579493D01*
X761230Y579478D01*
X761228Y579468D01*
X761225Y579453D01*
X761222Y579438D01*
X761220Y579428D01*
X761217Y579413D01*
X761214Y579398D01*
X761209Y579374D01*
X761206Y579359D01*
X761201Y579334D01*
X761198Y579319D01*
X761193Y579294D01*
X761190Y579279D01*
X761185Y579254D01*
X761182Y579239D01*
X761179Y579225D01*
X761177Y579215D01*
X761174Y579200D01*
X761171Y579185D01*
X761169Y579175D01*
X761166Y579160D01*
X761164Y579145D01*
X761163Y579145D01*
X761164Y579145D01*
X761162Y579135D01*
X761159Y579120D01*
X761156Y579105D01*
X761151Y579080D01*
X761148Y579066D01*
X761143Y579041D01*
X761140Y579026D01*
X761135Y579001D01*
X761132Y578986D01*
X761127Y578961D01*
X761124Y578946D01*
X761121Y578931D01*
X761119Y578921D01*
X761116Y578907D01*
X761113Y578892D01*
X761111Y578882D01*
X761108Y578867D01*
X761105Y578852D01*
X761103Y578842D01*
X761100Y578827D01*
X761097Y578812D01*
X761095Y578802D01*
X761092Y578787D01*
X761089Y578772D01*
X761084Y578748D01*
X761081Y578733D01*
X761077Y578708D01*
X761074Y578693D01*
X761069Y578668D01*
X761066Y578653D01*
X761063Y578638D01*
X761061Y578628D01*
X761058Y578613D01*
X761055Y578599D01*
X761055Y578598D01*
X761053Y578589D01*
X761050Y578574D01*
X761047Y578559D01*
X761045Y578549D01*
X761042Y578534D01*
X761039Y578519D01*
X761037Y578509D01*
X761034Y578494D01*
X761031Y578479D01*
X761026Y578454D01*
X761023Y578440D01*
X761023Y578439D01*
X761018Y578415D01*
X761015Y578400D01*
X761010Y578375D01*
X761007Y578360D01*
X761002Y578335D01*
X760999Y578320D01*
X760996Y578305D01*
X760995Y578295D01*
X760994Y578295D01*
X760992Y578281D01*
X760992Y578280D01*
X760989Y578266D01*
X760987Y578256D01*
X760984Y578241D01*
X760981Y578226D01*
X760979Y578216D01*
X760976Y578201D01*
X760973Y578186D01*
X760968Y578161D01*
X760965Y578146D01*
X760960Y578122D01*
X760960Y578121D01*
X760957Y578107D01*
X760952Y578082D01*
X760949Y578067D01*
X760944Y578042D01*
X760941Y578027D01*
X760938Y578012D01*
X760936Y578002D01*
X760933Y577987D01*
X760930Y577972D01*
X760928Y577963D01*
X760928Y577962D01*
X760928Y577961D01*
X760169Y576128D01*
X759066Y574477D01*
X757663Y573074D01*
X756671Y572412D01*
X756671Y572411D01*
X756670Y572410D01*
X756670Y572408D01*
X756670Y572405D01*
X756672Y572405D01*
X756672Y572403D01*
X761263Y570501D01*
X766241Y565523D01*
X768935Y559020D01*
X768935Y551980D01*
X766241Y545477D01*
X763568Y542804D01*
X763568Y542797D01*
X763568Y542796D01*
X766241Y540123D01*
X768935Y533620D01*
X768935Y526580D01*
X766241Y520077D01*
X763568Y517404D01*
X763568Y517397D01*
X763568Y517396D01*
X766241Y514723D01*
X768935Y508220D01*
X768935Y501180D01*
X766241Y494677D01*
X763568Y492004D01*
X763568Y491997D01*
X763568Y491996D01*
X766241Y489323D01*
X768935Y482820D01*
X768935Y475780D01*
X766241Y469277D01*
X761263Y464299D01*
X756672Y462397D01*
X756672Y462396D01*
X756670Y462396D01*
X756671Y462394D01*
X756669Y462391D01*
X756671Y462390D01*
X756671Y462388D01*
X757663Y461726D01*
X759066Y460323D01*
X760169Y458672D01*
X760928Y456839D01*
X761315Y454892D01*
X761315Y453905D01*
X743700Y453905D01*
X743700Y453905D01*
G37*
%LPD*%
G36*
X730902Y259117D02*
X730902Y259117D01*
X730905Y259118D01*
X730904Y259119D01*
X730905Y259120D01*
X730903Y259122D01*
X730902Y259125D01*
X726137Y261099D01*
X721159Y266077D01*
X718465Y272580D01*
X718465Y279620D01*
X721159Y286123D01*
X723832Y288796D01*
X723832Y288799D01*
X723833Y288800D01*
X723832Y288801D01*
X723832Y288803D01*
X723832Y288804D01*
X721159Y291477D01*
X718465Y297980D01*
X718465Y305020D01*
X721159Y311523D01*
X726137Y316501D01*
X730728Y318403D01*
X730728Y318404D01*
X730730Y318404D01*
X730729Y318406D01*
X730731Y318409D01*
X730729Y318410D01*
X730729Y318412D01*
X729737Y319074D01*
X728334Y320477D01*
X727231Y322128D01*
X726472Y323961D01*
X726085Y325908D01*
X726085Y326895D01*
X743700Y326895D01*
X761315Y326895D01*
X761315Y325908D01*
X761314Y325903D01*
X761312Y325893D01*
X761309Y325878D01*
X761306Y325863D01*
X761304Y325853D01*
X761301Y325838D01*
X761298Y325823D01*
X761296Y325813D01*
X761293Y325798D01*
X761291Y325784D01*
X761290Y325784D01*
X761291Y325783D01*
X761286Y325759D01*
X761283Y325744D01*
X761278Y325719D01*
X761275Y325704D01*
X761270Y325679D01*
X761267Y325664D01*
X761264Y325649D01*
X761262Y325639D01*
X761259Y325625D01*
X761259Y325624D01*
X761256Y325610D01*
X761254Y325600D01*
X761251Y325585D01*
X761248Y325570D01*
X761246Y325560D01*
X761243Y325545D01*
X761240Y325530D01*
X761238Y325520D01*
X761235Y325505D01*
X761232Y325490D01*
X761227Y325466D01*
X761227Y325465D01*
X761224Y325451D01*
X761219Y325426D01*
X761216Y325411D01*
X761211Y325386D01*
X761208Y325371D01*
X761204Y325346D01*
X761201Y325331D01*
X761198Y325316D01*
X761196Y325307D01*
X761196Y325306D01*
X761193Y325292D01*
X761190Y325277D01*
X761188Y325267D01*
X761185Y325252D01*
X761182Y325237D01*
X761180Y325227D01*
X761177Y325212D01*
X761174Y325197D01*
X761169Y325172D01*
X761166Y325157D01*
X761161Y325133D01*
X761158Y325118D01*
X761153Y325093D01*
X761150Y325078D01*
X761145Y325053D01*
X761142Y325038D01*
X761139Y325023D01*
X761137Y325013D01*
X761134Y324998D01*
X761131Y324984D01*
X761129Y324974D01*
X761126Y324959D01*
X761123Y324944D01*
X761122Y324934D01*
X761121Y324934D01*
X761119Y324919D01*
X761116Y324904D01*
X761114Y324894D01*
X761111Y324879D01*
X761108Y324864D01*
X761103Y324839D01*
X761100Y324825D01*
X761095Y324800D01*
X761092Y324785D01*
X761087Y324760D01*
X761084Y324745D01*
X761081Y324730D01*
X761079Y324720D01*
X761076Y324705D01*
X761073Y324690D01*
X761071Y324680D01*
X761068Y324666D01*
X761065Y324651D01*
X761063Y324641D01*
X761060Y324626D01*
X761057Y324611D01*
X761055Y324601D01*
X761052Y324586D01*
X761049Y324571D01*
X761044Y324546D01*
X761041Y324531D01*
X761037Y324507D01*
X761036Y324507D01*
X761034Y324492D01*
X761029Y324467D01*
X761026Y324452D01*
X761021Y324427D01*
X761018Y324412D01*
X761015Y324397D01*
X761013Y324387D01*
X761010Y324372D01*
X761007Y324358D01*
X761007Y324357D01*
X761005Y324348D01*
X761002Y324333D01*
X760999Y324318D01*
X760997Y324308D01*
X760994Y324293D01*
X760991Y324278D01*
X760986Y324253D01*
X760983Y324238D01*
X760978Y324213D01*
X760975Y324199D01*
X760975Y324198D01*
X760970Y324174D01*
X760967Y324159D01*
X760962Y324134D01*
X760959Y324119D01*
X760956Y324104D01*
X760954Y324094D01*
X760952Y324079D01*
X760951Y324079D01*
X760952Y324079D01*
X760949Y324064D01*
X760947Y324054D01*
X760944Y324040D01*
X760944Y324039D01*
X760941Y324025D01*
X760939Y324015D01*
X760936Y324000D01*
X760933Y323985D01*
X760931Y323975D01*
X760928Y323961D01*
X760169Y322128D01*
X759066Y320477D01*
X757663Y319074D01*
X756671Y318412D01*
X756671Y318411D01*
X756670Y318410D01*
X756670Y318408D01*
X756670Y318405D01*
X756672Y318405D01*
X756672Y318403D01*
X761263Y316501D01*
X766241Y311523D01*
X767238Y309118D01*
X767241Y309117D01*
X767242Y309115D01*
X798444Y309115D01*
X798445Y309117D01*
X798447Y309117D01*
X859469Y370138D01*
X859469Y370141D01*
X859470Y370143D01*
X859469Y370144D01*
X859469Y370145D01*
X859466Y370145D01*
X859463Y370146D01*
X859315Y370085D01*
X767242Y370085D01*
X767239Y370082D01*
X767238Y370082D01*
X766241Y367677D01*
X763568Y365004D01*
X763568Y365002D01*
X763568Y364997D01*
X763568Y364996D01*
X766241Y362323D01*
X768935Y355820D01*
X768935Y348780D01*
X766241Y342277D01*
X761263Y337299D01*
X756672Y335397D01*
X756672Y335396D01*
X756670Y335396D01*
X756671Y335394D01*
X756669Y335393D01*
X756670Y335392D01*
X756669Y335391D01*
X756671Y335390D01*
X756671Y335388D01*
X757663Y334726D01*
X759066Y333323D01*
X760169Y331672D01*
X760928Y329839D01*
X761315Y327892D01*
X761315Y326905D01*
X743700Y326905D01*
X726085Y326905D01*
X726085Y327892D01*
X726088Y327909D01*
X726091Y327924D01*
X726096Y327949D01*
X726099Y327964D01*
X726104Y327988D01*
X726107Y328003D01*
X726110Y328018D01*
X726112Y328028D01*
X726115Y328043D01*
X726118Y328058D01*
X726120Y328068D01*
X726123Y328083D01*
X726126Y328098D01*
X726128Y328108D01*
X726131Y328123D01*
X726134Y328137D01*
X726138Y328162D01*
X726139Y328162D01*
X726138Y328162D01*
X726141Y328177D01*
X726146Y328202D01*
X726149Y328217D01*
X726154Y328242D01*
X726157Y328257D01*
X726162Y328282D01*
X726165Y328296D01*
X726168Y328311D01*
X726170Y328321D01*
X726173Y328336D01*
X726176Y328351D01*
X726178Y328361D01*
X726181Y328376D01*
X726184Y328391D01*
X726186Y328401D01*
X726189Y328416D01*
X726192Y328431D01*
X726194Y328441D01*
X726197Y328455D01*
X726200Y328470D01*
X726205Y328495D01*
X726208Y328510D01*
X726213Y328535D01*
X726216Y328550D01*
X726221Y328575D01*
X726223Y328590D01*
X726224Y328590D01*
X726223Y328590D01*
X726226Y328604D01*
X726226Y328605D01*
X726228Y328614D01*
X726231Y328629D01*
X726234Y328644D01*
X726236Y328654D01*
X726239Y328669D01*
X726242Y328684D01*
X726244Y328694D01*
X726247Y328709D01*
X726250Y328724D01*
X726252Y328734D01*
X726255Y328749D01*
X726258Y328763D01*
X726258Y328764D01*
X726263Y328788D01*
X726266Y328803D01*
X726271Y328828D01*
X726274Y328843D01*
X726279Y328868D01*
X726282Y328883D01*
X726287Y328908D01*
X726290Y328922D01*
X726290Y328923D01*
X726293Y328937D01*
X726295Y328947D01*
X726298Y328962D01*
X726301Y328977D01*
X726303Y328987D01*
X726306Y329002D01*
X726308Y329017D01*
X726309Y329017D01*
X726308Y329017D01*
X726310Y329027D01*
X726313Y329042D01*
X726316Y329057D01*
X726321Y329081D01*
X726321Y329082D01*
X726324Y329096D01*
X726329Y329121D01*
X726332Y329136D01*
X726337Y329161D01*
X726340Y329176D01*
X726345Y329201D01*
X726348Y329216D01*
X726351Y329231D01*
X726353Y329240D01*
X726353Y329241D01*
X726356Y329255D01*
X726359Y329270D01*
X726361Y329280D01*
X726364Y329295D01*
X726367Y329310D01*
X726369Y329320D01*
X726372Y329335D01*
X726375Y329350D01*
X726377Y329360D01*
X726380Y329375D01*
X726383Y329390D01*
X726388Y329414D01*
X726391Y329429D01*
X726395Y329454D01*
X726398Y329469D01*
X726403Y329494D01*
X726406Y329509D01*
X726411Y329534D01*
X726414Y329549D01*
X726417Y329563D01*
X726417Y329564D01*
X726419Y329573D01*
X726422Y329588D01*
X726425Y329603D01*
X726427Y329613D01*
X726430Y329628D01*
X726433Y329643D01*
X726435Y329653D01*
X726438Y329668D01*
X726441Y329683D01*
X726446Y329708D01*
X726449Y329722D01*
X726449Y329723D01*
X726454Y329747D01*
X726457Y329762D01*
X726462Y329787D01*
X726465Y329802D01*
X726470Y329827D01*
X726472Y329839D01*
X727231Y331672D01*
X728334Y333323D01*
X729737Y334726D01*
X730729Y335388D01*
X730729Y335389D01*
X730730Y335390D01*
X730730Y335391D01*
X730731Y335392D01*
X730730Y335393D01*
X730730Y335395D01*
X730728Y335395D01*
X730728Y335397D01*
X726137Y337299D01*
X721159Y342277D01*
X720924Y342844D01*
X720923Y342845D01*
X720921Y342846D01*
X720918Y342847D01*
X720917Y342846D01*
X720915Y342846D01*
X713417Y335347D01*
X713416Y335345D01*
X713415Y335344D01*
X713415Y272356D01*
X713417Y272355D01*
X713417Y272353D01*
X726653Y259117D01*
X726655Y259116D01*
X726656Y259115D01*
X730900Y259115D01*
X730902Y259117D01*
G37*
%LPC*%
G36*
X743700Y707905D02*
X743700Y707905D01*
X726085Y707905D01*
X726085Y708892D01*
X726086Y708898D01*
X726089Y708913D01*
X726094Y708937D01*
X726094Y708938D01*
X726097Y708952D01*
X726102Y708977D01*
X726105Y708992D01*
X726108Y709007D01*
X726110Y709017D01*
X726113Y709032D01*
X726116Y709047D01*
X726117Y709057D01*
X726118Y709057D01*
X726120Y709072D01*
X726123Y709087D01*
X726125Y709096D01*
X726128Y709111D01*
X726131Y709126D01*
X726133Y709136D01*
X726136Y709151D01*
X726139Y709166D01*
X726144Y709191D01*
X726147Y709206D01*
X726152Y709231D01*
X726155Y709246D01*
X726160Y709270D01*
X726163Y709285D01*
X726168Y709310D01*
X726171Y709325D01*
X726174Y709340D01*
X726176Y709350D01*
X726179Y709365D01*
X726182Y709380D01*
X726184Y709390D01*
X726187Y709405D01*
X726190Y709419D01*
X726192Y709429D01*
X726195Y709444D01*
X726198Y709459D01*
X726202Y709484D01*
X726203Y709484D01*
X726202Y709484D01*
X726205Y709499D01*
X726210Y709524D01*
X726213Y709539D01*
X726218Y709564D01*
X726221Y709578D01*
X726226Y709603D01*
X726229Y709618D01*
X726232Y709633D01*
X726234Y709643D01*
X726237Y709658D01*
X726240Y709673D01*
X726242Y709683D01*
X726245Y709698D01*
X726248Y709713D01*
X726250Y709723D01*
X726253Y709737D01*
X726256Y709752D01*
X726258Y709762D01*
X726261Y709777D01*
X726264Y709792D01*
X726269Y709817D01*
X726272Y709832D01*
X726277Y709857D01*
X726280Y709872D01*
X726285Y709896D01*
X726287Y709911D01*
X726288Y709911D01*
X726287Y709911D01*
X726292Y709936D01*
X726295Y709951D01*
X726298Y709966D01*
X726300Y709976D01*
X726303Y709991D01*
X726306Y710006D01*
X726308Y710016D01*
X726311Y710031D01*
X726314Y710045D01*
X726314Y710046D01*
X726316Y710055D01*
X726319Y710070D01*
X726322Y710085D01*
X726327Y710110D01*
X726330Y710125D01*
X726335Y710150D01*
X726338Y710165D01*
X726343Y710190D01*
X726346Y710204D01*
X726346Y710205D01*
X726351Y710229D01*
X726354Y710244D01*
X726357Y710259D01*
X726359Y710269D01*
X726362Y710284D01*
X726365Y710299D01*
X726367Y710309D01*
X726370Y710324D01*
X726372Y710339D01*
X726373Y710339D01*
X726372Y710339D01*
X726374Y710349D01*
X726377Y710363D01*
X726377Y710364D01*
X726380Y710378D01*
X726385Y710403D01*
X726388Y710418D01*
X726393Y710443D01*
X726396Y710458D01*
X726401Y710483D01*
X726404Y710498D01*
X726409Y710522D01*
X726409Y710523D01*
X726412Y710537D01*
X726415Y710552D01*
X726417Y710562D01*
X726420Y710577D01*
X726423Y710592D01*
X726425Y710602D01*
X726428Y710617D01*
X726431Y710632D01*
X726433Y710642D01*
X726436Y710657D01*
X726439Y710672D01*
X726441Y710681D01*
X726441Y710682D01*
X726444Y710696D01*
X726447Y710711D01*
X726452Y710736D01*
X726455Y710751D01*
X726459Y710776D01*
X726462Y710791D01*
X726467Y710816D01*
X726470Y710831D01*
X726472Y710839D01*
X727231Y712672D01*
X728334Y714323D01*
X729737Y715726D01*
X730729Y716388D01*
X730729Y716389D01*
X730730Y716390D01*
X730730Y716392D01*
X730730Y716395D01*
X730728Y716395D01*
X730728Y716397D01*
X726137Y718299D01*
X721159Y723277D01*
X718465Y729780D01*
X718465Y736820D01*
X721159Y743323D01*
X723832Y745996D01*
X723832Y745998D01*
X723833Y745999D01*
X723832Y746001D01*
X723832Y746003D01*
X723832Y746004D01*
X721159Y748677D01*
X718465Y755180D01*
X718465Y762220D01*
X721159Y768723D01*
X726137Y773701D01*
X732640Y776395D01*
X754760Y776395D01*
X761263Y773701D01*
X766241Y768723D01*
X768935Y762220D01*
X768935Y755180D01*
X766241Y748677D01*
X763568Y746004D01*
X763568Y746002D01*
X763567Y746001D01*
X763568Y745999D01*
X763568Y745997D01*
X763568Y745996D01*
X766241Y743323D01*
X768935Y736820D01*
X768935Y729780D01*
X766241Y723277D01*
X761263Y718299D01*
X756672Y716397D01*
X756672Y716396D01*
X756670Y716396D01*
X756671Y716394D01*
X756669Y716391D01*
X756671Y716390D01*
X756671Y716388D01*
X757663Y715726D01*
X759066Y714323D01*
X760169Y712672D01*
X760928Y710839D01*
X761315Y708892D01*
X761315Y707905D01*
X743700Y707905D01*
X743700Y707905D01*
G37*
%LPD*%
G36*
X303561Y585413D02*
X303561Y585413D01*
X303563Y585413D01*
X303563Y585415D01*
X303565Y585417D01*
X303565Y589722D01*
X305954Y595491D01*
X309760Y599296D01*
X309761Y599303D01*
X309760Y599303D01*
X309760Y599304D01*
X305954Y603109D01*
X303565Y608878D01*
X303565Y615122D01*
X305954Y620891D01*
X309760Y624696D01*
X309761Y624703D01*
X309760Y624703D01*
X309760Y624704D01*
X305954Y628509D01*
X303565Y634278D01*
X303565Y640522D01*
X305954Y646291D01*
X310369Y650706D01*
X316138Y653095D01*
X333462Y653095D01*
X339231Y650706D01*
X343646Y646291D01*
X344075Y645254D01*
X344078Y645253D01*
X344079Y645251D01*
X344080Y645251D01*
X344081Y645251D01*
X344082Y645254D01*
X344085Y645256D01*
X344085Y680444D01*
X344083Y680446D01*
X344082Y680449D01*
X344081Y680448D01*
X344080Y680449D01*
X344078Y680447D01*
X344075Y680446D01*
X343646Y679409D01*
X339231Y674994D01*
X333462Y672605D01*
X316138Y672605D01*
X310369Y674994D01*
X305970Y679394D01*
X305968Y679394D01*
X305965Y679394D01*
X305964Y679394D01*
X305963Y679394D01*
X300917Y674347D01*
X300916Y674345D01*
X300915Y674344D01*
X300915Y588056D01*
X300917Y588055D01*
X300917Y588053D01*
X303556Y585413D01*
X303558Y585413D01*
X303559Y585412D01*
X303561Y585413D01*
G37*
%LPC*%
G36*
X311185Y662905D02*
X311185Y662905D01*
X311185Y663695D01*
X311186Y663702D01*
X311189Y663717D01*
X311191Y663727D01*
X311194Y663742D01*
X311197Y663757D01*
X311202Y663781D01*
X311202Y663782D01*
X311205Y663796D01*
X311210Y663821D01*
X311213Y663836D01*
X311216Y663851D01*
X311218Y663861D01*
X311221Y663876D01*
X311224Y663891D01*
X311226Y663901D01*
X311229Y663916D01*
X311232Y663931D01*
X311237Y663955D01*
X311239Y663970D01*
X311240Y663970D01*
X311239Y663970D01*
X311244Y663995D01*
X311247Y664010D01*
X311252Y664035D01*
X311255Y664050D01*
X311258Y664065D01*
X311260Y664075D01*
X311263Y664090D01*
X311266Y664104D01*
X311268Y664114D01*
X311271Y664129D01*
X311274Y664144D01*
X311279Y664169D01*
X311282Y664184D01*
X311287Y664209D01*
X311290Y664224D01*
X311293Y664239D01*
X311295Y664249D01*
X311298Y664263D01*
X311301Y664278D01*
X311303Y664288D01*
X311306Y664303D01*
X311309Y664318D01*
X311311Y664328D01*
X311314Y664343D01*
X311317Y664358D01*
X311322Y664383D01*
X311324Y664398D01*
X311325Y664398D01*
X311324Y664398D01*
X311329Y664422D01*
X311332Y664437D01*
X311335Y664452D01*
X311337Y664462D01*
X311340Y664477D01*
X311343Y664492D01*
X311345Y664502D01*
X311348Y664517D01*
X311351Y664532D01*
X311356Y664557D01*
X311359Y664571D01*
X311359Y664572D01*
X311364Y664596D01*
X311367Y664611D01*
X311372Y664636D01*
X311375Y664651D01*
X311378Y664666D01*
X311380Y664676D01*
X311383Y664691D01*
X311386Y664706D01*
X311388Y664716D01*
X311391Y664730D01*
X311391Y664731D01*
X311394Y664745D01*
X311399Y664770D01*
X311402Y664785D01*
X311407Y664810D01*
X311409Y664825D01*
X311410Y664825D01*
X311409Y664825D01*
X311412Y664840D01*
X311414Y664850D01*
X311417Y664865D01*
X311420Y664880D01*
X311422Y664889D01*
X311422Y664890D01*
X311425Y664904D01*
X311428Y664919D01*
X311433Y664944D01*
X311436Y664959D01*
X311441Y664984D01*
X311444Y664999D01*
X311449Y665024D01*
X311452Y665039D01*
X311455Y665053D01*
X311455Y665054D01*
X311457Y665063D01*
X311460Y665078D01*
X311463Y665093D01*
X311465Y665103D01*
X311468Y665118D01*
X311471Y665133D01*
X311476Y665158D01*
X311479Y665173D01*
X311484Y665198D01*
X311487Y665212D01*
X311487Y665213D01*
X311492Y665237D01*
X311494Y665252D01*
X311495Y665252D01*
X311494Y665252D01*
X311495Y665255D01*
X312104Y666725D01*
X312988Y668048D01*
X314112Y669172D01*
X315435Y670056D01*
X316905Y670665D01*
X318465Y670975D01*
X324795Y670975D01*
X324795Y662905D01*
X311185Y662905D01*
G37*
%LPD*%
%LPC*%
G36*
X324805Y662905D02*
X324805Y662905D01*
X324805Y670975D01*
X331135Y670975D01*
X332695Y670665D01*
X334165Y670056D01*
X335488Y669172D01*
X336612Y668048D01*
X337496Y666725D01*
X338105Y665255D01*
X338415Y663695D01*
X338415Y662905D01*
X324805Y662905D01*
G37*
%LPD*%
%LPC*%
G36*
X324805Y654825D02*
X324805Y654825D01*
X324805Y662895D01*
X338415Y662895D01*
X338415Y662105D01*
X338414Y662098D01*
X338411Y662083D01*
X338406Y662059D01*
X338403Y662044D01*
X338398Y662019D01*
X338395Y662004D01*
X338390Y661979D01*
X338387Y661964D01*
X338384Y661949D01*
X338382Y661939D01*
X338379Y661924D01*
X338376Y661910D01*
X338376Y661909D01*
X338374Y661900D01*
X338371Y661885D01*
X338368Y661870D01*
X338364Y661845D01*
X338361Y661830D01*
X338356Y661805D01*
X338353Y661790D01*
X338350Y661775D01*
X338348Y661765D01*
X338345Y661751D01*
X338345Y661750D01*
X338342Y661736D01*
X338340Y661726D01*
X338337Y661711D01*
X338334Y661696D01*
X338332Y661686D01*
X338329Y661671D01*
X338326Y661656D01*
X338321Y661631D01*
X338318Y661616D01*
X338313Y661592D01*
X338313Y661591D01*
X338310Y661577D01*
X338307Y661562D01*
X338305Y661552D01*
X338302Y661537D01*
X338299Y661522D01*
X338297Y661512D01*
X338294Y661497D01*
X338291Y661482D01*
X338286Y661457D01*
X338283Y661442D01*
X338279Y661418D01*
X338276Y661403D01*
X338271Y661378D01*
X338268Y661363D01*
X338265Y661348D01*
X338263Y661338D01*
X338260Y661323D01*
X338257Y661308D01*
X338255Y661298D01*
X338252Y661283D01*
X338249Y661269D01*
X338244Y661244D01*
X338241Y661229D01*
X338236Y661204D01*
X338233Y661189D01*
X338230Y661174D01*
X338228Y661164D01*
X338225Y661149D01*
X338222Y661134D01*
X338220Y661124D01*
X338217Y661110D01*
X338214Y661095D01*
X338209Y661070D01*
X338206Y661055D01*
X338201Y661030D01*
X338198Y661015D01*
X338194Y660990D01*
X338191Y660975D01*
X338188Y660961D01*
X338188Y660960D01*
X338186Y660951D01*
X338183Y660936D01*
X338180Y660921D01*
X338178Y660911D01*
X338175Y660896D01*
X338172Y660881D01*
X338167Y660856D01*
X338164Y660841D01*
X338159Y660816D01*
X338156Y660802D01*
X338156Y660801D01*
X338153Y660787D01*
X338151Y660777D01*
X338148Y660762D01*
X338145Y660747D01*
X338143Y660737D01*
X338140Y660722D01*
X338137Y660707D01*
X338135Y660697D01*
X338132Y660682D01*
X338129Y660667D01*
X338124Y660643D01*
X338124Y660642D01*
X338121Y660628D01*
X338116Y660603D01*
X338113Y660588D01*
X338111Y660573D01*
X338110Y660573D01*
X338111Y660573D01*
X338109Y660563D01*
X338106Y660548D01*
X338105Y660545D01*
X337496Y659075D01*
X336612Y657752D01*
X335488Y656628D01*
X334165Y655744D01*
X332695Y655135D01*
X331135Y654825D01*
X324805Y654825D01*
G37*
%LPD*%
%LPC*%
G36*
X318465Y654825D02*
X318465Y654825D01*
X316905Y655135D01*
X315435Y655744D01*
X314112Y656628D01*
X312988Y657752D01*
X312104Y659075D01*
X311495Y660545D01*
X311185Y662105D01*
X311185Y662895D01*
X324795Y662895D01*
X324795Y654825D01*
X318465Y654825D01*
G37*
%LPD*%
D10*
X319260Y688300D02*
X330340Y688300D01*
X330340Y662900D02*
X319260Y662900D01*
X319260Y637400D02*
X330340Y637400D01*
X330340Y612000D02*
X319260Y612000D01*
X319260Y586600D02*
X330340Y586600D01*
X330340Y561200D02*
X319260Y561200D01*
X319260Y535800D02*
X330340Y535800D01*
X330340Y510400D02*
X319260Y510400D01*
X319260Y485000D02*
X330340Y485000D01*
X330340Y459600D02*
X319260Y459600D01*
X319260Y434200D02*
X330340Y434200D01*
X330340Y408800D02*
X319260Y408800D01*
X319260Y383400D02*
X330340Y383400D01*
X330340Y358000D02*
X319260Y358000D01*
X1099260Y561300D02*
X1110340Y561300D01*
X1110340Y535900D02*
X1099260Y535900D01*
X1099260Y510500D02*
X1110340Y510500D01*
X1110340Y485100D02*
X1099260Y485100D01*
D11*
X573440Y758700D02*
X558360Y758700D01*
X558360Y733300D02*
X573440Y733300D01*
X573440Y707900D02*
X558360Y707900D01*
X558360Y682500D02*
X573440Y682500D01*
X573440Y657100D02*
X558360Y657100D01*
X558360Y631700D02*
X573440Y631700D01*
X573440Y606300D02*
X558360Y606300D01*
X558360Y580900D02*
X573440Y580900D01*
X573440Y555500D02*
X558360Y555500D01*
X558360Y530100D02*
X573440Y530100D01*
X573440Y504700D02*
X558360Y504700D01*
X558360Y479300D02*
X573440Y479300D01*
X573440Y453900D02*
X558360Y453900D01*
X558360Y428500D02*
X573440Y428500D01*
X573440Y403100D02*
X558360Y403100D01*
X558360Y377700D02*
X573440Y377700D01*
X573440Y352300D02*
X558360Y352300D01*
X558360Y326900D02*
X573440Y326900D01*
X573440Y301500D02*
X558360Y301500D01*
X558360Y276100D02*
X573440Y276100D01*
X736160Y758700D02*
X751240Y758700D01*
X751240Y733300D02*
X736160Y733300D01*
X736160Y707900D02*
X751240Y707900D01*
X751240Y682500D02*
X736160Y682500D01*
X736160Y657100D02*
X751240Y657100D01*
X751240Y631700D02*
X736160Y631700D01*
X736160Y606300D02*
X751240Y606300D01*
X751240Y580900D02*
X736160Y580900D01*
X736160Y555500D02*
X751240Y555500D01*
X751240Y530100D02*
X736160Y530100D01*
X736160Y504700D02*
X751240Y504700D01*
X751240Y479300D02*
X736160Y479300D01*
X736160Y453900D02*
X751240Y453900D01*
X751240Y428500D02*
X736160Y428500D01*
X736160Y403100D02*
X751240Y403100D01*
X751240Y377700D02*
X736160Y377700D01*
X736160Y352300D02*
X751240Y352300D01*
X751240Y326900D02*
X736160Y326900D01*
X736160Y301500D02*
X751240Y301500D01*
X751240Y276100D02*
X736160Y276100D01*
D12*
X1103800Y485100D02*
X1104800Y485100D01*
X1103800Y485100D02*
X1103300Y485600D01*
D13*
X743700Y352300D02*
X719600Y352300D01*
X1030900Y484900D02*
X1105000Y484900D01*
X1111300Y484900D01*
X1105000Y484900D02*
X1104800Y485100D01*
X719600Y352300D02*
X705800Y338500D01*
X705800Y269200D01*
X723500Y251500D01*
X797500Y251500D01*
X1030900Y484900D01*
D12*
X1101900Y513400D02*
X1103400Y511900D01*
X1104800Y510500D01*
D13*
X797800Y276100D02*
X743700Y276100D01*
X1033600Y511900D02*
X1103400Y511900D01*
X1033600Y511900D02*
X797800Y276100D01*
D12*
X1104400Y536300D02*
X1104800Y535900D01*
D13*
X857800Y377700D02*
X743700Y377700D01*
X857800Y377700D02*
X1060900Y580800D01*
X1126894Y570906D02*
X1127034Y540109D01*
X1122824Y535900D01*
X1104800Y535900D01*
X1117000Y580800D02*
X1060900Y580800D01*
X1117000Y580800D02*
X1126894Y570906D01*
X801600Y301500D02*
X743700Y301500D01*
X801600Y301500D02*
X1061400Y561300D01*
X1104800Y561300D01*
X565900Y301500D02*
X374200Y301500D01*
X324800Y350900D01*
X324800Y358000D01*
X324800Y383400D02*
X344600Y383400D01*
X350300Y377700D02*
X565900Y377700D01*
X350300Y377700D02*
X344600Y383400D01*
X343000Y408800D02*
X324800Y408800D01*
X348700Y403100D02*
X565900Y403100D01*
X348700Y403100D02*
X343000Y408800D01*
X325600Y409200D02*
X325200Y409200D01*
X324800Y408800D01*
X297400Y408800D01*
X289200Y417000D01*
X289200Y542000D01*
X308400Y561200D01*
X324800Y561200D01*
X340000Y434200D02*
X358400Y415800D01*
X340000Y434200D02*
X324800Y434200D01*
X565900Y352300D02*
X596200Y352300D01*
X596200Y409700D01*
X590100Y415800D01*
X541200Y415800D02*
X358400Y415800D01*
X541200Y415800D02*
X541818Y416418D01*
D12*
X553313Y416418D01*
X553343Y416388D01*
X589512Y416388D02*
X590100Y415800D01*
X589512Y416388D02*
X553343Y416388D01*
D13*
X342000Y459600D02*
X324800Y459600D01*
X373100Y428500D02*
X565900Y428500D01*
X373100Y428500D02*
X342000Y459600D01*
X324800Y459600D02*
X313200Y459600D01*
X302860Y469940D01*
X310400Y536100D02*
X325100Y536100D01*
X324800Y535800D01*
X302860Y528560D02*
X302860Y469940D01*
X302860Y528560D02*
X310400Y536100D01*
X324800Y752000D02*
X362200Y789400D01*
X324800Y752000D02*
X324800Y688300D01*
X362200Y789400D02*
X660600Y789400D01*
X709000Y741000D01*
X709000Y669900D02*
X722500Y656400D01*
X743000Y656400D01*
X743700Y657100D01*
X709000Y669900D02*
X709000Y741000D01*
X348900Y510400D02*
X324800Y510400D01*
D12*
X309100Y573900D02*
X343900Y573900D01*
D13*
X309100Y573900D02*
X304300Y573900D01*
X293300Y584900D02*
X293300Y677500D01*
X304100Y688300D01*
X324800Y688300D01*
X350300Y511800D02*
X348900Y510400D01*
X350300Y511800D02*
X350300Y567500D01*
X304300Y573900D02*
X293300Y584900D01*
X343900Y573900D02*
X350300Y567500D01*
X324800Y586600D02*
X417600Y586600D01*
X447600Y556600D02*
X447600Y524200D01*
X467100Y504700D01*
X565900Y504700D01*
X447600Y556600D02*
X417600Y586600D01*
X458200Y612000D02*
X324800Y612000D01*
X480000Y590200D02*
X480000Y551300D01*
X501200Y530100D01*
X565900Y530100D01*
X480000Y590200D02*
X458200Y612000D01*
X565900Y479300D02*
X600800Y479300D01*
X694300Y572800D02*
X694300Y734900D01*
X650600Y778600D01*
X351700Y748400D02*
X351700Y637400D01*
X324800Y637400D01*
X600800Y479300D02*
X694300Y572800D01*
X650600Y778600D02*
X381900Y778600D01*
X351700Y748400D01*
X565900Y453900D02*
X593900Y453900D01*
X596500Y451300D01*
X565900Y453900D02*
X544000Y453900D01*
X543800Y454100D01*
X565900Y326900D02*
X593200Y326900D01*
X594200Y325900D01*
X565900Y326900D02*
X564600Y325600D01*
X536000Y325600D01*
X743700Y326900D02*
X771800Y326900D01*
X772600Y327700D01*
X743700Y326900D02*
X721500Y326900D01*
X325100Y663200D02*
X324800Y662900D01*
X311000Y662900D01*
X307800Y662900D01*
X565900Y707900D02*
X590500Y707900D01*
X591600Y706800D01*
X565900Y707900D02*
X565300Y707300D01*
X538600Y707300D01*
X725000Y707900D02*
X743700Y707900D01*
X725000Y707900D02*
X723600Y709300D01*
X743700Y707900D02*
X765100Y707900D01*
X766700Y706300D01*
X743700Y580900D02*
X719400Y580900D01*
X718200Y582100D01*
X717700Y581600D01*
X719950Y579350D01*
X743700Y580900D02*
X768100Y580900D01*
X768500Y580500D01*
X592200Y580900D02*
X565900Y580900D01*
X592200Y580900D02*
X593100Y581800D01*
X593500Y581800D01*
X565900Y580900D02*
X542900Y580900D01*
X541200Y582600D01*
X743700Y453900D02*
X769000Y453900D01*
X769100Y454000D01*
X743700Y453900D02*
X718400Y453900D01*
X718300Y454000D01*
X311000Y662900D02*
X303600Y655500D01*
X303600Y624200D01*
X312849Y624200D01*
D12*
X356400Y624200D02*
X357800Y622800D01*
X356400Y624200D02*
X312849Y624200D01*
M02*
