G04 EAGLE Gerber RS-274X export*
G75*
%MOMM*%
%FSLAX34Y34*%
%LPD*%
%INSoldermask Top*%
%IPPOS*%
%AMOC8*
5,1,8,0,0,1.08239X$1,22.5*%
G01*
%ADD10C,1.311200*%
%ADD11C,1.711200*%


D10*
X319260Y688300D02*
X330340Y688300D01*
X330340Y662900D02*
X319260Y662900D01*
X319260Y637400D02*
X330340Y637400D01*
X330340Y612000D02*
X319260Y612000D01*
X319260Y586600D02*
X330340Y586600D01*
X330340Y561200D02*
X319260Y561200D01*
X319260Y535800D02*
X330340Y535800D01*
X330340Y510400D02*
X319260Y510400D01*
X319260Y485000D02*
X330340Y485000D01*
X330340Y459600D02*
X319260Y459600D01*
X319260Y434200D02*
X330340Y434200D01*
X330340Y408800D02*
X319260Y408800D01*
X319260Y383400D02*
X330340Y383400D01*
X330340Y358000D02*
X319260Y358000D01*
X1099260Y561300D02*
X1110340Y561300D01*
X1110340Y535900D02*
X1099260Y535900D01*
X1099260Y510500D02*
X1110340Y510500D01*
X1110340Y485100D02*
X1099260Y485100D01*
D11*
X573440Y758700D02*
X558360Y758700D01*
X558360Y733300D02*
X573440Y733300D01*
X573440Y707900D02*
X558360Y707900D01*
X558360Y682500D02*
X573440Y682500D01*
X573440Y657100D02*
X558360Y657100D01*
X558360Y631700D02*
X573440Y631700D01*
X573440Y606300D02*
X558360Y606300D01*
X558360Y580900D02*
X573440Y580900D01*
X573440Y555500D02*
X558360Y555500D01*
X558360Y530100D02*
X573440Y530100D01*
X573440Y504700D02*
X558360Y504700D01*
X558360Y479300D02*
X573440Y479300D01*
X573440Y453900D02*
X558360Y453900D01*
X558360Y428500D02*
X573440Y428500D01*
X573440Y403100D02*
X558360Y403100D01*
X558360Y377700D02*
X573440Y377700D01*
X573440Y352300D02*
X558360Y352300D01*
X558360Y326900D02*
X573440Y326900D01*
X573440Y301500D02*
X558360Y301500D01*
X558360Y276100D02*
X573440Y276100D01*
X736160Y758700D02*
X751240Y758700D01*
X751240Y733300D02*
X736160Y733300D01*
X736160Y707900D02*
X751240Y707900D01*
X751240Y682500D02*
X736160Y682500D01*
X736160Y657100D02*
X751240Y657100D01*
X751240Y631700D02*
X736160Y631700D01*
X736160Y606300D02*
X751240Y606300D01*
X751240Y580900D02*
X736160Y580900D01*
X736160Y555500D02*
X751240Y555500D01*
X751240Y530100D02*
X736160Y530100D01*
X736160Y504700D02*
X751240Y504700D01*
X751240Y479300D02*
X736160Y479300D01*
X736160Y453900D02*
X751240Y453900D01*
X751240Y428500D02*
X736160Y428500D01*
X736160Y403100D02*
X751240Y403100D01*
X751240Y377700D02*
X736160Y377700D01*
X736160Y352300D02*
X751240Y352300D01*
X751240Y326900D02*
X736160Y326900D01*
X736160Y301500D02*
X751240Y301500D01*
X751240Y276100D02*
X736160Y276100D01*
M02*
