M48
;GenerationSoftware,Autodesk,EAGLE,9.6.2*%
;CreationDate,2025-08-04T15:59:28Z*%
FMAT,2
ICI,OFF
METRIC,TZ,000.000
T4C0.800
T3C0.813
T2C1.016
T1C1.803
%
G90
M71
T1
X39140Y48200
X47065Y48200
X43102Y48200
T2
X31250Y55870
X52020Y85080
X31250Y73650
X31250Y71110
X31250Y68570
X31250Y66030
X31250Y63490
X31250Y60950
X31250Y58410
X31000Y92690
X43950Y55870
X43950Y58410
X43950Y60950
X43950Y63490
X43950Y66030
X43950Y68570
X43950Y71110
X43950Y73650
X31000Y97770
X31000Y95230
X31000Y90150
X31000Y87610
X31000Y85070
X31000Y82530
X31000Y79990
X43700Y79990
X43700Y82530
X43700Y85070
X43700Y87610
X43700Y90150
X43700Y92690
X43700Y95230
X43700Y97770
X33590Y48080
X31050Y48080
X49320Y68560
X49320Y66020
X49320Y63480
X49320Y60940
X48920Y92740
X48920Y90200
X48920Y87660
X48920Y85120
X52020Y92700
X52020Y90160
X52020Y87620
T3
X48750Y73720
X51290Y73720
X50150Y100410
X52690Y100410
T4
X11430Y91440
X11430Y88900
X11430Y86360
X11430Y83820
X11430Y81280
X11430Y78740
X11430Y76200
X11430Y73660
X11430Y71120
X11430Y68580
X11430Y66040
X11430Y63500
X11430Y60960
X11430Y58420
X11430Y55880
X11430Y53340
X11430Y50800
X11430Y48260
X26670Y93980
X26670Y91440
X26670Y88900
X26670Y86360
X26670Y83820
X26670Y81280
X26670Y78740
X26670Y76200
X26670Y73660
X26670Y71120
X26670Y96520
X26670Y66040
X26670Y63500
X26670Y60960
X26670Y58420
X26670Y55880
X26670Y53340
X26670Y50800
X26670Y48260
X11430Y96520
X11430Y93980
X26670Y68580
M30