G04 EAGLE Gerber RS-274X export*
G75*
%MOMM*%
%FSLAX34Y34*%
%LPD*%
%IN*%
%IPPOS*%
%AMOC8*
5,1,8,0,0,1.08239X$1,22.5*%
G01*
%ADD10C,0.254000*%


D10*
X300228Y890780D02*
X302006Y284226D01*
X814886Y284226D01*
X813108Y890780D01*
X300228Y890780D01*
X266653Y598600D02*
X267475Y598535D01*
X268290Y598406D01*
X269092Y598214D01*
X269877Y597959D01*
X270639Y597643D01*
X271374Y597268D01*
X272078Y596837D01*
X272746Y596352D01*
X273373Y595816D01*
X273956Y595233D01*
X274492Y594606D01*
X274977Y593938D01*
X275408Y593234D01*
X275783Y592499D01*
X276099Y591737D01*
X276354Y590952D01*
X276546Y590150D01*
X276675Y589335D01*
X276740Y588513D01*
X276740Y587687D01*
X276675Y586865D01*
X276546Y586050D01*
X276354Y585248D01*
X276099Y584463D01*
X275783Y583701D01*
X275408Y582966D01*
X274977Y582262D01*
X274492Y581595D01*
X273956Y580967D01*
X273373Y580384D01*
X272746Y579848D01*
X272078Y579363D01*
X271374Y578932D01*
X270639Y578557D01*
X269877Y578241D01*
X269092Y577986D01*
X268290Y577794D01*
X267475Y577665D01*
X266653Y577600D01*
X265827Y577600D01*
X265005Y577665D01*
X264190Y577794D01*
X263388Y577986D01*
X262603Y578241D01*
X261841Y578557D01*
X261106Y578932D01*
X260402Y579363D01*
X259735Y579848D01*
X259107Y580384D01*
X258524Y580967D01*
X257988Y581595D01*
X257503Y582262D01*
X257072Y582966D01*
X256697Y583701D01*
X256381Y584463D01*
X256126Y585248D01*
X255934Y586050D01*
X255805Y586865D01*
X255740Y587687D01*
X255740Y588513D01*
X255805Y589335D01*
X255934Y590150D01*
X256126Y590952D01*
X256381Y591737D01*
X256697Y592499D01*
X257072Y593234D01*
X257503Y593938D01*
X257988Y594606D01*
X258524Y595233D01*
X259107Y595816D01*
X259735Y596352D01*
X260402Y596837D01*
X261106Y597268D01*
X261841Y597643D01*
X262603Y597959D01*
X263388Y598214D01*
X264190Y598406D01*
X265005Y598535D01*
X265827Y598600D01*
X266653Y598600D01*
X266653Y768600D02*
X267475Y768535D01*
X268290Y768406D01*
X269092Y768214D01*
X269877Y767959D01*
X270639Y767643D01*
X271374Y767268D01*
X272078Y766837D01*
X272746Y766352D01*
X273373Y765816D01*
X273956Y765233D01*
X274492Y764606D01*
X274977Y763938D01*
X275408Y763234D01*
X275783Y762499D01*
X276099Y761737D01*
X276354Y760952D01*
X276546Y760150D01*
X276675Y759335D01*
X276740Y758513D01*
X276740Y757687D01*
X276675Y756865D01*
X276546Y756050D01*
X276354Y755248D01*
X276099Y754463D01*
X275783Y753701D01*
X275408Y752966D01*
X274977Y752262D01*
X274492Y751595D01*
X273956Y750967D01*
X273373Y750384D01*
X272746Y749848D01*
X272078Y749363D01*
X271374Y748932D01*
X270639Y748557D01*
X269877Y748241D01*
X269092Y747986D01*
X268290Y747794D01*
X267475Y747665D01*
X266653Y747600D01*
X265827Y747600D01*
X265005Y747665D01*
X264190Y747794D01*
X263388Y747986D01*
X262603Y748241D01*
X261841Y748557D01*
X261106Y748932D01*
X260402Y749363D01*
X259735Y749848D01*
X259107Y750384D01*
X258524Y750967D01*
X257988Y751595D01*
X257503Y752262D01*
X257072Y752966D01*
X256697Y753701D01*
X256381Y754463D01*
X256126Y755248D01*
X255934Y756050D01*
X255805Y756865D01*
X255740Y757687D01*
X255740Y758513D01*
X255805Y759335D01*
X255934Y760150D01*
X256126Y760952D01*
X256381Y761737D01*
X256697Y762499D01*
X257072Y763234D01*
X257503Y763938D01*
X257988Y764606D01*
X258524Y765233D01*
X259107Y765816D01*
X259735Y766352D01*
X260402Y766837D01*
X261106Y767268D01*
X261841Y767643D01*
X262603Y767959D01*
X263388Y768214D01*
X264190Y768406D01*
X265005Y768535D01*
X265827Y768600D01*
X266653Y768600D01*
X207577Y576850D02*
X208247Y576775D01*
X208904Y576625D01*
X209540Y576402D01*
X210147Y576110D01*
X210718Y575751D01*
X211244Y575331D01*
X211721Y574854D01*
X212141Y574328D01*
X212500Y573757D01*
X212792Y573150D01*
X213015Y572514D01*
X213165Y571857D01*
X213240Y571187D01*
X213240Y570513D01*
X213165Y569843D01*
X213015Y569186D01*
X212792Y568550D01*
X212500Y567943D01*
X212141Y567373D01*
X211721Y566846D01*
X211244Y566369D01*
X210718Y565949D01*
X210147Y565590D01*
X209540Y565298D01*
X208904Y565075D01*
X208247Y564925D01*
X207577Y564850D01*
X206903Y564850D01*
X206233Y564925D01*
X205576Y565075D01*
X204940Y565298D01*
X204333Y565590D01*
X203763Y565949D01*
X203236Y566369D01*
X202759Y566846D01*
X202339Y567373D01*
X201980Y567943D01*
X201688Y568550D01*
X201465Y569186D01*
X201315Y569843D01*
X201240Y570513D01*
X201240Y571187D01*
X201315Y571857D01*
X201465Y572514D01*
X201688Y573150D01*
X201980Y573757D01*
X202339Y574328D01*
X202759Y574854D01*
X203236Y575331D01*
X203763Y575751D01*
X204333Y576110D01*
X204940Y576402D01*
X205576Y576625D01*
X206233Y576775D01*
X206903Y576850D01*
X207577Y576850D01*
X207577Y781350D02*
X208247Y781275D01*
X208904Y781125D01*
X209540Y780902D01*
X210147Y780610D01*
X210718Y780251D01*
X211244Y779831D01*
X211721Y779354D01*
X212141Y778828D01*
X212500Y778257D01*
X212792Y777650D01*
X213015Y777014D01*
X213165Y776357D01*
X213240Y775687D01*
X213240Y775013D01*
X213165Y774343D01*
X213015Y773686D01*
X212792Y773050D01*
X212500Y772443D01*
X212141Y771873D01*
X211721Y771346D01*
X211244Y770869D01*
X210718Y770449D01*
X210147Y770090D01*
X209540Y769798D01*
X208904Y769575D01*
X208247Y769425D01*
X207577Y769350D01*
X206903Y769350D01*
X206233Y769425D01*
X205576Y769575D01*
X204940Y769798D01*
X204333Y770090D01*
X203763Y770449D01*
X203236Y770869D01*
X202759Y771346D01*
X202339Y771873D01*
X201980Y772443D01*
X201688Y773050D01*
X201465Y773686D01*
X201315Y774343D01*
X201240Y775013D01*
X201240Y775687D01*
X201315Y776357D01*
X201465Y777014D01*
X201688Y777650D01*
X201980Y778257D01*
X202339Y778828D01*
X202759Y779354D01*
X203236Y779831D01*
X203763Y780251D01*
X204333Y780610D01*
X204940Y780902D01*
X205576Y781125D01*
X206233Y781275D01*
X206903Y781350D01*
X207577Y781350D01*
M02*
