G04 EAGLE Gerber RS-274X export*
G75*
%MOMM*%
%FSLAX34Y34*%
%LPD*%
%INBottom Copper*%
%IPPOS*%
%AMOC8*
5,1,8,0,0,1.08239X$1,22.5*%
G01*
%ADD10P,1.704548X8X22.500000*%
%ADD11C,1.574800*%
%ADD12C,1.524000*%
%ADD13R,1.879600X1.879600*%
%ADD14C,1.879600*%
%ADD15C,1.308000*%
%ADD16C,2.705100*%
%ADD17C,0.508000*%
%ADD18C,1.016000*%
%ADD19C,1.270000*%
%ADD20C,0.406400*%


D10*
X512900Y737200D03*
D11*
X487500Y737200D03*
D10*
X526900Y1004100D03*
D11*
X501500Y1004100D03*
D12*
X320120Y736500D02*
X304880Y736500D01*
X304880Y711100D02*
X320120Y711100D01*
X320120Y685700D02*
X304880Y685700D01*
X304880Y660300D02*
X320120Y660300D01*
X320120Y634900D02*
X304880Y634900D01*
X304880Y609500D02*
X320120Y609500D01*
X320120Y584100D02*
X304880Y584100D01*
X304880Y558700D02*
X320120Y558700D01*
X431880Y558700D02*
X447120Y558700D01*
X447120Y584100D02*
X431880Y584100D01*
X431880Y609500D02*
X447120Y609500D01*
X447120Y634900D02*
X431880Y634900D01*
X431880Y660300D02*
X447120Y660300D01*
X447120Y685700D02*
X431880Y685700D01*
X431880Y711100D02*
X447120Y711100D01*
X447120Y736500D02*
X431880Y736500D01*
X317620Y977700D02*
X302380Y977700D01*
X302380Y952300D02*
X317620Y952300D01*
X317620Y926900D02*
X302380Y926900D01*
X302380Y901500D02*
X317620Y901500D01*
X317620Y876100D02*
X302380Y876100D01*
X302380Y850700D02*
X317620Y850700D01*
X317620Y825300D02*
X302380Y825300D01*
X302380Y799900D02*
X317620Y799900D01*
X429380Y799900D02*
X444620Y799900D01*
X444620Y825300D02*
X429380Y825300D01*
X429380Y850700D02*
X444620Y850700D01*
X444620Y876100D02*
X429380Y876100D01*
X429380Y901500D02*
X444620Y901500D01*
X444620Y926900D02*
X429380Y926900D01*
X429380Y952300D02*
X444620Y952300D01*
X444620Y977700D02*
X429380Y977700D01*
D13*
X335900Y480800D03*
D14*
X310500Y480800D03*
D13*
X493200Y685600D03*
D14*
X493200Y660200D03*
X493200Y634800D03*
X493200Y609400D03*
D13*
X489200Y927400D03*
D14*
X489200Y902000D03*
X489200Y876600D03*
X489200Y851200D03*
D13*
X520200Y927000D03*
D14*
X520200Y901600D03*
X520200Y876200D03*
X520200Y850800D03*
D15*
X120840Y965200D02*
X107760Y965200D01*
X107760Y939800D02*
X120840Y939800D01*
X120840Y914400D02*
X107760Y914400D01*
X107760Y889000D02*
X120840Y889000D01*
X120840Y863600D02*
X107760Y863600D01*
X107760Y838200D02*
X120840Y838200D01*
X120840Y812800D02*
X107760Y812800D01*
X107760Y787400D02*
X120840Y787400D01*
X120840Y762000D02*
X107760Y762000D01*
X107760Y736600D02*
X120840Y736600D01*
X120840Y711200D02*
X107760Y711200D01*
X107760Y685800D02*
X120840Y685800D01*
X120840Y660400D02*
X107760Y660400D01*
X107760Y635000D02*
X120840Y635000D01*
X120840Y609600D02*
X107760Y609600D01*
X107760Y584200D02*
X120840Y584200D01*
X120840Y558800D02*
X107760Y558800D01*
X107760Y533400D02*
X120840Y533400D01*
X120840Y508000D02*
X107760Y508000D01*
X107760Y482600D02*
X120840Y482600D01*
X260160Y965200D02*
X273240Y965200D01*
X273240Y939800D02*
X260160Y939800D01*
X260160Y914400D02*
X273240Y914400D01*
X273240Y889000D02*
X260160Y889000D01*
X260160Y863600D02*
X273240Y863600D01*
X273240Y838200D02*
X260160Y838200D01*
X260160Y812800D02*
X273240Y812800D01*
X273240Y787400D02*
X260160Y787400D01*
X260160Y762000D02*
X273240Y762000D01*
X273240Y736600D02*
X260160Y736600D01*
X260160Y711200D02*
X273240Y711200D01*
X273240Y685800D02*
X260160Y685800D01*
X260160Y660400D02*
X273240Y660400D01*
X273240Y635000D02*
X260160Y635000D01*
X260160Y609600D02*
X273240Y609600D01*
X273240Y584200D02*
X260160Y584200D01*
X260160Y558800D02*
X273240Y558800D01*
X273240Y533400D02*
X260160Y533400D01*
X260160Y508000D02*
X273240Y508000D01*
X273240Y482600D02*
X260160Y482600D01*
D16*
X391400Y495526D02*
X391400Y468475D01*
X431024Y468475D02*
X431024Y495526D01*
X470648Y495526D02*
X470648Y468475D01*
D17*
X269700Y914400D02*
X266700Y914400D01*
X291400Y914400D01*
X303900Y926900D02*
X310000Y926900D01*
X303900Y926900D02*
X291400Y914400D01*
X310600Y927500D02*
X338000Y927500D01*
X310600Y927500D02*
X310000Y926900D01*
X351500Y911225D02*
X351500Y909142D01*
D18*
X312500Y711100D02*
X312500Y685700D01*
X310000Y926900D02*
X310000Y952300D01*
X312500Y711100D02*
X330600Y711100D01*
X351500Y732000D01*
X351500Y909142D01*
X351500Y911225D02*
X338000Y924725D01*
X338000Y927500D01*
X337400Y926900D01*
X310000Y926900D01*
D19*
X437000Y799900D02*
X438100Y801000D01*
D18*
X391400Y538400D02*
X391400Y482000D01*
X411700Y558700D02*
X439500Y558700D01*
X411700Y558700D02*
X391400Y538400D01*
X390200Y480800D02*
X335900Y480800D01*
X390200Y480800D02*
X391400Y482000D01*
X133500Y508000D02*
X114300Y508000D01*
X133500Y508000D02*
X194700Y446800D01*
X310400Y446800D01*
X335900Y472300D02*
X335900Y480800D01*
X335900Y472300D02*
X310400Y446800D01*
X266700Y939800D02*
X266700Y965200D01*
X266700Y980300D01*
X265500Y981500D01*
X287530Y1003530D01*
X424700Y952300D02*
X437000Y952300D01*
X373470Y1003530D02*
X287530Y1003530D01*
X373470Y1003530D02*
X424700Y952300D01*
X526900Y967100D02*
X526900Y1004100D01*
X526900Y967100D02*
X512100Y952300D01*
X437000Y952300D01*
X437000Y799900D02*
X500600Y799900D01*
X501500Y799000D01*
X526900Y963091D02*
X526900Y1004100D01*
X526900Y963091D02*
X541226Y948765D01*
X512900Y810400D02*
X501500Y799000D01*
X513517Y811017D02*
X541226Y838726D01*
X541226Y948765D01*
X410609Y559791D02*
X411700Y558700D01*
X410609Y559791D02*
X358140Y559791D01*
X388090Y952300D02*
X437000Y952300D01*
X358140Y710768D02*
X358140Y559791D01*
X358140Y710768D02*
X369011Y721639D01*
X369011Y933221D01*
X388090Y952300D01*
X412191Y712470D02*
X413561Y711100D01*
X412191Y712470D02*
X412191Y795452D01*
X416639Y799900D02*
X437000Y799900D01*
X416639Y799900D02*
X412191Y795452D01*
X413561Y711100D02*
X439500Y711100D01*
X512900Y737200D02*
X512900Y810400D01*
X513517Y811017D01*
X312500Y634900D02*
X312500Y609500D01*
D17*
X310000Y850700D02*
X309880Y850700D01*
D18*
X310000Y850820D02*
X310000Y876100D01*
X310000Y850820D02*
X309880Y850700D01*
D17*
X310000Y825300D02*
X247800Y825300D01*
D18*
X257900Y609600D02*
X266700Y609600D01*
X257900Y609600D02*
X217564Y649936D01*
X217564Y795064D01*
X247800Y825300D01*
D17*
X258700Y685800D02*
X262077Y685800D01*
X238000Y791500D02*
X246400Y799900D01*
X310000Y799900D01*
D18*
X246400Y799900D02*
X238240Y791740D01*
X238240Y791500D01*
X238000Y791500D02*
X238000Y706500D01*
X258700Y685800D01*
X262077Y685800D02*
X266700Y685800D01*
X266700Y584200D02*
X312400Y584200D01*
X312500Y584100D01*
D20*
X329416Y647584D02*
X288516Y647584D01*
D17*
X329416Y647584D02*
X337500Y639500D01*
X337500Y636295D01*
D18*
X325700Y558700D02*
X312500Y558700D01*
X325700Y558700D02*
X337500Y570500D01*
X337500Y636295D01*
X275700Y660400D02*
X266700Y660400D01*
X275700Y660400D02*
X288516Y647584D01*
D17*
X439500Y685700D02*
X447120Y685700D01*
D19*
X493100Y685700D01*
D17*
X493200Y685600D01*
X447120Y660300D02*
X439500Y660300D01*
D19*
X447120Y660300D02*
X493100Y660300D01*
D17*
X493200Y660200D01*
X447120Y634900D02*
X439500Y634900D01*
D19*
X447120Y634900D02*
X493100Y634900D01*
D17*
X493200Y634800D01*
X447120Y609500D02*
X439500Y609500D01*
D19*
X447120Y609500D02*
X493100Y609500D01*
D17*
X493200Y609400D01*
D19*
X488700Y926900D02*
X489200Y927400D01*
X488700Y926900D02*
X444620Y926900D01*
X437000Y926900D01*
X489600Y927000D02*
X520200Y927000D01*
X489600Y927000D02*
X489200Y927400D01*
X489200Y902000D02*
X445120Y902000D01*
X444620Y901500D01*
X437000Y901500D01*
X489600Y901600D02*
X520200Y901600D01*
X489600Y901600D02*
X489200Y902000D01*
D17*
X445120Y876600D02*
X444620Y876100D01*
D19*
X445120Y876600D02*
X489200Y876600D01*
X445120Y876600D02*
X437000Y876100D01*
X489600Y876200D02*
X520200Y876200D01*
X489600Y876200D02*
X489200Y876600D01*
D17*
X445120Y851200D02*
X444620Y850700D01*
D19*
X445120Y851200D02*
X489200Y851200D01*
X445120Y851200D02*
X437000Y850700D01*
X489600Y850800D02*
X520200Y850800D01*
X489600Y850800D02*
X489200Y851200D01*
D17*
X310500Y480800D02*
X310500Y480500D01*
X295000Y465000D01*
D18*
X154900Y863600D02*
X114300Y863600D01*
X154900Y863600D02*
X193500Y825000D01*
X193500Y495000D01*
X223500Y465000D01*
X295000Y465000D01*
X295000Y465300D01*
X310500Y480800D01*
D17*
X266700Y736600D02*
X261200Y736600D01*
X334500Y829000D02*
X325516Y837984D01*
X279132Y851304D02*
X251696Y851304D01*
X279132Y851304D02*
X292452Y837984D01*
D20*
X325516Y837984D01*
D17*
X334500Y829000D02*
X334500Y827253D01*
X334500Y758700D02*
X312400Y736600D01*
X310000Y977700D02*
X296000Y977700D01*
X287500Y969200D01*
X287500Y935700D01*
X278828Y927028D02*
X245028Y927028D01*
X236500Y918500D01*
X278828Y927028D02*
X287500Y935700D01*
X236500Y866500D02*
X251696Y851304D01*
D18*
X266700Y736600D02*
X312400Y736600D01*
X312500Y736500D01*
X312500Y736700D01*
X334500Y758700D01*
X334500Y827253D01*
X236500Y866500D02*
X236500Y918500D01*
D19*
X437000Y977700D02*
X475100Y977700D01*
X501500Y1004100D01*
X486800Y736500D02*
X439500Y736500D01*
X486800Y736500D02*
X487500Y737200D01*
D18*
X520202Y698233D02*
X520202Y531554D01*
X470648Y482000D01*
X559009Y941292D02*
X558847Y1011153D01*
X543500Y1026500D01*
X511000Y1026500D01*
X501500Y1017000D01*
X501500Y1004100D01*
X520202Y698233D02*
X540093Y698233D01*
X558702Y716842D02*
X558702Y945633D01*
X558702Y716842D02*
X540093Y698233D01*
X487500Y718924D02*
X487500Y737200D01*
X492938Y713486D02*
X506451Y713486D01*
X520202Y699735D01*
X520202Y698233D01*
X492938Y713486D02*
X487500Y718924D01*
X431024Y482000D02*
X431500Y481524D01*
X120000Y427500D02*
X85300Y462200D01*
X98300Y533400D02*
X114300Y533400D01*
X98300Y533400D02*
X85300Y520400D01*
X85300Y462200D01*
D19*
X410100Y584100D02*
X413900Y584100D01*
X407001Y825300D02*
X437000Y825300D01*
X407001Y825300D02*
X390000Y808300D01*
X390000Y608000D01*
X413900Y584100D02*
X439500Y584100D01*
X413900Y584100D02*
X390000Y608000D01*
D18*
X431024Y505524D02*
X431024Y482000D01*
X471000Y545500D02*
X471000Y572500D01*
X459400Y584100D01*
X439500Y584100D01*
X471000Y545500D02*
X431024Y505524D01*
X431500Y481524D02*
X431500Y462500D01*
X396500Y427500D02*
X120000Y427500D01*
X396500Y427500D02*
X431500Y462500D01*
M02*
