G04 EAGLE Gerber RS-274X export*
G75*
%MOMM*%
%FSLAX34Y34*%
%LPD*%
%INTop Copper*%
%IPPOS*%
%AMOC8*
5,1,8,0,0,1.08239X$1,22.5*%
G01*
%ADD10P,1.704548X8X22.500000*%
%ADD11C,1.574800*%
%ADD12C,1.524000*%
%ADD13R,1.879600X1.879600*%
%ADD14C,1.879600*%
%ADD15C,1.308000*%
%ADD16C,2.705100*%


D10*
X512900Y737200D03*
D11*
X487500Y737200D03*
D10*
X526900Y1004100D03*
D11*
X501500Y1004100D03*
D12*
X320120Y736500D02*
X304880Y736500D01*
X304880Y711100D02*
X320120Y711100D01*
X320120Y685700D02*
X304880Y685700D01*
X304880Y660300D02*
X320120Y660300D01*
X320120Y634900D02*
X304880Y634900D01*
X304880Y609500D02*
X320120Y609500D01*
X320120Y584100D02*
X304880Y584100D01*
X304880Y558700D02*
X320120Y558700D01*
X431880Y558700D02*
X447120Y558700D01*
X447120Y584100D02*
X431880Y584100D01*
X431880Y609500D02*
X447120Y609500D01*
X447120Y634900D02*
X431880Y634900D01*
X431880Y660300D02*
X447120Y660300D01*
X447120Y685700D02*
X431880Y685700D01*
X431880Y711100D02*
X447120Y711100D01*
X447120Y736500D02*
X431880Y736500D01*
X317620Y977700D02*
X302380Y977700D01*
X302380Y952300D02*
X317620Y952300D01*
X317620Y926900D02*
X302380Y926900D01*
X302380Y901500D02*
X317620Y901500D01*
X317620Y876100D02*
X302380Y876100D01*
X302380Y850700D02*
X317620Y850700D01*
X317620Y825300D02*
X302380Y825300D01*
X302380Y799900D02*
X317620Y799900D01*
X429380Y799900D02*
X444620Y799900D01*
X444620Y825300D02*
X429380Y825300D01*
X429380Y850700D02*
X444620Y850700D01*
X444620Y876100D02*
X429380Y876100D01*
X429380Y901500D02*
X444620Y901500D01*
X444620Y926900D02*
X429380Y926900D01*
X429380Y952300D02*
X444620Y952300D01*
X444620Y977700D02*
X429380Y977700D01*
D13*
X335900Y480800D03*
D14*
X310500Y480800D03*
D13*
X493200Y685600D03*
D14*
X493200Y660200D03*
X493200Y634800D03*
X493200Y609400D03*
D13*
X489200Y927400D03*
D14*
X489200Y902000D03*
X489200Y876600D03*
X489200Y851200D03*
D13*
X520200Y927000D03*
D14*
X520200Y901600D03*
X520200Y876200D03*
X520200Y850800D03*
D15*
X120840Y965200D02*
X107760Y965200D01*
X107760Y939800D02*
X120840Y939800D01*
X120840Y914400D02*
X107760Y914400D01*
X107760Y889000D02*
X120840Y889000D01*
X120840Y863600D02*
X107760Y863600D01*
X107760Y838200D02*
X120840Y838200D01*
X120840Y812800D02*
X107760Y812800D01*
X107760Y787400D02*
X120840Y787400D01*
X120840Y762000D02*
X107760Y762000D01*
X107760Y736600D02*
X120840Y736600D01*
X120840Y711200D02*
X107760Y711200D01*
X107760Y685800D02*
X120840Y685800D01*
X120840Y660400D02*
X107760Y660400D01*
X107760Y635000D02*
X120840Y635000D01*
X120840Y609600D02*
X107760Y609600D01*
X107760Y584200D02*
X120840Y584200D01*
X120840Y558800D02*
X107760Y558800D01*
X107760Y533400D02*
X120840Y533400D01*
X120840Y508000D02*
X107760Y508000D01*
X107760Y482600D02*
X120840Y482600D01*
X260160Y965200D02*
X273240Y965200D01*
X273240Y939800D02*
X260160Y939800D01*
X260160Y914400D02*
X273240Y914400D01*
X273240Y889000D02*
X260160Y889000D01*
X260160Y863600D02*
X273240Y863600D01*
X273240Y838200D02*
X260160Y838200D01*
X260160Y812800D02*
X273240Y812800D01*
X273240Y787400D02*
X260160Y787400D01*
X260160Y762000D02*
X273240Y762000D01*
X273240Y736600D02*
X260160Y736600D01*
X260160Y711200D02*
X273240Y711200D01*
X273240Y685800D02*
X260160Y685800D01*
X260160Y660400D02*
X273240Y660400D01*
X273240Y635000D02*
X260160Y635000D01*
X260160Y609600D02*
X273240Y609600D01*
X273240Y584200D02*
X260160Y584200D01*
X260160Y558800D02*
X273240Y558800D01*
X273240Y533400D02*
X260160Y533400D01*
X260160Y508000D02*
X273240Y508000D01*
X273240Y482600D02*
X260160Y482600D01*
D16*
X391400Y495526D02*
X391400Y468475D01*
X431024Y468475D02*
X431024Y495526D01*
X470648Y495526D02*
X470648Y468475D01*
M02*
