G04 EAGLE Gerber RS-274X export*
G75*
%MOMM*%
%FSLAX34Y34*%
%LPD*%
%INBottom Copper*%
%IPPOS*%
%AMOC8*
5,1,8,0,0,1.08239X$1,22.5*%
G01*
%ADD10R,1.300000X1.600000*%
%ADD11R,1.600000X1.300000*%
%ADD12C,1.879600*%
%ADD13C,1.508000*%
%ADD14C,0.127000*%
%ADD15C,1.108000*%
%ADD16C,1.308000*%
%ADD17C,0.508000*%
%ADD18C,1.300000*%
%ADD19C,0.304800*%

G36*
X804701Y294386D02*
X804701Y294386D01*
X802983Y880620D01*
X802978Y880625D01*
X802978Y880624D01*
X802978Y880625D01*
X310418Y880625D01*
X310413Y880620D01*
X312131Y294386D01*
X312136Y294381D01*
X312136Y294382D01*
X312136Y294381D01*
X804696Y294381D01*
X804701Y294386D01*
G37*
%LPC*%
G36*
X735743Y308245D02*
X735743Y308245D01*
X730908Y310248D01*
X729912Y311243D01*
X729910Y311244D01*
X729909Y311245D01*
X573200Y311245D01*
X569468Y312791D01*
X525115Y357143D01*
X525113Y357144D01*
X525111Y357145D01*
X492120Y357145D01*
X492118Y357143D01*
X492116Y357143D01*
X489425Y354452D01*
X483855Y352145D01*
X462745Y352145D01*
X457175Y354452D01*
X452912Y358715D01*
X450605Y364285D01*
X450605Y370315D01*
X452912Y375885D01*
X457024Y379996D01*
X457024Y380003D01*
X457024Y380004D01*
X452912Y384115D01*
X450605Y389685D01*
X450605Y395715D01*
X452912Y401285D01*
X457175Y405548D01*
X462745Y407855D01*
X483855Y407855D01*
X489425Y405548D01*
X493688Y401285D01*
X495995Y395715D01*
X495995Y389685D01*
X493688Y384115D01*
X489576Y380004D01*
X489576Y379997D01*
X489576Y379996D01*
X492116Y377457D01*
X492118Y377456D01*
X492120Y377455D01*
X531340Y377455D01*
X535072Y375909D01*
X579425Y331557D01*
X579427Y331556D01*
X579429Y331555D01*
X637305Y331555D01*
X637306Y331556D01*
X637308Y331556D01*
X637308Y331558D01*
X637310Y331560D01*
X637309Y331561D01*
X637309Y331564D01*
X615786Y353086D01*
X612929Y355944D01*
X611383Y359676D01*
X611383Y460998D01*
X612929Y464730D01*
X615786Y467588D01*
X622850Y474652D01*
X625708Y477509D01*
X629440Y479055D01*
X632280Y479055D01*
X632282Y479057D01*
X632284Y479057D01*
X634824Y481596D01*
X634824Y481598D01*
X634824Y481603D01*
X634824Y481604D01*
X630712Y485715D01*
X628405Y491285D01*
X628405Y497315D01*
X630712Y502885D01*
X634824Y506996D01*
X634824Y506998D01*
X634824Y506999D01*
X634824Y507003D01*
X634824Y507004D01*
X630712Y511115D01*
X628405Y516685D01*
X628405Y522715D01*
X630712Y528285D01*
X634975Y532548D01*
X640545Y534855D01*
X661655Y534855D01*
X664211Y533796D01*
X664214Y533798D01*
X664216Y533798D01*
X690755Y560336D01*
X690755Y560338D01*
X690756Y560339D01*
X690755Y560341D01*
X690755Y560343D01*
X690753Y560343D01*
X690751Y560345D01*
X669920Y560345D01*
X669918Y560343D01*
X669916Y560343D01*
X667225Y557652D01*
X661655Y555345D01*
X640545Y555345D01*
X634975Y557652D01*
X630712Y561915D01*
X628405Y567485D01*
X628405Y573515D01*
X630712Y579085D01*
X634824Y583196D01*
X634824Y583198D01*
X634825Y583199D01*
X634824Y583200D01*
X634824Y583203D01*
X634824Y583204D01*
X630712Y587315D01*
X628405Y592885D01*
X628405Y598915D01*
X630712Y604485D01*
X634824Y608596D01*
X634824Y608598D01*
X634825Y608599D01*
X634824Y608601D01*
X634824Y608603D01*
X634824Y608604D01*
X630712Y612715D01*
X628405Y618285D01*
X628405Y624315D01*
X630712Y629885D01*
X634824Y633996D01*
X634824Y633999D01*
X634825Y634000D01*
X634824Y634001D01*
X634824Y634003D01*
X634824Y634004D01*
X630712Y638115D01*
X628405Y643685D01*
X628405Y649715D01*
X630712Y655285D01*
X634975Y659548D01*
X640545Y661855D01*
X661655Y661855D01*
X667225Y659548D01*
X671488Y655285D01*
X673795Y649715D01*
X673795Y643685D01*
X671488Y638115D01*
X667376Y634004D01*
X667376Y634002D01*
X667375Y634001D01*
X667376Y634000D01*
X667376Y633997D01*
X667376Y633996D01*
X671488Y629885D01*
X673795Y624315D01*
X673795Y618285D01*
X671488Y612715D01*
X667376Y608604D01*
X667376Y608602D01*
X667375Y608601D01*
X667376Y608599D01*
X667376Y608597D01*
X667376Y608596D01*
X671488Y604485D01*
X673795Y598915D01*
X673795Y592885D01*
X671488Y587315D01*
X667376Y583204D01*
X667376Y583201D01*
X667375Y583200D01*
X667376Y583199D01*
X667376Y583197D01*
X667376Y583196D01*
X669916Y580657D01*
X669918Y580656D01*
X669919Y580656D01*
X669920Y580655D01*
X684909Y580655D01*
X684911Y580657D01*
X684913Y580657D01*
X713666Y609409D01*
X717398Y610955D01*
X729909Y610955D01*
X729911Y610957D01*
X729912Y610957D01*
X730908Y611952D01*
X735743Y613955D01*
X752057Y613955D01*
X756892Y611952D01*
X757932Y610912D01*
X757934Y610912D01*
X757935Y610911D01*
X757937Y610912D01*
X757939Y610912D01*
X757939Y610914D01*
X757941Y610915D01*
X757941Y636125D01*
X757939Y636127D01*
X757939Y636129D01*
X754511Y639558D01*
X754507Y639558D01*
X754505Y639559D01*
X752057Y638545D01*
X735743Y638545D01*
X730908Y640548D01*
X729912Y641543D01*
X729910Y641544D01*
X729909Y641545D01*
X722960Y641545D01*
X719228Y643091D01*
X707671Y654648D01*
X706125Y658380D01*
X706125Y712071D01*
X706123Y712073D01*
X706123Y712075D01*
X680055Y738143D01*
X680053Y738144D01*
X680051Y738145D01*
X669920Y738145D01*
X669918Y738143D01*
X669916Y738143D01*
X667376Y735604D01*
X667376Y735602D01*
X667376Y735597D01*
X667376Y735596D01*
X671488Y731485D01*
X673795Y725915D01*
X673795Y719885D01*
X671488Y714315D01*
X667376Y710204D01*
X667376Y710202D01*
X667376Y710201D01*
X667376Y710197D01*
X667376Y710196D01*
X671488Y706085D01*
X673795Y700515D01*
X673795Y694485D01*
X671488Y688915D01*
X667225Y684652D01*
X661655Y682345D01*
X640545Y682345D01*
X634975Y684652D01*
X630712Y688915D01*
X628405Y694485D01*
X628405Y700515D01*
X630712Y706085D01*
X634824Y710196D01*
X634824Y710200D01*
X634824Y710201D01*
X634824Y710203D01*
X634824Y710204D01*
X630712Y714315D01*
X628405Y719885D01*
X628405Y725915D01*
X630712Y731485D01*
X634824Y735596D01*
X634824Y735603D01*
X634824Y735604D01*
X632284Y738143D01*
X632282Y738144D01*
X632280Y738145D01*
X538222Y738145D01*
X534490Y739691D01*
X496429Y777751D01*
X496427Y777752D01*
X496425Y777753D01*
X495573Y777753D01*
X495572Y777752D01*
X495571Y777753D01*
X495570Y777751D01*
X495568Y777748D01*
X495569Y777747D01*
X495568Y777747D01*
X495568Y777746D01*
X495995Y776715D01*
X495995Y770685D01*
X493688Y765115D01*
X489576Y761004D01*
X489576Y760997D01*
X489576Y760996D01*
X493688Y756885D01*
X495995Y751315D01*
X495995Y745285D01*
X493688Y739715D01*
X489576Y735604D01*
X489576Y735602D01*
X489576Y735597D01*
X489576Y735596D01*
X493688Y731485D01*
X495995Y725915D01*
X495995Y719885D01*
X493688Y714315D01*
X489576Y710204D01*
X489576Y710202D01*
X489576Y710201D01*
X489576Y710197D01*
X489576Y710196D01*
X493688Y706085D01*
X495995Y700515D01*
X495995Y694485D01*
X493688Y688915D01*
X489425Y684652D01*
X483855Y682345D01*
X462745Y682345D01*
X457175Y684652D01*
X453484Y688343D01*
X453482Y688344D01*
X453480Y688345D01*
X415060Y688345D01*
X415058Y688343D01*
X415056Y688343D01*
X412365Y685652D01*
X406795Y683345D01*
X385685Y683345D01*
X380115Y685652D01*
X377424Y688343D01*
X377422Y688344D01*
X377420Y688345D01*
X371333Y688345D01*
X371330Y688342D01*
X371329Y688342D01*
X370436Y686186D01*
X368294Y684044D01*
X365495Y682885D01*
X349465Y682885D01*
X346666Y684044D01*
X344524Y686186D01*
X343789Y687962D01*
X343785Y687963D01*
X343784Y687965D01*
X338485Y687965D01*
X338485Y698500D01*
X338485Y709035D01*
X343784Y709035D01*
X343787Y709038D01*
X343789Y709038D01*
X344524Y710814D01*
X346666Y712956D01*
X349465Y714115D01*
X365495Y714115D01*
X368294Y712956D01*
X370436Y710814D01*
X371329Y708658D01*
X371332Y708657D01*
X371333Y708655D01*
X377420Y708655D01*
X377422Y708657D01*
X377424Y708657D01*
X380115Y711348D01*
X385685Y713655D01*
X406795Y713655D01*
X412365Y711348D01*
X415056Y708657D01*
X415058Y708656D01*
X415059Y708656D01*
X415060Y708655D01*
X455480Y708655D01*
X455482Y708657D01*
X455484Y708657D01*
X457024Y710196D01*
X457024Y710200D01*
X457024Y710201D01*
X457024Y710203D01*
X457024Y710204D01*
X452912Y714315D01*
X450605Y719885D01*
X450605Y725915D01*
X452912Y731485D01*
X457024Y735596D01*
X457024Y735603D01*
X457024Y735604D01*
X452912Y739715D01*
X450605Y745285D01*
X450605Y751315D01*
X452912Y756885D01*
X457024Y760996D01*
X457024Y761003D01*
X457024Y761004D01*
X454908Y763119D01*
X454901Y763120D01*
X454901Y763119D01*
X435012Y743231D01*
X431280Y741685D01*
X361200Y741685D01*
X357468Y743231D01*
X334037Y766662D01*
X332491Y770394D01*
X332491Y779923D01*
X332488Y779925D01*
X332488Y779927D01*
X328088Y781750D01*
X324106Y785732D01*
X321951Y790934D01*
X321951Y796566D01*
X324106Y801768D01*
X327428Y805091D01*
X327428Y805093D01*
X327430Y805094D01*
X327429Y805095D01*
X327429Y805096D01*
X327285Y805445D01*
X327285Y821475D01*
X327899Y822958D01*
X327898Y822960D01*
X327899Y822962D01*
X327285Y824445D01*
X327285Y840475D01*
X328444Y843274D01*
X329885Y844715D01*
X329885Y844720D01*
X329886Y844721D01*
X329064Y845951D01*
X328380Y847603D01*
X328031Y849356D01*
X328031Y850245D01*
X343646Y850245D01*
X359261Y850245D01*
X359261Y849356D01*
X359260Y849351D01*
X359258Y849342D01*
X359258Y849341D01*
X359255Y849327D01*
X359252Y849312D01*
X359250Y849302D01*
X359247Y849287D01*
X359244Y849272D01*
X359242Y849262D01*
X359240Y849247D01*
X359239Y849247D01*
X359240Y849247D01*
X359237Y849232D01*
X359235Y849222D01*
X359232Y849207D01*
X359229Y849192D01*
X359224Y849168D01*
X359221Y849153D01*
X359216Y849128D01*
X359213Y849113D01*
X359208Y849088D01*
X359205Y849073D01*
X359200Y849048D01*
X359197Y849033D01*
X359192Y849009D01*
X359189Y848994D01*
X359184Y848969D01*
X359181Y848954D01*
X359176Y848929D01*
X359173Y848914D01*
X359170Y848899D01*
X359168Y848889D01*
X359165Y848874D01*
X359162Y848860D01*
X359162Y848859D01*
X359160Y848850D01*
X359157Y848835D01*
X359155Y848820D01*
X359154Y848820D01*
X359155Y848820D01*
X359153Y848810D01*
X359150Y848795D01*
X359147Y848780D01*
X359145Y848770D01*
X359142Y848755D01*
X359139Y848740D01*
X359137Y848730D01*
X359134Y848715D01*
X359131Y848701D01*
X359131Y848700D01*
X359129Y848691D01*
X359126Y848676D01*
X359123Y848661D01*
X359121Y848651D01*
X359118Y848636D01*
X359115Y848621D01*
X359110Y848596D01*
X359107Y848581D01*
X359102Y848556D01*
X359099Y848542D01*
X359099Y848541D01*
X359094Y848517D01*
X359091Y848502D01*
X359086Y848477D01*
X359083Y848462D01*
X359078Y848437D01*
X359075Y848422D01*
X359071Y848397D01*
X359070Y848397D01*
X359068Y848383D01*
X359068Y848382D01*
X359063Y848358D01*
X359060Y848343D01*
X359057Y848328D01*
X359055Y848318D01*
X359052Y848303D01*
X359049Y848288D01*
X359047Y848278D01*
X359044Y848263D01*
X359041Y848248D01*
X359039Y848238D01*
X359036Y848224D01*
X359036Y848223D01*
X359033Y848209D01*
X359031Y848199D01*
X359028Y848184D01*
X359025Y848169D01*
X359023Y848159D01*
X359020Y848144D01*
X359017Y848129D01*
X359015Y848119D01*
X359012Y848104D01*
X359009Y848089D01*
X359007Y848079D01*
X359004Y848065D01*
X359004Y848064D01*
X359001Y848050D01*
X358996Y848025D01*
X358993Y848010D01*
X358988Y847985D01*
X358986Y847970D01*
X358985Y847970D01*
X358986Y847970D01*
X358981Y847945D01*
X358978Y847930D01*
X358973Y847906D01*
X358973Y847905D01*
X358970Y847891D01*
X358965Y847866D01*
X358962Y847851D01*
X358957Y847826D01*
X358954Y847811D01*
X358949Y847786D01*
X358946Y847771D01*
X358943Y847756D01*
X358941Y847747D01*
X358941Y847746D01*
X358938Y847732D01*
X358935Y847717D01*
X358933Y847707D01*
X358930Y847692D01*
X358927Y847677D01*
X358925Y847667D01*
X358922Y847652D01*
X358919Y847637D01*
X358917Y847627D01*
X358914Y847612D01*
X358912Y847603D01*
X358228Y845951D01*
X357235Y844465D01*
X356703Y843933D01*
X356703Y843931D01*
X356702Y843931D01*
X356703Y843929D01*
X356703Y843927D01*
X356703Y843926D01*
X357356Y843274D01*
X358019Y841673D01*
X358021Y841672D01*
X358022Y841670D01*
X359472Y841069D01*
X379449Y821092D01*
X380995Y817360D01*
X380995Y811929D01*
X380997Y811927D01*
X380997Y811925D01*
X396216Y796706D01*
X396218Y796706D01*
X396220Y796705D01*
X396221Y796706D01*
X396222Y796706D01*
X396222Y796709D01*
X396224Y796711D01*
X396031Y797306D01*
X395737Y799161D01*
X395737Y800095D01*
X407670Y800095D01*
X419603Y800095D01*
X419603Y799161D01*
X419309Y797306D01*
X418729Y795519D01*
X417876Y793846D01*
X416772Y792326D01*
X415444Y790998D01*
X413924Y789894D01*
X413478Y789666D01*
X413477Y789665D01*
X413475Y789664D01*
X413476Y789662D01*
X413475Y789660D01*
X413477Y789659D01*
X413478Y789657D01*
X414767Y789123D01*
X417596Y786294D01*
X417602Y786294D01*
X417603Y786294D01*
X425794Y794485D01*
X429526Y796031D01*
X439010Y796031D01*
X439011Y796032D01*
X439012Y796032D01*
X441464Y797047D01*
X445504Y797047D01*
X447956Y796032D01*
X447957Y796032D01*
X447958Y796031D01*
X456118Y796031D01*
X456119Y796032D01*
X456120Y796031D01*
X456121Y796033D01*
X456123Y796036D01*
X456122Y796037D01*
X456123Y796038D01*
X456072Y796161D01*
X455685Y798107D01*
X455685Y799095D01*
X473300Y799095D01*
X490915Y799095D01*
X490915Y798108D01*
X490912Y798094D01*
X490908Y798069D01*
X490907Y798069D01*
X490905Y798054D01*
X490902Y798039D01*
X490900Y798029D01*
X490897Y798014D01*
X490894Y797999D01*
X490892Y797989D01*
X490889Y797975D01*
X490886Y797960D01*
X490884Y797950D01*
X490881Y797935D01*
X490878Y797920D01*
X490873Y797895D01*
X490870Y797880D01*
X490865Y797855D01*
X490862Y797840D01*
X490857Y797816D01*
X490854Y797801D01*
X490849Y797776D01*
X490846Y797761D01*
X490843Y797746D01*
X490841Y797736D01*
X490838Y797721D01*
X490835Y797706D01*
X490833Y797696D01*
X490830Y797681D01*
X490827Y797667D01*
X490827Y797666D01*
X490825Y797657D01*
X490823Y797642D01*
X490822Y797642D01*
X490823Y797642D01*
X490820Y797627D01*
X490818Y797617D01*
X490815Y797602D01*
X490812Y797587D01*
X490807Y797562D01*
X490804Y797547D01*
X490799Y797522D01*
X490796Y797508D01*
X490796Y797507D01*
X490791Y797483D01*
X490788Y797468D01*
X490783Y797443D01*
X490780Y797428D01*
X490777Y797413D01*
X490775Y797403D01*
X490772Y797388D01*
X490769Y797373D01*
X490767Y797363D01*
X490764Y797349D01*
X490764Y797348D01*
X490761Y797334D01*
X490759Y797324D01*
X490756Y797309D01*
X490753Y797294D01*
X490748Y797269D01*
X490745Y797254D01*
X490740Y797229D01*
X490738Y797214D01*
X490737Y797214D01*
X490738Y797214D01*
X490733Y797190D01*
X490733Y797189D01*
X490730Y797175D01*
X490725Y797150D01*
X490722Y797135D01*
X490719Y797120D01*
X490717Y797110D01*
X490714Y797095D01*
X490711Y797080D01*
X490709Y797070D01*
X490706Y797055D01*
X490703Y797040D01*
X490701Y797031D01*
X490701Y797030D01*
X490698Y797016D01*
X490695Y797001D01*
X490693Y796991D01*
X490690Y796976D01*
X490687Y796961D01*
X490682Y796936D01*
X490679Y796921D01*
X490674Y796896D01*
X490671Y796881D01*
X490666Y796857D01*
X490663Y796842D01*
X490660Y796827D01*
X490658Y796817D01*
X490655Y796802D01*
X490653Y796787D01*
X490652Y796787D01*
X490653Y796787D01*
X490651Y796777D01*
X490648Y796762D01*
X490645Y796747D01*
X490643Y796737D01*
X490640Y796722D01*
X490637Y796708D01*
X490637Y796707D01*
X490635Y796698D01*
X490632Y796683D01*
X490629Y796668D01*
X490624Y796643D01*
X490621Y796628D01*
X490616Y796603D01*
X490613Y796588D01*
X490608Y796563D01*
X490605Y796549D01*
X490605Y796548D01*
X490600Y796524D01*
X490597Y796509D01*
X490594Y796494D01*
X490592Y796484D01*
X490589Y796469D01*
X490586Y796454D01*
X490584Y796444D01*
X490581Y796429D01*
X490578Y796414D01*
X490576Y796404D01*
X490573Y796390D01*
X490573Y796389D01*
X490570Y796375D01*
X490566Y796350D01*
X490563Y796335D01*
X490558Y796310D01*
X490555Y796295D01*
X490550Y796270D01*
X490547Y796255D01*
X490542Y796231D01*
X490542Y796230D01*
X490539Y796216D01*
X490536Y796201D01*
X490534Y796191D01*
X490531Y796176D01*
X490528Y796161D01*
X490477Y796038D01*
X490477Y796037D01*
X490478Y796035D01*
X490479Y796032D01*
X490481Y796032D01*
X490482Y796031D01*
X497176Y796031D01*
X497177Y796032D01*
X497178Y796032D01*
X499630Y797047D01*
X503670Y797047D01*
X507402Y795501D01*
X544447Y758457D01*
X544449Y758456D01*
X544451Y758455D01*
X632280Y758455D01*
X632282Y758457D01*
X632284Y758457D01*
X634824Y760996D01*
X634824Y761003D01*
X634824Y761004D01*
X630712Y765115D01*
X628405Y770685D01*
X628405Y776715D01*
X630712Y782285D01*
X634975Y786548D01*
X640545Y788855D01*
X661655Y788855D01*
X667225Y786548D01*
X671488Y782285D01*
X673795Y776715D01*
X673795Y770685D01*
X671488Y765115D01*
X667376Y761004D01*
X667376Y760997D01*
X667376Y760996D01*
X669916Y758457D01*
X669918Y758456D01*
X669920Y758455D01*
X686280Y758455D01*
X690012Y756909D01*
X724889Y722032D01*
X726435Y718300D01*
X726435Y664609D01*
X726437Y664607D01*
X726437Y664605D01*
X729185Y661857D01*
X729187Y661856D01*
X729189Y661855D01*
X729909Y661855D01*
X729911Y661857D01*
X729912Y661857D01*
X730908Y662852D01*
X735743Y664855D01*
X752057Y664855D01*
X756892Y662852D01*
X757888Y661857D01*
X757890Y661856D01*
X757891Y661855D01*
X758750Y661855D01*
X762482Y660309D01*
X776705Y646086D01*
X778251Y642354D01*
X778251Y482866D01*
X776705Y479134D01*
X762762Y465191D01*
X759030Y463645D01*
X757891Y463645D01*
X757889Y463643D01*
X757888Y463643D01*
X756892Y462648D01*
X753167Y461105D01*
X753166Y461103D01*
X753164Y461102D01*
X753165Y461101D01*
X753164Y461099D01*
X753166Y461098D01*
X753167Y461095D01*
X756892Y459552D01*
X760592Y455852D01*
X762595Y451017D01*
X762595Y445783D01*
X760592Y440948D01*
X756892Y437248D01*
X753167Y435705D01*
X753166Y435703D01*
X753164Y435702D01*
X753165Y435701D01*
X753164Y435699D01*
X753166Y435698D01*
X753167Y435695D01*
X756892Y434152D01*
X760592Y430452D01*
X762595Y425617D01*
X762595Y420383D01*
X760592Y415548D01*
X756892Y411848D01*
X753167Y410305D01*
X753166Y410303D01*
X753164Y410302D01*
X753165Y410301D01*
X753164Y410299D01*
X753166Y410298D01*
X753167Y410295D01*
X756892Y408752D01*
X760592Y405052D01*
X762595Y400217D01*
X762595Y394983D01*
X760592Y390148D01*
X756892Y386448D01*
X753167Y384905D01*
X753166Y384903D01*
X753164Y384902D01*
X753165Y384901D01*
X753164Y384899D01*
X753166Y384898D01*
X753167Y384895D01*
X756892Y383352D01*
X757888Y382357D01*
X757890Y382356D01*
X757891Y382355D01*
X760882Y382355D01*
X764614Y380809D01*
X777721Y367702D01*
X779267Y363970D01*
X779267Y331736D01*
X777721Y328004D01*
X774864Y325147D01*
X771132Y323601D01*
X767092Y323601D01*
X764640Y324616D01*
X764639Y324616D01*
X764638Y324617D01*
X762354Y324617D01*
X762353Y324616D01*
X762353Y324617D01*
X762352Y324615D01*
X762349Y324612D01*
X762350Y324612D01*
X762349Y324612D01*
X762350Y324611D01*
X762349Y324610D01*
X762595Y324017D01*
X762595Y318783D01*
X760592Y313948D01*
X756892Y310248D01*
X752057Y308245D01*
X735743Y308245D01*
G37*
%LPD*%
%LPC*%
G36*
X462745Y555345D02*
X462745Y555345D01*
X457175Y557652D01*
X452912Y561915D01*
X450605Y567485D01*
X450605Y573515D01*
X452912Y579085D01*
X457024Y583196D01*
X457024Y583198D01*
X457025Y583199D01*
X457024Y583200D01*
X457024Y583203D01*
X457024Y583204D01*
X452912Y587315D01*
X450605Y592885D01*
X450605Y598915D01*
X452912Y604485D01*
X457024Y608596D01*
X457024Y608598D01*
X457025Y608599D01*
X457024Y608601D01*
X457024Y608603D01*
X457024Y608604D01*
X452912Y612715D01*
X450605Y618285D01*
X450605Y624315D01*
X452912Y629885D01*
X457024Y633996D01*
X457024Y633999D01*
X457025Y634000D01*
X457024Y634001D01*
X457024Y634003D01*
X457024Y634004D01*
X453484Y637543D01*
X453482Y637544D01*
X453480Y637545D01*
X415060Y637545D01*
X415058Y637543D01*
X415056Y637543D01*
X412365Y634852D01*
X406795Y632545D01*
X385685Y632545D01*
X380115Y634852D01*
X377424Y637543D01*
X377422Y637544D01*
X377420Y637545D01*
X371333Y637545D01*
X371330Y637542D01*
X371329Y637542D01*
X370436Y635386D01*
X368294Y633244D01*
X365495Y632085D01*
X349465Y632085D01*
X346666Y633244D01*
X344524Y635386D01*
X343789Y637162D01*
X343785Y637163D01*
X343784Y637165D01*
X338485Y637165D01*
X338485Y647700D01*
X338485Y658235D01*
X343784Y658235D01*
X343787Y658238D01*
X343789Y658238D01*
X344524Y660014D01*
X346666Y662156D01*
X349465Y663315D01*
X365495Y663315D01*
X368294Y662156D01*
X370436Y660014D01*
X371329Y657858D01*
X371332Y657857D01*
X371333Y657855D01*
X377420Y657855D01*
X377422Y657857D01*
X377424Y657857D01*
X380115Y660548D01*
X385685Y662855D01*
X406795Y662855D01*
X412365Y660548D01*
X415056Y657857D01*
X415058Y657856D01*
X415060Y657855D01*
X455480Y657855D01*
X455482Y657857D01*
X455484Y657857D01*
X457175Y659548D01*
X462745Y661855D01*
X483855Y661855D01*
X489425Y659548D01*
X493688Y655285D01*
X495995Y649715D01*
X495995Y643685D01*
X493688Y638115D01*
X489576Y634004D01*
X489576Y634002D01*
X489575Y634001D01*
X489576Y634000D01*
X489576Y633997D01*
X489576Y633996D01*
X493688Y629885D01*
X495995Y624315D01*
X495995Y618285D01*
X493688Y612715D01*
X489576Y608604D01*
X489576Y608602D01*
X489575Y608601D01*
X489576Y608599D01*
X489576Y608597D01*
X489576Y608596D01*
X493688Y604485D01*
X495995Y598915D01*
X495995Y592885D01*
X493688Y587315D01*
X489576Y583204D01*
X489576Y583201D01*
X489575Y583200D01*
X489576Y583199D01*
X489576Y583197D01*
X489576Y583196D01*
X493688Y579085D01*
X495995Y573515D01*
X495995Y567485D01*
X493688Y561915D01*
X489425Y557652D01*
X483855Y555345D01*
X462745Y555345D01*
G37*
%LPD*%
%LPC*%
G36*
X462745Y428345D02*
X462745Y428345D01*
X457175Y430652D01*
X452912Y434915D01*
X450605Y440485D01*
X450605Y446515D01*
X452912Y452085D01*
X457024Y456196D01*
X457024Y456203D01*
X457024Y456204D01*
X452912Y460315D01*
X450605Y465885D01*
X450605Y471915D01*
X452912Y477485D01*
X457024Y481596D01*
X457024Y481603D01*
X457024Y481604D01*
X452912Y485715D01*
X450605Y491285D01*
X450605Y497315D01*
X452912Y502885D01*
X457024Y506996D01*
X457024Y506998D01*
X457024Y506999D01*
X457024Y507003D01*
X457024Y507004D01*
X452912Y511115D01*
X450605Y516685D01*
X450605Y522715D01*
X452912Y528285D01*
X457175Y532548D01*
X462745Y534855D01*
X483855Y534855D01*
X489425Y532548D01*
X492116Y529857D01*
X492118Y529856D01*
X492120Y529855D01*
X507734Y529855D01*
X507735Y529856D01*
X507736Y529856D01*
X509536Y530601D01*
X514846Y530601D01*
X518578Y529055D01*
X521943Y525690D01*
X523489Y521958D01*
X523489Y517918D01*
X521943Y514186D01*
X519086Y511329D01*
X515354Y509783D01*
X513406Y509783D01*
X513405Y509782D01*
X513404Y509782D01*
X512830Y509545D01*
X492120Y509545D01*
X492118Y509543D01*
X492116Y509543D01*
X489576Y507004D01*
X489576Y507000D01*
X489576Y506999D01*
X489576Y506997D01*
X489576Y506996D01*
X492116Y504457D01*
X492118Y504456D01*
X492120Y504455D01*
X516100Y504455D01*
X519832Y502909D01*
X519997Y502745D01*
X519998Y502745D01*
X519998Y502744D01*
X520864Y502385D01*
X523721Y499528D01*
X525267Y495796D01*
X525267Y491756D01*
X523721Y488024D01*
X520610Y484913D01*
X516878Y483367D01*
X512838Y483367D01*
X510961Y484144D01*
X510959Y484144D01*
X510959Y484145D01*
X492120Y484145D01*
X492118Y484143D01*
X492116Y484143D01*
X489576Y481604D01*
X489576Y481597D01*
X489576Y481596D01*
X492116Y479057D01*
X492118Y479056D01*
X492120Y479055D01*
X510931Y479055D01*
X510932Y479056D01*
X510933Y479056D01*
X513346Y480055D01*
X517386Y480055D01*
X521118Y478509D01*
X524356Y475271D01*
X525902Y471539D01*
X525902Y467499D01*
X524356Y463767D01*
X521499Y460910D01*
X520200Y460371D01*
X520199Y460370D01*
X520198Y460370D01*
X520118Y460291D01*
X516386Y458745D01*
X492120Y458745D01*
X492118Y458743D01*
X492116Y458743D01*
X489576Y456204D01*
X489576Y456197D01*
X489576Y456196D01*
X491624Y454149D01*
X491626Y454148D01*
X491628Y454147D01*
X518656Y454147D01*
X522388Y452601D01*
X525245Y449744D01*
X526791Y446012D01*
X526791Y441972D01*
X525245Y438240D01*
X522388Y435383D01*
X518656Y433837D01*
X492612Y433837D01*
X492610Y433835D01*
X492608Y433835D01*
X489425Y430652D01*
X483855Y428345D01*
X462745Y428345D01*
G37*
%LPD*%
%LPC*%
G36*
X407670Y800105D02*
X407670Y800105D01*
X395737Y800105D01*
X395737Y801039D01*
X396031Y802894D01*
X396611Y804681D01*
X397464Y806354D01*
X398568Y807874D01*
X399896Y809202D01*
X399934Y809229D01*
X399934Y809231D01*
X399935Y809231D01*
X399935Y809232D01*
X399934Y809233D01*
X399935Y809236D01*
X399933Y809236D01*
X399932Y809238D01*
X395493Y811077D01*
X390707Y815863D01*
X388117Y822116D01*
X388117Y828884D01*
X390707Y835137D01*
X395036Y839466D01*
X395037Y839473D01*
X395036Y839473D01*
X395036Y839474D01*
X393247Y841263D01*
X390657Y847516D01*
X390657Y854284D01*
X393247Y860537D01*
X398033Y865323D01*
X404286Y867913D01*
X411054Y867913D01*
X417307Y865323D01*
X422093Y860537D01*
X422291Y860058D01*
X422295Y860057D01*
X422296Y860055D01*
X454480Y860055D01*
X454482Y860057D01*
X454484Y860057D01*
X457175Y862748D01*
X462745Y865055D01*
X483855Y865055D01*
X489425Y862748D01*
X493688Y858485D01*
X495995Y852915D01*
X495995Y846885D01*
X493688Y841315D01*
X489576Y837204D01*
X489576Y837197D01*
X489576Y837196D01*
X493688Y833085D01*
X495995Y827515D01*
X495995Y821485D01*
X493688Y815915D01*
X489425Y811652D01*
X483855Y809345D01*
X462745Y809345D01*
X457175Y811652D01*
X454484Y814343D01*
X454482Y814344D01*
X454480Y814345D01*
X418037Y814345D01*
X418035Y814343D01*
X418034Y814343D01*
X414767Y811077D01*
X413478Y810543D01*
X413477Y810542D01*
X413476Y810541D01*
X413476Y810539D01*
X413475Y810537D01*
X413477Y810536D01*
X413478Y810534D01*
X413924Y810306D01*
X415444Y809202D01*
X416772Y807874D01*
X417876Y806354D01*
X418729Y804681D01*
X419309Y802894D01*
X419603Y801039D01*
X419603Y800105D01*
X407670Y800105D01*
X407670Y800105D01*
G37*
%LPD*%
%LPC*%
G36*
X640545Y809345D02*
X640545Y809345D01*
X634975Y811652D01*
X630712Y815915D01*
X628405Y821485D01*
X628405Y827515D01*
X630712Y833085D01*
X634824Y837196D01*
X634824Y837203D01*
X634824Y837204D01*
X630712Y841315D01*
X628405Y846885D01*
X628405Y852915D01*
X630712Y858485D01*
X634975Y862748D01*
X640545Y865055D01*
X661655Y865055D01*
X667225Y862748D01*
X671488Y858485D01*
X673795Y852915D01*
X673795Y846885D01*
X671488Y841315D01*
X667376Y837204D01*
X667376Y837197D01*
X667376Y837196D01*
X671488Y833085D01*
X673795Y827515D01*
X673795Y821485D01*
X671488Y815915D01*
X667225Y811652D01*
X661655Y809345D01*
X640545Y809345D01*
G37*
%LPD*%
G36*
X631699Y402274D02*
X631699Y402274D01*
X631702Y402274D01*
X634975Y405548D01*
X640545Y407855D01*
X661655Y407855D01*
X667225Y405548D01*
X669916Y402857D01*
X669918Y402856D01*
X669920Y402855D01*
X697355Y402855D01*
X697357Y402857D01*
X697359Y402857D01*
X701130Y406627D01*
X704862Y408173D01*
X705213Y408173D01*
X705214Y408174D01*
X705216Y408174D01*
X705216Y408176D01*
X705218Y408178D01*
X705217Y408179D01*
X705217Y408182D01*
X680055Y433343D01*
X680053Y433344D01*
X680051Y433345D01*
X669920Y433345D01*
X669918Y433343D01*
X669916Y433343D01*
X667225Y430652D01*
X661655Y428345D01*
X640545Y428345D01*
X634975Y430652D01*
X631702Y433926D01*
X631700Y433926D01*
X631699Y433927D01*
X631697Y433926D01*
X631695Y433926D01*
X631695Y433924D01*
X631693Y433922D01*
X631693Y402278D01*
X631694Y402277D01*
X631694Y402275D01*
X631696Y402275D01*
X631698Y402273D01*
X631699Y402274D01*
G37*
%LPC*%
G36*
X633485Y799105D02*
X633485Y799105D01*
X633485Y800092D01*
X633486Y800100D01*
X633489Y800115D01*
X633491Y800125D01*
X633494Y800140D01*
X633497Y800155D01*
X633499Y800164D01*
X633499Y800165D01*
X633502Y800179D01*
X633505Y800194D01*
X633507Y800204D01*
X633510Y800219D01*
X633513Y800234D01*
X633518Y800259D01*
X633521Y800274D01*
X633526Y800299D01*
X633529Y800314D01*
X633534Y800338D01*
X633537Y800353D01*
X633542Y800378D01*
X633545Y800393D01*
X633548Y800408D01*
X633550Y800418D01*
X633553Y800433D01*
X633555Y800448D01*
X633556Y800448D01*
X633555Y800448D01*
X633557Y800458D01*
X633560Y800473D01*
X633563Y800487D01*
X633563Y800488D01*
X633565Y800497D01*
X633568Y800512D01*
X633571Y800527D01*
X633573Y800537D01*
X633576Y800552D01*
X633579Y800567D01*
X633584Y800592D01*
X633587Y800607D01*
X633592Y800632D01*
X633595Y800646D01*
X633595Y800647D01*
X633600Y800671D01*
X633603Y800686D01*
X633606Y800701D01*
X633608Y800711D01*
X633611Y800726D01*
X633614Y800741D01*
X633616Y800751D01*
X633619Y800766D01*
X633622Y800781D01*
X633624Y800791D01*
X633627Y800805D01*
X633627Y800806D01*
X633630Y800820D01*
X633632Y800830D01*
X633635Y800845D01*
X633638Y800860D01*
X633642Y800885D01*
X633645Y800900D01*
X633650Y800925D01*
X633653Y800940D01*
X633658Y800964D01*
X633658Y800965D01*
X633661Y800979D01*
X633666Y801004D01*
X633669Y801019D01*
X633672Y801034D01*
X633674Y801044D01*
X633677Y801059D01*
X633680Y801074D01*
X633682Y801084D01*
X633685Y801099D01*
X633688Y801114D01*
X633690Y801123D01*
X633693Y801138D01*
X633696Y801153D01*
X633701Y801178D01*
X633704Y801193D01*
X633709Y801218D01*
X633712Y801233D01*
X633717Y801258D01*
X633720Y801273D01*
X633724Y801297D01*
X633725Y801297D01*
X633727Y801312D01*
X633730Y801327D01*
X633732Y801337D01*
X633735Y801352D01*
X633738Y801367D01*
X633740Y801377D01*
X633743Y801392D01*
X633746Y801407D01*
X633748Y801417D01*
X633751Y801432D01*
X633754Y801446D01*
X633756Y801456D01*
X633759Y801471D01*
X633762Y801486D01*
X633767Y801511D01*
X633770Y801526D01*
X633775Y801551D01*
X633778Y801566D01*
X633783Y801591D01*
X633786Y801605D01*
X633791Y801630D01*
X633794Y801645D01*
X633797Y801660D01*
X633799Y801670D01*
X633802Y801685D01*
X633805Y801700D01*
X633807Y801710D01*
X633809Y801725D01*
X633810Y801725D01*
X633809Y801725D01*
X633812Y801740D01*
X633814Y801750D01*
X633817Y801764D01*
X633820Y801779D01*
X633825Y801804D01*
X633828Y801819D01*
X633833Y801844D01*
X633836Y801859D01*
X633841Y801884D01*
X633844Y801899D01*
X633849Y801923D01*
X633852Y801938D01*
X633855Y801953D01*
X633857Y801963D01*
X633860Y801978D01*
X633863Y801993D01*
X633865Y802003D01*
X633868Y802018D01*
X633871Y802033D01*
X633872Y802039D01*
X634631Y803872D01*
X635734Y805523D01*
X637137Y806926D01*
X638788Y808029D01*
X640621Y808788D01*
X642568Y809175D01*
X651095Y809175D01*
X651095Y799105D01*
X633485Y799105D01*
G37*
%LPD*%
%LPC*%
G36*
X455685Y799105D02*
X455685Y799105D01*
X455685Y800092D01*
X455686Y800100D01*
X455689Y800115D01*
X455691Y800125D01*
X455694Y800140D01*
X455697Y800155D01*
X455699Y800164D01*
X455699Y800165D01*
X455702Y800179D01*
X455705Y800194D01*
X455707Y800204D01*
X455710Y800219D01*
X455713Y800234D01*
X455718Y800259D01*
X455721Y800274D01*
X455726Y800299D01*
X455729Y800314D01*
X455734Y800338D01*
X455737Y800353D01*
X455742Y800378D01*
X455745Y800393D01*
X455748Y800408D01*
X455750Y800418D01*
X455753Y800433D01*
X455755Y800448D01*
X455756Y800448D01*
X455755Y800448D01*
X455757Y800458D01*
X455760Y800473D01*
X455763Y800487D01*
X455763Y800488D01*
X455765Y800497D01*
X455768Y800512D01*
X455771Y800527D01*
X455773Y800537D01*
X455776Y800552D01*
X455779Y800567D01*
X455784Y800592D01*
X455787Y800607D01*
X455792Y800632D01*
X455795Y800646D01*
X455795Y800647D01*
X455800Y800671D01*
X455803Y800686D01*
X455806Y800701D01*
X455808Y800711D01*
X455811Y800726D01*
X455814Y800741D01*
X455816Y800751D01*
X455819Y800766D01*
X455822Y800781D01*
X455824Y800791D01*
X455827Y800805D01*
X455827Y800806D01*
X455830Y800820D01*
X455832Y800830D01*
X455835Y800845D01*
X455838Y800860D01*
X455842Y800885D01*
X455845Y800900D01*
X455850Y800925D01*
X455853Y800940D01*
X455858Y800964D01*
X455858Y800965D01*
X455861Y800979D01*
X455866Y801004D01*
X455869Y801019D01*
X455872Y801034D01*
X455874Y801044D01*
X455877Y801059D01*
X455880Y801074D01*
X455882Y801084D01*
X455885Y801099D01*
X455888Y801114D01*
X455890Y801123D01*
X455893Y801138D01*
X455896Y801153D01*
X455901Y801178D01*
X455904Y801193D01*
X455909Y801218D01*
X455912Y801233D01*
X455917Y801258D01*
X455920Y801273D01*
X455924Y801297D01*
X455925Y801297D01*
X455927Y801312D01*
X455930Y801327D01*
X455932Y801337D01*
X455935Y801352D01*
X455938Y801367D01*
X455940Y801377D01*
X455943Y801392D01*
X455946Y801407D01*
X455948Y801417D01*
X455951Y801432D01*
X455954Y801446D01*
X455956Y801456D01*
X455959Y801471D01*
X455962Y801486D01*
X455967Y801511D01*
X455970Y801526D01*
X455975Y801551D01*
X455978Y801566D01*
X455983Y801591D01*
X455986Y801605D01*
X455991Y801630D01*
X455994Y801645D01*
X455997Y801660D01*
X455999Y801670D01*
X456002Y801685D01*
X456005Y801700D01*
X456007Y801710D01*
X456009Y801725D01*
X456010Y801725D01*
X456009Y801725D01*
X456012Y801740D01*
X456014Y801750D01*
X456017Y801764D01*
X456020Y801779D01*
X456025Y801804D01*
X456028Y801819D01*
X456033Y801844D01*
X456036Y801859D01*
X456041Y801884D01*
X456044Y801899D01*
X456049Y801923D01*
X456052Y801938D01*
X456055Y801953D01*
X456057Y801963D01*
X456060Y801978D01*
X456063Y801993D01*
X456065Y802003D01*
X456068Y802018D01*
X456071Y802033D01*
X456072Y802039D01*
X456831Y803872D01*
X457934Y805523D01*
X459337Y806926D01*
X460988Y808029D01*
X462821Y808788D01*
X464768Y809175D01*
X473295Y809175D01*
X473295Y799105D01*
X455685Y799105D01*
G37*
%LPD*%
%LPC*%
G36*
X455685Y545105D02*
X455685Y545105D01*
X455685Y546092D01*
X455686Y546097D01*
X455689Y546112D01*
X455694Y546137D01*
X455697Y546152D01*
X455702Y546177D01*
X455705Y546192D01*
X455708Y546207D01*
X455710Y546217D01*
X455712Y546232D01*
X455713Y546232D01*
X455712Y546232D01*
X455715Y546246D01*
X455715Y546247D01*
X455717Y546256D01*
X455720Y546271D01*
X455723Y546286D01*
X455725Y546296D01*
X455728Y546311D01*
X455731Y546326D01*
X455736Y546351D01*
X455739Y546366D01*
X455744Y546391D01*
X455747Y546405D01*
X455747Y546406D01*
X455752Y546430D01*
X455755Y546445D01*
X455760Y546470D01*
X455763Y546485D01*
X455766Y546500D01*
X455768Y546510D01*
X455771Y546525D01*
X455774Y546540D01*
X455776Y546550D01*
X455779Y546564D01*
X455779Y546565D01*
X455782Y546579D01*
X455784Y546589D01*
X455787Y546604D01*
X455790Y546619D01*
X455792Y546629D01*
X455795Y546644D01*
X455797Y546659D01*
X455798Y546659D01*
X455797Y546659D01*
X455802Y546684D01*
X455805Y546699D01*
X455810Y546723D01*
X455810Y546724D01*
X455813Y546738D01*
X455818Y546763D01*
X455821Y546778D01*
X455824Y546793D01*
X455826Y546803D01*
X455829Y546818D01*
X455832Y546833D01*
X455834Y546843D01*
X455837Y546858D01*
X455840Y546873D01*
X455842Y546882D01*
X455845Y546897D01*
X455848Y546912D01*
X455850Y546922D01*
X455853Y546937D01*
X455856Y546952D01*
X455861Y546977D01*
X455864Y546992D01*
X455869Y547017D01*
X455872Y547032D01*
X455877Y547056D01*
X455880Y547071D01*
X455884Y547096D01*
X455887Y547111D01*
X455890Y547126D01*
X455892Y547136D01*
X455895Y547151D01*
X455898Y547166D01*
X455900Y547176D01*
X455903Y547191D01*
X455906Y547205D01*
X455908Y547215D01*
X455911Y547230D01*
X455914Y547245D01*
X455919Y547270D01*
X455922Y547285D01*
X455927Y547310D01*
X455930Y547325D01*
X455935Y547350D01*
X455938Y547364D01*
X455943Y547389D01*
X455946Y547404D01*
X455949Y547419D01*
X455951Y547429D01*
X455954Y547444D01*
X455957Y547459D01*
X455959Y547469D01*
X455962Y547484D01*
X455965Y547499D01*
X455966Y547509D01*
X455967Y547509D01*
X455969Y547523D01*
X455972Y547538D01*
X455974Y547548D01*
X455977Y547563D01*
X455980Y547578D01*
X455985Y547603D01*
X455988Y547618D01*
X455993Y547643D01*
X455996Y547658D01*
X456001Y547682D01*
X456004Y547697D01*
X456009Y547722D01*
X456012Y547737D01*
X456015Y547752D01*
X456017Y547762D01*
X456020Y547777D01*
X456023Y547792D01*
X456025Y547802D01*
X456028Y547817D01*
X456031Y547831D01*
X456031Y547832D01*
X456033Y547841D01*
X456036Y547856D01*
X456039Y547871D01*
X456044Y547896D01*
X456047Y547911D01*
X456051Y547936D01*
X456052Y547936D01*
X456054Y547951D01*
X456059Y547976D01*
X456062Y547990D01*
X456062Y547991D01*
X456067Y548015D01*
X456070Y548030D01*
X456072Y548039D01*
X456831Y549872D01*
X457934Y551523D01*
X459337Y552926D01*
X460988Y554029D01*
X462821Y554788D01*
X464768Y555175D01*
X473295Y555175D01*
X473295Y545105D01*
X455685Y545105D01*
G37*
%LPD*%
%LPC*%
G36*
X633485Y545105D02*
X633485Y545105D01*
X633485Y546092D01*
X633486Y546097D01*
X633489Y546112D01*
X633494Y546137D01*
X633497Y546152D01*
X633502Y546177D01*
X633505Y546192D01*
X633508Y546207D01*
X633510Y546217D01*
X633512Y546232D01*
X633513Y546232D01*
X633512Y546232D01*
X633515Y546246D01*
X633515Y546247D01*
X633517Y546256D01*
X633520Y546271D01*
X633523Y546286D01*
X633525Y546296D01*
X633528Y546311D01*
X633531Y546326D01*
X633536Y546351D01*
X633539Y546366D01*
X633544Y546391D01*
X633547Y546405D01*
X633547Y546406D01*
X633552Y546430D01*
X633555Y546445D01*
X633560Y546470D01*
X633563Y546485D01*
X633566Y546500D01*
X633568Y546510D01*
X633571Y546525D01*
X633574Y546540D01*
X633576Y546550D01*
X633579Y546564D01*
X633579Y546565D01*
X633582Y546579D01*
X633584Y546589D01*
X633587Y546604D01*
X633590Y546619D01*
X633592Y546629D01*
X633595Y546644D01*
X633597Y546659D01*
X633598Y546659D01*
X633597Y546659D01*
X633602Y546684D01*
X633605Y546699D01*
X633610Y546723D01*
X633610Y546724D01*
X633613Y546738D01*
X633618Y546763D01*
X633621Y546778D01*
X633624Y546793D01*
X633626Y546803D01*
X633629Y546818D01*
X633632Y546833D01*
X633634Y546843D01*
X633637Y546858D01*
X633640Y546873D01*
X633642Y546882D01*
X633645Y546897D01*
X633648Y546912D01*
X633650Y546922D01*
X633653Y546937D01*
X633656Y546952D01*
X633661Y546977D01*
X633664Y546992D01*
X633669Y547017D01*
X633672Y547032D01*
X633677Y547056D01*
X633680Y547071D01*
X633684Y547096D01*
X633687Y547111D01*
X633690Y547126D01*
X633692Y547136D01*
X633695Y547151D01*
X633698Y547166D01*
X633700Y547176D01*
X633703Y547191D01*
X633706Y547205D01*
X633708Y547215D01*
X633711Y547230D01*
X633714Y547245D01*
X633719Y547270D01*
X633722Y547285D01*
X633727Y547310D01*
X633730Y547325D01*
X633735Y547350D01*
X633738Y547364D01*
X633743Y547389D01*
X633746Y547404D01*
X633749Y547419D01*
X633751Y547429D01*
X633754Y547444D01*
X633757Y547459D01*
X633759Y547469D01*
X633762Y547484D01*
X633765Y547499D01*
X633766Y547509D01*
X633767Y547509D01*
X633769Y547523D01*
X633772Y547538D01*
X633774Y547548D01*
X633777Y547563D01*
X633780Y547578D01*
X633785Y547603D01*
X633788Y547618D01*
X633793Y547643D01*
X633796Y547658D01*
X633801Y547682D01*
X633804Y547697D01*
X633809Y547722D01*
X633812Y547737D01*
X633815Y547752D01*
X633817Y547762D01*
X633820Y547777D01*
X633823Y547792D01*
X633825Y547802D01*
X633828Y547817D01*
X633831Y547831D01*
X633831Y547832D01*
X633833Y547841D01*
X633836Y547856D01*
X633839Y547871D01*
X633844Y547896D01*
X633847Y547911D01*
X633851Y547936D01*
X633852Y547936D01*
X633854Y547951D01*
X633859Y547976D01*
X633862Y547990D01*
X633862Y547991D01*
X633867Y548015D01*
X633870Y548030D01*
X633872Y548039D01*
X634631Y549872D01*
X635734Y551523D01*
X637137Y552926D01*
X638788Y554029D01*
X640621Y554788D01*
X642568Y555175D01*
X651095Y555175D01*
X651095Y545105D01*
X633485Y545105D01*
G37*
%LPD*%
%LPC*%
G36*
X633485Y672105D02*
X633485Y672105D01*
X633485Y673092D01*
X633486Y673099D01*
X633489Y673114D01*
X633491Y673123D01*
X633491Y673124D01*
X633494Y673138D01*
X633497Y673153D01*
X633502Y673178D01*
X633505Y673193D01*
X633510Y673218D01*
X633513Y673233D01*
X633518Y673258D01*
X633521Y673273D01*
X633524Y673287D01*
X633524Y673288D01*
X633526Y673297D01*
X633529Y673312D01*
X633532Y673327D01*
X633533Y673337D01*
X633534Y673337D01*
X633536Y673352D01*
X633539Y673367D01*
X633541Y673377D01*
X633544Y673392D01*
X633547Y673407D01*
X633549Y673417D01*
X633552Y673432D01*
X633555Y673446D01*
X633555Y673447D01*
X633560Y673471D01*
X633563Y673486D01*
X633568Y673511D01*
X633571Y673526D01*
X633576Y673551D01*
X633579Y673566D01*
X633584Y673591D01*
X633587Y673605D01*
X633587Y673606D01*
X633590Y673620D01*
X633592Y673630D01*
X633595Y673645D01*
X633598Y673660D01*
X633600Y673670D01*
X633603Y673685D01*
X633606Y673700D01*
X633608Y673710D01*
X633611Y673725D01*
X633614Y673740D01*
X633618Y673764D01*
X633619Y673764D01*
X633618Y673765D01*
X633621Y673779D01*
X633626Y673804D01*
X633629Y673819D01*
X633634Y673844D01*
X633637Y673859D01*
X633642Y673884D01*
X633645Y673899D01*
X633648Y673914D01*
X633650Y673923D01*
X633650Y673924D01*
X633653Y673938D01*
X633656Y673953D01*
X633658Y673963D01*
X633661Y673978D01*
X633664Y673993D01*
X633666Y674003D01*
X633669Y674018D01*
X633672Y674033D01*
X633674Y674043D01*
X633677Y674058D01*
X633680Y674073D01*
X633685Y674097D01*
X633688Y674112D01*
X633693Y674137D01*
X633696Y674152D01*
X633701Y674177D01*
X633703Y674192D01*
X633704Y674192D01*
X633703Y674192D01*
X633708Y674217D01*
X633711Y674232D01*
X633714Y674246D01*
X633716Y674256D01*
X633719Y674271D01*
X633722Y674286D01*
X633724Y674296D01*
X633727Y674311D01*
X633730Y674326D01*
X633732Y674336D01*
X633735Y674351D01*
X633738Y674366D01*
X633743Y674391D01*
X633746Y674405D01*
X633751Y674430D01*
X633754Y674445D01*
X633759Y674470D01*
X633762Y674485D01*
X633767Y674510D01*
X633770Y674525D01*
X633773Y674540D01*
X633775Y674550D01*
X633778Y674564D01*
X633781Y674579D01*
X633783Y674589D01*
X633786Y674604D01*
X633788Y674619D01*
X633789Y674619D01*
X633788Y674619D01*
X633790Y674629D01*
X633793Y674644D01*
X633796Y674659D01*
X633798Y674669D01*
X633801Y674684D01*
X633804Y674699D01*
X633809Y674723D01*
X633812Y674738D01*
X633817Y674763D01*
X633820Y674778D01*
X633825Y674803D01*
X633828Y674818D01*
X633831Y674833D01*
X633833Y674843D01*
X633836Y674858D01*
X633839Y674872D01*
X633839Y674873D01*
X633841Y674882D01*
X633844Y674897D01*
X633847Y674912D01*
X633849Y674922D01*
X633852Y674937D01*
X633855Y674952D01*
X633857Y674962D01*
X633860Y674977D01*
X633863Y674992D01*
X633868Y675017D01*
X633871Y675031D01*
X633871Y675032D01*
X633872Y675039D01*
X634631Y676872D01*
X635734Y678523D01*
X637137Y679926D01*
X638788Y681029D01*
X640621Y681788D01*
X642568Y682175D01*
X651095Y682175D01*
X651095Y672105D01*
X633485Y672105D01*
G37*
%LPD*%
%LPC*%
G36*
X455685Y672105D02*
X455685Y672105D01*
X455685Y673092D01*
X455686Y673099D01*
X455689Y673114D01*
X455691Y673123D01*
X455691Y673124D01*
X455694Y673138D01*
X455697Y673153D01*
X455702Y673178D01*
X455705Y673193D01*
X455710Y673218D01*
X455713Y673233D01*
X455718Y673258D01*
X455721Y673273D01*
X455724Y673287D01*
X455724Y673288D01*
X455726Y673297D01*
X455729Y673312D01*
X455732Y673327D01*
X455733Y673337D01*
X455734Y673337D01*
X455736Y673352D01*
X455739Y673367D01*
X455741Y673377D01*
X455744Y673392D01*
X455747Y673407D01*
X455749Y673417D01*
X455752Y673432D01*
X455755Y673446D01*
X455755Y673447D01*
X455760Y673471D01*
X455763Y673486D01*
X455768Y673511D01*
X455771Y673526D01*
X455776Y673551D01*
X455779Y673566D01*
X455784Y673591D01*
X455787Y673605D01*
X455787Y673606D01*
X455790Y673620D01*
X455792Y673630D01*
X455795Y673645D01*
X455798Y673660D01*
X455800Y673670D01*
X455803Y673685D01*
X455806Y673700D01*
X455808Y673710D01*
X455811Y673725D01*
X455814Y673740D01*
X455818Y673764D01*
X455819Y673764D01*
X455818Y673765D01*
X455821Y673779D01*
X455826Y673804D01*
X455829Y673819D01*
X455834Y673844D01*
X455837Y673859D01*
X455842Y673884D01*
X455845Y673899D01*
X455848Y673914D01*
X455850Y673923D01*
X455850Y673924D01*
X455853Y673938D01*
X455856Y673953D01*
X455858Y673963D01*
X455861Y673978D01*
X455864Y673993D01*
X455866Y674003D01*
X455869Y674018D01*
X455872Y674033D01*
X455874Y674043D01*
X455877Y674058D01*
X455880Y674073D01*
X455885Y674097D01*
X455888Y674112D01*
X455893Y674137D01*
X455896Y674152D01*
X455901Y674177D01*
X455903Y674192D01*
X455904Y674192D01*
X455903Y674192D01*
X455908Y674217D01*
X455911Y674232D01*
X455914Y674246D01*
X455916Y674256D01*
X455919Y674271D01*
X455922Y674286D01*
X455924Y674296D01*
X455927Y674311D01*
X455930Y674326D01*
X455932Y674336D01*
X455935Y674351D01*
X455938Y674366D01*
X455943Y674391D01*
X455946Y674405D01*
X455951Y674430D01*
X455954Y674445D01*
X455959Y674470D01*
X455962Y674485D01*
X455967Y674510D01*
X455970Y674525D01*
X455973Y674540D01*
X455975Y674550D01*
X455978Y674564D01*
X455981Y674579D01*
X455983Y674589D01*
X455986Y674604D01*
X455988Y674619D01*
X455989Y674619D01*
X455988Y674619D01*
X455990Y674629D01*
X455993Y674644D01*
X455996Y674659D01*
X455998Y674669D01*
X456001Y674684D01*
X456004Y674699D01*
X456009Y674723D01*
X456012Y674738D01*
X456017Y674763D01*
X456020Y674778D01*
X456025Y674803D01*
X456028Y674818D01*
X456031Y674833D01*
X456033Y674843D01*
X456036Y674858D01*
X456039Y674872D01*
X456039Y674873D01*
X456041Y674882D01*
X456044Y674897D01*
X456047Y674912D01*
X456049Y674922D01*
X456052Y674937D01*
X456055Y674952D01*
X456057Y674962D01*
X456060Y674977D01*
X456063Y674992D01*
X456068Y675017D01*
X456071Y675031D01*
X456071Y675032D01*
X456072Y675039D01*
X456831Y676872D01*
X457934Y678523D01*
X459337Y679926D01*
X460988Y681029D01*
X462821Y681788D01*
X464768Y682175D01*
X473295Y682175D01*
X473295Y672105D01*
X455685Y672105D01*
G37*
%LPD*%
%LPC*%
G36*
X378625Y673105D02*
X378625Y673105D01*
X378625Y674092D01*
X378626Y674097D01*
X378628Y674107D01*
X378631Y674122D01*
X378634Y674137D01*
X378636Y674147D01*
X378639Y674162D01*
X378642Y674177D01*
X378644Y674187D01*
X378647Y674202D01*
X378650Y674217D01*
X378654Y674241D01*
X378654Y674242D01*
X378657Y674256D01*
X378662Y674281D01*
X378665Y674296D01*
X378670Y674321D01*
X378673Y674336D01*
X378678Y674361D01*
X378681Y674376D01*
X378684Y674391D01*
X378686Y674400D01*
X378686Y674401D01*
X378689Y674415D01*
X378692Y674430D01*
X378694Y674440D01*
X378697Y674455D01*
X378700Y674470D01*
X378702Y674480D01*
X378705Y674495D01*
X378708Y674510D01*
X378713Y674535D01*
X378716Y674550D01*
X378721Y674574D01*
X378724Y674589D01*
X378729Y674614D01*
X378732Y674629D01*
X378736Y674654D01*
X378737Y674654D01*
X378739Y674669D01*
X378742Y674684D01*
X378744Y674694D01*
X378747Y674709D01*
X378750Y674723D01*
X378752Y674733D01*
X378755Y674748D01*
X378758Y674763D01*
X378760Y674773D01*
X378763Y674788D01*
X378766Y674803D01*
X378768Y674813D01*
X378771Y674828D01*
X378774Y674843D01*
X378779Y674868D01*
X378782Y674882D01*
X378787Y674907D01*
X378790Y674922D01*
X378795Y674947D01*
X378798Y674962D01*
X378801Y674977D01*
X378803Y674987D01*
X378806Y675002D01*
X378809Y675017D01*
X378811Y675027D01*
X378814Y675041D01*
X378817Y675056D01*
X378819Y675066D01*
X378821Y675081D01*
X378822Y675081D01*
X378821Y675081D01*
X378824Y675096D01*
X378826Y675106D01*
X378829Y675121D01*
X378832Y675136D01*
X378837Y675161D01*
X378840Y675176D01*
X378845Y675200D01*
X378848Y675215D01*
X378853Y675240D01*
X378856Y675255D01*
X378861Y675280D01*
X378864Y675295D01*
X378867Y675310D01*
X378869Y675320D01*
X378872Y675335D01*
X378875Y675349D01*
X378875Y675350D01*
X378877Y675359D01*
X378880Y675374D01*
X378883Y675389D01*
X378885Y675399D01*
X378888Y675414D01*
X378891Y675429D01*
X378896Y675454D01*
X378899Y675469D01*
X378904Y675494D01*
X378906Y675508D01*
X378907Y675509D01*
X378906Y675509D01*
X378911Y675533D01*
X378914Y675548D01*
X378919Y675573D01*
X378922Y675588D01*
X378925Y675603D01*
X378927Y675613D01*
X378930Y675628D01*
X378933Y675643D01*
X378935Y675653D01*
X378938Y675667D01*
X378938Y675668D01*
X378941Y675682D01*
X378943Y675692D01*
X378946Y675707D01*
X378949Y675722D01*
X378951Y675732D01*
X378954Y675747D01*
X378957Y675762D01*
X378962Y675787D01*
X378965Y675802D01*
X378970Y675826D01*
X378970Y675827D01*
X378973Y675841D01*
X378978Y675866D01*
X378981Y675881D01*
X378986Y675906D01*
X378989Y675921D01*
X378991Y675936D01*
X378992Y675936D01*
X378991Y675936D01*
X378993Y675946D01*
X378996Y675961D01*
X378999Y675976D01*
X379001Y675985D01*
X379001Y675986D01*
X379004Y676000D01*
X379007Y676015D01*
X379009Y676025D01*
X379012Y676039D01*
X379771Y677872D01*
X380874Y679523D01*
X382277Y680926D01*
X383928Y682029D01*
X385761Y682788D01*
X387708Y683175D01*
X396235Y683175D01*
X396235Y673105D01*
X378625Y673105D01*
G37*
%LPD*%
%LPC*%
G36*
X633485Y418105D02*
X633485Y418105D01*
X633485Y419092D01*
X633486Y419096D01*
X633489Y419111D01*
X633491Y419126D01*
X633492Y419126D01*
X633491Y419126D01*
X633493Y419136D01*
X633496Y419151D01*
X633499Y419166D01*
X633501Y419176D01*
X633504Y419191D01*
X633507Y419205D01*
X633507Y419206D01*
X633509Y419215D01*
X633512Y419230D01*
X633515Y419245D01*
X633520Y419270D01*
X633523Y419285D01*
X633528Y419310D01*
X633531Y419325D01*
X633536Y419350D01*
X633539Y419364D01*
X633539Y419365D01*
X633542Y419379D01*
X633544Y419389D01*
X633547Y419404D01*
X633550Y419419D01*
X633552Y419429D01*
X633555Y419444D01*
X633558Y419459D01*
X633560Y419469D01*
X633563Y419484D01*
X633566Y419499D01*
X633568Y419509D01*
X633571Y419523D01*
X633571Y419524D01*
X633574Y419538D01*
X633578Y419563D01*
X633581Y419578D01*
X633586Y419603D01*
X633589Y419618D01*
X633594Y419643D01*
X633597Y419658D01*
X633602Y419682D01*
X633602Y419683D01*
X633605Y419697D01*
X633608Y419712D01*
X633610Y419722D01*
X633613Y419737D01*
X633616Y419752D01*
X633618Y419762D01*
X633621Y419777D01*
X633624Y419792D01*
X633626Y419802D01*
X633629Y419817D01*
X633632Y419832D01*
X633637Y419856D01*
X633640Y419871D01*
X633645Y419896D01*
X633648Y419911D01*
X633653Y419936D01*
X633656Y419951D01*
X633660Y419976D01*
X633661Y419976D01*
X633663Y419991D01*
X633666Y420005D01*
X633668Y420015D01*
X633671Y420030D01*
X633674Y420045D01*
X633676Y420055D01*
X633679Y420070D01*
X633682Y420085D01*
X633684Y420095D01*
X633687Y420110D01*
X633690Y420125D01*
X633692Y420135D01*
X633695Y420150D01*
X633698Y420164D01*
X633703Y420189D01*
X633706Y420204D01*
X633711Y420229D01*
X633714Y420244D01*
X633719Y420269D01*
X633722Y420284D01*
X633727Y420309D01*
X633730Y420323D01*
X633733Y420338D01*
X633735Y420348D01*
X633738Y420363D01*
X633741Y420378D01*
X633743Y420388D01*
X633745Y420403D01*
X633746Y420403D01*
X633745Y420403D01*
X633748Y420418D01*
X633750Y420428D01*
X633753Y420443D01*
X633756Y420458D01*
X633761Y420482D01*
X633764Y420497D01*
X633769Y420522D01*
X633772Y420537D01*
X633777Y420562D01*
X633780Y420577D01*
X633785Y420602D01*
X633788Y420617D01*
X633791Y420631D01*
X633791Y420632D01*
X633793Y420641D01*
X633796Y420656D01*
X633799Y420671D01*
X633801Y420681D01*
X633804Y420696D01*
X633807Y420711D01*
X633809Y420721D01*
X633812Y420736D01*
X633815Y420751D01*
X633820Y420776D01*
X633823Y420790D01*
X633823Y420791D01*
X633828Y420815D01*
X633830Y420830D01*
X633831Y420830D01*
X633830Y420830D01*
X633835Y420855D01*
X633838Y420870D01*
X633843Y420895D01*
X633846Y420910D01*
X633849Y420925D01*
X633851Y420935D01*
X633854Y420949D01*
X633854Y420950D01*
X633857Y420964D01*
X633859Y420974D01*
X633862Y420989D01*
X633865Y421004D01*
X633867Y421014D01*
X633870Y421029D01*
X633872Y421039D01*
X634631Y422872D01*
X635734Y424523D01*
X637137Y425926D01*
X638788Y427029D01*
X640621Y427788D01*
X642568Y428175D01*
X651095Y428175D01*
X651095Y418105D01*
X633485Y418105D01*
G37*
%LPD*%
%LPC*%
G36*
X455685Y418105D02*
X455685Y418105D01*
X455685Y419092D01*
X455686Y419096D01*
X455689Y419111D01*
X455691Y419126D01*
X455692Y419126D01*
X455691Y419126D01*
X455693Y419136D01*
X455696Y419151D01*
X455699Y419166D01*
X455701Y419176D01*
X455704Y419191D01*
X455707Y419205D01*
X455707Y419206D01*
X455709Y419215D01*
X455712Y419230D01*
X455715Y419245D01*
X455720Y419270D01*
X455723Y419285D01*
X455728Y419310D01*
X455731Y419325D01*
X455736Y419350D01*
X455739Y419364D01*
X455739Y419365D01*
X455742Y419379D01*
X455744Y419389D01*
X455747Y419404D01*
X455750Y419419D01*
X455752Y419429D01*
X455755Y419444D01*
X455758Y419459D01*
X455760Y419469D01*
X455763Y419484D01*
X455766Y419499D01*
X455768Y419509D01*
X455771Y419523D01*
X455771Y419524D01*
X455774Y419538D01*
X455778Y419563D01*
X455781Y419578D01*
X455786Y419603D01*
X455789Y419618D01*
X455794Y419643D01*
X455797Y419658D01*
X455802Y419682D01*
X455802Y419683D01*
X455805Y419697D01*
X455808Y419712D01*
X455810Y419722D01*
X455813Y419737D01*
X455816Y419752D01*
X455818Y419762D01*
X455821Y419777D01*
X455824Y419792D01*
X455826Y419802D01*
X455829Y419817D01*
X455832Y419832D01*
X455837Y419856D01*
X455840Y419871D01*
X455845Y419896D01*
X455848Y419911D01*
X455853Y419936D01*
X455856Y419951D01*
X455860Y419976D01*
X455861Y419976D01*
X455863Y419991D01*
X455866Y420005D01*
X455868Y420015D01*
X455871Y420030D01*
X455874Y420045D01*
X455876Y420055D01*
X455879Y420070D01*
X455882Y420085D01*
X455884Y420095D01*
X455887Y420110D01*
X455890Y420125D01*
X455892Y420135D01*
X455895Y420150D01*
X455898Y420164D01*
X455903Y420189D01*
X455906Y420204D01*
X455911Y420229D01*
X455914Y420244D01*
X455919Y420269D01*
X455922Y420284D01*
X455927Y420309D01*
X455930Y420323D01*
X455933Y420338D01*
X455935Y420348D01*
X455938Y420363D01*
X455941Y420378D01*
X455943Y420388D01*
X455945Y420403D01*
X455946Y420403D01*
X455945Y420403D01*
X455948Y420418D01*
X455950Y420428D01*
X455953Y420443D01*
X455956Y420458D01*
X455961Y420482D01*
X455964Y420497D01*
X455969Y420522D01*
X455972Y420537D01*
X455977Y420562D01*
X455980Y420577D01*
X455985Y420602D01*
X455988Y420617D01*
X455991Y420631D01*
X455991Y420632D01*
X455993Y420641D01*
X455996Y420656D01*
X455999Y420671D01*
X456001Y420681D01*
X456004Y420696D01*
X456007Y420711D01*
X456009Y420721D01*
X456012Y420736D01*
X456015Y420751D01*
X456020Y420776D01*
X456023Y420790D01*
X456023Y420791D01*
X456028Y420815D01*
X456030Y420830D01*
X456031Y420830D01*
X456030Y420830D01*
X456035Y420855D01*
X456038Y420870D01*
X456043Y420895D01*
X456046Y420910D01*
X456049Y420925D01*
X456051Y420935D01*
X456054Y420949D01*
X456054Y420950D01*
X456057Y420964D01*
X456059Y420974D01*
X456062Y420989D01*
X456065Y421004D01*
X456067Y421014D01*
X456070Y421029D01*
X456072Y421039D01*
X456831Y422872D01*
X457934Y424523D01*
X459337Y425926D01*
X460988Y427029D01*
X462821Y427788D01*
X464768Y428175D01*
X473295Y428175D01*
X473295Y418105D01*
X455685Y418105D01*
G37*
%LPD*%
%LPC*%
G36*
X473305Y799105D02*
X473305Y799105D01*
X473305Y809175D01*
X481832Y809175D01*
X483779Y808788D01*
X485612Y808029D01*
X487263Y806926D01*
X488666Y805523D01*
X489769Y803872D01*
X490528Y802039D01*
X490915Y800092D01*
X490915Y799105D01*
X473305Y799105D01*
G37*
%LPD*%
%LPC*%
G36*
X651105Y799105D02*
X651105Y799105D01*
X651105Y809175D01*
X659632Y809175D01*
X661579Y808788D01*
X663412Y808029D01*
X665063Y806926D01*
X666466Y805523D01*
X667569Y803872D01*
X668328Y802039D01*
X668715Y800092D01*
X668715Y799105D01*
X651105Y799105D01*
G37*
%LPD*%
%LPC*%
G36*
X651105Y545105D02*
X651105Y545105D01*
X651105Y555175D01*
X659632Y555175D01*
X661579Y554788D01*
X663412Y554029D01*
X665063Y552926D01*
X666466Y551523D01*
X667569Y549872D01*
X668328Y548039D01*
X668715Y546092D01*
X668715Y545105D01*
X651105Y545105D01*
G37*
%LPD*%
%LPC*%
G36*
X396245Y673105D02*
X396245Y673105D01*
X396245Y683175D01*
X404772Y683175D01*
X406719Y682788D01*
X408552Y682029D01*
X410203Y680926D01*
X411606Y679523D01*
X412709Y677872D01*
X413468Y676039D01*
X413855Y674092D01*
X413855Y673105D01*
X396245Y673105D01*
G37*
%LPD*%
%LPC*%
G36*
X473305Y672105D02*
X473305Y672105D01*
X473305Y682175D01*
X481832Y682175D01*
X483779Y681788D01*
X485612Y681029D01*
X487263Y679926D01*
X488666Y678523D01*
X489769Y676872D01*
X490528Y675039D01*
X490915Y673092D01*
X490915Y672105D01*
X473305Y672105D01*
G37*
%LPD*%
%LPC*%
G36*
X651105Y672105D02*
X651105Y672105D01*
X651105Y682175D01*
X659632Y682175D01*
X661579Y681788D01*
X663412Y681029D01*
X665063Y679926D01*
X666466Y678523D01*
X667569Y676872D01*
X668328Y675039D01*
X668715Y673092D01*
X668715Y672105D01*
X651105Y672105D01*
G37*
%LPD*%
%LPC*%
G36*
X473305Y545105D02*
X473305Y545105D01*
X473305Y555175D01*
X481832Y555175D01*
X483779Y554788D01*
X485612Y554029D01*
X487263Y552926D01*
X488666Y551523D01*
X489769Y549872D01*
X490528Y548039D01*
X490915Y546092D01*
X490915Y545105D01*
X473305Y545105D01*
G37*
%LPD*%
%LPC*%
G36*
X473305Y418105D02*
X473305Y418105D01*
X473305Y428175D01*
X481832Y428175D01*
X483779Y427788D01*
X485612Y427029D01*
X487263Y425926D01*
X488666Y424523D01*
X489769Y422872D01*
X490528Y421039D01*
X490915Y419092D01*
X490915Y418105D01*
X473305Y418105D01*
G37*
%LPD*%
%LPC*%
G36*
X651105Y418105D02*
X651105Y418105D01*
X651105Y428175D01*
X659632Y428175D01*
X661579Y427788D01*
X663412Y427029D01*
X665063Y425926D01*
X666466Y424523D01*
X667569Y422872D01*
X668328Y421039D01*
X668715Y419092D01*
X668715Y418105D01*
X651105Y418105D01*
G37*
%LPD*%
%LPC*%
G36*
X651105Y789025D02*
X651105Y789025D01*
X651105Y799095D01*
X668715Y799095D01*
X668715Y798108D01*
X668712Y798094D01*
X668708Y798069D01*
X668707Y798069D01*
X668705Y798054D01*
X668702Y798039D01*
X668700Y798029D01*
X668697Y798014D01*
X668694Y797999D01*
X668692Y797989D01*
X668689Y797975D01*
X668686Y797960D01*
X668684Y797950D01*
X668681Y797935D01*
X668678Y797920D01*
X668673Y797895D01*
X668670Y797880D01*
X668665Y797855D01*
X668662Y797840D01*
X668657Y797816D01*
X668654Y797801D01*
X668649Y797776D01*
X668646Y797761D01*
X668643Y797746D01*
X668641Y797736D01*
X668638Y797721D01*
X668635Y797706D01*
X668633Y797696D01*
X668630Y797681D01*
X668627Y797667D01*
X668627Y797666D01*
X668625Y797657D01*
X668623Y797642D01*
X668622Y797642D01*
X668623Y797642D01*
X668620Y797627D01*
X668618Y797617D01*
X668615Y797602D01*
X668612Y797587D01*
X668607Y797562D01*
X668604Y797547D01*
X668599Y797522D01*
X668596Y797508D01*
X668596Y797507D01*
X668591Y797483D01*
X668588Y797468D01*
X668583Y797443D01*
X668580Y797428D01*
X668577Y797413D01*
X668575Y797403D01*
X668572Y797388D01*
X668569Y797373D01*
X668567Y797363D01*
X668564Y797349D01*
X668564Y797348D01*
X668561Y797334D01*
X668559Y797324D01*
X668556Y797309D01*
X668553Y797294D01*
X668548Y797269D01*
X668545Y797254D01*
X668540Y797229D01*
X668538Y797214D01*
X668537Y797214D01*
X668538Y797214D01*
X668533Y797190D01*
X668533Y797189D01*
X668530Y797175D01*
X668525Y797150D01*
X668522Y797135D01*
X668519Y797120D01*
X668517Y797110D01*
X668514Y797095D01*
X668511Y797080D01*
X668509Y797070D01*
X668506Y797055D01*
X668503Y797040D01*
X668501Y797031D01*
X668501Y797030D01*
X668498Y797016D01*
X668495Y797001D01*
X668493Y796991D01*
X668490Y796976D01*
X668487Y796961D01*
X668482Y796936D01*
X668479Y796921D01*
X668474Y796896D01*
X668471Y796881D01*
X668466Y796857D01*
X668463Y796842D01*
X668460Y796827D01*
X668458Y796817D01*
X668455Y796802D01*
X668453Y796787D01*
X668452Y796787D01*
X668453Y796787D01*
X668451Y796777D01*
X668448Y796762D01*
X668445Y796747D01*
X668443Y796737D01*
X668440Y796722D01*
X668437Y796708D01*
X668437Y796707D01*
X668435Y796698D01*
X668432Y796683D01*
X668429Y796668D01*
X668424Y796643D01*
X668421Y796628D01*
X668416Y796603D01*
X668413Y796588D01*
X668408Y796563D01*
X668405Y796549D01*
X668405Y796548D01*
X668400Y796524D01*
X668397Y796509D01*
X668394Y796494D01*
X668392Y796484D01*
X668389Y796469D01*
X668386Y796454D01*
X668384Y796444D01*
X668381Y796429D01*
X668378Y796414D01*
X668376Y796404D01*
X668373Y796390D01*
X668373Y796389D01*
X668370Y796375D01*
X668366Y796350D01*
X668363Y796335D01*
X668358Y796310D01*
X668355Y796295D01*
X668350Y796270D01*
X668347Y796255D01*
X668342Y796231D01*
X668342Y796230D01*
X668339Y796216D01*
X668336Y796201D01*
X668334Y796191D01*
X668331Y796176D01*
X668328Y796161D01*
X667569Y794328D01*
X666466Y792677D01*
X665063Y791274D01*
X663412Y790171D01*
X661579Y789412D01*
X659632Y789025D01*
X651105Y789025D01*
G37*
%LPD*%
%LPC*%
G36*
X651105Y408025D02*
X651105Y408025D01*
X651105Y418095D01*
X668715Y418095D01*
X668715Y417108D01*
X668715Y417105D01*
X668710Y417080D01*
X668707Y417065D01*
X668702Y417040D01*
X668699Y417025D01*
X668696Y417011D01*
X668694Y417001D01*
X668691Y416986D01*
X668688Y416971D01*
X668686Y416961D01*
X668683Y416946D01*
X668680Y416931D01*
X668678Y416921D01*
X668675Y416906D01*
X668672Y416891D01*
X668667Y416866D01*
X668664Y416852D01*
X668659Y416827D01*
X668656Y416812D01*
X668651Y416787D01*
X668648Y416772D01*
X668644Y416747D01*
X668643Y416747D01*
X668641Y416732D01*
X668638Y416717D01*
X668636Y416707D01*
X668633Y416693D01*
X668630Y416678D01*
X668628Y416668D01*
X668625Y416653D01*
X668622Y416638D01*
X668620Y416628D01*
X668617Y416613D01*
X668614Y416598D01*
X668612Y416588D01*
X668609Y416573D01*
X668606Y416558D01*
X668601Y416534D01*
X668598Y416519D01*
X668593Y416494D01*
X668590Y416479D01*
X668585Y416454D01*
X668582Y416439D01*
X668579Y416424D01*
X668577Y416414D01*
X668574Y416399D01*
X668571Y416385D01*
X668571Y416384D01*
X668569Y416375D01*
X668566Y416360D01*
X668563Y416345D01*
X668561Y416335D01*
X668559Y416320D01*
X668558Y416320D01*
X668559Y416320D01*
X668556Y416305D01*
X668554Y416295D01*
X668551Y416280D01*
X668548Y416265D01*
X668543Y416240D01*
X668540Y416226D01*
X668540Y416225D01*
X668535Y416201D01*
X668532Y416186D01*
X668527Y416161D01*
X668524Y416146D01*
X668519Y416121D01*
X668516Y416106D01*
X668513Y416091D01*
X668511Y416081D01*
X668508Y416067D01*
X668508Y416066D01*
X668505Y416052D01*
X668503Y416042D01*
X668500Y416027D01*
X668497Y416012D01*
X668495Y416002D01*
X668492Y415987D01*
X668489Y415972D01*
X668484Y415947D01*
X668481Y415932D01*
X668476Y415908D01*
X668476Y415907D01*
X668474Y415893D01*
X668473Y415893D01*
X668474Y415893D01*
X668469Y415868D01*
X668466Y415853D01*
X668461Y415828D01*
X668458Y415813D01*
X668455Y415798D01*
X668453Y415788D01*
X668450Y415773D01*
X668447Y415758D01*
X668445Y415749D01*
X668445Y415748D01*
X668442Y415734D01*
X668439Y415719D01*
X668437Y415709D01*
X668434Y415694D01*
X668431Y415679D01*
X668429Y415669D01*
X668426Y415654D01*
X668423Y415639D01*
X668418Y415614D01*
X668415Y415599D01*
X668410Y415575D01*
X668407Y415560D01*
X668402Y415535D01*
X668399Y415520D01*
X668396Y415505D01*
X668394Y415495D01*
X668391Y415480D01*
X668389Y415465D01*
X668388Y415465D01*
X668389Y415465D01*
X668387Y415455D01*
X668384Y415440D01*
X668381Y415426D01*
X668381Y415425D01*
X668379Y415416D01*
X668376Y415401D01*
X668373Y415386D01*
X668371Y415376D01*
X668368Y415361D01*
X668365Y415346D01*
X668360Y415321D01*
X668357Y415306D01*
X668352Y415281D01*
X668349Y415267D01*
X668349Y415266D01*
X668344Y415242D01*
X668341Y415227D01*
X668336Y415202D01*
X668333Y415187D01*
X668330Y415172D01*
X668328Y415162D01*
X668328Y415161D01*
X667569Y413328D01*
X666466Y411677D01*
X665063Y410274D01*
X663412Y409171D01*
X661579Y408412D01*
X659632Y408025D01*
X651105Y408025D01*
G37*
%LPD*%
%LPC*%
G36*
X473305Y408025D02*
X473305Y408025D01*
X473305Y418095D01*
X490915Y418095D01*
X490915Y417108D01*
X490915Y417105D01*
X490910Y417080D01*
X490907Y417065D01*
X490902Y417040D01*
X490899Y417025D01*
X490896Y417011D01*
X490894Y417001D01*
X490891Y416986D01*
X490888Y416971D01*
X490886Y416961D01*
X490883Y416946D01*
X490880Y416931D01*
X490878Y416921D01*
X490875Y416906D01*
X490872Y416891D01*
X490867Y416866D01*
X490864Y416852D01*
X490859Y416827D01*
X490856Y416812D01*
X490851Y416787D01*
X490848Y416772D01*
X490844Y416747D01*
X490843Y416747D01*
X490841Y416732D01*
X490838Y416717D01*
X490836Y416707D01*
X490833Y416693D01*
X490830Y416678D01*
X490828Y416668D01*
X490825Y416653D01*
X490822Y416638D01*
X490820Y416628D01*
X490817Y416613D01*
X490814Y416598D01*
X490812Y416588D01*
X490809Y416573D01*
X490806Y416558D01*
X490801Y416534D01*
X490798Y416519D01*
X490793Y416494D01*
X490790Y416479D01*
X490785Y416454D01*
X490782Y416439D01*
X490779Y416424D01*
X490777Y416414D01*
X490774Y416399D01*
X490771Y416385D01*
X490771Y416384D01*
X490769Y416375D01*
X490766Y416360D01*
X490763Y416345D01*
X490761Y416335D01*
X490759Y416320D01*
X490758Y416320D01*
X490759Y416320D01*
X490756Y416305D01*
X490754Y416295D01*
X490751Y416280D01*
X490748Y416265D01*
X490743Y416240D01*
X490740Y416226D01*
X490740Y416225D01*
X490735Y416201D01*
X490732Y416186D01*
X490727Y416161D01*
X490724Y416146D01*
X490719Y416121D01*
X490716Y416106D01*
X490713Y416091D01*
X490711Y416081D01*
X490708Y416067D01*
X490708Y416066D01*
X490705Y416052D01*
X490703Y416042D01*
X490700Y416027D01*
X490697Y416012D01*
X490695Y416002D01*
X490692Y415987D01*
X490689Y415972D01*
X490684Y415947D01*
X490681Y415932D01*
X490676Y415908D01*
X490676Y415907D01*
X490674Y415893D01*
X490673Y415893D01*
X490674Y415893D01*
X490669Y415868D01*
X490666Y415853D01*
X490661Y415828D01*
X490658Y415813D01*
X490655Y415798D01*
X490653Y415788D01*
X490650Y415773D01*
X490647Y415758D01*
X490645Y415749D01*
X490645Y415748D01*
X490642Y415734D01*
X490639Y415719D01*
X490637Y415709D01*
X490634Y415694D01*
X490631Y415679D01*
X490629Y415669D01*
X490626Y415654D01*
X490623Y415639D01*
X490618Y415614D01*
X490615Y415599D01*
X490610Y415575D01*
X490607Y415560D01*
X490602Y415535D01*
X490599Y415520D01*
X490596Y415505D01*
X490594Y415495D01*
X490591Y415480D01*
X490589Y415465D01*
X490588Y415465D01*
X490589Y415465D01*
X490587Y415455D01*
X490584Y415440D01*
X490581Y415426D01*
X490581Y415425D01*
X490579Y415416D01*
X490576Y415401D01*
X490573Y415386D01*
X490571Y415376D01*
X490568Y415361D01*
X490565Y415346D01*
X490560Y415321D01*
X490557Y415306D01*
X490552Y415281D01*
X490549Y415267D01*
X490549Y415266D01*
X490544Y415242D01*
X490541Y415227D01*
X490536Y415202D01*
X490533Y415187D01*
X490530Y415172D01*
X490528Y415162D01*
X490528Y415161D01*
X489769Y413328D01*
X488666Y411677D01*
X487263Y410274D01*
X485612Y409171D01*
X483779Y408412D01*
X481832Y408025D01*
X473305Y408025D01*
G37*
%LPD*%
%LPC*%
G36*
X473305Y662025D02*
X473305Y662025D01*
X473305Y672095D01*
X490915Y672095D01*
X490915Y671108D01*
X490915Y671107D01*
X490912Y671093D01*
X490907Y671068D01*
X490904Y671053D01*
X490899Y671028D01*
X490896Y671013D01*
X490891Y670988D01*
X490888Y670973D01*
X490884Y670948D01*
X490881Y670934D01*
X490878Y670919D01*
X490876Y670909D01*
X490873Y670894D01*
X490870Y670879D01*
X490868Y670869D01*
X490865Y670854D01*
X490862Y670839D01*
X490860Y670829D01*
X490857Y670814D01*
X490854Y670799D01*
X490849Y670775D01*
X490846Y670760D01*
X490841Y670735D01*
X490838Y670720D01*
X490833Y670695D01*
X490830Y670680D01*
X490825Y670655D01*
X490822Y670640D01*
X490819Y670626D01*
X490819Y670625D01*
X490817Y670616D01*
X490814Y670601D01*
X490811Y670586D01*
X490809Y670576D01*
X490806Y670561D01*
X490803Y670546D01*
X490802Y670536D01*
X490801Y670536D01*
X490799Y670521D01*
X490796Y670506D01*
X490794Y670496D01*
X490791Y670481D01*
X490788Y670467D01*
X490788Y670466D01*
X490783Y670442D01*
X490780Y670427D01*
X490775Y670402D01*
X490772Y670387D01*
X490767Y670362D01*
X490764Y670347D01*
X490761Y670332D01*
X490759Y670322D01*
X490756Y670308D01*
X490756Y670307D01*
X490753Y670293D01*
X490751Y670283D01*
X490748Y670268D01*
X490745Y670253D01*
X490743Y670243D01*
X490740Y670228D01*
X490737Y670213D01*
X490735Y670203D01*
X490732Y670188D01*
X490729Y670173D01*
X490724Y670149D01*
X490724Y670148D01*
X490721Y670134D01*
X490717Y670109D01*
X490716Y670109D01*
X490714Y670094D01*
X490709Y670069D01*
X490706Y670054D01*
X490701Y670029D01*
X490698Y670014D01*
X490695Y669999D01*
X490693Y669990D01*
X490693Y669989D01*
X490690Y669975D01*
X490687Y669960D01*
X490685Y669950D01*
X490682Y669935D01*
X490679Y669920D01*
X490677Y669910D01*
X490674Y669895D01*
X490671Y669880D01*
X490666Y669855D01*
X490663Y669840D01*
X490658Y669816D01*
X490655Y669801D01*
X490650Y669776D01*
X490647Y669761D01*
X490642Y669736D01*
X490639Y669721D01*
X490636Y669706D01*
X490634Y669696D01*
X490632Y669681D01*
X490631Y669681D01*
X490632Y669681D01*
X490629Y669667D01*
X490629Y669666D01*
X490627Y669657D01*
X490624Y669642D01*
X490621Y669627D01*
X490619Y669617D01*
X490616Y669602D01*
X490613Y669587D01*
X490611Y669577D01*
X490608Y669562D01*
X490605Y669547D01*
X490600Y669522D01*
X490597Y669508D01*
X490597Y669507D01*
X490592Y669483D01*
X490589Y669468D01*
X490584Y669443D01*
X490581Y669428D01*
X490578Y669413D01*
X490576Y669403D01*
X490573Y669388D01*
X490570Y669373D01*
X490568Y669363D01*
X490565Y669349D01*
X490565Y669348D01*
X490562Y669334D01*
X490560Y669324D01*
X490557Y669309D01*
X490554Y669294D01*
X490552Y669284D01*
X490549Y669269D01*
X490547Y669254D01*
X490546Y669254D01*
X490547Y669254D01*
X490542Y669229D01*
X490539Y669214D01*
X490534Y669190D01*
X490534Y669189D01*
X490531Y669175D01*
X490528Y669161D01*
X489769Y667328D01*
X488666Y665677D01*
X487263Y664274D01*
X485612Y663171D01*
X483779Y662412D01*
X481832Y662025D01*
X473305Y662025D01*
G37*
%LPD*%
%LPC*%
G36*
X651105Y662025D02*
X651105Y662025D01*
X651105Y672095D01*
X668715Y672095D01*
X668715Y671108D01*
X668715Y671107D01*
X668712Y671093D01*
X668707Y671068D01*
X668704Y671053D01*
X668699Y671028D01*
X668696Y671013D01*
X668691Y670988D01*
X668688Y670973D01*
X668684Y670948D01*
X668681Y670934D01*
X668678Y670919D01*
X668676Y670909D01*
X668673Y670894D01*
X668670Y670879D01*
X668668Y670869D01*
X668665Y670854D01*
X668662Y670839D01*
X668660Y670829D01*
X668657Y670814D01*
X668654Y670799D01*
X668649Y670775D01*
X668646Y670760D01*
X668641Y670735D01*
X668638Y670720D01*
X668633Y670695D01*
X668630Y670680D01*
X668625Y670655D01*
X668622Y670640D01*
X668619Y670626D01*
X668619Y670625D01*
X668617Y670616D01*
X668614Y670601D01*
X668611Y670586D01*
X668609Y670576D01*
X668606Y670561D01*
X668603Y670546D01*
X668602Y670536D01*
X668601Y670536D01*
X668599Y670521D01*
X668596Y670506D01*
X668594Y670496D01*
X668591Y670481D01*
X668588Y670467D01*
X668588Y670466D01*
X668583Y670442D01*
X668580Y670427D01*
X668575Y670402D01*
X668572Y670387D01*
X668567Y670362D01*
X668564Y670347D01*
X668561Y670332D01*
X668559Y670322D01*
X668556Y670308D01*
X668556Y670307D01*
X668553Y670293D01*
X668551Y670283D01*
X668548Y670268D01*
X668545Y670253D01*
X668543Y670243D01*
X668540Y670228D01*
X668537Y670213D01*
X668535Y670203D01*
X668532Y670188D01*
X668529Y670173D01*
X668524Y670149D01*
X668524Y670148D01*
X668521Y670134D01*
X668517Y670109D01*
X668516Y670109D01*
X668514Y670094D01*
X668509Y670069D01*
X668506Y670054D01*
X668501Y670029D01*
X668498Y670014D01*
X668495Y669999D01*
X668493Y669990D01*
X668493Y669989D01*
X668490Y669975D01*
X668487Y669960D01*
X668485Y669950D01*
X668482Y669935D01*
X668479Y669920D01*
X668477Y669910D01*
X668474Y669895D01*
X668471Y669880D01*
X668466Y669855D01*
X668463Y669840D01*
X668458Y669816D01*
X668455Y669801D01*
X668450Y669776D01*
X668447Y669761D01*
X668442Y669736D01*
X668439Y669721D01*
X668436Y669706D01*
X668434Y669696D01*
X668432Y669681D01*
X668431Y669681D01*
X668432Y669681D01*
X668429Y669667D01*
X668429Y669666D01*
X668427Y669657D01*
X668424Y669642D01*
X668421Y669627D01*
X668419Y669617D01*
X668416Y669602D01*
X668413Y669587D01*
X668411Y669577D01*
X668408Y669562D01*
X668405Y669547D01*
X668400Y669522D01*
X668397Y669508D01*
X668397Y669507D01*
X668392Y669483D01*
X668389Y669468D01*
X668384Y669443D01*
X668381Y669428D01*
X668378Y669413D01*
X668376Y669403D01*
X668373Y669388D01*
X668370Y669373D01*
X668368Y669363D01*
X668365Y669349D01*
X668365Y669348D01*
X668362Y669334D01*
X668360Y669324D01*
X668357Y669309D01*
X668354Y669294D01*
X668352Y669284D01*
X668349Y669269D01*
X668347Y669254D01*
X668346Y669254D01*
X668347Y669254D01*
X668342Y669229D01*
X668339Y669214D01*
X668334Y669190D01*
X668334Y669189D01*
X668331Y669175D01*
X668328Y669161D01*
X667569Y667328D01*
X666466Y665677D01*
X665063Y664274D01*
X663412Y663171D01*
X661579Y662412D01*
X659632Y662025D01*
X651105Y662025D01*
G37*
%LPD*%
%LPC*%
G36*
X473305Y535025D02*
X473305Y535025D01*
X473305Y545095D01*
X490915Y545095D01*
X490915Y544108D01*
X490915Y544106D01*
X490912Y544091D01*
X490910Y544081D01*
X490907Y544066D01*
X490904Y544052D01*
X490902Y544042D01*
X490899Y544027D01*
X490896Y544012D01*
X490894Y544002D01*
X490891Y543987D01*
X490888Y543972D01*
X490883Y543947D01*
X490880Y543932D01*
X490875Y543907D01*
X490872Y543893D01*
X490867Y543868D01*
X490865Y543853D01*
X490864Y543853D01*
X490865Y543853D01*
X490862Y543838D01*
X490860Y543828D01*
X490857Y543813D01*
X490854Y543798D01*
X490852Y543788D01*
X490849Y543773D01*
X490846Y543758D01*
X490844Y543748D01*
X490841Y543734D01*
X490838Y543719D01*
X490836Y543709D01*
X490833Y543694D01*
X490830Y543679D01*
X490825Y543654D01*
X490822Y543639D01*
X490817Y543614D01*
X490814Y543599D01*
X490809Y543575D01*
X490806Y543560D01*
X490801Y543535D01*
X490798Y543520D01*
X490795Y543505D01*
X490793Y543495D01*
X490790Y543480D01*
X490787Y543465D01*
X490785Y543455D01*
X490782Y543440D01*
X490780Y543426D01*
X490779Y543425D01*
X490780Y543425D01*
X490778Y543416D01*
X490775Y543401D01*
X490772Y543386D01*
X490767Y543361D01*
X490764Y543346D01*
X490759Y543321D01*
X490756Y543306D01*
X490751Y543281D01*
X490748Y543267D01*
X490748Y543266D01*
X490743Y543242D01*
X490740Y543227D01*
X490737Y543212D01*
X490735Y543202D01*
X490732Y543187D01*
X490729Y543172D01*
X490727Y543162D01*
X490724Y543147D01*
X490721Y543132D01*
X490719Y543122D01*
X490716Y543108D01*
X490716Y543107D01*
X490713Y543093D01*
X490711Y543083D01*
X490708Y543068D01*
X490705Y543053D01*
X490700Y543028D01*
X490697Y543013D01*
X490693Y542988D01*
X490690Y542973D01*
X490685Y542949D01*
X490685Y542948D01*
X490682Y542934D01*
X490679Y542919D01*
X490677Y542909D01*
X490674Y542894D01*
X490671Y542879D01*
X490669Y542869D01*
X490666Y542854D01*
X490663Y542839D01*
X490661Y542829D01*
X490658Y542814D01*
X490655Y542799D01*
X490653Y542790D01*
X490653Y542789D01*
X490650Y542775D01*
X490647Y542760D01*
X490642Y542735D01*
X490639Y542720D01*
X490634Y542695D01*
X490631Y542680D01*
X490626Y542655D01*
X490623Y542640D01*
X490618Y542616D01*
X490615Y542601D01*
X490612Y542586D01*
X490611Y542576D01*
X490610Y542576D01*
X490608Y542561D01*
X490605Y542546D01*
X490603Y542536D01*
X490600Y542521D01*
X490597Y542506D01*
X490595Y542496D01*
X490592Y542481D01*
X490589Y542467D01*
X490589Y542466D01*
X490584Y542442D01*
X490581Y542427D01*
X490576Y542402D01*
X490573Y542387D01*
X490568Y542362D01*
X490565Y542347D01*
X490560Y542322D01*
X490557Y542308D01*
X490557Y542307D01*
X490554Y542293D01*
X490552Y542283D01*
X490549Y542268D01*
X490546Y542253D01*
X490544Y542243D01*
X490541Y542228D01*
X490538Y542213D01*
X490536Y542203D01*
X490533Y542188D01*
X490530Y542173D01*
X490528Y542163D01*
X490528Y542161D01*
X489769Y540328D01*
X488666Y538677D01*
X487263Y537274D01*
X485612Y536171D01*
X483779Y535412D01*
X481832Y535025D01*
X473305Y535025D01*
G37*
%LPD*%
%LPC*%
G36*
X651105Y535025D02*
X651105Y535025D01*
X651105Y545095D01*
X668715Y545095D01*
X668715Y544108D01*
X668715Y544106D01*
X668712Y544091D01*
X668710Y544081D01*
X668707Y544066D01*
X668704Y544052D01*
X668702Y544042D01*
X668699Y544027D01*
X668696Y544012D01*
X668694Y544002D01*
X668691Y543987D01*
X668688Y543972D01*
X668683Y543947D01*
X668680Y543932D01*
X668675Y543907D01*
X668672Y543893D01*
X668667Y543868D01*
X668665Y543853D01*
X668664Y543853D01*
X668665Y543853D01*
X668662Y543838D01*
X668660Y543828D01*
X668657Y543813D01*
X668654Y543798D01*
X668652Y543788D01*
X668649Y543773D01*
X668646Y543758D01*
X668644Y543748D01*
X668641Y543734D01*
X668638Y543719D01*
X668636Y543709D01*
X668633Y543694D01*
X668630Y543679D01*
X668625Y543654D01*
X668622Y543639D01*
X668617Y543614D01*
X668614Y543599D01*
X668609Y543575D01*
X668606Y543560D01*
X668601Y543535D01*
X668598Y543520D01*
X668595Y543505D01*
X668593Y543495D01*
X668590Y543480D01*
X668587Y543465D01*
X668585Y543455D01*
X668582Y543440D01*
X668580Y543426D01*
X668579Y543425D01*
X668580Y543425D01*
X668578Y543416D01*
X668575Y543401D01*
X668572Y543386D01*
X668567Y543361D01*
X668564Y543346D01*
X668559Y543321D01*
X668556Y543306D01*
X668551Y543281D01*
X668548Y543267D01*
X668548Y543266D01*
X668543Y543242D01*
X668540Y543227D01*
X668537Y543212D01*
X668535Y543202D01*
X668532Y543187D01*
X668529Y543172D01*
X668527Y543162D01*
X668524Y543147D01*
X668521Y543132D01*
X668519Y543122D01*
X668516Y543108D01*
X668516Y543107D01*
X668513Y543093D01*
X668511Y543083D01*
X668508Y543068D01*
X668505Y543053D01*
X668500Y543028D01*
X668497Y543013D01*
X668493Y542988D01*
X668490Y542973D01*
X668485Y542949D01*
X668485Y542948D01*
X668482Y542934D01*
X668479Y542919D01*
X668477Y542909D01*
X668474Y542894D01*
X668471Y542879D01*
X668469Y542869D01*
X668466Y542854D01*
X668463Y542839D01*
X668461Y542829D01*
X668458Y542814D01*
X668455Y542799D01*
X668453Y542790D01*
X668453Y542789D01*
X668450Y542775D01*
X668447Y542760D01*
X668442Y542735D01*
X668439Y542720D01*
X668434Y542695D01*
X668431Y542680D01*
X668426Y542655D01*
X668423Y542640D01*
X668418Y542616D01*
X668415Y542601D01*
X668412Y542586D01*
X668411Y542576D01*
X668410Y542576D01*
X668408Y542561D01*
X668405Y542546D01*
X668403Y542536D01*
X668400Y542521D01*
X668397Y542506D01*
X668395Y542496D01*
X668392Y542481D01*
X668389Y542467D01*
X668389Y542466D01*
X668384Y542442D01*
X668381Y542427D01*
X668376Y542402D01*
X668373Y542387D01*
X668368Y542362D01*
X668365Y542347D01*
X668360Y542322D01*
X668357Y542308D01*
X668357Y542307D01*
X668354Y542293D01*
X668352Y542283D01*
X668349Y542268D01*
X668346Y542253D01*
X668344Y542243D01*
X668341Y542228D01*
X668338Y542213D01*
X668336Y542203D01*
X668333Y542188D01*
X668330Y542173D01*
X668328Y542163D01*
X668328Y542161D01*
X667569Y540328D01*
X666466Y538677D01*
X665063Y537274D01*
X663412Y536171D01*
X661579Y535412D01*
X659632Y535025D01*
X651105Y535025D01*
G37*
%LPD*%
%LPC*%
G36*
X396245Y663025D02*
X396245Y663025D01*
X396245Y673095D01*
X413855Y673095D01*
X413855Y672108D01*
X413852Y672091D01*
X413849Y672076D01*
X413844Y672052D01*
X413844Y672051D01*
X413841Y672037D01*
X413838Y672022D01*
X413836Y672012D01*
X413833Y671997D01*
X413830Y671982D01*
X413828Y671972D01*
X413825Y671957D01*
X413822Y671942D01*
X413820Y671932D01*
X413817Y671917D01*
X413814Y671902D01*
X413812Y671893D01*
X413809Y671878D01*
X413806Y671863D01*
X413802Y671838D01*
X413799Y671823D01*
X413794Y671798D01*
X413791Y671783D01*
X413786Y671758D01*
X413783Y671743D01*
X413778Y671719D01*
X413775Y671704D01*
X413772Y671689D01*
X413770Y671679D01*
X413767Y671664D01*
X413764Y671649D01*
X413762Y671639D01*
X413759Y671624D01*
X413756Y671609D01*
X413754Y671599D01*
X413751Y671584D01*
X413748Y671570D01*
X413743Y671545D01*
X413740Y671530D01*
X413735Y671505D01*
X413732Y671490D01*
X413727Y671465D01*
X413724Y671450D01*
X413720Y671425D01*
X413719Y671425D01*
X413717Y671411D01*
X413714Y671396D01*
X413712Y671386D01*
X413709Y671371D01*
X413706Y671356D01*
X413704Y671346D01*
X413701Y671331D01*
X413698Y671316D01*
X413696Y671306D01*
X413693Y671291D01*
X413690Y671276D01*
X413688Y671266D01*
X413685Y671252D01*
X413682Y671237D01*
X413677Y671212D01*
X413674Y671197D01*
X413669Y671172D01*
X413666Y671157D01*
X413661Y671132D01*
X413658Y671117D01*
X413655Y671103D01*
X413655Y671102D01*
X413653Y671093D01*
X413650Y671078D01*
X413647Y671063D01*
X413645Y671053D01*
X413642Y671038D01*
X413639Y671023D01*
X413637Y671013D01*
X413635Y670998D01*
X413634Y670998D01*
X413635Y670998D01*
X413632Y670983D01*
X413630Y670973D01*
X413627Y670958D01*
X413624Y670944D01*
X413624Y670943D01*
X413619Y670919D01*
X413616Y670904D01*
X413611Y670879D01*
X413608Y670864D01*
X413603Y670839D01*
X413600Y670824D01*
X413595Y670799D01*
X413592Y670785D01*
X413592Y670784D01*
X413589Y670770D01*
X413587Y670760D01*
X413584Y670745D01*
X413581Y670730D01*
X413579Y670720D01*
X413576Y670705D01*
X413573Y670690D01*
X413571Y670680D01*
X413568Y670665D01*
X413565Y670650D01*
X413560Y670626D01*
X413560Y670625D01*
X413557Y670611D01*
X413552Y670586D01*
X413550Y670571D01*
X413549Y670571D01*
X413550Y670571D01*
X413545Y670546D01*
X413542Y670531D01*
X413537Y670506D01*
X413534Y670491D01*
X413531Y670476D01*
X413529Y670467D01*
X413529Y670466D01*
X413526Y670452D01*
X413523Y670437D01*
X413521Y670427D01*
X413518Y670412D01*
X413515Y670397D01*
X413513Y670387D01*
X413510Y670372D01*
X413507Y670357D01*
X413505Y670347D01*
X413502Y670332D01*
X413499Y670317D01*
X413494Y670293D01*
X413491Y670278D01*
X413486Y670253D01*
X413483Y670238D01*
X413478Y670213D01*
X413475Y670198D01*
X413470Y670173D01*
X413468Y670161D01*
X412709Y668328D01*
X411606Y666677D01*
X410203Y665274D01*
X408552Y664171D01*
X406719Y663412D01*
X404772Y663025D01*
X396245Y663025D01*
G37*
%LPD*%
%LPC*%
G36*
X642568Y662025D02*
X642568Y662025D01*
X640621Y662412D01*
X638788Y663171D01*
X637137Y664274D01*
X635734Y665677D01*
X634631Y667328D01*
X633872Y669161D01*
X633485Y671107D01*
X633485Y672095D01*
X651095Y672095D01*
X651095Y662025D01*
X642568Y662025D01*
G37*
%LPD*%
%LPC*%
G36*
X642568Y789025D02*
X642568Y789025D01*
X640621Y789412D01*
X638788Y790171D01*
X637137Y791274D01*
X635734Y792677D01*
X634631Y794328D01*
X633872Y796161D01*
X633485Y798107D01*
X633485Y799095D01*
X651095Y799095D01*
X651095Y789025D01*
X642568Y789025D01*
G37*
%LPD*%
%LPC*%
G36*
X464768Y662025D02*
X464768Y662025D01*
X462821Y662412D01*
X460988Y663171D01*
X459337Y664274D01*
X457934Y665677D01*
X456831Y667328D01*
X456072Y669161D01*
X455685Y671107D01*
X455685Y672095D01*
X473295Y672095D01*
X473295Y662025D01*
X464768Y662025D01*
G37*
%LPD*%
%LPC*%
G36*
X387708Y663025D02*
X387708Y663025D01*
X385761Y663412D01*
X383928Y664171D01*
X382277Y665274D01*
X380874Y666677D01*
X379771Y668328D01*
X379012Y670161D01*
X378625Y672108D01*
X378625Y673095D01*
X396235Y673095D01*
X396235Y663025D01*
X387708Y663025D01*
G37*
%LPD*%
%LPC*%
G36*
X464768Y535025D02*
X464768Y535025D01*
X462821Y535412D01*
X460988Y536171D01*
X459337Y537274D01*
X457934Y538677D01*
X456831Y540328D01*
X456072Y542161D01*
X455685Y544108D01*
X455685Y545095D01*
X473295Y545095D01*
X473295Y535025D01*
X464768Y535025D01*
G37*
%LPD*%
%LPC*%
G36*
X642568Y535025D02*
X642568Y535025D01*
X640621Y535412D01*
X638788Y536171D01*
X637137Y537274D01*
X635734Y538677D01*
X634631Y540328D01*
X633872Y542161D01*
X633485Y544108D01*
X633485Y545095D01*
X651095Y545095D01*
X651095Y535025D01*
X642568Y535025D01*
G37*
%LPD*%
%LPC*%
G36*
X642568Y408025D02*
X642568Y408025D01*
X640621Y408412D01*
X638788Y409171D01*
X637137Y410274D01*
X635734Y411677D01*
X634631Y413328D01*
X633872Y415161D01*
X633485Y417108D01*
X633485Y418095D01*
X651095Y418095D01*
X651095Y408025D01*
X642568Y408025D01*
G37*
%LPD*%
%LPC*%
G36*
X464768Y408025D02*
X464768Y408025D01*
X462821Y408412D01*
X460988Y409171D01*
X459337Y410274D01*
X457934Y411677D01*
X456831Y413328D01*
X456072Y415161D01*
X455685Y417108D01*
X455685Y418095D01*
X473295Y418095D01*
X473295Y408025D01*
X464768Y408025D01*
G37*
%LPD*%
%LPC*%
G36*
X343651Y850255D02*
X343651Y850255D01*
X343651Y859325D01*
X351080Y859325D01*
X352833Y858976D01*
X354485Y858292D01*
X355971Y857299D01*
X357235Y856035D01*
X358228Y854549D01*
X358912Y852897D01*
X359261Y851144D01*
X359261Y850255D01*
X343651Y850255D01*
G37*
%LPD*%
%LPC*%
G36*
X328031Y850255D02*
X328031Y850255D01*
X328031Y851144D01*
X328034Y851159D01*
X328039Y851184D01*
X328042Y851199D01*
X328047Y851223D01*
X328050Y851238D01*
X328055Y851263D01*
X328057Y851278D01*
X328058Y851278D01*
X328057Y851278D01*
X328062Y851303D01*
X328065Y851318D01*
X328070Y851343D01*
X328073Y851358D01*
X328078Y851382D01*
X328081Y851397D01*
X328084Y851412D01*
X328086Y851422D01*
X328089Y851437D01*
X328092Y851452D01*
X328094Y851462D01*
X328097Y851477D01*
X328100Y851492D01*
X328102Y851502D01*
X328105Y851517D01*
X328108Y851531D01*
X328110Y851541D01*
X328113Y851556D01*
X328116Y851571D01*
X328118Y851581D01*
X328121Y851596D01*
X328124Y851611D01*
X328126Y851621D01*
X328129Y851636D01*
X328132Y851651D01*
X328134Y851661D01*
X328137Y851676D01*
X328140Y851690D01*
X328144Y851715D01*
X328147Y851730D01*
X328152Y851755D01*
X328155Y851770D01*
X328160Y851795D01*
X328163Y851810D01*
X328168Y851835D01*
X328171Y851849D01*
X328176Y851874D01*
X328179Y851889D01*
X328184Y851914D01*
X328187Y851929D01*
X328192Y851954D01*
X328195Y851969D01*
X328198Y851984D01*
X328200Y851994D01*
X328203Y852008D01*
X328206Y852023D01*
X328208Y852033D01*
X328211Y852048D01*
X328214Y852063D01*
X328216Y852073D01*
X328219Y852088D01*
X328222Y852103D01*
X328224Y852113D01*
X328226Y852128D01*
X328227Y852128D01*
X328226Y852128D01*
X328229Y852143D01*
X328231Y852153D01*
X328234Y852167D01*
X328237Y852182D01*
X328239Y852192D01*
X328242Y852207D01*
X328245Y852222D01*
X328247Y852232D01*
X328250Y852247D01*
X328253Y852262D01*
X328258Y852287D01*
X328261Y852302D01*
X328266Y852326D01*
X328269Y852341D01*
X328274Y852366D01*
X328277Y852381D01*
X328282Y852406D01*
X328285Y852421D01*
X328290Y852446D01*
X328293Y852461D01*
X328298Y852485D01*
X328301Y852500D01*
X328306Y852525D01*
X328309Y852540D01*
X328311Y852555D01*
X328312Y852555D01*
X328311Y852555D01*
X328313Y852565D01*
X328316Y852580D01*
X328319Y852595D01*
X328321Y852605D01*
X328324Y852620D01*
X328327Y852634D01*
X328327Y852635D01*
X328329Y852644D01*
X328332Y852659D01*
X328335Y852674D01*
X328337Y852684D01*
X328340Y852699D01*
X328343Y852714D01*
X328345Y852724D01*
X328348Y852739D01*
X328351Y852754D01*
X328353Y852764D01*
X328356Y852779D01*
X328359Y852793D01*
X328359Y852794D01*
X328361Y852803D01*
X328364Y852818D01*
X328367Y852833D01*
X328372Y852858D01*
X328375Y852873D01*
X328380Y852897D01*
X329064Y854549D01*
X330057Y856035D01*
X331321Y857299D01*
X332807Y858292D01*
X334459Y858976D01*
X336212Y859325D01*
X343641Y859325D01*
X343641Y850255D01*
X328031Y850255D01*
G37*
%LPD*%
%LPC*%
G36*
X730285Y626305D02*
X730285Y626305D01*
X730285Y627095D01*
X730289Y627118D01*
X730292Y627133D01*
X730297Y627158D01*
X730300Y627172D01*
X730300Y627173D01*
X730303Y627187D01*
X730305Y627197D01*
X730308Y627212D01*
X730311Y627227D01*
X730313Y627237D01*
X730316Y627252D01*
X730319Y627267D01*
X730324Y627292D01*
X730327Y627307D01*
X730332Y627331D01*
X730332Y627332D01*
X730335Y627346D01*
X730340Y627371D01*
X730343Y627386D01*
X730346Y627401D01*
X730348Y627411D01*
X730351Y627426D01*
X730354Y627441D01*
X730355Y627451D01*
X730356Y627451D01*
X730358Y627466D01*
X730361Y627481D01*
X730366Y627505D01*
X730369Y627520D01*
X730374Y627545D01*
X730377Y627560D01*
X730380Y627575D01*
X730382Y627585D01*
X730385Y627600D01*
X730388Y627615D01*
X730390Y627625D01*
X730393Y627640D01*
X730396Y627654D01*
X730396Y627655D01*
X730398Y627664D01*
X730401Y627679D01*
X730404Y627694D01*
X730409Y627719D01*
X730412Y627734D01*
X730417Y627759D01*
X730420Y627774D01*
X730423Y627789D01*
X730425Y627799D01*
X730428Y627813D01*
X730428Y627814D01*
X730431Y627828D01*
X730433Y627838D01*
X730436Y627853D01*
X730439Y627868D01*
X730443Y627893D01*
X730446Y627908D01*
X730451Y627933D01*
X730454Y627948D01*
X730459Y627972D01*
X730459Y627973D01*
X730462Y627987D01*
X730465Y628002D01*
X730467Y628012D01*
X730470Y628027D01*
X730473Y628042D01*
X730475Y628052D01*
X730478Y628067D01*
X730481Y628082D01*
X730486Y628107D01*
X730489Y628122D01*
X730494Y628146D01*
X730497Y628161D01*
X730500Y628176D01*
X730502Y628186D01*
X730505Y628201D01*
X730508Y628216D01*
X730510Y628226D01*
X730513Y628241D01*
X730516Y628256D01*
X730521Y628281D01*
X730524Y628295D01*
X730528Y628320D01*
X730531Y628335D01*
X730536Y628360D01*
X730539Y628375D01*
X730542Y628390D01*
X730544Y628400D01*
X730547Y628415D01*
X730550Y628430D01*
X730552Y628440D01*
X730555Y628454D01*
X730558Y628469D01*
X730563Y628494D01*
X730566Y628509D01*
X730571Y628534D01*
X730574Y628549D01*
X730577Y628564D01*
X730579Y628574D01*
X730582Y628589D01*
X730585Y628603D01*
X730585Y628604D01*
X730587Y628613D01*
X730590Y628628D01*
X730593Y628643D01*
X730595Y628653D01*
X730595Y628655D01*
X731204Y630125D01*
X732088Y631448D01*
X733212Y632572D01*
X734535Y633456D01*
X736005Y634065D01*
X737565Y634375D01*
X743895Y634375D01*
X743895Y626305D01*
X730285Y626305D01*
G37*
%LPD*%
%LPC*%
G36*
X743905Y626305D02*
X743905Y626305D01*
X743905Y634375D01*
X750235Y634375D01*
X751795Y634065D01*
X753265Y633456D01*
X754588Y632572D01*
X755712Y631448D01*
X756596Y630125D01*
X757205Y628655D01*
X757515Y627095D01*
X757515Y626305D01*
X743905Y626305D01*
G37*
%LPD*%
%LPC*%
G36*
X743905Y618225D02*
X743905Y618225D01*
X743905Y626295D01*
X757515Y626295D01*
X757515Y625505D01*
X757514Y625499D01*
X757512Y625489D01*
X757509Y625474D01*
X757506Y625460D01*
X757504Y625450D01*
X757501Y625435D01*
X757498Y625420D01*
X757493Y625395D01*
X757490Y625380D01*
X757485Y625355D01*
X757483Y625340D01*
X757482Y625340D01*
X757483Y625340D01*
X757478Y625315D01*
X757475Y625301D01*
X757472Y625286D01*
X757470Y625276D01*
X757467Y625261D01*
X757464Y625246D01*
X757462Y625236D01*
X757459Y625221D01*
X757456Y625206D01*
X757451Y625181D01*
X757448Y625166D01*
X757443Y625142D01*
X757440Y625127D01*
X757437Y625112D01*
X757435Y625102D01*
X757432Y625087D01*
X757429Y625072D01*
X757427Y625062D01*
X757424Y625047D01*
X757421Y625032D01*
X757419Y625022D01*
X757416Y625007D01*
X757413Y624993D01*
X757413Y624992D01*
X757408Y624968D01*
X757405Y624953D01*
X757400Y624928D01*
X757398Y624913D01*
X757397Y624913D01*
X757398Y624913D01*
X757395Y624898D01*
X757393Y624888D01*
X757390Y624873D01*
X757387Y624858D01*
X757385Y624848D01*
X757382Y624834D01*
X757382Y624833D01*
X757379Y624819D01*
X757374Y624794D01*
X757371Y624779D01*
X757366Y624754D01*
X757363Y624739D01*
X757358Y624714D01*
X757355Y624699D01*
X757352Y624684D01*
X757350Y624675D01*
X757350Y624674D01*
X757347Y624660D01*
X757344Y624645D01*
X757342Y624635D01*
X757339Y624620D01*
X757336Y624605D01*
X757331Y624580D01*
X757328Y624565D01*
X757323Y624540D01*
X757320Y624525D01*
X757317Y624511D01*
X757317Y624510D01*
X757315Y624501D01*
X757313Y624486D01*
X757312Y624486D01*
X757313Y624486D01*
X757310Y624471D01*
X757308Y624461D01*
X757305Y624446D01*
X757302Y624431D01*
X757297Y624406D01*
X757294Y624391D01*
X757289Y624366D01*
X757286Y624352D01*
X757286Y624351D01*
X757281Y624327D01*
X757278Y624312D01*
X757275Y624297D01*
X757273Y624287D01*
X757270Y624272D01*
X757267Y624257D01*
X757265Y624247D01*
X757262Y624232D01*
X757259Y624217D01*
X757254Y624193D01*
X757254Y624192D01*
X757251Y624178D01*
X757246Y624153D01*
X757243Y624138D01*
X757240Y624123D01*
X757238Y624113D01*
X757235Y624098D01*
X757232Y624083D01*
X757230Y624073D01*
X757228Y624058D01*
X757227Y624058D01*
X757228Y624058D01*
X757225Y624043D01*
X757223Y624034D01*
X757220Y624019D01*
X757217Y624004D01*
X757212Y623979D01*
X757209Y623964D01*
X757205Y623945D01*
X756596Y622475D01*
X755712Y621152D01*
X754588Y620028D01*
X753265Y619144D01*
X751795Y618535D01*
X750235Y618225D01*
X743905Y618225D01*
G37*
%LPD*%
%LPC*%
G36*
X737565Y618225D02*
X737565Y618225D01*
X736005Y618535D01*
X734535Y619144D01*
X733212Y620028D01*
X732088Y621152D01*
X731204Y622475D01*
X730595Y623945D01*
X730285Y625505D01*
X730285Y626295D01*
X743895Y626295D01*
X743895Y618225D01*
X737565Y618225D01*
G37*
%LPD*%
%LPC*%
G36*
X329445Y698505D02*
X329445Y698505D01*
X329445Y707004D01*
X329831Y707936D01*
X330544Y708649D01*
X331476Y709035D01*
X338475Y709035D01*
X338475Y698505D01*
X329445Y698505D01*
G37*
%LPD*%
%LPC*%
G36*
X329445Y647705D02*
X329445Y647705D01*
X329445Y656204D01*
X329831Y657136D01*
X330544Y657849D01*
X331476Y658235D01*
X338475Y658235D01*
X338475Y647705D01*
X329445Y647705D01*
G37*
%LPD*%
%LPC*%
G36*
X331476Y687965D02*
X331476Y687965D01*
X330544Y688351D01*
X329831Y689064D01*
X329445Y689996D01*
X329445Y698495D01*
X338475Y698495D01*
X338475Y687965D01*
X331476Y687965D01*
G37*
%LPD*%
%LPC*%
G36*
X331476Y637165D02*
X331476Y637165D01*
X330544Y637551D01*
X329831Y638264D01*
X329445Y639196D01*
X329445Y647695D01*
X338475Y647695D01*
X338475Y637165D01*
X331476Y637165D01*
G37*
%LPD*%
D10*
X357480Y647700D03*
X338480Y647700D03*
X357480Y698500D03*
X338480Y698500D03*
D11*
X342900Y813460D03*
X342900Y832460D03*
D12*
X405130Y774700D03*
X407670Y800100D03*
X405130Y825500D03*
X407670Y850900D03*
D13*
X465760Y849900D02*
X480840Y849900D01*
X480840Y824500D02*
X465760Y824500D01*
X465760Y799100D02*
X480840Y799100D01*
X480840Y773700D02*
X465760Y773700D01*
X465760Y748300D02*
X480840Y748300D01*
X480840Y722900D02*
X465760Y722900D01*
X465760Y697500D02*
X480840Y697500D01*
X480840Y672100D02*
X465760Y672100D01*
X465760Y646700D02*
X480840Y646700D01*
X480840Y621300D02*
X465760Y621300D01*
X465760Y595900D02*
X480840Y595900D01*
X480840Y570500D02*
X465760Y570500D01*
X465760Y545100D02*
X480840Y545100D01*
X480840Y519700D02*
X465760Y519700D01*
X465760Y494300D02*
X480840Y494300D01*
X480840Y468900D02*
X465760Y468900D01*
X465760Y443500D02*
X480840Y443500D01*
X480840Y418100D02*
X465760Y418100D01*
X465760Y392700D02*
X480840Y392700D01*
X480840Y367300D02*
X465760Y367300D01*
X643560Y849900D02*
X658640Y849900D01*
X658640Y824500D02*
X643560Y824500D01*
X643560Y799100D02*
X658640Y799100D01*
X658640Y773700D02*
X643560Y773700D01*
X643560Y748300D02*
X658640Y748300D01*
X658640Y722900D02*
X643560Y722900D01*
X643560Y697500D02*
X658640Y697500D01*
X658640Y672100D02*
X643560Y672100D01*
X643560Y646700D02*
X658640Y646700D01*
X658640Y621300D02*
X643560Y621300D01*
X643560Y595900D02*
X658640Y595900D01*
X658640Y570500D02*
X643560Y570500D01*
X643560Y545100D02*
X658640Y545100D01*
X658640Y519700D02*
X643560Y519700D01*
X643560Y494300D02*
X658640Y494300D01*
X658640Y468900D02*
X643560Y468900D01*
X643560Y443500D02*
X658640Y443500D01*
X658640Y418100D02*
X643560Y418100D01*
X643560Y392700D02*
X658640Y392700D01*
X658640Y367300D02*
X643560Y367300D01*
X403780Y647700D02*
X388700Y647700D01*
X388700Y673100D02*
X403780Y673100D01*
X403780Y698500D02*
X388700Y698500D01*
D14*
X156540Y673100D02*
X156570Y675554D01*
X156660Y678007D01*
X156811Y680456D01*
X157022Y682902D01*
X157292Y685341D01*
X157622Y687773D01*
X158012Y690196D01*
X158461Y692609D01*
X158970Y695010D01*
X159537Y697398D01*
X160162Y699771D01*
X160846Y702128D01*
X161587Y704468D01*
X162386Y706789D01*
X163241Y709090D01*
X164152Y711368D01*
X165119Y713624D01*
X166141Y715856D01*
X167218Y718061D01*
X168348Y720240D01*
X169531Y722390D01*
X170767Y724510D01*
X172055Y726600D01*
X173393Y728657D01*
X174782Y730681D01*
X176219Y732670D01*
X177705Y734623D01*
X179239Y736539D01*
X180819Y738417D01*
X182445Y740256D01*
X184115Y742054D01*
X185829Y743811D01*
X187586Y745525D01*
X189384Y747195D01*
X191223Y748821D01*
X193101Y750401D01*
X195017Y751935D01*
X196970Y753421D01*
X198959Y754858D01*
X200983Y756247D01*
X203040Y757585D01*
X205130Y758873D01*
X207250Y760109D01*
X209400Y761292D01*
X211579Y762422D01*
X213784Y763499D01*
X216016Y764521D01*
X218272Y765488D01*
X220550Y766399D01*
X222851Y767254D01*
X225172Y768053D01*
X227512Y768794D01*
X229869Y769478D01*
X232242Y770103D01*
X234630Y770670D01*
X237031Y771179D01*
X239444Y771628D01*
X241867Y772018D01*
X244299Y772348D01*
X246738Y772618D01*
X249184Y772829D01*
X251633Y772980D01*
X254086Y773070D01*
X256540Y773100D01*
X258994Y773070D01*
X261447Y772980D01*
X263896Y772829D01*
X266342Y772618D01*
X268781Y772348D01*
X271213Y772018D01*
X273636Y771628D01*
X276049Y771179D01*
X278450Y770670D01*
X280838Y770103D01*
X283211Y769478D01*
X285568Y768794D01*
X287908Y768053D01*
X290229Y767254D01*
X292530Y766399D01*
X294808Y765488D01*
X297064Y764521D01*
X299296Y763499D01*
X301501Y762422D01*
X303680Y761292D01*
X305830Y760109D01*
X307950Y758873D01*
X310040Y757585D01*
X312097Y756247D01*
X314121Y754858D01*
X316110Y753421D01*
X318063Y751935D01*
X319979Y750401D01*
X321857Y748821D01*
X323696Y747195D01*
X325494Y745525D01*
X327251Y743811D01*
X328965Y742054D01*
X330635Y740256D01*
X332261Y738417D01*
X333841Y736539D01*
X335375Y734623D01*
X336861Y732670D01*
X338298Y730681D01*
X339687Y728657D01*
X341025Y726600D01*
X342313Y724510D01*
X343549Y722390D01*
X344732Y720240D01*
X345862Y718061D01*
X346939Y715856D01*
X347961Y713624D01*
X348928Y711368D01*
X349839Y709090D01*
X350694Y706789D01*
X351493Y704468D01*
X352234Y702128D01*
X352918Y699771D01*
X353543Y697398D01*
X354110Y695010D01*
X354619Y692609D01*
X355068Y690196D01*
X355458Y687773D01*
X355788Y685341D01*
X356058Y682902D01*
X356269Y680456D01*
X356420Y678007D01*
X356510Y675554D01*
X356540Y673100D01*
X356510Y670646D01*
X356420Y668193D01*
X356269Y665744D01*
X356058Y663298D01*
X355788Y660859D01*
X355458Y658427D01*
X355068Y656004D01*
X354619Y653591D01*
X354110Y651190D01*
X353543Y648802D01*
X352918Y646429D01*
X352234Y644072D01*
X351493Y641732D01*
X350694Y639411D01*
X349839Y637110D01*
X348928Y634832D01*
X347961Y632576D01*
X346939Y630344D01*
X345862Y628139D01*
X344732Y625960D01*
X343549Y623810D01*
X342313Y621690D01*
X341025Y619600D01*
X339687Y617543D01*
X338298Y615519D01*
X336861Y613530D01*
X335375Y611577D01*
X333841Y609661D01*
X332261Y607783D01*
X330635Y605944D01*
X328965Y604146D01*
X327251Y602389D01*
X325494Y600675D01*
X323696Y599005D01*
X321857Y597379D01*
X319979Y595799D01*
X318063Y594265D01*
X316110Y592779D01*
X314121Y591342D01*
X312097Y589953D01*
X310040Y588615D01*
X307950Y587327D01*
X305830Y586091D01*
X303680Y584908D01*
X301501Y583778D01*
X299296Y582701D01*
X297064Y581679D01*
X294808Y580712D01*
X292530Y579801D01*
X290229Y578946D01*
X287908Y578147D01*
X285568Y577406D01*
X283211Y576722D01*
X280838Y576097D01*
X278450Y575530D01*
X276049Y575021D01*
X273636Y574572D01*
X271213Y574182D01*
X268781Y573852D01*
X266342Y573582D01*
X263896Y573371D01*
X261447Y573220D01*
X258994Y573130D01*
X256540Y573100D01*
X254086Y573130D01*
X251633Y573220D01*
X249184Y573371D01*
X246738Y573582D01*
X244299Y573852D01*
X241867Y574182D01*
X239444Y574572D01*
X237031Y575021D01*
X234630Y575530D01*
X232242Y576097D01*
X229869Y576722D01*
X227512Y577406D01*
X225172Y578147D01*
X222851Y578946D01*
X220550Y579801D01*
X218272Y580712D01*
X216016Y581679D01*
X213784Y582701D01*
X211579Y583778D01*
X209400Y584908D01*
X207250Y586091D01*
X205130Y587327D01*
X203040Y588615D01*
X200983Y589953D01*
X198959Y591342D01*
X196970Y592779D01*
X195017Y594265D01*
X193101Y595799D01*
X191223Y597379D01*
X189384Y599005D01*
X187586Y600675D01*
X185829Y602389D01*
X184115Y604146D01*
X182445Y605944D01*
X180819Y607783D01*
X179239Y609661D01*
X177705Y611577D01*
X176219Y613530D01*
X174782Y615519D01*
X173393Y617543D01*
X172055Y619600D01*
X170767Y621690D01*
X169531Y623810D01*
X168348Y625960D01*
X167218Y628139D01*
X166141Y630344D01*
X165119Y632576D01*
X164152Y634832D01*
X163241Y637110D01*
X162386Y639411D01*
X161587Y641732D01*
X160846Y644072D01*
X160162Y646429D01*
X159537Y648802D01*
X158970Y651190D01*
X158461Y653591D01*
X158012Y656004D01*
X157622Y658427D01*
X157292Y660859D01*
X157022Y663298D01*
X156811Y665744D01*
X156660Y668193D01*
X156570Y670646D01*
X156540Y673100D01*
X358140Y635000D02*
X383540Y635000D01*
X383540Y711200D01*
X358140Y711200D01*
X358140Y635000D01*
D15*
X738360Y651700D02*
X749440Y651700D01*
X749440Y626300D02*
X738360Y626300D01*
X738360Y600800D02*
X749440Y600800D01*
X749440Y575400D02*
X738360Y575400D01*
X738360Y550000D02*
X749440Y550000D01*
X749440Y524600D02*
X738360Y524600D01*
X738360Y499200D02*
X749440Y499200D01*
X749440Y473800D02*
X738360Y473800D01*
X738360Y448400D02*
X749440Y448400D01*
X749440Y423000D02*
X738360Y423000D01*
X738360Y397600D02*
X749440Y397600D01*
X749440Y372200D02*
X738360Y372200D01*
X738360Y346800D02*
X749440Y346800D01*
X749440Y321400D02*
X738360Y321400D01*
X1518360Y524700D02*
X1529440Y524700D01*
X1529440Y499300D02*
X1518360Y499300D01*
X1518360Y473900D02*
X1529440Y473900D01*
X1529440Y448500D02*
X1518360Y448500D01*
D16*
X349186Y793750D02*
X336106Y793750D01*
X337106Y850250D02*
X350186Y850250D01*
D17*
X407670Y800100D02*
X472300Y800100D01*
X473300Y799100D01*
X407670Y800100D02*
X398526Y800100D01*
X338480Y673760D02*
X337820Y673100D01*
X339090Y671830D01*
X394970Y671830D01*
X396240Y673100D01*
X339090Y671830D02*
X338480Y671220D01*
X396240Y673100D02*
X472300Y673100D01*
X473300Y672100D01*
X473300Y545100D02*
X494522Y545100D01*
X495300Y544322D01*
X473300Y545100D02*
X472522Y544322D01*
X448818Y544322D01*
X651084Y545084D02*
X651100Y545100D01*
X651084Y545084D02*
X624078Y545084D01*
X651100Y418100D02*
X677910Y418100D01*
X678688Y417322D01*
X721678Y626300D02*
X743900Y626300D01*
X721678Y626300D02*
X719836Y628142D01*
X678164Y672100D02*
X651100Y672100D01*
X678164Y672100D02*
X678180Y672084D01*
X678434Y672084D01*
X678434Y672338D01*
X651100Y672100D02*
X650576Y671576D01*
X628142Y671576D01*
X474300Y673100D02*
X473300Y672100D01*
X474300Y673100D02*
X500126Y673100D01*
X651100Y799100D02*
X676132Y799100D01*
X680212Y795020D01*
X651100Y799100D02*
X625586Y799100D01*
X624840Y799846D01*
X499872Y799592D02*
X473792Y799592D01*
X473300Y799100D01*
X338480Y698500D02*
X323596Y698500D01*
X338480Y698500D02*
X338480Y712876D01*
X338582Y712978D01*
X338836Y712978D01*
X338836Y711454D01*
X338480Y698500D02*
X338480Y673760D01*
X338480Y671220D02*
X338480Y647700D01*
X337972Y648208D01*
X325374Y648208D01*
X325374Y647954D01*
X327406Y647954D01*
X327406Y648462D01*
X338480Y647700D02*
X338480Y633832D01*
X339090Y633222D01*
X651100Y425644D02*
X651100Y418100D01*
X651100Y425644D02*
X651256Y425800D01*
X651100Y418100D02*
X634254Y418100D01*
X634238Y418084D01*
X635254Y417068D02*
X643382Y417068D01*
X643382Y417830D01*
X634238Y417830D01*
X634238Y418084D02*
X635254Y417068D01*
X651002Y418002D02*
X651100Y418100D01*
X651002Y418002D02*
X651002Y410400D01*
X651100Y545100D02*
X651002Y545198D01*
X651002Y552800D01*
X651100Y545100D02*
X669274Y545100D01*
X669290Y545084D01*
X651100Y545100D02*
X650494Y544494D01*
X650494Y537400D01*
X651100Y664752D02*
X651100Y672100D01*
X651100Y664752D02*
X650748Y664400D01*
X651100Y672100D02*
X651100Y679702D01*
X651002Y679800D01*
X473300Y679644D02*
X473300Y672100D01*
X473300Y679644D02*
X473456Y679800D01*
X473300Y672100D02*
X473300Y664498D01*
X473202Y664400D01*
X473300Y799100D02*
X473300Y806702D01*
X473202Y806800D01*
X651100Y799100D02*
X651256Y799256D01*
X651256Y806800D01*
X651100Y799100D02*
X651100Y791498D01*
X651002Y791400D01*
X473300Y552702D02*
X473300Y545100D01*
X473300Y552702D02*
X473202Y552800D01*
X473300Y545100D02*
X473300Y537752D01*
X472948Y537400D01*
X473300Y418100D02*
X492744Y418100D01*
X492760Y418084D01*
X473300Y418100D02*
X473284Y418084D01*
X456438Y418084D01*
X473300Y418100D02*
X473300Y425702D01*
X473202Y425800D01*
X473300Y418100D02*
X472694Y417494D01*
X472694Y410400D01*
X407670Y800100D02*
X397510Y800100D01*
X384048Y813562D02*
X384048Y820420D01*
X354218Y850250D01*
X343646Y850250D01*
X384048Y813562D02*
X397510Y800100D01*
X451120Y773700D02*
X473300Y773700D01*
X429260Y751840D02*
X363220Y751840D01*
X429260Y751840D02*
X451120Y773700D01*
X342900Y813460D02*
X342646Y813206D01*
X342646Y793750D01*
X342646Y772414D01*
X363220Y751840D01*
X357480Y647700D02*
X396240Y647700D01*
X472300Y647700D01*
X473300Y646700D01*
X396240Y698500D02*
X357480Y698500D01*
X396240Y698500D02*
X472300Y698500D01*
X473300Y697500D01*
X473300Y519700D02*
X510810Y519700D01*
X511556Y520446D01*
X512826Y520446D01*
X513334Y519938D01*
D18*
X513334Y519938D03*
D17*
X514366Y468900D02*
X473300Y468900D01*
X514366Y468900D02*
X515366Y469900D01*
X515747Y469519D01*
D18*
X515747Y469519D03*
D17*
X514080Y494300D02*
X473300Y494300D01*
X514080Y494300D02*
X514858Y493522D01*
X515112Y493776D01*
D18*
X515112Y493776D03*
D17*
X473792Y443992D02*
X473300Y443500D01*
D18*
X516636Y443992D03*
D17*
X473792Y443992D01*
X473300Y367300D02*
X529320Y367300D01*
X575220Y321400D02*
X743900Y321400D01*
X575220Y321400D02*
X529320Y367300D01*
X651100Y367300D02*
X652100Y368300D01*
X717460Y346800D02*
X743900Y346800D01*
X695960Y368300D02*
X652100Y368300D01*
X695960Y368300D02*
X717460Y346800D01*
X701564Y392700D02*
X651100Y392700D01*
X701564Y392700D02*
X706882Y398018D01*
X743482Y398018D01*
X743900Y397600D01*
X684260Y443500D02*
X651100Y443500D01*
X737042Y416142D02*
X743900Y423000D01*
X737042Y416142D02*
X711618Y416142D01*
X684260Y443500D01*
X737550Y416650D02*
X743900Y423000D01*
X737550Y416650D02*
X712380Y416650D01*
X705358Y423672D02*
X705358Y484378D01*
X720180Y499200D01*
X743900Y499200D01*
X705358Y423672D02*
X712380Y416650D01*
X684260Y748300D02*
X651100Y748300D01*
X716280Y716280D02*
X716280Y660400D01*
X724980Y651700D01*
X743900Y651700D01*
X716280Y716280D02*
X684260Y748300D01*
X353720Y832460D02*
X342900Y832460D01*
X370840Y815340D02*
X370840Y807720D01*
X403860Y774700D01*
X405130Y774700D01*
X370840Y815340D02*
X353720Y832460D01*
X743900Y473800D02*
X757010Y473800D01*
X756730Y651700D02*
X743900Y651700D01*
X768096Y484886D02*
X757010Y473800D01*
X768096Y484886D02*
X768096Y640334D01*
X756730Y651700D01*
X420370Y774700D02*
X405130Y774700D01*
X442468Y785876D02*
X443484Y786892D01*
X540242Y748300D02*
X651100Y748300D01*
X431546Y785876D02*
X420370Y774700D01*
X431546Y785876D02*
X442468Y785876D01*
D19*
X443484Y786892D02*
X501650Y786892D01*
D17*
X540242Y748300D01*
X651100Y468900D02*
X669560Y468900D01*
X725260Y524600D01*
X743900Y524600D01*
X743900Y372200D02*
X758862Y372200D01*
X769112Y361950D01*
X769112Y333756D01*
X621538Y361696D02*
X621538Y458978D01*
X631460Y468900D02*
X651100Y468900D01*
X631460Y468900D02*
X621538Y458978D01*
X720090Y333756D02*
X718820Y332486D01*
D19*
X720090Y333756D02*
X769112Y333756D01*
D17*
X650748Y332486D02*
X621538Y361696D01*
X650748Y332486D02*
X718820Y332486D01*
X664480Y494300D02*
X651100Y494300D01*
X664480Y494300D02*
X720180Y550000D01*
X743900Y550000D01*
X664480Y519700D02*
X651100Y519700D01*
X664480Y519700D02*
X720180Y575400D01*
X743900Y575400D01*
X689118Y570500D02*
X651100Y570500D01*
X719418Y600800D02*
X743900Y600800D01*
X719418Y600800D02*
X689118Y570500D01*
X473300Y849900D02*
X465760Y849900D01*
X408670Y849900D01*
X407670Y850900D01*
X465760Y824500D02*
X473300Y824500D01*
X465760Y824500D02*
X406130Y824500D01*
X405130Y825500D01*
M02*
