G04 EAGLE Gerber RS-274X export*
G75*
%MOMM*%
%FSLAX34Y34*%
%LPD*%
%INTop Copper*%
%IPPOS*%
%AMOC8*
5,1,8,0,0,1.08239X$1,22.5*%
G01*
%ADD10C,1.879600*%
%ADD11C,1.508000*%
%ADD12C,0.127000*%
%ADD13C,1.108000*%
%ADD14C,1.308000*%
%ADD15C,1.300000*%


D10*
X405130Y774700D03*
X407670Y800100D03*
X405130Y825500D03*
X407670Y850900D03*
D11*
X465760Y849900D02*
X480840Y849900D01*
X480840Y824500D02*
X465760Y824500D01*
X465760Y799100D02*
X480840Y799100D01*
X480840Y773700D02*
X465760Y773700D01*
X465760Y748300D02*
X480840Y748300D01*
X480840Y722900D02*
X465760Y722900D01*
X465760Y697500D02*
X480840Y697500D01*
X480840Y672100D02*
X465760Y672100D01*
X465760Y646700D02*
X480840Y646700D01*
X480840Y621300D02*
X465760Y621300D01*
X465760Y595900D02*
X480840Y595900D01*
X480840Y570500D02*
X465760Y570500D01*
X465760Y545100D02*
X480840Y545100D01*
X480840Y519700D02*
X465760Y519700D01*
X465760Y494300D02*
X480840Y494300D01*
X480840Y468900D02*
X465760Y468900D01*
X465760Y443500D02*
X480840Y443500D01*
X480840Y418100D02*
X465760Y418100D01*
X465760Y392700D02*
X480840Y392700D01*
X480840Y367300D02*
X465760Y367300D01*
X643560Y849900D02*
X658640Y849900D01*
X658640Y824500D02*
X643560Y824500D01*
X643560Y799100D02*
X658640Y799100D01*
X658640Y773700D02*
X643560Y773700D01*
X643560Y748300D02*
X658640Y748300D01*
X658640Y722900D02*
X643560Y722900D01*
X643560Y697500D02*
X658640Y697500D01*
X658640Y672100D02*
X643560Y672100D01*
X643560Y646700D02*
X658640Y646700D01*
X658640Y621300D02*
X643560Y621300D01*
X643560Y595900D02*
X658640Y595900D01*
X658640Y570500D02*
X643560Y570500D01*
X643560Y545100D02*
X658640Y545100D01*
X658640Y519700D02*
X643560Y519700D01*
X643560Y494300D02*
X658640Y494300D01*
X658640Y468900D02*
X643560Y468900D01*
X643560Y443500D02*
X658640Y443500D01*
X658640Y418100D02*
X643560Y418100D01*
X643560Y392700D02*
X658640Y392700D01*
X658640Y367300D02*
X643560Y367300D01*
X403780Y647700D02*
X388700Y647700D01*
X388700Y673100D02*
X403780Y673100D01*
X403780Y698500D02*
X388700Y698500D01*
D12*
X156540Y673100D02*
X156570Y675554D01*
X156660Y678007D01*
X156811Y680456D01*
X157022Y682902D01*
X157292Y685341D01*
X157622Y687773D01*
X158012Y690196D01*
X158461Y692609D01*
X158970Y695010D01*
X159537Y697398D01*
X160162Y699771D01*
X160846Y702128D01*
X161587Y704468D01*
X162386Y706789D01*
X163241Y709090D01*
X164152Y711368D01*
X165119Y713624D01*
X166141Y715856D01*
X167218Y718061D01*
X168348Y720240D01*
X169531Y722390D01*
X170767Y724510D01*
X172055Y726600D01*
X173393Y728657D01*
X174782Y730681D01*
X176219Y732670D01*
X177705Y734623D01*
X179239Y736539D01*
X180819Y738417D01*
X182445Y740256D01*
X184115Y742054D01*
X185829Y743811D01*
X187586Y745525D01*
X189384Y747195D01*
X191223Y748821D01*
X193101Y750401D01*
X195017Y751935D01*
X196970Y753421D01*
X198959Y754858D01*
X200983Y756247D01*
X203040Y757585D01*
X205130Y758873D01*
X207250Y760109D01*
X209400Y761292D01*
X211579Y762422D01*
X213784Y763499D01*
X216016Y764521D01*
X218272Y765488D01*
X220550Y766399D01*
X222851Y767254D01*
X225172Y768053D01*
X227512Y768794D01*
X229869Y769478D01*
X232242Y770103D01*
X234630Y770670D01*
X237031Y771179D01*
X239444Y771628D01*
X241867Y772018D01*
X244299Y772348D01*
X246738Y772618D01*
X249184Y772829D01*
X251633Y772980D01*
X254086Y773070D01*
X256540Y773100D01*
X258994Y773070D01*
X261447Y772980D01*
X263896Y772829D01*
X266342Y772618D01*
X268781Y772348D01*
X271213Y772018D01*
X273636Y771628D01*
X276049Y771179D01*
X278450Y770670D01*
X280838Y770103D01*
X283211Y769478D01*
X285568Y768794D01*
X287908Y768053D01*
X290229Y767254D01*
X292530Y766399D01*
X294808Y765488D01*
X297064Y764521D01*
X299296Y763499D01*
X301501Y762422D01*
X303680Y761292D01*
X305830Y760109D01*
X307950Y758873D01*
X310040Y757585D01*
X312097Y756247D01*
X314121Y754858D01*
X316110Y753421D01*
X318063Y751935D01*
X319979Y750401D01*
X321857Y748821D01*
X323696Y747195D01*
X325494Y745525D01*
X327251Y743811D01*
X328965Y742054D01*
X330635Y740256D01*
X332261Y738417D01*
X333841Y736539D01*
X335375Y734623D01*
X336861Y732670D01*
X338298Y730681D01*
X339687Y728657D01*
X341025Y726600D01*
X342313Y724510D01*
X343549Y722390D01*
X344732Y720240D01*
X345862Y718061D01*
X346939Y715856D01*
X347961Y713624D01*
X348928Y711368D01*
X349839Y709090D01*
X350694Y706789D01*
X351493Y704468D01*
X352234Y702128D01*
X352918Y699771D01*
X353543Y697398D01*
X354110Y695010D01*
X354619Y692609D01*
X355068Y690196D01*
X355458Y687773D01*
X355788Y685341D01*
X356058Y682902D01*
X356269Y680456D01*
X356420Y678007D01*
X356510Y675554D01*
X356540Y673100D01*
X356510Y670646D01*
X356420Y668193D01*
X356269Y665744D01*
X356058Y663298D01*
X355788Y660859D01*
X355458Y658427D01*
X355068Y656004D01*
X354619Y653591D01*
X354110Y651190D01*
X353543Y648802D01*
X352918Y646429D01*
X352234Y644072D01*
X351493Y641732D01*
X350694Y639411D01*
X349839Y637110D01*
X348928Y634832D01*
X347961Y632576D01*
X346939Y630344D01*
X345862Y628139D01*
X344732Y625960D01*
X343549Y623810D01*
X342313Y621690D01*
X341025Y619600D01*
X339687Y617543D01*
X338298Y615519D01*
X336861Y613530D01*
X335375Y611577D01*
X333841Y609661D01*
X332261Y607783D01*
X330635Y605944D01*
X328965Y604146D01*
X327251Y602389D01*
X325494Y600675D01*
X323696Y599005D01*
X321857Y597379D01*
X319979Y595799D01*
X318063Y594265D01*
X316110Y592779D01*
X314121Y591342D01*
X312097Y589953D01*
X310040Y588615D01*
X307950Y587327D01*
X305830Y586091D01*
X303680Y584908D01*
X301501Y583778D01*
X299296Y582701D01*
X297064Y581679D01*
X294808Y580712D01*
X292530Y579801D01*
X290229Y578946D01*
X287908Y578147D01*
X285568Y577406D01*
X283211Y576722D01*
X280838Y576097D01*
X278450Y575530D01*
X276049Y575021D01*
X273636Y574572D01*
X271213Y574182D01*
X268781Y573852D01*
X266342Y573582D01*
X263896Y573371D01*
X261447Y573220D01*
X258994Y573130D01*
X256540Y573100D01*
X254086Y573130D01*
X251633Y573220D01*
X249184Y573371D01*
X246738Y573582D01*
X244299Y573852D01*
X241867Y574182D01*
X239444Y574572D01*
X237031Y575021D01*
X234630Y575530D01*
X232242Y576097D01*
X229869Y576722D01*
X227512Y577406D01*
X225172Y578147D01*
X222851Y578946D01*
X220550Y579801D01*
X218272Y580712D01*
X216016Y581679D01*
X213784Y582701D01*
X211579Y583778D01*
X209400Y584908D01*
X207250Y586091D01*
X205130Y587327D01*
X203040Y588615D01*
X200983Y589953D01*
X198959Y591342D01*
X196970Y592779D01*
X195017Y594265D01*
X193101Y595799D01*
X191223Y597379D01*
X189384Y599005D01*
X187586Y600675D01*
X185829Y602389D01*
X184115Y604146D01*
X182445Y605944D01*
X180819Y607783D01*
X179239Y609661D01*
X177705Y611577D01*
X176219Y613530D01*
X174782Y615519D01*
X173393Y617543D01*
X172055Y619600D01*
X170767Y621690D01*
X169531Y623810D01*
X168348Y625960D01*
X167218Y628139D01*
X166141Y630344D01*
X165119Y632576D01*
X164152Y634832D01*
X163241Y637110D01*
X162386Y639411D01*
X161587Y641732D01*
X160846Y644072D01*
X160162Y646429D01*
X159537Y648802D01*
X158970Y651190D01*
X158461Y653591D01*
X158012Y656004D01*
X157622Y658427D01*
X157292Y660859D01*
X157022Y663298D01*
X156811Y665744D01*
X156660Y668193D01*
X156570Y670646D01*
X156540Y673100D01*
X358140Y635000D02*
X383540Y635000D01*
X383540Y711200D01*
X358140Y711200D01*
X358140Y635000D01*
D13*
X738360Y651700D02*
X749440Y651700D01*
X749440Y626300D02*
X738360Y626300D01*
X738360Y600800D02*
X749440Y600800D01*
X749440Y575400D02*
X738360Y575400D01*
X738360Y550000D02*
X749440Y550000D01*
X749440Y524600D02*
X738360Y524600D01*
X738360Y499200D02*
X749440Y499200D01*
X749440Y473800D02*
X738360Y473800D01*
X738360Y448400D02*
X749440Y448400D01*
X749440Y423000D02*
X738360Y423000D01*
X738360Y397600D02*
X749440Y397600D01*
X749440Y372200D02*
X738360Y372200D01*
X738360Y346800D02*
X749440Y346800D01*
X749440Y321400D02*
X738360Y321400D01*
X1518360Y524700D02*
X1529440Y524700D01*
X1529440Y499300D02*
X1518360Y499300D01*
X1518360Y473900D02*
X1529440Y473900D01*
X1529440Y448500D02*
X1518360Y448500D01*
D14*
X349186Y793750D02*
X336106Y793750D01*
X337106Y850250D02*
X350186Y850250D01*
D15*
X513334Y519938D03*
X515747Y469519D03*
X515112Y493776D03*
X516636Y443992D03*
M02*
