G04 EAGLE Gerber RS-274X export*
G75*
%MOMM*%
%FSLAX34Y34*%
%LPD*%
%INSilkscreen Top*%
%IPPOS*%
%AMOC8*
5,1,8,0,0,1.08239X$1,22.5*%
G01*
%ADD10C,0.203200*%
%ADD11C,0.127000*%
%ADD12C,0.101600*%
%ADD13C,0.076200*%
%ADD14R,1.000000X2.600000*%


D10*
X393700Y844550D02*
X393700Y857250D01*
X400050Y863600D01*
X412750Y863600D02*
X419100Y857250D01*
X393700Y819150D02*
X400050Y812800D01*
X393700Y819150D02*
X393700Y831850D01*
X400050Y838200D01*
X412750Y838200D02*
X419100Y831850D01*
X419100Y819150D01*
X412750Y812800D01*
X400050Y838200D02*
X393700Y844550D01*
X412750Y838200D02*
X419100Y844550D01*
X419100Y857250D01*
X393700Y781050D02*
X393700Y768350D01*
X393700Y781050D02*
X400050Y787400D01*
X412750Y787400D02*
X419100Y781050D01*
X400050Y787400D02*
X393700Y793750D01*
X393700Y806450D01*
X400050Y812800D01*
X412750Y812800D02*
X419100Y806450D01*
X419100Y793750D01*
X412750Y787400D01*
X412750Y762000D02*
X400050Y762000D01*
X393700Y768350D01*
X412750Y762000D02*
X419100Y768350D01*
X419100Y781050D01*
X412750Y863600D02*
X400050Y863600D01*
D11*
X390723Y764244D02*
X386969Y764244D01*
X390723Y764243D02*
X390788Y764241D01*
X390852Y764235D01*
X390916Y764225D01*
X390980Y764212D01*
X391042Y764194D01*
X391103Y764173D01*
X391163Y764149D01*
X391221Y764120D01*
X391278Y764088D01*
X391332Y764053D01*
X391384Y764015D01*
X391434Y763973D01*
X391481Y763929D01*
X391525Y763882D01*
X391567Y763832D01*
X391605Y763780D01*
X391640Y763726D01*
X391672Y763669D01*
X391701Y763611D01*
X391725Y763551D01*
X391746Y763490D01*
X391764Y763428D01*
X391777Y763364D01*
X391787Y763300D01*
X391793Y763236D01*
X391795Y763171D01*
X391795Y762635D01*
X388041Y767192D02*
X386969Y768532D01*
X391795Y768532D01*
X391795Y767192D02*
X391795Y769873D01*
X457200Y863600D02*
X667200Y863600D01*
X667200Y353600D01*
X457200Y353600D01*
X457200Y863600D01*
X517200Y873600D02*
X607200Y873600D01*
X607200Y823600D01*
X517200Y823600D01*
X517200Y873600D01*
D12*
X527708Y845792D02*
X527708Y837354D01*
X527710Y837241D01*
X527716Y837128D01*
X527726Y837015D01*
X527740Y836902D01*
X527757Y836790D01*
X527779Y836679D01*
X527804Y836569D01*
X527834Y836459D01*
X527867Y836351D01*
X527904Y836244D01*
X527944Y836138D01*
X527989Y836034D01*
X528037Y835931D01*
X528088Y835830D01*
X528143Y835731D01*
X528201Y835634D01*
X528263Y835539D01*
X528328Y835446D01*
X528396Y835356D01*
X528467Y835268D01*
X528542Y835182D01*
X528619Y835099D01*
X528699Y835019D01*
X528782Y834942D01*
X528868Y834867D01*
X528956Y834796D01*
X529046Y834728D01*
X529139Y834663D01*
X529234Y834601D01*
X529331Y834543D01*
X529430Y834488D01*
X529531Y834437D01*
X529634Y834389D01*
X529738Y834344D01*
X529844Y834304D01*
X529951Y834267D01*
X530059Y834234D01*
X530169Y834204D01*
X530279Y834179D01*
X530390Y834157D01*
X530502Y834140D01*
X530615Y834126D01*
X530728Y834116D01*
X530841Y834110D01*
X530954Y834108D01*
X531067Y834110D01*
X531180Y834116D01*
X531293Y834126D01*
X531406Y834140D01*
X531518Y834157D01*
X531629Y834179D01*
X531739Y834204D01*
X531849Y834234D01*
X531957Y834267D01*
X532064Y834304D01*
X532170Y834344D01*
X532274Y834389D01*
X532377Y834437D01*
X532478Y834488D01*
X532577Y834543D01*
X532674Y834601D01*
X532769Y834663D01*
X532862Y834728D01*
X532952Y834796D01*
X533040Y834867D01*
X533126Y834942D01*
X533209Y835019D01*
X533289Y835099D01*
X533366Y835182D01*
X533441Y835268D01*
X533512Y835356D01*
X533580Y835446D01*
X533645Y835539D01*
X533707Y835634D01*
X533765Y835731D01*
X533820Y835830D01*
X533871Y835931D01*
X533919Y836034D01*
X533964Y836138D01*
X534004Y836244D01*
X534041Y836351D01*
X534074Y836459D01*
X534104Y836569D01*
X534129Y836679D01*
X534151Y836790D01*
X534168Y836902D01*
X534182Y837015D01*
X534192Y837128D01*
X534198Y837241D01*
X534200Y837354D01*
X534199Y837354D02*
X534199Y845792D01*
X545629Y836704D02*
X545627Y836605D01*
X545621Y836505D01*
X545612Y836406D01*
X545599Y836308D01*
X545582Y836210D01*
X545561Y836112D01*
X545536Y836016D01*
X545508Y835921D01*
X545476Y835827D01*
X545441Y835734D01*
X545402Y835642D01*
X545359Y835552D01*
X545314Y835464D01*
X545264Y835377D01*
X545212Y835293D01*
X545156Y835210D01*
X545098Y835130D01*
X545036Y835052D01*
X544971Y834977D01*
X544903Y834904D01*
X544833Y834834D01*
X544760Y834766D01*
X544685Y834701D01*
X544607Y834639D01*
X544527Y834581D01*
X544444Y834525D01*
X544360Y834473D01*
X544273Y834423D01*
X544185Y834378D01*
X544095Y834335D01*
X544003Y834296D01*
X543910Y834261D01*
X543816Y834229D01*
X543721Y834201D01*
X543625Y834176D01*
X543527Y834155D01*
X543429Y834138D01*
X543331Y834125D01*
X543232Y834116D01*
X543132Y834110D01*
X543033Y834108D01*
X542889Y834110D01*
X542744Y834116D01*
X542600Y834125D01*
X542457Y834138D01*
X542313Y834155D01*
X542170Y834176D01*
X542028Y834201D01*
X541887Y834229D01*
X541746Y834261D01*
X541606Y834297D01*
X541467Y834336D01*
X541329Y834379D01*
X541193Y834426D01*
X541057Y834476D01*
X540923Y834530D01*
X540791Y834587D01*
X540660Y834648D01*
X540531Y834712D01*
X540403Y834780D01*
X540277Y834850D01*
X540153Y834925D01*
X540032Y835002D01*
X539912Y835083D01*
X539794Y835166D01*
X539679Y835253D01*
X539566Y835343D01*
X539455Y835436D01*
X539347Y835531D01*
X539241Y835630D01*
X539138Y835731D01*
X539463Y843196D02*
X539465Y843295D01*
X539471Y843395D01*
X539480Y843494D01*
X539493Y843592D01*
X539510Y843690D01*
X539531Y843788D01*
X539556Y843884D01*
X539584Y843979D01*
X539616Y844073D01*
X539651Y844166D01*
X539690Y844258D01*
X539733Y844348D01*
X539778Y844436D01*
X539828Y844523D01*
X539880Y844607D01*
X539936Y844690D01*
X539994Y844770D01*
X540056Y844848D01*
X540121Y844923D01*
X540189Y844996D01*
X540259Y845066D01*
X540332Y845134D01*
X540407Y845199D01*
X540485Y845261D01*
X540565Y845319D01*
X540648Y845375D01*
X540732Y845427D01*
X540819Y845477D01*
X540907Y845522D01*
X540997Y845565D01*
X541089Y845604D01*
X541182Y845639D01*
X541276Y845671D01*
X541371Y845699D01*
X541468Y845724D01*
X541565Y845745D01*
X541663Y845762D01*
X541761Y845775D01*
X541860Y845784D01*
X541960Y845790D01*
X542059Y845792D01*
X542195Y845790D01*
X542331Y845784D01*
X542467Y845775D01*
X542603Y845762D01*
X542738Y845744D01*
X542872Y845724D01*
X543006Y845699D01*
X543140Y845671D01*
X543272Y845638D01*
X543403Y845603D01*
X543534Y845563D01*
X543663Y845520D01*
X543791Y845474D01*
X543917Y845423D01*
X544043Y845370D01*
X544166Y845312D01*
X544288Y845252D01*
X544408Y845188D01*
X544527Y845120D01*
X544643Y845050D01*
X544757Y844976D01*
X544870Y844899D01*
X544980Y844818D01*
X540760Y840924D02*
X540674Y840977D01*
X540590Y841034D01*
X540508Y841093D01*
X540428Y841156D01*
X540351Y841222D01*
X540276Y841290D01*
X540204Y841362D01*
X540135Y841436D01*
X540069Y841513D01*
X540006Y841592D01*
X539946Y841674D01*
X539889Y841758D01*
X539835Y841844D01*
X539785Y841932D01*
X539738Y842022D01*
X539694Y842113D01*
X539655Y842207D01*
X539618Y842301D01*
X539586Y842397D01*
X539557Y842495D01*
X539532Y842593D01*
X539511Y842692D01*
X539493Y842792D01*
X539480Y842892D01*
X539470Y842993D01*
X539464Y843095D01*
X539462Y843196D01*
X544331Y838976D02*
X544417Y838923D01*
X544501Y838866D01*
X544583Y838807D01*
X544663Y838744D01*
X544740Y838678D01*
X544815Y838610D01*
X544887Y838538D01*
X544956Y838464D01*
X545022Y838387D01*
X545085Y838308D01*
X545145Y838226D01*
X545202Y838142D01*
X545256Y838056D01*
X545306Y837968D01*
X545353Y837878D01*
X545397Y837787D01*
X545436Y837693D01*
X545473Y837599D01*
X545505Y837503D01*
X545534Y837405D01*
X545559Y837307D01*
X545580Y837208D01*
X545598Y837108D01*
X545611Y837008D01*
X545621Y836907D01*
X545627Y836805D01*
X545629Y836704D01*
X544331Y838976D02*
X540761Y840924D01*
X550737Y840599D02*
X553983Y840599D01*
X553983Y840600D02*
X554096Y840598D01*
X554209Y840592D01*
X554322Y840582D01*
X554435Y840568D01*
X554547Y840551D01*
X554658Y840529D01*
X554768Y840504D01*
X554878Y840474D01*
X554986Y840441D01*
X555093Y840404D01*
X555199Y840364D01*
X555303Y840319D01*
X555406Y840271D01*
X555507Y840220D01*
X555606Y840165D01*
X555703Y840107D01*
X555798Y840045D01*
X555891Y839980D01*
X555981Y839912D01*
X556069Y839841D01*
X556155Y839766D01*
X556238Y839689D01*
X556318Y839609D01*
X556395Y839526D01*
X556470Y839440D01*
X556541Y839352D01*
X556609Y839262D01*
X556674Y839169D01*
X556736Y839074D01*
X556794Y838977D01*
X556849Y838878D01*
X556900Y838777D01*
X556948Y838674D01*
X556993Y838570D01*
X557033Y838464D01*
X557070Y838357D01*
X557103Y838249D01*
X557133Y838139D01*
X557158Y838029D01*
X557180Y837918D01*
X557197Y837806D01*
X557211Y837693D01*
X557221Y837580D01*
X557227Y837467D01*
X557229Y837354D01*
X557227Y837241D01*
X557221Y837128D01*
X557211Y837015D01*
X557197Y836902D01*
X557180Y836790D01*
X557158Y836679D01*
X557133Y836569D01*
X557103Y836459D01*
X557070Y836351D01*
X557033Y836244D01*
X556993Y836138D01*
X556948Y836034D01*
X556900Y835931D01*
X556849Y835830D01*
X556794Y835731D01*
X556736Y835634D01*
X556674Y835539D01*
X556609Y835446D01*
X556541Y835356D01*
X556470Y835268D01*
X556395Y835182D01*
X556318Y835099D01*
X556238Y835019D01*
X556155Y834942D01*
X556069Y834867D01*
X555981Y834796D01*
X555891Y834728D01*
X555798Y834663D01*
X555703Y834601D01*
X555606Y834543D01*
X555507Y834488D01*
X555406Y834437D01*
X555303Y834389D01*
X555199Y834344D01*
X555093Y834304D01*
X554986Y834267D01*
X554878Y834234D01*
X554768Y834204D01*
X554658Y834179D01*
X554547Y834157D01*
X554435Y834140D01*
X554322Y834126D01*
X554209Y834116D01*
X554096Y834110D01*
X553983Y834108D01*
X550737Y834108D01*
X550737Y845792D01*
X553983Y845792D01*
X554084Y845790D01*
X554184Y845784D01*
X554284Y845774D01*
X554384Y845761D01*
X554483Y845743D01*
X554582Y845722D01*
X554679Y845697D01*
X554776Y845668D01*
X554871Y845635D01*
X554965Y845599D01*
X555057Y845559D01*
X555148Y845516D01*
X555237Y845469D01*
X555324Y845419D01*
X555410Y845365D01*
X555493Y845308D01*
X555573Y845248D01*
X555652Y845185D01*
X555728Y845118D01*
X555801Y845049D01*
X555871Y844977D01*
X555939Y844903D01*
X556004Y844826D01*
X556065Y844746D01*
X556124Y844664D01*
X556179Y844580D01*
X556231Y844494D01*
X556280Y844406D01*
X556325Y844316D01*
X556367Y844224D01*
X556405Y844131D01*
X556439Y844036D01*
X556470Y843941D01*
X556497Y843844D01*
X556520Y843746D01*
X556540Y843647D01*
X556555Y843547D01*
X556567Y843447D01*
X556575Y843347D01*
X556579Y843246D01*
X556579Y843146D01*
X556575Y843045D01*
X556567Y842945D01*
X556555Y842845D01*
X556540Y842745D01*
X556520Y842646D01*
X556497Y842548D01*
X556470Y842451D01*
X556439Y842356D01*
X556405Y842261D01*
X556367Y842168D01*
X556325Y842076D01*
X556280Y841986D01*
X556231Y841898D01*
X556179Y841812D01*
X556124Y841728D01*
X556065Y841646D01*
X556004Y841566D01*
X555939Y841489D01*
X555871Y841415D01*
X555801Y841343D01*
X555728Y841274D01*
X555652Y841207D01*
X555573Y841144D01*
X555493Y841084D01*
X555410Y841027D01*
X555324Y840973D01*
X555237Y840923D01*
X555148Y840876D01*
X555057Y840833D01*
X554965Y840793D01*
X554871Y840757D01*
X554776Y840724D01*
X554679Y840695D01*
X554582Y840670D01*
X554483Y840649D01*
X554384Y840631D01*
X554284Y840618D01*
X554184Y840608D01*
X554084Y840602D01*
X553983Y840600D01*
D13*
X723900Y736600D02*
X723900Y236600D01*
X1543900Y236600D01*
X1543900Y736600D01*
X723900Y736600D01*
X723800Y736600D01*
D11*
X353346Y802450D02*
X330946Y802450D01*
X330946Y841550D01*
X353346Y841550D01*
X353346Y802450D01*
X358246Y793750D02*
X325846Y793750D01*
X325846Y850850D01*
X358246Y850850D01*
X358246Y793750D01*
D14*
X342046Y822050D03*
M02*
