G04 EAGLE Gerber RS-274X export*
G75*
%MOMM*%
%FSLAX34Y34*%
%LPD*%
%INSoldermask Bottom*%
%IPPOS*%
%AMOC8*
5,1,8,0,0,1.08239X$1,22.5*%
G01*
%ADD10R,1.503200X1.803200*%
%ADD11R,1.803200X1.503200*%
%ADD12C,2.082800*%
%ADD13C,1.711200*%
%ADD14C,2.303200*%
%ADD15C,1.403200*%
%ADD16C,1.311200*%
%ADD17C,1.511200*%
%ADD18C,1.503200*%


D10*
X357480Y647700D03*
X338480Y647700D03*
X357480Y698500D03*
X338480Y698500D03*
D11*
X342900Y813460D03*
X342900Y832460D03*
D12*
X405130Y774700D03*
X407670Y800100D03*
X405130Y825500D03*
X407670Y850900D03*
D13*
X465760Y849900D02*
X480840Y849900D01*
X480840Y824500D02*
X465760Y824500D01*
X465760Y799100D02*
X480840Y799100D01*
X480840Y773700D02*
X465760Y773700D01*
X465760Y748300D02*
X480840Y748300D01*
X480840Y722900D02*
X465760Y722900D01*
X465760Y697500D02*
X480840Y697500D01*
X480840Y672100D02*
X465760Y672100D01*
X465760Y646700D02*
X480840Y646700D01*
X480840Y621300D02*
X465760Y621300D01*
X465760Y595900D02*
X480840Y595900D01*
X480840Y570500D02*
X465760Y570500D01*
X465760Y545100D02*
X480840Y545100D01*
X480840Y519700D02*
X465760Y519700D01*
X465760Y494300D02*
X480840Y494300D01*
X480840Y468900D02*
X465760Y468900D01*
X465760Y443500D02*
X480840Y443500D01*
X480840Y418100D02*
X465760Y418100D01*
X465760Y392700D02*
X480840Y392700D01*
X480840Y367300D02*
X465760Y367300D01*
X643560Y849900D02*
X658640Y849900D01*
X658640Y824500D02*
X643560Y824500D01*
X643560Y799100D02*
X658640Y799100D01*
X658640Y773700D02*
X643560Y773700D01*
X643560Y748300D02*
X658640Y748300D01*
X658640Y722900D02*
X643560Y722900D01*
X643560Y697500D02*
X658640Y697500D01*
X658640Y672100D02*
X643560Y672100D01*
X643560Y646700D02*
X658640Y646700D01*
X658640Y621300D02*
X643560Y621300D01*
X643560Y595900D02*
X658640Y595900D01*
X658640Y570500D02*
X643560Y570500D01*
X643560Y545100D02*
X658640Y545100D01*
X658640Y519700D02*
X643560Y519700D01*
X643560Y494300D02*
X658640Y494300D01*
X658640Y468900D02*
X643560Y468900D01*
X643560Y443500D02*
X658640Y443500D01*
X658640Y418100D02*
X643560Y418100D01*
X643560Y392700D02*
X658640Y392700D01*
X658640Y367300D02*
X643560Y367300D01*
X403780Y647700D02*
X388700Y647700D01*
X388700Y673100D02*
X403780Y673100D01*
X403780Y698500D02*
X388700Y698500D01*
D14*
X266240Y588100D03*
X266240Y758100D03*
D15*
X207240Y570850D03*
X207240Y775350D03*
D16*
X738360Y651700D02*
X749440Y651700D01*
X749440Y626300D02*
X738360Y626300D01*
X738360Y600800D02*
X749440Y600800D01*
X749440Y575400D02*
X738360Y575400D01*
X738360Y550000D02*
X749440Y550000D01*
X749440Y524600D02*
X738360Y524600D01*
X738360Y499200D02*
X749440Y499200D01*
X749440Y473800D02*
X738360Y473800D01*
X738360Y448400D02*
X749440Y448400D01*
X749440Y423000D02*
X738360Y423000D01*
X738360Y397600D02*
X749440Y397600D01*
X749440Y372200D02*
X738360Y372200D01*
X738360Y346800D02*
X749440Y346800D01*
X749440Y321400D02*
X738360Y321400D01*
X1518360Y524700D02*
X1529440Y524700D01*
X1529440Y499300D02*
X1518360Y499300D01*
X1518360Y473900D02*
X1529440Y473900D01*
X1529440Y448500D02*
X1518360Y448500D01*
D17*
X349186Y793750D02*
X336106Y793750D01*
X337106Y850250D02*
X350186Y850250D01*
D18*
X513334Y519938D03*
X515747Y469519D03*
X515112Y493776D03*
X516636Y443992D03*
M02*
