M48
;GenerationSoftware,Autodesk,EAGLE,9.6.2*%
;CreationDate,2025-08-15T16:54:56Z*%
FMAT,2
ICI,OFF
METRIC,TZ,000.000
T2C0.600
T1C1.000
%
G90
M71
T1
X74370Y70790
X74370Y68250
X74370Y65710
X74370Y63170
X74370Y60630
X74370Y58090
X74370Y55550
X56590Y47930
X74370Y53010
X74370Y50470
X74370Y47930
X74370Y42850
X74370Y40310
X74370Y37770
X74370Y35230
X74370Y32690
X74370Y30150
X74370Y27610
X56590Y75870
X56590Y73330
X56590Y70790
X56590Y68250
X56590Y65710
X56590Y63170
X56590Y60630
X56590Y58090
X56590Y55550
X56590Y53010
X56590Y50470
X74370Y45390
X56590Y45390
X56590Y42850
X56590Y40310
X56590Y37770
X56590Y35230
X56590Y32690
X56590Y30150
X56590Y27610
X74370Y75870
X74370Y73330
T2
X32480Y68830
X32480Y66290
X32480Y63740
X32480Y61200
X32480Y58660
X32480Y56120
X32480Y53580
X32480Y48500
X32480Y45960
X32480Y43420
X32480Y40880
X32480Y38340
X32480Y35800
X110480Y56130
X110480Y53590
X110480Y51050
X110480Y48510
X32480Y51040
M30