M48
;GenerationSoftware,Autodesk,EAGLE,9.6.2*%
;CreationDate,2025-08-24T01:49:10Z*%
FMAT,2
ICI,OFF
METRIC,TZ,000.000
T7C0.350
T6C0.600
T5C0.800
T4C1.000
T3C1.016
T2C1.200
T1C2.100
%
G90
M71
T1
X26624Y58810
X26624Y75810
T2
X20724Y57085
X20724Y77535
T3
X40767Y80010
X40513Y77470
X40767Y85090
X40513Y82550
T4
X65110Y36730
X39624Y64770
X39624Y67310
X47330Y69750
X47330Y84990
X47330Y82450
X47330Y79910
X47330Y77370
X47330Y74830
X47330Y72290
X39624Y69850
X47330Y67210
X47330Y64670
X47330Y62130
X47330Y59590
X47330Y57050
X47330Y54510
X47330Y51970
X47330Y49430
X47330Y46890
X47330Y44350
X47330Y41810
X47330Y39270
X47330Y36730
X65110Y84990
X65110Y82450
X65110Y79910
X65110Y77370
X65110Y74830
X65110Y72290
X65110Y69750
X65110Y67210
X65110Y64670
X65110Y62130
X65110Y59590
X65110Y57050
X65110Y54510
X65110Y51970
X65110Y49430
X65110Y46890
X65110Y44350
X65110Y41810
X65110Y39270
T5
X34365Y85025
X34265Y79375
T6
X74390Y65170
X74390Y60080
X74390Y57540
X74390Y55000
X74390Y52460
X74390Y49920
X74390Y47380
X74390Y44840
X74390Y42300
X74390Y62630
X74390Y37220
X74390Y34680
X74390Y32140
X152390Y52470
X152390Y49930
X152390Y47390
X152390Y44850
X74390Y39760
T7
X51575Y46952
X51511Y49378
X51664Y44399
X51333Y51994
M30